<svg xmlns="http://www.w3.org/2000/svg" xmlns:xlink="http://www.w3.org/1999/xlink" width="396" zoomAndPan="magnify" viewBox="0 0 297 86.999996" height="116" preserveAspectRatio="xMidYMid meet" version="1.0"><defs><g/><clipPath id="9310cf7105"><path d="M 27.234375 5.0625 L 55.734375 5.0625 L 55.734375 81 L 27.234375 81 Z M 27.234375 5.0625 " clip-rule="nonzero"/></clipPath><clipPath id="cdb42bc08f"><path d="M 241.53125 5.0625 L 269.761719 5.0625 L 269.761719 81 L 241.53125 81 Z M 241.53125 5.0625 " clip-rule="nonzero"/></clipPath></defs><g fill="#38b6ff" fill-opacity="1"><g transform="translate(47.464539, 57.749996)"><g><path d="M 15.890625 -31.390625 C 18.035156 -31.390625 19.847656 -31.113281 21.328125 -30.5625 C 22.816406 -30.007812 24.195312 -29.210938 25.46875 -28.171875 L 22.34375 -24.421875 C 21.445312 -25.148438 20.476562 -25.707031 19.4375 -26.09375 C 18.40625 -26.488281 17.289062 -26.6875 16.09375 -26.6875 C 14.707031 -26.6875 13.421875 -26.304688 12.234375 -25.546875 C 11.046875 -24.796875 10.097656 -23.59375 9.390625 -21.9375 C 8.691406 -20.289062 8.34375 -18.113281 8.34375 -15.40625 C 8.34375 -12.757812 8.679688 -10.613281 9.359375 -8.96875 C 10.046875 -7.320312 10.976562 -6.117188 12.15625 -5.359375 C 13.332031 -4.597656 14.675781 -4.21875 16.1875 -4.21875 C 17.769531 -4.21875 19.085938 -4.5 20.140625 -5.0625 C 21.191406 -5.625 22.140625 -6.238281 22.984375 -6.90625 L 25.859375 -3.21875 C 24.785156 -2.15625 23.429688 -1.238281 21.796875 -0.46875 C 20.171875 0.300781 18.195312 0.6875 15.875 0.6875 C 13.195312 0.6875 10.800781 0.0703125 8.6875 -1.15625 C 6.582031 -2.382812 4.925781 -4.191406 3.71875 -6.578125 C 2.507812 -8.972656 1.90625 -11.914062 1.90625 -15.40625 C 1.90625 -18.84375 2.523438 -21.75 3.765625 -24.125 C 5.015625 -26.5 6.695312 -28.300781 8.8125 -29.53125 C 10.925781 -30.769531 13.285156 -31.390625 15.890625 -31.390625 Z M 15.890625 -31.390625 "/></g></g></g><g fill="#38b6ff" fill-opacity="1"><g transform="translate(69.392333, 57.749996)"><g><path d="M 13.34375 -24.203125 C 15.695312 -24.203125 17.691406 -23.691406 19.328125 -22.671875 C 20.960938 -21.648438 22.203125 -20.207031 23.046875 -18.34375 C 23.898438 -16.488281 24.328125 -14.3125 24.328125 -11.8125 C 24.328125 -9.269531 23.894531 -7.0625 23.03125 -5.1875 C 22.164062 -3.3125 20.914062 -1.863281 19.28125 -0.84375 C 17.644531 0.175781 15.660156 0.6875 13.328125 0.6875 C 10.984375 0.6875 8.988281 0.1875 7.34375 -0.8125 C 5.707031 -1.8125 4.457031 -3.242188 3.59375 -5.109375 C 2.738281 -6.972656 2.3125 -9.191406 2.3125 -11.765625 C 2.3125 -14.234375 2.742188 -16.398438 3.609375 -18.265625 C 4.472656 -20.140625 5.726562 -21.597656 7.375 -22.640625 C 9.019531 -23.679688 11.007812 -24.203125 13.34375 -24.203125 Z M 13.34375 -19.6875 C 11.726562 -19.6875 10.519531 -19.050781 9.71875 -17.78125 C 8.925781 -16.507812 8.53125 -14.503906 8.53125 -11.765625 C 8.53125 -9.015625 8.925781 -7 9.71875 -5.71875 C 10.507812 -4.445312 11.710938 -3.8125 13.328125 -3.8125 C 14.929688 -3.8125 16.128906 -4.445312 16.921875 -5.71875 C 17.722656 -7 18.125 -9.03125 18.125 -11.8125 C 18.125 -14.53125 17.722656 -16.519531 16.921875 -17.78125 C 16.128906 -19.050781 14.9375 -19.6875 13.34375 -19.6875 Z M 13.34375 -19.6875 "/></g></g></g><g fill="#38b6ff" fill-opacity="1"><g transform="translate(91.320127, 57.749996)"><g><path d="M 17.125 -33.546875 L 23.109375 -32.90625 L 23.109375 0 L 17.8125 0 L 17.453125 -2.75 C 16.742188 -1.726562 15.835938 -0.898438 14.734375 -0.265625 C 13.640625 0.367188 12.363281 0.6875 10.90625 0.6875 C 8.914062 0.6875 7.273438 0.164062 5.984375 -0.875 C 4.703125 -1.914062 3.742188 -3.375 3.109375 -5.25 C 2.472656 -7.125 2.15625 -9.304688 2.15625 -11.796875 C 2.15625 -14.191406 2.523438 -16.320312 3.265625 -18.1875 C 4.015625 -20.0625 5.085938 -21.53125 6.484375 -22.59375 C 7.890625 -23.664062 9.554688 -24.203125 11.484375 -24.203125 C 12.617188 -24.203125 13.660156 -24 14.609375 -23.59375 C 15.554688 -23.195312 16.394531 -22.613281 17.125 -21.84375 Z M 13.078125 -19.734375 C 11.640625 -19.734375 10.503906 -19.097656 9.671875 -17.828125 C 8.835938 -16.566406 8.421875 -14.546875 8.421875 -11.765625 C 8.421875 -9.796875 8.59375 -8.226562 8.9375 -7.0625 C 9.28125 -5.90625 9.769531 -5.070312 10.40625 -4.5625 C 11.050781 -4.0625 11.804688 -3.8125 12.671875 -3.8125 C 13.617188 -3.8125 14.457031 -4.097656 15.1875 -4.671875 C 15.925781 -5.242188 16.570312 -5.96875 17.125 -6.84375 L 17.125 -17.46875 C 16.582031 -18.1875 15.984375 -18.742188 15.328125 -19.140625 C 14.671875 -19.535156 13.921875 -19.734375 13.078125 -19.734375 Z M 13.078125 -19.734375 "/></g></g></g><g fill="#38b6ff" fill-opacity="1"><g transform="translate(113.247921, 57.749996)"><g><path d="M 8.640625 -9.953125 C 8.773438 -8.492188 9.113281 -7.3125 9.65625 -6.40625 C 10.207031 -5.507812 10.914062 -4.851562 11.78125 -4.4375 C 12.644531 -4.019531 13.601562 -3.8125 14.65625 -3.8125 C 15.78125 -3.8125 16.835938 -3.988281 17.828125 -4.34375 C 18.816406 -4.707031 19.796875 -5.195312 20.765625 -5.8125 L 23.25 -2.421875 C 22.15625 -1.503906 20.84375 -0.753906 19.3125 -0.171875 C 17.789062 0.398438 16.113281 0.6875 14.28125 0.6875 C 11.695312 0.6875 9.53125 0.160156 7.78125 -0.890625 C 6.039062 -1.953125 4.722656 -3.414062 3.828125 -5.28125 C 2.929688 -7.144531 2.484375 -9.300781 2.484375 -11.75 C 2.484375 -14.070312 2.921875 -16.175781 3.796875 -18.0625 C 4.671875 -19.945312 5.9375 -21.441406 7.59375 -22.546875 C 9.25 -23.648438 11.25 -24.203125 13.59375 -24.203125 C 15.75 -24.203125 17.617188 -23.726562 19.203125 -22.78125 C 20.785156 -21.832031 22.003906 -20.46875 22.859375 -18.6875 C 23.722656 -16.914062 24.15625 -14.785156 24.15625 -12.296875 C 24.15625 -11.898438 24.144531 -11.488281 24.125 -11.0625 C 24.113281 -10.644531 24.085938 -10.273438 24.046875 -9.953125 Z M 13.609375 -20 C 12.203125 -20 11.050781 -19.492188 10.15625 -18.484375 C 9.257812 -17.484375 8.734375 -15.90625 8.578125 -13.75 L 18.34375 -13.75 C 18.3125 -15.695312 17.90625 -17.222656 17.125 -18.328125 C 16.351562 -19.441406 15.179688 -20 13.609375 -20 Z M 13.609375 -20 "/></g></g></g><g fill="#38b6ff" fill-opacity="1"><g transform="translate(135.175714, 57.749996)"><g><path d="M 17.125 -33.546875 L 23.109375 -32.90625 L 23.109375 0 L 17.8125 0 L 17.453125 -2.75 C 16.742188 -1.726562 15.835938 -0.898438 14.734375 -0.265625 C 13.640625 0.367188 12.363281 0.6875 10.90625 0.6875 C 8.914062 0.6875 7.273438 0.164062 5.984375 -0.875 C 4.703125 -1.914062 3.742188 -3.375 3.109375 -5.25 C 2.472656 -7.125 2.15625 -9.304688 2.15625 -11.796875 C 2.15625 -14.191406 2.523438 -16.320312 3.265625 -18.1875 C 4.015625 -20.0625 5.085938 -21.53125 6.484375 -22.59375 C 7.890625 -23.664062 9.554688 -24.203125 11.484375 -24.203125 C 12.617188 -24.203125 13.660156 -24 14.609375 -23.59375 C 15.554688 -23.195312 16.394531 -22.613281 17.125 -21.84375 Z M 13.078125 -19.734375 C 11.640625 -19.734375 10.503906 -19.097656 9.671875 -17.828125 C 8.835938 -16.566406 8.421875 -14.546875 8.421875 -11.765625 C 8.421875 -9.796875 8.59375 -8.226562 8.9375 -7.0625 C 9.28125 -5.90625 9.769531 -5.070312 10.40625 -4.5625 C 11.050781 -4.0625 11.804688 -3.8125 12.671875 -3.8125 C 13.617188 -3.8125 14.457031 -4.097656 15.1875 -4.671875 C 15.925781 -5.242188 16.570312 -5.96875 17.125 -6.84375 L 17.125 -17.46875 C 16.582031 -18.1875 15.984375 -18.742188 15.328125 -19.140625 C 14.671875 -19.535156 13.921875 -19.734375 13.078125 -19.734375 Z M 13.078125 -19.734375 "/></g></g></g><g fill="#050a30" fill-opacity="1"><g transform="translate(157.105158, 57.749996)"><g><path d="M 26.671875 -30.703125 L 22.734375 0 L 15.96875 0 L 13.328125 -22.34375 L 10.53125 0 L 3.59375 0 L -0.015625 -30.703125 L 5.859375 -30.703125 L 7.59375 -5.59375 L 10.5 -27.15625 L 16.296875 -27.15625 L 19 -5.59375 L 21.203125 -30.703125 Z M 26.671875 -30.703125 "/></g></g></g><g fill="#050a30" fill-opacity="1"><g transform="translate(179.032952, 57.749996)"><g><path d="M 8.640625 -9.953125 C 8.773438 -8.492188 9.113281 -7.3125 9.65625 -6.40625 C 10.207031 -5.507812 10.914062 -4.851562 11.78125 -4.4375 C 12.644531 -4.019531 13.601562 -3.8125 14.65625 -3.8125 C 15.78125 -3.8125 16.835938 -3.988281 17.828125 -4.34375 C 18.816406 -4.707031 19.796875 -5.195312 20.765625 -5.8125 L 23.25 -2.421875 C 22.15625 -1.503906 20.84375 -0.753906 19.3125 -0.171875 C 17.789062 0.398438 16.113281 0.6875 14.28125 0.6875 C 11.695312 0.6875 9.53125 0.160156 7.78125 -0.890625 C 6.039062 -1.953125 4.722656 -3.414062 3.828125 -5.28125 C 2.929688 -7.144531 2.484375 -9.300781 2.484375 -11.75 C 2.484375 -14.070312 2.921875 -16.175781 3.796875 -18.0625 C 4.671875 -19.945312 5.9375 -21.441406 7.59375 -22.546875 C 9.25 -23.648438 11.25 -24.203125 13.59375 -24.203125 C 15.75 -24.203125 17.617188 -23.726562 19.203125 -22.78125 C 20.785156 -21.832031 22.003906 -20.46875 22.859375 -18.6875 C 23.722656 -16.914062 24.15625 -14.785156 24.15625 -12.296875 C 24.15625 -11.898438 24.144531 -11.488281 24.125 -11.0625 C 24.113281 -10.644531 24.085938 -10.273438 24.046875 -9.953125 Z M 13.609375 -20 C 12.203125 -20 11.050781 -19.492188 10.15625 -18.484375 C 9.257812 -17.484375 8.734375 -15.90625 8.578125 -13.75 L 18.34375 -13.75 C 18.3125 -15.695312 17.90625 -17.222656 17.125 -18.328125 C 16.351562 -19.441406 15.179688 -20 13.609375 -20 Z M 13.609375 -20 "/></g></g></g><g fill="#050a30" fill-opacity="1"><g transform="translate(200.960746, 57.749996)"><g><path d="M 9.53125 -20.921875 C 10.300781 -21.941406 11.222656 -22.742188 12.296875 -23.328125 C 13.367188 -23.910156 14.523438 -24.203125 15.765625 -24.203125 C 17.804688 -24.203125 19.46875 -23.691406 20.75 -22.671875 C 22.03125 -21.660156 22.972656 -20.226562 23.578125 -18.375 C 24.179688 -16.519531 24.484375 -14.332031 24.484375 -11.8125 C 24.484375 -9.394531 24.125 -7.242188 23.40625 -5.359375 C 22.695312 -3.484375 21.640625 -2.003906 20.234375 -0.921875 C 18.835938 0.148438 17.125 0.6875 15.09375 0.6875 C 12.550781 0.6875 10.554688 -0.28125 9.109375 -2.21875 L 8.84375 0 L 3.53125 0 L 3.53125 -32.90625 L 9.53125 -33.546875 Z M 13.5625 -3.78125 C 15.007812 -3.78125 16.148438 -4.40625 16.984375 -5.65625 C 17.816406 -6.914062 18.234375 -8.945312 18.234375 -11.75 C 18.234375 -13.726562 18.0625 -15.296875 17.71875 -16.453125 C 17.375 -17.617188 16.882812 -18.453125 16.25 -18.953125 C 15.613281 -19.460938 14.851562 -19.71875 13.96875 -19.71875 C 13.03125 -19.71875 12.191406 -19.425781 11.453125 -18.84375 C 10.710938 -18.257812 10.070312 -17.53125 9.53125 -16.65625 L 9.53125 -6.1875 C 10.03125 -5.4375 10.609375 -4.847656 11.265625 -4.421875 C 11.921875 -3.992188 12.6875 -3.78125 13.5625 -3.78125 Z M 13.5625 -3.78125 "/></g></g></g><g fill="#050a30" fill-opacity="1"><g transform="translate(222.88854, 57.749996)"><g><path d="M 12.515625 -3.734375 C 13.878906 -3.734375 14.96875 -3.960938 15.78125 -4.421875 C 16.59375 -4.890625 17 -5.554688 17 -6.421875 C 17 -6.984375 16.863281 -7.460938 16.59375 -7.859375 C 16.332031 -8.253906 15.796875 -8.625 14.984375 -8.96875 C 14.179688 -9.3125 12.988281 -9.695312 11.40625 -10.125 C 9.914062 -10.507812 8.601562 -10.988281 7.46875 -11.5625 C 6.332031 -12.144531 5.453125 -12.882812 4.828125 -13.78125 C 4.203125 -14.6875 3.890625 -15.828125 3.890625 -17.203125 C 3.890625 -18.578125 4.273438 -19.789062 5.046875 -20.84375 C 5.828125 -21.894531 6.945312 -22.71875 8.40625 -23.3125 C 9.875 -23.90625 11.640625 -24.203125 13.703125 -24.203125 C 15.742188 -24.203125 17.519531 -23.9375 19.03125 -23.40625 C 20.539062 -22.882812 21.832031 -22.222656 22.90625 -21.421875 L 20.5 -17.8125 C 19.550781 -18.414062 18.519531 -18.898438 17.40625 -19.265625 C 16.289062 -19.640625 15.109375 -19.828125 13.859375 -19.828125 C 12.492188 -19.828125 11.503906 -19.632812 10.890625 -19.25 C 10.273438 -18.863281 9.96875 -18.316406 9.96875 -17.609375 C 9.96875 -17.117188 10.125 -16.707031 10.4375 -16.375 C 10.75 -16.039062 11.320312 -15.707031 12.15625 -15.375 C 12.988281 -15.050781 14.175781 -14.675781 15.71875 -14.25 C 17.238281 -13.820312 18.566406 -13.328125 19.703125 -12.765625 C 20.847656 -12.203125 21.734375 -11.453125 22.359375 -10.515625 C 22.984375 -9.585938 23.296875 -8.367188 23.296875 -6.859375 C 23.296875 -5.160156 22.796875 -3.75 21.796875 -2.625 C 20.796875 -1.507812 19.476562 -0.675781 17.84375 -0.125 C 16.21875 0.414062 14.453125 0.6875 12.546875 0.6875 C 10.328125 0.6875 8.378906 0.363281 6.703125 -0.28125 C 5.035156 -0.925781 3.625 -1.75 2.46875 -2.75 L 5.578125 -6.234375 C 6.492188 -5.515625 7.535156 -4.914062 8.703125 -4.4375 C 9.867188 -3.96875 11.140625 -3.734375 12.515625 -3.734375 Z M 12.515625 -3.734375 "/></g></g></g><g clip-path="url(#9310cf7105)"><path fill="#050a30" d="M 54.644531 78.308594 C 51.097656 77.894531 47 79.265625 43.746094 77.332031 C 40.578125 75.453125 40.898438 71.007812 41.046875 67.875 C 41.375 60.792969 43.101562 52.316406 38.152344 46.285156 C 36.976562 44.859375 35.488281 43.695312 33.820312 42.96875 C 34.894531 42.410156 35.886719 41.679688 36.746094 40.835938 C 39.277344 38.359375 40.660156 35.023438 41.203125 31.589844 C 41.820312 27.714844 41.429688 23.816406 41.136719 19.933594 C 40.988281 17.933594 40.867188 15.925781 40.957031 13.921875 C 41.023438 12.472656 41.195312 10.738281 42.222656 9.609375 C 43.414062 8.292969 45.445312 7.964844 47.140625 7.925781 C 49.421875 7.875 51.675781 8.226562 53.957031 7.957031 C 54.855469 7.851562 55.617188 5.664062 54.367188 5.808594 C 50.792969 6.230469 47.113281 5.058594 43.695312 6.605469 C 40.410156 8.089844 39.359375 11.582031 39.207031 14.878906 C 39.027344 18.902344 39.675781 22.902344 39.777344 26.917969 C 39.871094 30.460938 39.554688 34.238281 37.683594 37.351562 C 35.878906 40.351562 32.398438 42.386719 28.816406 41.894531 C 28.042969 41.789062 27.230469 43.277344 27.609375 43.859375 C 27.628906 44.195312 27.816406 44.433594 28.257812 44.371094 C 31.492188 43.929688 34.652344 45.667969 36.644531 48.089844 C 38.949219 50.894531 39.714844 54.589844 39.835938 58.121094 C 39.976562 62.0625 39.355469 65.980469 39.257812 69.914062 C 39.175781 73.101562 39.230469 77.070312 42.128906 79.140625 C 45.515625 81.554688 49.996094 80.046875 53.808594 80.492188 C 54.742188 80.605469 55.722656 78.4375 54.644531 78.308594 Z M 54.644531 78.308594 " fill-opacity="1" fill-rule="nonzero"/></g><g fill="#050a30" fill-opacity="1"><g transform="translate(71.019013, 73.204996)"><g><path d="M 7 -12.1875 L 8.015625 -12.046875 L 8.015625 0 L 7.125 0 L 7 -1.1875 C 6.65625 -0.695312 6.269531 -0.347656 5.84375 -0.140625 C 5.425781 0.0546875 4.992188 0.15625 4.546875 0.15625 C 3.785156 0.15625 3.160156 -0.0234375 2.671875 -0.390625 C 2.191406 -0.765625 1.832031 -1.285156 1.59375 -1.953125 C 1.363281 -2.617188 1.25 -3.390625 1.25 -4.265625 C 1.25 -5.117188 1.378906 -5.878906 1.640625 -6.546875 C 1.910156 -7.222656 2.289062 -7.753906 2.78125 -8.140625 C 3.28125 -8.535156 3.882812 -8.734375 4.59375 -8.734375 C 5.113281 -8.734375 5.570312 -8.640625 5.96875 -8.453125 C 6.363281 -8.273438 6.707031 -8.007812 7 -7.65625 Z M 4.84375 -7.859375 C 4.050781 -7.859375 3.441406 -7.554688 3.015625 -6.953125 C 2.597656 -6.347656 2.390625 -5.453125 2.390625 -4.265625 C 2.390625 -3.515625 2.472656 -2.875 2.640625 -2.34375 C 2.816406 -1.8125 3.070312 -1.40625 3.40625 -1.125 C 3.75 -0.851562 4.171875 -0.71875 4.671875 -0.71875 C 5.222656 -0.71875 5.6875 -0.867188 6.0625 -1.171875 C 6.4375 -1.484375 6.75 -1.820312 7 -2.1875 L 7 -6.640625 C 6.75 -7.023438 6.4375 -7.320312 6.0625 -7.53125 C 5.6875 -7.75 5.28125 -7.859375 4.84375 -7.859375 Z M 4.84375 -7.859375 "/></g></g></g><g fill="#050a30" fill-opacity="1"><g transform="translate(79.083516, 73.204996)"><g><path d="M 1.875 0 L 1.875 -0.84375 L 3.265625 -0.84375 L 3.265625 -7.71875 L 1.875 -7.71875 L 1.875 -8.578125 L 4.046875 -8.578125 L 4.234375 -6.515625 C 4.566406 -7.210938 4.96875 -7.757812 5.4375 -8.15625 C 5.90625 -8.550781 6.539062 -8.75 7.34375 -8.75 C 7.570312 -8.75 7.773438 -8.726562 7.953125 -8.6875 C 8.128906 -8.65625 8.3125 -8.617188 8.5 -8.578125 L 8.21875 -7.609375 C 8.03125 -7.671875 7.863281 -7.710938 7.71875 -7.734375 C 7.570312 -7.753906 7.40625 -7.765625 7.21875 -7.765625 C 6.53125 -7.765625 5.941406 -7.53125 5.453125 -7.0625 C 4.972656 -6.59375 4.582031 -5.847656 4.28125 -4.828125 L 4.28125 -0.84375 L 6.046875 -0.84375 L 6.046875 0 Z M 7.40625 -5.875 L 7.40625 -7.546875 L 7.484375 -8.578125 L 8.5 -8.578125 L 8.390625 -5.875 Z M 7.40625 -5.875 "/></g></g></g><g fill="#050a30" fill-opacity="1"><g transform="translate(87.148019, 73.204996)"><g><path d="M 2.515625 -3.875 C 2.535156 -3.15625 2.664062 -2.566406 2.90625 -2.109375 C 3.15625 -1.648438 3.476562 -1.3125 3.875 -1.09375 C 4.269531 -0.875 4.703125 -0.765625 5.171875 -0.765625 C 5.617188 -0.765625 6.019531 -0.828125 6.375 -0.953125 C 6.726562 -1.085938 7.097656 -1.289062 7.484375 -1.5625 L 8.015625 -0.796875 C 7.609375 -0.492188 7.15625 -0.257812 6.65625 -0.09375 C 6.164062 0.0703125 5.679688 0.15625 5.203125 0.15625 C 4.421875 0.15625 3.742188 -0.0234375 3.171875 -0.390625 C 2.609375 -0.765625 2.175781 -1.285156 1.875 -1.953125 C 1.582031 -2.617188 1.4375 -3.394531 1.4375 -4.28125 C 1.4375 -5.144531 1.585938 -5.910156 1.890625 -6.578125 C 2.191406 -7.253906 2.613281 -7.78125 3.15625 -8.15625 C 3.695312 -8.539062 4.328125 -8.734375 5.046875 -8.734375 C 5.742188 -8.734375 6.335938 -8.5625 6.828125 -8.21875 C 7.328125 -7.882812 7.707031 -7.40625 7.96875 -6.78125 C 8.238281 -6.164062 8.375 -5.429688 8.375 -4.578125 C 8.375 -4.429688 8.367188 -4.300781 8.359375 -4.1875 C 8.359375 -4.070312 8.359375 -3.96875 8.359375 -3.875 Z M 5.078125 -7.78125 C 4.390625 -7.78125 3.804688 -7.535156 3.328125 -7.046875 C 2.859375 -6.554688 2.59375 -5.804688 2.53125 -4.796875 L 7.40625 -4.796875 C 7.382812 -5.796875 7.160156 -6.539062 6.734375 -7.03125 C 6.304688 -7.53125 5.753906 -7.78125 5.078125 -7.78125 Z M 5.078125 -7.78125 "/></g></g></g><g fill="#050a30" fill-opacity="1"><g transform="translate(95.212522, 73.204996)"><g><path d="M 7.609375 -1.6875 C 7.609375 -1.34375 7.664062 -1.085938 7.78125 -0.921875 C 7.90625 -0.765625 8.09375 -0.648438 8.34375 -0.578125 L 8.0625 0.171875 C 7.738281 0.117188 7.445312 0 7.1875 -0.1875 C 6.9375 -0.375 6.757812 -0.664062 6.65625 -1.0625 C 6.351562 -0.664062 5.976562 -0.363281 5.53125 -0.15625 C 5.082031 0.0507812 4.578125 0.15625 4.015625 0.15625 C 3.160156 0.15625 2.488281 -0.0820312 2 -0.5625 C 1.519531 -1.039062 1.28125 -1.675781 1.28125 -2.46875 C 1.28125 -3.34375 1.617188 -4.007812 2.296875 -4.46875 C 2.972656 -4.9375 3.957031 -5.171875 5.25 -5.171875 L 6.5625 -5.171875 L 6.5625 -6 C 6.5625 -6.664062 6.367188 -7.132812 5.984375 -7.40625 C 5.597656 -7.675781 5.070312 -7.8125 4.40625 -7.8125 C 4.113281 -7.8125 3.785156 -7.773438 3.421875 -7.703125 C 3.054688 -7.640625 2.65625 -7.53125 2.21875 -7.375 L 1.921875 -8.21875 C 2.429688 -8.40625 2.894531 -8.535156 3.3125 -8.609375 C 3.738281 -8.691406 4.15625 -8.734375 4.5625 -8.734375 C 5.5625 -8.734375 6.316406 -8.484375 6.828125 -7.984375 C 7.347656 -7.492188 7.609375 -6.84375 7.609375 -6.03125 Z M 4.203125 -0.640625 C 4.671875 -0.640625 5.109375 -0.753906 5.515625 -0.984375 C 5.921875 -1.210938 6.269531 -1.53125 6.5625 -1.9375 L 6.5625 -4.390625 L 5.140625 -4.390625 C 4.117188 -4.390625 3.40625 -4.210938 3 -3.859375 C 2.601562 -3.503906 2.40625 -3.03125 2.40625 -2.4375 C 2.40625 -1.84375 2.550781 -1.394531 2.84375 -1.09375 C 3.132812 -0.789062 3.585938 -0.640625 4.203125 -0.640625 Z M 4.203125 -0.640625 "/></g></g></g><g fill="#050a30" fill-opacity="1"><g transform="translate(103.277026, 73.204996)"><g><path d="M 7.234375 -8.734375 C 7.460938 -8.734375 7.703125 -8.675781 7.953125 -8.5625 C 8.203125 -8.457031 8.414062 -8.238281 8.59375 -7.90625 C 8.769531 -7.570312 8.859375 -7.066406 8.859375 -6.390625 L 8.859375 0 L 7.859375 0 L 7.859375 -6.203125 C 7.859375 -6.804688 7.820312 -7.242188 7.75 -7.515625 C 7.6875 -7.785156 7.484375 -7.921875 7.140625 -7.921875 C 6.835938 -7.921875 6.546875 -7.828125 6.265625 -7.640625 C 5.984375 -7.460938 5.710938 -7.171875 5.453125 -6.765625 L 5.453125 0 L 4.328125 0 L 4.328125 -6.203125 C 4.328125 -6.804688 4.289062 -7.242188 4.21875 -7.515625 C 4.15625 -7.785156 3.945312 -7.921875 3.59375 -7.921875 C 3.289062 -7.921875 3 -7.828125 2.71875 -7.640625 C 2.4375 -7.460938 2.171875 -7.171875 1.921875 -6.765625 L 1.921875 0 L 0.9375 0 L 0.9375 -8.578125 L 1.765625 -8.578125 L 1.828125 -7.53125 C 2.046875 -7.851562 2.300781 -8.132812 2.59375 -8.375 C 2.894531 -8.613281 3.269531 -8.734375 3.71875 -8.734375 C 4.039062 -8.734375 4.351562 -8.65625 4.65625 -8.5 C 4.96875 -8.34375 5.195312 -8.03125 5.34375 -7.5625 C 5.570312 -7.90625 5.828125 -8.1875 6.109375 -8.40625 C 6.398438 -8.625 6.773438 -8.734375 7.234375 -8.734375 Z M 7.234375 -8.734375 "/></g></g></g><g fill="#050a30" fill-opacity="1"><g transform="translate(111.34153, 73.204996)"><g/></g></g><g fill="#050a30" fill-opacity="1"><g transform="translate(119.406034, 73.204996)"><g><path d="M 5.46875 -0.765625 C 5.914062 -0.765625 6.332031 -0.832031 6.71875 -0.96875 C 7.113281 -1.113281 7.46875 -1.300781 7.78125 -1.53125 L 8.3125 -0.84375 C 7.9375 -0.53125 7.488281 -0.285156 6.96875 -0.109375 C 6.445312 0.0664062 5.957031 0.15625 5.5 0.15625 C 4.664062 0.15625 3.957031 -0.0195312 3.375 -0.375 C 2.800781 -0.738281 2.363281 -1.253906 2.0625 -1.921875 C 1.757812 -2.585938 1.609375 -3.363281 1.609375 -4.25 C 1.609375 -5.101562 1.757812 -5.863281 2.0625 -6.53125 C 2.363281 -7.207031 2.800781 -7.742188 3.375 -8.140625 C 3.957031 -8.535156 4.671875 -8.734375 5.515625 -8.734375 C 6.023438 -8.734375 6.515625 -8.648438 6.984375 -8.484375 C 7.460938 -8.316406 7.898438 -8.070312 8.296875 -7.75 L 7.75 -7.03125 C 7.363281 -7.289062 6.984375 -7.488281 6.609375 -7.625 C 6.234375 -7.757812 5.851562 -7.828125 5.46875 -7.828125 C 4.675781 -7.828125 4.019531 -7.523438 3.5 -6.921875 C 2.988281 -6.328125 2.734375 -5.4375 2.734375 -4.25 C 2.734375 -3.445312 2.847656 -2.789062 3.078125 -2.28125 C 3.316406 -1.769531 3.640625 -1.390625 4.046875 -1.140625 C 4.460938 -0.890625 4.9375 -0.765625 5.46875 -0.765625 Z M 5.46875 -0.765625 "/></g></g></g><g fill="#050a30" fill-opacity="1"><g transform="translate(127.470538, 73.204996)"><g><path d="M 4.921875 -8.734375 C 5.703125 -8.734375 6.351562 -8.550781 6.875 -8.1875 C 7.40625 -7.820312 7.796875 -7.304688 8.046875 -6.640625 C 8.304688 -5.972656 8.4375 -5.1875 8.4375 -4.28125 C 8.4375 -3.4375 8.300781 -2.675781 8.03125 -2 C 7.769531 -1.332031 7.375 -0.804688 6.84375 -0.421875 C 6.320312 -0.0351562 5.675781 0.15625 4.90625 0.15625 C 4.113281 0.15625 3.453125 -0.0234375 2.921875 -0.390625 C 2.398438 -0.765625 2.007812 -1.285156 1.75 -1.953125 C 1.488281 -2.617188 1.359375 -3.390625 1.359375 -4.265625 C 1.359375 -5.140625 1.488281 -5.910156 1.75 -6.578125 C 2.019531 -7.253906 2.421875 -7.78125 2.953125 -8.15625 C 3.484375 -8.539062 4.140625 -8.734375 4.921875 -8.734375 Z M 4.921875 -7.84375 C 4.117188 -7.84375 3.507812 -7.550781 3.09375 -6.96875 C 2.675781 -6.382812 2.46875 -5.484375 2.46875 -4.265625 C 2.46875 -3.078125 2.671875 -2.191406 3.078125 -1.609375 C 3.484375 -1.023438 4.09375 -0.734375 4.90625 -0.734375 C 5.707031 -0.734375 6.3125 -1.023438 6.71875 -1.609375 C 7.125 -2.191406 7.328125 -3.082031 7.328125 -4.28125 C 7.328125 -5.488281 7.125 -6.382812 6.71875 -6.96875 C 6.3125 -7.550781 5.710938 -7.84375 4.921875 -7.84375 Z M 4.921875 -7.84375 "/></g></g></g><g fill="#050a30" fill-opacity="1"><g transform="translate(135.535038, 73.204996)"><g><path d="M 7 -12.1875 L 8.015625 -12.046875 L 8.015625 0 L 7.125 0 L 7 -1.1875 C 6.65625 -0.695312 6.269531 -0.347656 5.84375 -0.140625 C 5.425781 0.0546875 4.992188 0.15625 4.546875 0.15625 C 3.785156 0.15625 3.160156 -0.0234375 2.671875 -0.390625 C 2.191406 -0.765625 1.832031 -1.285156 1.59375 -1.953125 C 1.363281 -2.617188 1.25 -3.390625 1.25 -4.265625 C 1.25 -5.117188 1.378906 -5.878906 1.640625 -6.546875 C 1.910156 -7.222656 2.289062 -7.753906 2.78125 -8.140625 C 3.28125 -8.535156 3.882812 -8.734375 4.59375 -8.734375 C 5.113281 -8.734375 5.570312 -8.640625 5.96875 -8.453125 C 6.363281 -8.273438 6.707031 -8.007812 7 -7.65625 Z M 4.84375 -7.859375 C 4.050781 -7.859375 3.441406 -7.554688 3.015625 -6.953125 C 2.597656 -6.347656 2.390625 -5.453125 2.390625 -4.265625 C 2.390625 -3.515625 2.472656 -2.875 2.640625 -2.34375 C 2.816406 -1.8125 3.070312 -1.40625 3.40625 -1.125 C 3.75 -0.851562 4.171875 -0.71875 4.671875 -0.71875 C 5.222656 -0.71875 5.6875 -0.867188 6.0625 -1.171875 C 6.4375 -1.484375 6.75 -1.820312 7 -2.1875 L 7 -6.640625 C 6.75 -7.023438 6.4375 -7.320312 6.0625 -7.53125 C 5.6875 -7.75 5.28125 -7.859375 4.84375 -7.859375 Z M 4.84375 -7.859375 "/></g></g></g><g fill="#050a30" fill-opacity="1"><g transform="translate(143.599539, 73.204996)"><g><path d="M 5.859375 -8.578125 L 5.859375 -0.875 L 8.359375 -0.875 L 8.359375 0 L 2.140625 0 L 2.140625 -0.875 L 4.84375 -0.875 L 4.84375 -7.6875 L 2.21875 -7.6875 L 2.21875 -8.578125 Z M 4.90625 -12.453125 C 5.164062 -12.453125 5.367188 -12.375 5.515625 -12.21875 C 5.671875 -12.0625 5.75 -11.867188 5.75 -11.640625 C 5.75 -11.398438 5.671875 -11.195312 5.515625 -11.03125 C 5.367188 -10.875 5.164062 -10.796875 4.90625 -10.796875 C 4.664062 -10.796875 4.46875 -10.875 4.3125 -11.03125 C 4.15625 -11.195312 4.078125 -11.398438 4.078125 -11.640625 C 4.078125 -11.867188 4.15625 -12.0625 4.3125 -12.21875 C 4.46875 -12.375 4.664062 -12.453125 4.90625 -12.453125 Z M 4.90625 -12.453125 "/></g></g></g><g fill="#050a30" fill-opacity="1"><g transform="translate(151.66404, 73.204996)"><g><path d="M 1.78125 0 L 1.78125 -8.578125 L 2.640625 -8.578125 L 2.71875 -7.328125 C 3.050781 -7.773438 3.492188 -8.117188 4.046875 -8.359375 C 4.597656 -8.609375 5.113281 -8.734375 5.59375 -8.734375 C 6.476562 -8.734375 7.101562 -8.507812 7.46875 -8.0625 C 7.84375 -7.613281 8.03125 -6.992188 8.03125 -6.203125 L 8.03125 0 L 7.015625 0 L 7.015625 -5.125 C 7.015625 -5.769531 6.976562 -6.296875 6.90625 -6.703125 C 6.84375 -7.117188 6.691406 -7.421875 6.453125 -7.609375 C 6.222656 -7.796875 5.859375 -7.890625 5.359375 -7.890625 C 4.972656 -7.890625 4.613281 -7.804688 4.28125 -7.640625 C 3.945312 -7.472656 3.648438 -7.265625 3.390625 -7.015625 C 3.140625 -6.773438 2.941406 -6.539062 2.796875 -6.3125 L 2.796875 0 Z M 1.78125 0 "/></g></g></g><g fill="#050a30" fill-opacity="1"><g transform="translate(159.72854, 73.204996)"><g><path d="M 8.5625 -9.34375 L 8.9375 -8.234375 C 8.550781 -8.128906 8.148438 -8.066406 7.734375 -8.046875 C 7.328125 -8.023438 6.890625 -8.015625 6.421875 -8.015625 C 6.898438 -7.785156 7.257812 -7.488281 7.5 -7.125 C 7.738281 -6.757812 7.859375 -6.34375 7.859375 -5.875 C 7.859375 -5.300781 7.734375 -4.789062 7.484375 -4.34375 C 7.242188 -3.90625 6.894531 -3.5625 6.4375 -3.3125 C 5.976562 -3.0625 5.421875 -2.9375 4.765625 -2.9375 C 4.441406 -2.9375 4.175781 -2.953125 3.96875 -2.984375 C 3.769531 -3.015625 3.578125 -3.0625 3.390625 -3.125 C 3.253906 -3.019531 3.132812 -2.882812 3.03125 -2.71875 C 2.9375 -2.550781 2.890625 -2.375 2.890625 -2.1875 C 2.890625 -1.96875 2.976562 -1.78125 3.15625 -1.625 C 3.332031 -1.476562 3.648438 -1.40625 4.109375 -1.40625 L 5.6875 -1.40625 C 6.238281 -1.40625 6.738281 -1.304688 7.1875 -1.109375 C 7.632812 -0.910156 7.988281 -0.640625 8.25 -0.296875 C 8.519531 0.046875 8.65625 0.429688 8.65625 0.859375 C 8.65625 1.691406 8.304688 2.320312 7.609375 2.75 C 6.910156 3.1875 5.941406 3.40625 4.703125 3.40625 C 3.847656 3.40625 3.164062 3.316406 2.65625 3.140625 C 2.15625 2.960938 1.789062 2.6875 1.5625 2.3125 C 1.34375 1.945312 1.234375 1.46875 1.234375 0.875 L 2.171875 0.875 C 2.171875 1.238281 2.238281 1.535156 2.375 1.765625 C 2.519531 2.003906 2.769531 2.179688 3.125 2.296875 C 3.488281 2.410156 4.003906 2.46875 4.671875 2.46875 C 5.328125 2.46875 5.867188 2.410156 6.296875 2.296875 C 6.734375 2.191406 7.0625 2.023438 7.28125 1.796875 C 7.5 1.566406 7.609375 1.28125 7.609375 0.9375 C 7.609375 0.476562 7.398438 0.140625 6.984375 -0.078125 C 6.566406 -0.304688 6.0625 -0.421875 5.46875 -0.421875 L 3.890625 -0.421875 C 3.203125 -0.421875 2.691406 -0.578125 2.359375 -0.890625 C 2.035156 -1.210938 1.875 -1.582031 1.875 -2 C 1.875 -2.257812 1.953125 -2.515625 2.109375 -2.765625 C 2.265625 -3.023438 2.5 -3.257812 2.8125 -3.46875 C 2.332031 -3.71875 1.972656 -4.03125 1.734375 -4.40625 C 1.503906 -4.789062 1.390625 -5.257812 1.390625 -5.8125 C 1.390625 -6.363281 1.53125 -6.859375 1.8125 -7.296875 C 2.09375 -7.742188 2.476562 -8.09375 2.96875 -8.34375 C 3.46875 -8.601562 4.039062 -8.734375 4.6875 -8.734375 C 5.4375 -8.742188 6.03125 -8.769531 6.46875 -8.8125 C 6.914062 -8.863281 7.289062 -8.929688 7.59375 -9.015625 C 7.90625 -9.109375 8.226562 -9.21875 8.5625 -9.34375 Z M 4.671875 -7.9375 C 3.898438 -7.9375 3.332031 -7.734375 2.96875 -7.328125 C 2.613281 -6.921875 2.4375 -6.40625 2.4375 -5.78125 C 2.4375 -5.175781 2.617188 -4.664062 2.984375 -4.25 C 3.347656 -3.84375 3.925781 -3.640625 4.71875 -3.640625 C 5.375 -3.640625 5.875 -3.828125 6.21875 -4.203125 C 6.570312 -4.585938 6.75 -5.117188 6.75 -5.796875 C 6.75 -6.492188 6.570312 -7.023438 6.21875 -7.390625 C 5.875 -7.753906 5.359375 -7.9375 4.671875 -7.9375 Z M 4.671875 -7.9375 "/></g></g></g><g fill="#050a30" fill-opacity="1"><g transform="translate(167.793041, 73.204996)"><g/></g></g><g fill="#050a30" fill-opacity="1"><g transform="translate(175.857542, 73.204996)"><g><path d="M 7.609375 -1.6875 C 7.609375 -1.34375 7.664062 -1.085938 7.78125 -0.921875 C 7.90625 -0.765625 8.09375 -0.648438 8.34375 -0.578125 L 8.0625 0.171875 C 7.738281 0.117188 7.445312 0 7.1875 -0.1875 C 6.9375 -0.375 6.757812 -0.664062 6.65625 -1.0625 C 6.351562 -0.664062 5.976562 -0.363281 5.53125 -0.15625 C 5.082031 0.0507812 4.578125 0.15625 4.015625 0.15625 C 3.160156 0.15625 2.488281 -0.0820312 2 -0.5625 C 1.519531 -1.039062 1.28125 -1.675781 1.28125 -2.46875 C 1.28125 -3.34375 1.617188 -4.007812 2.296875 -4.46875 C 2.972656 -4.9375 3.957031 -5.171875 5.25 -5.171875 L 6.5625 -5.171875 L 6.5625 -6 C 6.5625 -6.664062 6.367188 -7.132812 5.984375 -7.40625 C 5.597656 -7.675781 5.070312 -7.8125 4.40625 -7.8125 C 4.113281 -7.8125 3.785156 -7.773438 3.421875 -7.703125 C 3.054688 -7.640625 2.65625 -7.53125 2.21875 -7.375 L 1.921875 -8.21875 C 2.429688 -8.40625 2.894531 -8.535156 3.3125 -8.609375 C 3.738281 -8.691406 4.15625 -8.734375 4.5625 -8.734375 C 5.5625 -8.734375 6.316406 -8.484375 6.828125 -7.984375 C 7.347656 -7.492188 7.609375 -6.84375 7.609375 -6.03125 Z M 4.203125 -0.640625 C 4.671875 -0.640625 5.109375 -0.753906 5.515625 -0.984375 C 5.921875 -1.210938 6.269531 -1.53125 6.5625 -1.9375 L 6.5625 -4.390625 L 5.140625 -4.390625 C 4.117188 -4.390625 3.40625 -4.210938 3 -3.859375 C 2.601562 -3.503906 2.40625 -3.03125 2.40625 -2.4375 C 2.40625 -1.84375 2.550781 -1.394531 2.84375 -1.09375 C 3.132812 -0.789062 3.585938 -0.640625 4.203125 -0.640625 Z M 4.203125 -0.640625 "/></g></g></g><g fill="#050a30" fill-opacity="1"><g transform="translate(183.922049, 73.204996)"><g><path d="M 8.5625 -9.34375 L 8.9375 -8.234375 C 8.550781 -8.128906 8.148438 -8.066406 7.734375 -8.046875 C 7.328125 -8.023438 6.890625 -8.015625 6.421875 -8.015625 C 6.898438 -7.785156 7.257812 -7.488281 7.5 -7.125 C 7.738281 -6.757812 7.859375 -6.34375 7.859375 -5.875 C 7.859375 -5.300781 7.734375 -4.789062 7.484375 -4.34375 C 7.242188 -3.90625 6.894531 -3.5625 6.4375 -3.3125 C 5.976562 -3.0625 5.421875 -2.9375 4.765625 -2.9375 C 4.441406 -2.9375 4.175781 -2.953125 3.96875 -2.984375 C 3.769531 -3.015625 3.578125 -3.0625 3.390625 -3.125 C 3.253906 -3.019531 3.132812 -2.882812 3.03125 -2.71875 C 2.9375 -2.550781 2.890625 -2.375 2.890625 -2.1875 C 2.890625 -1.96875 2.976562 -1.78125 3.15625 -1.625 C 3.332031 -1.476562 3.648438 -1.40625 4.109375 -1.40625 L 5.6875 -1.40625 C 6.238281 -1.40625 6.738281 -1.304688 7.1875 -1.109375 C 7.632812 -0.910156 7.988281 -0.640625 8.25 -0.296875 C 8.519531 0.046875 8.65625 0.429688 8.65625 0.859375 C 8.65625 1.691406 8.304688 2.320312 7.609375 2.75 C 6.910156 3.1875 5.941406 3.40625 4.703125 3.40625 C 3.847656 3.40625 3.164062 3.316406 2.65625 3.140625 C 2.15625 2.960938 1.789062 2.6875 1.5625 2.3125 C 1.34375 1.945312 1.234375 1.46875 1.234375 0.875 L 2.171875 0.875 C 2.171875 1.238281 2.238281 1.535156 2.375 1.765625 C 2.519531 2.003906 2.769531 2.179688 3.125 2.296875 C 3.488281 2.410156 4.003906 2.46875 4.671875 2.46875 C 5.328125 2.46875 5.867188 2.410156 6.296875 2.296875 C 6.734375 2.191406 7.0625 2.023438 7.28125 1.796875 C 7.5 1.566406 7.609375 1.28125 7.609375 0.9375 C 7.609375 0.476562 7.398438 0.140625 6.984375 -0.078125 C 6.566406 -0.304688 6.0625 -0.421875 5.46875 -0.421875 L 3.890625 -0.421875 C 3.203125 -0.421875 2.691406 -0.578125 2.359375 -0.890625 C 2.035156 -1.210938 1.875 -1.582031 1.875 -2 C 1.875 -2.257812 1.953125 -2.515625 2.109375 -2.765625 C 2.265625 -3.023438 2.5 -3.257812 2.8125 -3.46875 C 2.332031 -3.71875 1.972656 -4.03125 1.734375 -4.40625 C 1.503906 -4.789062 1.390625 -5.257812 1.390625 -5.8125 C 1.390625 -6.363281 1.53125 -6.859375 1.8125 -7.296875 C 2.09375 -7.742188 2.476562 -8.09375 2.96875 -8.34375 C 3.46875 -8.601562 4.039062 -8.734375 4.6875 -8.734375 C 5.4375 -8.742188 6.03125 -8.769531 6.46875 -8.8125 C 6.914062 -8.863281 7.289062 -8.929688 7.59375 -9.015625 C 7.90625 -9.109375 8.226562 -9.21875 8.5625 -9.34375 Z M 4.671875 -7.9375 C 3.898438 -7.9375 3.332031 -7.734375 2.96875 -7.328125 C 2.613281 -6.921875 2.4375 -6.40625 2.4375 -5.78125 C 2.4375 -5.175781 2.617188 -4.664062 2.984375 -4.25 C 3.347656 -3.84375 3.925781 -3.640625 4.71875 -3.640625 C 5.375 -3.640625 5.875 -3.828125 6.21875 -4.203125 C 6.570312 -4.585938 6.75 -5.117188 6.75 -5.796875 C 6.75 -6.492188 6.570312 -7.023438 6.21875 -7.390625 C 5.875 -7.753906 5.359375 -7.9375 4.671875 -7.9375 Z M 4.671875 -7.9375 "/></g></g></g><g fill="#050a30" fill-opacity="1"><g transform="translate(191.986556, 73.204996)"><g><path d="M 2.515625 -3.875 C 2.535156 -3.15625 2.664062 -2.566406 2.90625 -2.109375 C 3.15625 -1.648438 3.476562 -1.3125 3.875 -1.09375 C 4.269531 -0.875 4.703125 -0.765625 5.171875 -0.765625 C 5.617188 -0.765625 6.019531 -0.828125 6.375 -0.953125 C 6.726562 -1.085938 7.097656 -1.289062 7.484375 -1.5625 L 8.015625 -0.796875 C 7.609375 -0.492188 7.15625 -0.257812 6.65625 -0.09375 C 6.164062 0.0703125 5.679688 0.15625 5.203125 0.15625 C 4.421875 0.15625 3.742188 -0.0234375 3.171875 -0.390625 C 2.609375 -0.765625 2.175781 -1.285156 1.875 -1.953125 C 1.582031 -2.617188 1.4375 -3.394531 1.4375 -4.28125 C 1.4375 -5.144531 1.585938 -5.910156 1.890625 -6.578125 C 2.191406 -7.253906 2.613281 -7.78125 3.15625 -8.15625 C 3.695312 -8.539062 4.328125 -8.734375 5.046875 -8.734375 C 5.742188 -8.734375 6.335938 -8.5625 6.828125 -8.21875 C 7.328125 -7.882812 7.707031 -7.40625 7.96875 -6.78125 C 8.238281 -6.164062 8.375 -5.429688 8.375 -4.578125 C 8.375 -4.429688 8.367188 -4.300781 8.359375 -4.1875 C 8.359375 -4.070312 8.359375 -3.96875 8.359375 -3.875 Z M 5.078125 -7.78125 C 4.390625 -7.78125 3.804688 -7.535156 3.328125 -7.046875 C 2.859375 -6.554688 2.59375 -5.804688 2.53125 -4.796875 L 7.40625 -4.796875 C 7.382812 -5.796875 7.160156 -6.539062 6.734375 -7.03125 C 6.304688 -7.53125 5.753906 -7.78125 5.078125 -7.78125 Z M 5.078125 -7.78125 "/></g></g></g><g fill="#050a30" fill-opacity="1"><g transform="translate(200.051064, 73.204996)"><g><path d="M 1.78125 0 L 1.78125 -8.578125 L 2.640625 -8.578125 L 2.71875 -7.328125 C 3.050781 -7.773438 3.492188 -8.117188 4.046875 -8.359375 C 4.597656 -8.609375 5.113281 -8.734375 5.59375 -8.734375 C 6.476562 -8.734375 7.101562 -8.507812 7.46875 -8.0625 C 7.84375 -7.613281 8.03125 -6.992188 8.03125 -6.203125 L 8.03125 0 L 7.015625 0 L 7.015625 -5.125 C 7.015625 -5.769531 6.976562 -6.296875 6.90625 -6.703125 C 6.84375 -7.117188 6.691406 -7.421875 6.453125 -7.609375 C 6.222656 -7.796875 5.859375 -7.890625 5.359375 -7.890625 C 4.972656 -7.890625 4.613281 -7.804688 4.28125 -7.640625 C 3.945312 -7.472656 3.648438 -7.265625 3.390625 -7.015625 C 3.140625 -6.773438 2.941406 -6.539062 2.796875 -6.3125 L 2.796875 0 Z M 1.78125 0 "/></g></g></g><g fill="#050a30" fill-opacity="1"><g transform="translate(208.115571, 73.204996)"><g><path d="M 5.46875 -0.765625 C 5.914062 -0.765625 6.332031 -0.832031 6.71875 -0.96875 C 7.113281 -1.113281 7.46875 -1.300781 7.78125 -1.53125 L 8.3125 -0.84375 C 7.9375 -0.53125 7.488281 -0.285156 6.96875 -0.109375 C 6.445312 0.0664062 5.957031 0.15625 5.5 0.15625 C 4.664062 0.15625 3.957031 -0.0195312 3.375 -0.375 C 2.800781 -0.738281 2.363281 -1.253906 2.0625 -1.921875 C 1.757812 -2.585938 1.609375 -3.363281 1.609375 -4.25 C 1.609375 -5.101562 1.757812 -5.863281 2.0625 -6.53125 C 2.363281 -7.207031 2.800781 -7.742188 3.375 -8.140625 C 3.957031 -8.535156 4.671875 -8.734375 5.515625 -8.734375 C 6.023438 -8.734375 6.515625 -8.648438 6.984375 -8.484375 C 7.460938 -8.316406 7.898438 -8.070312 8.296875 -7.75 L 7.75 -7.03125 C 7.363281 -7.289062 6.984375 -7.488281 6.609375 -7.625 C 6.234375 -7.757812 5.851562 -7.828125 5.46875 -7.828125 C 4.675781 -7.828125 4.019531 -7.523438 3.5 -6.921875 C 2.988281 -6.328125 2.734375 -5.4375 2.734375 -4.25 C 2.734375 -3.445312 2.847656 -2.789062 3.078125 -2.28125 C 3.316406 -1.769531 3.640625 -1.390625 4.046875 -1.140625 C 4.460938 -0.890625 4.9375 -0.765625 5.46875 -0.765625 Z M 5.46875 -0.765625 "/></g></g></g><g fill="#050a30" fill-opacity="1"><g transform="translate(216.180078, 73.204996)"><g><path d="M 8.625 -8.578125 L 5.5625 0.078125 C 5.382812 0.597656 5.15625 1.09375 4.875 1.5625 C 4.601562 2.039062 4.242188 2.445312 3.796875 2.78125 C 3.347656 3.113281 2.757812 3.320312 2.03125 3.40625 L 1.859375 2.515625 C 2.453125 2.410156 2.914062 2.25 3.25 2.03125 C 3.59375 1.8125 3.859375 1.53125 4.046875 1.1875 C 4.242188 0.851562 4.421875 0.457031 4.578125 0 L 4.25 0 L 1.171875 -8.578125 L 2.265625 -8.578125 L 4.96875 -0.859375 L 7.578125 -8.578125 Z M 8.625 -8.578125 "/></g></g></g><g clip-path="url(#cdb42bc08f)"><path fill="#050a30" d="M 242.351562 78.308594 C 245.898438 77.894531 249.996094 79.265625 253.25 77.332031 C 256.417969 75.453125 256.097656 71.007812 255.949219 67.875 C 255.621094 60.792969 253.894531 52.316406 258.84375 46.285156 C 260.019531 44.859375 261.507812 43.695312 263.175781 42.96875 C 262.101562 42.410156 261.109375 41.679688 260.25 40.835938 C 257.71875 38.359375 256.335938 35.023438 255.792969 31.589844 C 255.175781 27.714844 255.566406 23.816406 255.859375 19.933594 C 256.007812 17.933594 256.128906 15.925781 256.039062 13.921875 C 255.972656 12.472656 255.800781 10.738281 254.773438 9.609375 C 253.582031 8.292969 251.554688 7.964844 249.855469 7.925781 C 247.574219 7.875 245.320312 8.226562 243.039062 7.957031 C 242.140625 7.851562 241.378906 5.664062 242.628906 5.808594 C 246.203125 6.230469 249.882812 5.058594 253.300781 6.605469 C 256.585938 8.089844 257.636719 11.582031 257.789062 14.878906 C 257.96875 18.902344 257.320312 22.902344 257.21875 26.917969 C 257.125 30.460938 257.441406 34.238281 259.3125 37.351562 C 261.117188 40.351562 264.601562 42.386719 268.179688 41.894531 C 268.953125 41.789062 269.765625 43.277344 269.386719 43.859375 C 269.367188 44.195312 269.179688 44.433594 268.738281 44.371094 C 265.503906 43.929688 262.34375 45.667969 260.351562 48.089844 C 258.046875 50.894531 257.285156 54.589844 257.160156 58.121094 C 257.019531 62.0625 257.640625 65.980469 257.738281 69.914062 C 257.820312 73.101562 257.765625 77.070312 254.867188 79.140625 C 251.480469 81.554688 247 80.046875 243.1875 80.492188 C 242.253906 80.605469 241.273438 78.4375 242.351562 78.308594 Z M 242.351562 78.308594 " fill-opacity="1" fill-rule="nonzero"/></g></svg>