<svg width="22" height="22" viewBox="0 0 22 22" fill="none" xmlns="http://www.w3.org/2000/svg">
<path d="M7.94922 10.7251C8.65667 12.186 9.83802 13.3644 11.3008 14.0681C11.4087 14.1191 11.528 14.1413 11.6471 14.1322C11.7661 14.1232 11.8807 14.0833 11.9797 14.0165L14.1281 12.5813C14.223 12.517 14.3327 12.4777 14.4469 12.4672C14.5612 12.4566 14.6762 12.4752 14.7812 12.5212L18.8031 14.2485C18.9406 14.3057 19.0554 14.4065 19.13 14.5354C19.2045 14.6643 19.2346 14.8141 19.2156 14.9618C19.0882 15.9567 18.6025 16.8711 17.8496 17.5339C17.0967 18.1967 16.1281 18.5624 15.125 18.5626C12.0253 18.5626 9.05252 17.3312 6.86069 15.1394C4.66886 12.9476 3.4375 9.97481 3.4375 6.87509C3.43773 5.87202 3.80343 4.90341 4.46619 4.15049C5.12895 3.39757 6.04335 2.91194 7.03828 2.78446C7.18596 2.7655 7.33577 2.7956 7.46466 2.87013C7.59354 2.94467 7.69435 3.05951 7.75156 3.19696L9.47891 7.22743C9.52383 7.33086 9.54262 7.44374 9.53363 7.55614C9.52463 7.66854 9.48813 7.777 9.42734 7.87196L7.99219 10.0548C7.92829 10.1535 7.89079 10.267 7.88327 10.3843C7.87575 10.5017 7.89845 10.619 7.94922 10.7251V10.7251Z" stroke="white" stroke-opacity="0.75" stroke-width="1.5" stroke-linecap="round" stroke-linejoin="round"/>
</svg>
