<svg xmlns="http://www.w3.org/2000/svg" xmlns:xlink="http://www.w3.org/1999/xlink" width="1080" zoomAndPan="magnify" viewBox="0 0 810 809.999993" height="1080" preserveAspectRatio="xMidYMid meet" version="1.0"><defs><g/><clipPath id="53f35db2f8"><path d="M 325 454 L 483 454 L 483 531.992188 L 325 531.992188 Z M 325 454 " clip-rule="nonzero"/></clipPath><clipPath id="dc34fac17c"><path d="M 186 452 L 273 452 L 273 531.992188 L 186 531.992188 Z M 186 452 " clip-rule="nonzero"/></clipPath><clipPath id="a72c037f14"><path d="M 485 452 L 572 452 L 572 531.992188 L 485 531.992188 Z M 485 452 " clip-rule="nonzero"/></clipPath><clipPath id="799605eee3"><path d="M 569 452 L 629 452 L 629 531.992188 L 569 531.992188 Z M 569 452 " clip-rule="nonzero"/></clipPath><clipPath id="5597b3102b"><path d="M 118 450 L 191 450 L 191 531.992188 L 118 531.992188 Z M 118 450 " clip-rule="nonzero"/></clipPath><clipPath id="5b5ce3ed0f"><path d="M 239 442.742188 L 497 442.742188 L 497 458 L 239 458 Z M 239 442.742188 " clip-rule="nonzero"/></clipPath><clipPath id="2f03da7dfa"><path d="M 140 443 L 244 443 L 244 443.074219 L 140 443.074219 Z M 140 443 " clip-rule="nonzero"/></clipPath><clipPath id="823c6a398d"><path d="M 498 443 L 603 443 L 603 443.074219 L 498 443.074219 Z M 498 443 " clip-rule="nonzero"/></clipPath><clipPath id="d249222a63"><path d="M 600 443 L 671 443 L 671 443.074219 L 600 443.074219 Z M 600 443 " clip-rule="nonzero"/></clipPath><clipPath id="e3239242b2"><path d="M 204 259 L 512 259 L 512 443.074219 L 204 443.074219 Z M 204 259 " clip-rule="nonzero"/></clipPath></defs><path fill="#ffffff" d="M 140.746094 454.328125 C 140.164062 454.519531 139.492188 454.578125 138.660156 454.570312 C 139.21875 454.40625 139.9375 454.300781 140.746094 454.328125 " fill-opacity="1" fill-rule="nonzero"/><path fill="#ffffff" d="M 125.644531 454.636719 C 125.617188 454.722656 125.542969 454.75 125.359375 454.738281 C 125.332031 454.539062 125.449219 454.496094 125.644531 454.636719 " fill-opacity="1" fill-rule="nonzero"/><path fill="#ffffff" d="M 620.664062 462.390625 C 620.664062 459.261719 623.316406 456.726562 626.585938 456.726562 C 629.855469 456.726562 632.503906 459.261719 632.503906 462.390625 C 632.503906 465.519531 629.855469 468.054688 626.585938 468.054688 C 623.316406 468.054688 620.664062 465.519531 620.664062 462.390625 " fill-opacity="1" fill-rule="nonzero"/><g fill="#ffffff" fill-opacity="1"><g transform="translate(622.698295, 466.035925)"><g><path d="M 2.8125 -3.03125 L 2.8125 -0.53125 L 3.734375 -0.390625 L 3.734375 0 L 0.25 0 L 0.25 -0.390625 L 1.109375 -0.53125 L 1.109375 -6.625 L 0.1875 -6.765625 L 0.1875 -7.15625 L 3.625 -7.15625 C 4.6875 -7.15625 5.476562 -6.992188 6 -6.671875 C 6.519531 -6.347656 6.78125 -5.84375 6.78125 -5.15625 C 6.78125 -4.125 6.296875 -3.460938 5.328125 -3.171875 L 7.25 -0.53125 L 8.03125 -0.390625 L 8.03125 0 L 5.703125 0 L 3.703125 -3.03125 Z M 5.109375 -5.140625 C 5.109375 -5.671875 4.992188 -6.039062 4.765625 -6.25 C 4.546875 -6.457031 4.144531 -6.5625 3.5625 -6.5625 L 2.8125 -6.5625 L 2.8125 -3.609375 L 3.578125 -3.609375 C 4.128906 -3.609375 4.519531 -3.722656 4.75 -3.953125 C 4.988281 -4.179688 5.109375 -4.578125 5.109375 -5.140625 Z M 5.109375 -5.140625 "/></g></g></g><path stroke-linecap="butt" transform="matrix(0.30787, 0, 0, -0.30787, 626.614532, 462.904653)" fill="none" stroke-linejoin="miter" d="M -0.00406251 -0.00518818 C 0.389265 -0.132068 0.769904 -0.436579 1.137855 -0.906034 C 1.518494 -1.388177 2.152893 -2.441279 3.079114 -4.078027 C 4.906182 -7.326147 6.149603 -9.343535 6.822066 -10.142877 L 14.219153 -10.142877 L 14.219153 -8.214305 C 13.508627 -8.214305 12.848852 -7.99861 12.265206 -7.554531 C 11.668871 -7.110452 10.679209 -5.803591 9.283532 -3.646636 C 7.494528 -0.855282 6.174979 0.806842 5.324885 1.339737 C 8.509566 2.367462 10.095562 4.283346 10.095562 7.0747 C 10.095562 8.127801 9.829115 9.104775 9.283532 10.018309 C 8.750638 10.931843 8.014735 11.655057 7.063137 12.175264 C 6.124228 12.708159 5.17263 13.038046 4.195656 13.177614 C 3.23137 13.317181 1.696126 13.380621 -0.410078 13.380621 L -2.541657 13.367933 L -12.019571 13.342557 L -12.019571 11.426674 L -11.550116 11.426674 C -10.395511 11.426674 -9.634233 11.210978 -9.266281 10.792275 C -8.89833 10.373572 -8.708011 9.624982 -8.708011 8.546504 L -8.708011 -5.346824 C -8.708011 -6.399926 -8.885642 -7.135828 -9.240905 -7.567219 C -9.596169 -7.99861 -10.357447 -8.214305 -11.550116 -8.214305 L -12.019571 -8.214305 L -12.019571 -10.142877 L 0.719152 -10.142877 L 0.719152 -8.214305 L 0.300449 -8.214305 C -0.841469 -8.214305 -1.602747 -8.011298 -1.983386 -7.592595 C -2.351337 -7.161204 -2.541657 -6.412614 -2.541657 -5.346824 L -2.541657 0.210507 C -1.234796 0.197819 -0.384702 0.134379 -0.00406251 -0.00518818 Z M -2.541657 11.19829 C -2.14833 11.210978 -1.818442 11.210978 -1.577371 11.210978 C 0.338513 11.210978 1.696126 10.893779 2.470092 10.25938 C 3.256746 9.624982 3.650073 8.483064 3.650073 6.833628 C 3.650073 5.679023 3.447066 4.765489 3.053739 4.093026 C 2.660411 3.407876 2.127517 2.938421 1.442366 2.684662 C 0.757216 2.430902 -0.575021 2.304023 -2.541657 2.329398 Z M -2.541657 11.19829 " stroke="#ffffff" stroke-width="1" stroke-opacity="1" stroke-miterlimit="10"/><path fill="#ffffff" d="M 140.746094 454.328125 C 140.164062 454.519531 139.492188 454.578125 138.660156 454.570312 C 139.21875 454.40625 139.9375 454.300781 140.746094 454.328125 " fill-opacity="1" fill-rule="nonzero"/><path fill="#ffffff" d="M 125.644531 454.636719 C 125.617188 454.722656 125.542969 454.75 125.359375 454.738281 C 125.332031 454.539062 125.449219 454.496094 125.644531 454.636719 " fill-opacity="1" fill-rule="nonzero"/><path fill="#ffffff" d="M 122.496094 455.027344 C 122.496094 454.8125 122.699219 454.796875 122.820312 454.953125 C 125.382812 456.933594 126.804688 459.332031 127.058594 462.359375 C 127.199219 464.015625 127.335938 465.675781 127.335938 467.335938 C 127.359375 483.875 127.382812 500.414062 127.335938 516.953125 C 127.324219 521.945312 127.03125 526.917969 122.921875 530.640625 C 122.921875 530.640625 122.710938 530.648438 122.601562 530.640625 C 122.496094 505.503906 122.496094 480.371094 122.496094 455.027344 " fill-opacity="1" fill-rule="nonzero"/><g clip-path="url(#53f35db2f8)"><path fill="#ffffff" d="M 359.273438 496.917969 L 369.25 496.917969 C 366.535156 489.230469 363.945312 481.894531 361.183594 474.078125 C 358.476562 481.996094 355.964844 489.351562 353.382812 496.917969 Z M 461.046875 454.558594 C 462.746094 454.539062 464.457031 454.675781 466.375 454.800781 C 471.96875 454.785156 477.355469 454.785156 482.808594 454.785156 C 482.769531 454.867188 482.707031 455.160156 482.53125 455.347656 C 479.742188 458.324219 478.511719 461.933594 478.464844 465.898438 C 478.328125 478.378906 478.265625 490.859375 478.214844 503.339844 C 478.179688 512.117188 478.210938 520.894531 478.210938 529.667969 L 478.210938 533.273438 C 475.90625 532.730469 473.894531 532.429688 472 531.785156 C 463.070312 528.75 455.59375 523.835938 449.972656 516.050781 C 442.5625 505.789062 434.734375 495.828125 427.085938 485.738281 C 426.632812 485.140625 426.175781 484.550781 425.507812 483.683594 C 425.359375 484.339844 425.203125 484.714844 425.199219 485.09375 C 425.085938 495.605469 424.96875 506.121094 424.90625 516.636719 C 424.878906 521.558594 425.449219 526.320312 430.070312 530.296875 L 373.46875 530.296875 C 376.234375 528.210938 378.382812 525.707031 377.765625 521.984375 C 377.5 520.371094 376.878906 518.808594 376.371094 517.238281 C 375.886719 515.726562 375.339844 514.238281 374.816406 512.738281 C 373.007812 507.589844 373.007812 507.585938 367.402344 507.589844 C 362.140625 507.589844 356.882812 507.636719 351.621094 507.5625 C 350.421875 507.542969 349.832031 507.914062 349.480469 509.011719 C 348.398438 512.386719 347.289062 515.753906 346.132812 519.109375 C 344.699219 523.269531 344.398438 527.136719 348.679688 530.304688 L 325.972656 530.304688 C 325.984375 530.398438 325.898438 530.195312 325.960938 530.132812 C 330.417969 525.613281 332.484375 519.875 334.480469 514.054688 C 339.800781 498.566406 345.21875 483.109375 350.59375 467.636719 C 350.769531 467.136719 350.933594 466.636719 351.113281 466.136719 C 352.675781 461.839844 352.589844 457.953125 347.6875 454.910156 C 348.957031 454.84375 349.589844 454.789062 350.226562 454.777344 C 358.152344 454.65625 366.082031 454.601562 374.007812 454.375 C 375.777344 454.324219 376.4375 454.90625 377.023438 456.507812 C 383.773438 474.949219 390.609375 493.359375 397.445312 511.769531 C 399.761719 518 401.800781 524.394531 407.070312 529.003906 C 407.351562 529.25 407.628906 529.496094 408.035156 529.855469 C 411.046875 526.886719 412.480469 523.277344 412.5 519.269531 C 412.589844 502.25 412.5625 485.230469 412.519531 468.207031 C 412.507812 462.957031 409.78125 458.890625 406.113281 455.023438 C 406.726562 454.917969 407.121094 454.796875 407.511719 454.789062 C 414.296875 454.664062 421.082031 454.617188 427.859375 454.386719 C 429.609375 454.324219 430.625 454.921875 431.632812 456.25 C 442.503906 470.558594 453.425781 484.824219 464.34375 499.089844 C 464.828125 499.722656 465.433594 500.261719 466.191406 500.605469 C 466.449219 500.070312 466.542969 499.773438 466.542969 499.476562 C 466.550781 488.660156 466.558594 477.84375 466.523438 467.027344 C 466.523438 466.421875 466.148438 465.816406 465.945312 465.210938 C 465.515625 461.164062 463.699219 457.75 461.046875 454.558594 " fill-opacity="1" fill-rule="nonzero"/></g><g clip-path="url(#dc34fac17c)"><path fill="#ffffff" d="M 210.25 499.582031 C 211.539062 503.113281 212.488281 506.816406 214.195312 510.132812 C 218.242188 517.984375 225.484375 521.582031 233.527344 520.210938 C 241.371094 518.871094 247.941406 512.015625 249.269531 503.964844 C 250.558594 496.144531 250.074219 488.441406 247.6875 480.921875 C 245.910156 475.308594 243.261719 470.085938 238.015625 466.792969 C 228.164062 460.609375 215.617188 465.378906 211.234375 476.753906 C 208.382812 484.160156 208.355469 491.625 210.25 499.582031 M 258.414062 522.5 C 247.722656 530.871094 235.546875 533.015625 222.53125 531.753906 C 212.644531 530.796875 204.058594 526.96875 197.011719 519.910156 C 189.382812 512.265625 186.273438 502.851562 186.269531 492.335938 C 186.257812 479.113281 191.628906 468.449219 202.515625 460.742188 C 212.199219 453.890625 223.199219 451.917969 234.855469 452.78125 C 242.398438 453.339844 249.546875 455.175781 255.972656 459.308594 C 265.238281 465.273438 270.4375 473.835938 272.023438 484.554688 C 273.355469 493.554688 272.625 502.355469 268.378906 510.617188 C 265.992188 515.265625 262.621094 519.132812 258.414062 522.5 " fill-opacity="1" fill-rule="nonzero"/></g><g clip-path="url(#a72c037f14)"><path fill="#ffffff" d="M 528.203125 520.570312 C 538.171875 520.585938 546.394531 513.660156 548.027344 503.941406 C 549.351562 496.039062 548.820312 488.25 546.363281 480.65625 C 544.570312 475.117188 541.890625 470.007812 536.714844 466.742188 C 526.957031 460.585938 514.324219 465.324219 510.019531 476.890625 C 505.382812 489.347656 507.644531 501.183594 514.300781 512.261719 C 517.230469 517.140625 521.898438 520.03125 528.203125 520.570312 M 568.605469 476.148438 C 572.578125 488.214844 572.734375 499.964844 566.726562 511.257812 C 562.113281 519.929688 554.773438 525.769531 545.5625 528.984375 C 531.925781 533.742188 518.226562 533.773438 505.28125 526.902344 C 490.996094 519.320312 484.78125 506.882812 485.066406 490.996094 C 485.476562 468.417969 504.210938 454.527344 522.859375 452.917969 C 530.625 452.246094 538.253906 452.636719 545.652344 455.058594 C 556.425781 458.582031 564.234375 465.441406 568.605469 476.148438 " fill-opacity="1" fill-rule="nonzero"/></g><path fill="#ffffff" d="M 158.097656 479.855469 C 158.574219 477.527344 159.433594 475.203125 159.441406 472.871094 C 159.453125 469.113281 157.167969 466.246094 154.21875 465.441406 C 150.410156 464.40625 148.910156 465.5 148.910156 469.304688 L 148.910156 483.667969 C 153.011719 484.632812 155.4375 483.632812 158.097656 479.855469 M 149.050781 518.269531 C 154.335938 521.390625 160.746094 519.472656 163.183594 513.914062 C 165.050781 509.65625 165.101562 505.246094 163.59375 500.871094 C 162.507812 497.714844 160.183594 495.625 156.972656 494.871094 C 154.441406 494.277344 151.78125 494.21875 148.933594 493.898438 C 148.933594 502.199219 148.933594 510.039062 149.050781 518.269531 M 123.140625 530.644531 C 127.03125 526.917969 127.324219 521.945312 127.335938 516.953125 C 127.382812 500.414062 127.359375 483.875 127.335938 467.335938 C 127.335938 465.675781 127.199219 464.015625 127.058594 462.359375 C 126.804688 459.332031 125.382812 456.933594 122.921875 454.957031 C 123.554688 454.789062 124.207031 454.777344 125.164062 454.769531 C 125.542969 454.75 125.617188 454.722656 125.6875 454.699219 C 129.824219 454.675781 133.957031 454.652344 138.457031 454.632812 C 139.492188 454.578125 140.164062 454.519531 140.835938 454.460938 C 145.707031 454.449219 150.582031 454.382812 155.453125 454.4375 C 158.574219 454.472656 161.695312 454.640625 164.808594 454.832031 C 172.710938 455.320312 184.210938 465.300781 180.582031 476.929688 C 179.070312 481.78125 175.433594 484.621094 170.949219 486.597656 C 170.46875 486.808594 169.972656 486.980469 169.453125 487.183594 C 171.78125 488.140625 174.210938 488.785156 176.261719 490.042969 C 187.058594 496.667969 188.882812 512.144531 180.257812 522.152344 C 175.25 527.964844 168.8125 530.488281 161.304688 530.546875 C 148.65625 530.644531 136.003906 530.617188 123.140625 530.644531 " fill-opacity="1" fill-rule="nonzero"/><g clip-path="url(#799605eee3)"><path fill="#ffffff" d="M 621.109375 524.203125 C 615.652344 529.183594 609.1875 531.371094 602.105469 531.898438 C 592.820312 532.585938 583.707031 531.683594 574.9375 528.378906 C 574.328125 528.148438 573.558594 527.5625 573.417969 527.007812 C 572.164062 521.96875 571.03125 516.898438 569.757812 511.375 C 574.675781 515.050781 579.6875 517.511719 585.15625 519.015625 C 589.832031 520.304688 594.574219 520.824219 599.363281 519.730469 C 602.71875 518.964844 605.535156 517.429688 606.347656 513.738281 C 607.136719 510.160156 605.511719 507.332031 602.683594 505.570312 C 597.734375 502.492188 592.46875 499.917969 587.410156 497 C 584.136719 495.113281 580.554688 493.453125 577.875 490.902344 C 565.460938 479.097656 570.292969 459.738281 586.914062 454.578125 C 597.429688 451.3125 607.957031 452.125 618.296875 455.707031 C 618.753906 455.867188 619.390625 456.433594 619.398438 456.820312 C 619.476562 460.941406 619.449219 465.066406 619.449219 468.9375 C 615.582031 467.492188 611.917969 465.835938 608.09375 464.78125 C 604.714844 463.847656 601.15625 463.792969 597.765625 465.136719 C 592.132812 467.371094 591.167969 473.511719 596.019531 477.117188 C 598 478.585938 600.347656 479.621094 602.621094 480.648438 C 608.785156 483.429688 614.949219 486.085938 620.210938 490.542969 C 631.585938 500.179688 629.863281 516.464844 621.109375 524.203125 " fill-opacity="1" fill-rule="nonzero"/></g><path fill="#ffffff" d="M 324.769531 523.894531 C 324.132812 526.246094 323.527344 528.417969 322.941406 530.527344 L 272.378906 530.527344 C 276.496094 527.035156 277.050781 522.582031 277.054688 517.988281 C 277.082031 500.8125 277.097656 483.640625 277.039062 466.46875 C 277.027344 462.191406 276.554688 457.980469 272.738281 454.730469 L 302.820312 454.730469 C 298.121094 458.902344 298.636719 464.675781 298.628906 470.285156 C 298.601562 485.339844 298.652344 500.394531 298.574219 515.449219 C 298.566406 517.21875 299.160156 517.914062 300.800781 518.402344 C 308.550781 520.710938 318.003906 519.566406 327.214844 514.882812 C 326.355469 518.035156 325.578125 520.871094 324.769531 523.894531 " fill-opacity="1" fill-rule="nonzero"/><path fill="#ffffff" d="M 465.925781 465.425781 C 466.148438 465.816406 466.523438 466.421875 466.523438 467.027344 C 466.558594 477.84375 466.550781 488.660156 466.542969 499.476562 C 466.542969 499.773438 466.449219 500.070312 466.273438 500.503906 C 466.128906 490.855469 466.117188 481.070312 466.082031 471.285156 C 466.074219 469.402344 465.96875 467.523438 465.925781 465.425781 " fill-opacity="1" fill-rule="nonzero"/><path fill="#ffffff" d="M 122.496094 455.027344 C 122.496094 454.8125 122.699219 454.796875 122.820312 454.953125 C 125.382812 456.933594 126.804688 459.332031 127.058594 462.359375 C 127.199219 464.015625 127.335938 465.675781 127.335938 467.335938 C 127.359375 483.875 127.382812 500.414062 127.335938 516.953125 C 127.324219 521.945312 127.03125 526.917969 122.921875 530.640625 C 122.921875 530.640625 122.710938 530.648438 122.601562 530.640625 C 122.496094 505.503906 122.496094 480.371094 122.496094 455.027344 " fill-opacity="1" fill-rule="nonzero"/><path fill="#ffffff" d="M 158.097656 479.855469 C 158.574219 477.527344 159.433594 475.203125 159.441406 472.871094 C 159.453125 469.113281 157.167969 466.246094 154.21875 465.441406 C 150.410156 464.40625 148.910156 465.5 148.910156 469.304688 L 148.910156 483.667969 C 153.011719 484.632812 155.4375 483.632812 158.097656 479.855469 M 149.050781 518.269531 C 154.335938 521.390625 160.746094 519.472656 163.183594 513.914062 C 165.050781 509.65625 165.101562 505.246094 163.59375 500.871094 C 162.507812 497.714844 160.183594 495.625 156.972656 494.871094 C 154.441406 494.277344 151.78125 494.21875 148.933594 493.898438 C 148.933594 502.199219 148.933594 510.039062 149.050781 518.269531 M 123.140625 530.644531 C 127.03125 526.917969 127.324219 521.945312 127.335938 516.953125 C 127.382812 500.414062 127.359375 483.875 127.335938 467.335938 C 127.335938 465.675781 127.199219 464.015625 127.058594 462.359375 C 126.804688 459.332031 125.382812 456.933594 122.921875 454.957031 C 123.554688 454.789062 124.207031 454.777344 125.164062 454.769531 C 125.542969 454.75 125.617188 454.722656 125.6875 454.699219 C 129.824219 454.675781 133.957031 454.652344 138.457031 454.632812 C 139.492188 454.578125 140.164062 454.519531 140.835938 454.460938 C 145.707031 454.449219 150.582031 454.382812 155.453125 454.4375 C 158.574219 454.472656 161.695312 454.640625 164.808594 454.832031 C 172.710938 455.320312 184.210938 465.300781 180.582031 476.929688 C 179.070312 481.78125 175.433594 484.621094 170.949219 486.597656 C 170.46875 486.808594 169.972656 486.980469 169.453125 487.183594 C 171.78125 488.140625 174.210938 488.785156 176.261719 490.042969 C 187.058594 496.667969 188.882812 512.144531 180.257812 522.152344 C 175.25 527.964844 168.8125 530.488281 161.304688 530.546875 C 148.65625 530.644531 136.003906 530.617188 123.140625 530.644531 " fill-opacity="1" fill-rule="nonzero"/><g clip-path="url(#5597b3102b)"><path stroke-linecap="butt" transform="matrix(0.30787, 0, 0, -0.30787, 158.098692, 479.854772)" fill="none" stroke-linejoin="miter" d="M -0.00336537 -0.00226359 C 1.544567 7.559767 4.335921 15.10911 4.361297 22.683829 C 4.399361 34.889657 -3.023102 44.202628 -12.602521 46.81635 C -24.973292 50.178662 -29.845473 46.62603 -29.845473 34.267946 L -29.845473 -12.385723 C -16.523104 -15.519652 -8.643874 -12.271532 -0.00336537 -0.00226359 Z M -29.388706 -124.775771 C -12.221881 -134.91346 8.599079 -128.683666 16.516373 -110.628683 C 22.581223 -96.798795 22.746167 -82.474075 17.84861 -68.263548 C 14.321354 -58.011667 6.772011 -51.223603 -3.657501 -48.774824 C -11.879306 -46.846253 -20.519815 -46.655933 -29.769345 -45.61552 C -29.769345 -72.577458 -29.769345 -98.042216 -29.388706 -124.775771 Z M -113.548018 -164.971263 C -100.910799 -152.866939 -99.959201 -136.715152 -99.921137 -120.499925 C -99.768882 -66.779055 -99.84501 -13.058186 -99.921137 40.662684 C -99.921137 46.055071 -100.365216 51.447459 -100.821983 56.827159 C -101.646701 66.660336 -106.265123 74.450751 -114.258545 80.870864 C -112.203093 81.416447 -110.084202 81.454511 -106.975649 81.479887 C -105.744916 81.543326 -105.503845 81.632142 -105.275461 81.70827 C -91.8389 81.784398 -78.415026 81.860526 -63.798484 81.923966 C -60.436172 82.101597 -58.25384 82.291917 -56.071509 82.482236 C -40.24961 82.5203 -24.415022 82.735996 -8.593122 82.558364 C 1.544567 82.444172 11.682256 81.89859 21.794569 81.276879 C 47.462334 79.690883 84.815721 47.273117 73.028596 9.501027 C 68.118351 -6.257433 56.30585 -15.481588 41.740059 -21.901702 C 40.179439 -22.586852 38.568067 -23.145123 36.880566 -23.804897 C 44.442597 -26.91345 52.334515 -29.006965 58.9957 -33.092492 C 94.065252 -54.611291 99.990535 -104.881032 71.975494 -137.387614 C 55.709516 -156.267315 34.799739 -164.463744 10.413459 -164.654064 C -30.670191 -164.971263 -71.76653 -164.882447 -113.548018 -164.971263 Z M -113.548018 -164.971263 " stroke="#2c4964" stroke-width="1" stroke-opacity="1" stroke-miterlimit="10"/></g><path fill="#ffffff" d="M 465.925781 465.425781 C 466.148438 465.816406 466.523438 466.421875 466.523438 467.027344 C 466.558594 477.84375 466.550781 488.660156 466.542969 499.476562 C 466.542969 499.773438 466.449219 500.070312 466.273438 500.503906 C 466.128906 490.855469 466.117188 481.070312 466.082031 471.285156 C 466.074219 469.402344 465.96875 467.523438 465.925781 465.425781 " fill-opacity="1" fill-rule="nonzero"/><g clip-path="url(#5b5ce3ed0f)"><path fill="#ffffff" d="M 342.839844 440.453125 C 342.664062 441.199219 342.492188 441.945312 342.269531 442.914062 L 350.675781 442.914062 C 350.058594 437.507812 348.933594 436.5 344.011719 437.054688 C 343.679688 438.019531 343.335938 439.027344 342.839844 440.453125 M 465.894531 396.34375 L 457.121094 396.34375 C 457.328125 398.566406 457.507812 400.5 457.699219 402.515625 L 468.488281 402.515625 C 467.695312 400.300781 467.019531 398.425781 465.894531 396.34375 M 303.257812 442.941406 L 310.761719 442.941406 C 310.566406 438.078125 310.238281 437.746094 305.808594 437.757812 C 302.261719 437.769531 298.71875 437.796875 295.175781 437.804688 C 290.410156 437.820312 290.40625 437.816406 289.121094 442.28125 C 289.082031 442.40625 289.226562 442.582031 289.363281 442.941406 C 293.761719 442.941406 298.230469 442.941406 303.257812 442.941406 M 353.859375 421.460938 C 353.632812 419.1875 353.410156 416.914062 353.117188 413.960938 C 352.480469 415.398438 351.800781 416.253906 351.769531 417.128906 C 351.625 421.15625 351.335938 425.21875 351.753906 429.207031 C 351.992188 431.496094 353.167969 433.859375 354.492188 435.835938 C 355.996094 438.085938 358.476562 438.144531 360.109375 436.039062 C 361.484375 434.265625 362.265625 432.0625 363.308594 430.046875 C 358.222656 431.929688 356.632812 431.375 355.074219 426.90625 C 354.515625 425.304688 354.292969 423.59375 353.859375 421.460938 M 432.589844 394.082031 L 451.355469 394.082031 C 450.550781 392.953125 449.496094 391.964844 448.316406 391.804688 C 445.757812 391.453125 443.132812 391.484375 440.53125 391.421875 C 430.84375 391.183594 421.152344 390.96875 411.460938 390.742188 C 409.425781 390.695312 407.914062 391.269531 407.460938 394.074219 C 415.886719 394.074219 423.96875 394.074219 432.589844 394.082031 M 413.859375 378.257812 C 412.464844 378.234375 411.019531 377.984375 409.695312 378.261719 C 408.707031 378.46875 407.875 379.355469 406.976562 379.941406 L 407.390625 380.8125 C 421.773438 381.945312 436.179688 382.410156 450.730469 381.695312 C 449.132812 380.519531 447.425781 379.585938 445.667969 379.5 C 435.242188 378.976562 424.804688 378.652344 413.859375 378.257812 M 420.453125 387.945312 C 429.40625 388.152344 438.359375 388.382812 447.316406 388.535156 C 448.515625 388.558594 449.722656 388.207031 451.46875 387.949219 C 449.441406 385.550781 447.195312 385.511719 445.023438 385.429688 C 439.148438 385.214844 433.273438 385.074219 427.402344 384.882812 C 422.085938 384.710938 416.773438 384.464844 411.460938 384.355469 C 409.640625 384.316406 407.621094 384.339844 407.605469 387.246094 C 411.800781 387.472656 415.859375 387.695312 420.453125 387.945312 M 275.746094 419.582031 C 275.890625 421.339844 276.035156 423.097656 276.175781 424.792969 L 279.933594 424.792969 C 279.644531 421.535156 279.371094 418.421875 279.09375 415.3125 C 279.335938 415.238281 279.574219 415.164062 279.8125 415.089844 C 280.863281 418.316406 281.914062 421.542969 282.949219 424.71875 L 296.800781 424.71875 C 296.800781 422.183594 296.890625 419.84375 296.777344 417.507812 C 296.65625 415.054688 295.601562 413.304688 292.824219 412.691406 C 291.148438 412.324219 289.410156 411.675781 288.019531 410.71875 C 283.199219 407.386719 278.726562 410.34375 274.253906 410.640625 C 274.792969 413.796875 275.246094 416.445312 275.746094 419.582031 M 436.78125 437.71875 C 436.269531 434.566406 434.714844 433.078125 431.078125 433.121094 C 414.292969 433.332031 397.503906 433.277344 380.714844 433.378906 C 380.027344 433.382812 378.925781 433.871094 378.722656 434.390625 C 377.660156 437.097656 376.828125 439.894531 375.898438 442.699219 L 439.148438 442.699219 C 438.3125 441.019531 437.59375 439.574219 436.78125 437.71875 M 478.308594 457.496094 C 450.988281 453.941406 423.503906 452.195312 395.988281 451.453125 C 345.5 450.09375 295 449.273438 244.507812 448.230469 C 243.023438 448.199219 241.539062 448.226562 239.816406 448.226562 L 239.816406 442.886719 L 259.113281 442.886719 C 258.230469 435.414062 257.371094 428.140625 256.480469 420.589844 L 249.164062 420.589844 C 248.898438 418.394531 248.664062 416.441406 248.390625 414.160156 C 245.863281 413.746094 243.238281 413.316406 240.613281 412.886719 C 240.5625 412.605469 240.515625 412.324219 240.464844 412.039062 C 263.125 408.285156 285.785156 404.53125 308.445312 400.777344 C 308.394531 400.464844 308.34375 400.152344 308.292969 399.839844 L 243.828125 405.835938 L 243.703125 405.191406 C 265.230469 400.023438 286.757812 394.855469 308.28125 389.6875 C 308.226562 389.382812 308.171875 389.074219 308.113281 388.765625 C 288.867188 391.429688 269.625 394.09375 250.378906 396.757812 C 250.347656 396.617188 250.316406 396.476562 250.285156 396.335938 C 269.613281 390.484375 288.9375 384.628906 308.261719 378.773438 C 308.195312 378.488281 308.132812 378.203125 308.066406 377.917969 C 289.109375 381.796875 270.148438 385.679688 251.1875 389.5625 C 251.117188 389.277344 251.046875 388.992188 250.976562 388.707031 C 270.132812 382.007812 289.289062 375.308594 308.449219 368.613281 L 308.152344 367.679688 C 289.367188 372.386719 270.578125 377.09375 251.789062 381.800781 C 251.722656 381.585938 251.65625 381.375 251.589844 381.160156 C 271.125 373.027344 290.660156 364.894531 310.195312 356.761719 C 310.082031 356.453125 309.964844 356.148438 309.851562 355.839844 L 252.445312 374.410156 C 252.351562 374.1875 252.257812 373.964844 252.167969 373.746094 C 270.394531 364.945312 288.621094 356.144531 307.15625 347.167969 C 307.59375 346.804688 307.71875 346.625 307.847656 346.445312 C 307.484375 346.519531 307.121094 346.597656 306.753906 346.671875 C 298.308594 349.761719 289.855469 352.835938 281.417969 355.953125 C 273.5 358.875 265.601562 361.851562 257.679688 364.773438 C 256.863281 365.074219 255.964844 365.160156 254.984375 365 C 272.273438 355.660156 289.558594 346.324219 306.84375 336.984375 C 306.695312 336.664062 306.546875 336.34375 306.394531 336.023438 C 289.367188 343.351562 272.335938 350.683594 255.304688 358.011719 C 255.191406 357.785156 255.074219 357.5625 254.960938 357.335938 C 272.097656 346.976562 289.230469 336.617188 306.367188 326.261719 C 306.273438 326.035156 306.179688 325.8125 306.082031 325.585938 C 305.238281 325.863281 304.335938 326.039062 303.554688 326.4375 C 291.191406 332.75 278.847656 339.097656 266.488281 345.417969 C 264.480469 346.445312 262.421875 347.378906 260.390625 348.351562 C 260.246094 348.085938 260.101562 347.820312 259.957031 347.554688 C 281.746094 334.253906 303.535156 320.949219 325.320312 307.644531 C 325.550781 307.871094 325.78125 308.097656 326.007812 308.324219 C 326.007812 309.292969 326.011719 310.261719 326.007812 311.230469 C 325.996094 327.496094 325.957031 343.761719 326.019531 360.027344 C 326.023438 361.28125 326.765625 362.53125 327.164062 363.785156 C 327.566406 362.550781 328.289062 361.324219 328.320312 360.082031 C 328.574219 348.789062 328.699219 337.496094 328.890625 326.203125 C 328.902344 325.527344 328.996094 324.355469 329.3125 324.261719 C 331.636719 323.589844 331.164062 321.808594 331.125 320.273438 C 330.960938 313.964844 330.648438 307.65625 330.597656 301.347656 C 330.589844 300.503906 331.753906 299.648438 332.378906 298.800781 C 333.070312 299.347656 334.105469 299.765625 334.382812 300.464844 C 334.871094 301.6875 334.992188 303.074219 335.089844 304.40625 C 335.367188 308.175781 335.320312 308.289062 339.417969 308.761719 C 349.703125 309.941406 359.996094 311.015625 370.289062 312.121094 C 380.488281 313.21875 390.679688 314.355469 400.886719 315.355469 C 402.929688 315.554688 403.101562 316.882812 403.101562 318.15625 C 403.109375 322.035156 402.859375 325.914062 402.808594 329.792969 C 402.789062 331.496094 402.40625 333.449219 405.125 334.523438 C 405.273438 333.371094 405.507812 332.449219 405.488281 331.535156 C 405.320312 324.417969 405.054688 317.300781 404.96875 310.179688 C 404.957031 309.320312 405.839844 308.449219 406.308594 307.582031 C 407.109375 308.160156 408.519531 308.652344 408.617188 309.324219 C 409.171875 313.238281 409.4375 317.191406 409.773438 321.136719 C 409.992188 323.714844 409.695312 323.636719 410.722656 327.511719 C 410.890625 328.148438 411.851562 330.816406 411.671875 331.859375 C 411.226562 334.425781 412.546875 335.539062 414.816406 336.40625 C 416.859375 337.1875 418.761719 338.359375 420.628906 339.507812 C 421.242188 339.886719 421.554688 340.730469 422.328125 341.816406 C 414.273438 340.816406 406.824219 339.835938 399.363281 338.984375 C 394.730469 338.453125 390.082031 337.859375 385.429688 337.742188 C 374.742188 337.472656 364 336.855469 353.375 337.636719 C 348.078125 338.027344 342.980469 341.136719 337.851562 343.152344 C 337.375 343.339844 337.101562 344.53125 337.101562 345.253906 C 337.046875 362.695312 336.992188 380.136719 337.0625 397.574219 C 337.082031 402.15625 337.816406 402.542969 342.445312 401.492188 C 343.875 401.167969 345.316406 400.890625 347.101562 400.523438 C 346.285156 405.03125 345.390625 409.238281 344.792969 413.484375 C 344.304688 416.960938 344.09375 420.480469 343.9375 423.988281 C 343.90625 424.75 344.632812 425.542969 345.007812 426.320312 C 345.390625 426.234375 345.773438 426.148438 346.15625 426.0625 C 346.515625 422.242188 346.871094 418.425781 347.226562 414.605469 C 347.765625 408.875 349.207031 403.402344 352.335938 398.449219 C 353.945312 395.898438 355.96875 393.636719 359.429688 394.035156 C 362.917969 394.433594 364.992188 396.660156 366.199219 399.773438 C 368.359375 405.34375 368.386719 405.328125 374.554688 405.339844 C 381.277344 405.351562 388 405.460938 394.71875 405.339844 C 397.183594 405.296875 399.097656 405.738281 400.335938 407.964844 C 400.609375 408.460938 401.246094 408.769531 402.125 409.507812 C 401.996094 407.402344 401.898438 405.773438 401.773438 403.757812 C 419.042969 404.035156 436.160156 404.304688 453.347656 404.582031 C 453.671875 402.03125 452.21875 401.628906 450.367188 401.589844 C 441.503906 401.398438 432.640625 401.171875 423.773438 401.003906 C 414.539062 400.832031 405.300781 400.710938 396.066406 400.558594 C 395.609375 400.550781 395.15625 400.4375 394.386719 400.332031 C 394.234375 398.835938 394.003906 397.34375 393.945312 395.847656 C 393.878906 394.089844 392.925781 393.101562 391.226562 393 C 388.347656 392.820312 385.457031 392.785156 382.570312 392.78125 C 380.511719 392.777344 379.519531 393.753906 379.746094 395.871094 C 379.898438 397.28125 379.773438 398.714844 379.773438 400.140625 L 378.792969 400.621094 C 378.171875 399.8125 377.261719 399.082031 377.007812 398.179688 C 376.707031 397.085938 376.964844 395.851562 376.980469 394.675781 C 377.050781 389.851562 374.664062 387.105469 369.726562 386.394531 C 367.886719 386.128906 366.027344 385.972656 363.464844 385.6875 C 366.230469 383.789062 368.878906 383.316406 371.554688 383.1875 C 380.269531 382.757812 388.65625 384.042969 396.484375 388 C 396.972656 388.246094 397.503906 388.421875 398.023438 388.59375 C 398.1875 388.648438 398.386719 388.589844 398.730469 388.574219 C 398.914062 388.042969 399.300781 387.457031 399.289062 386.875 C 399.191406 381.375 399.171875 375.867188 398.8125 370.378906 C 398.648438 367.835938 396.925781 366.152344 394.171875 365.722656 C 386.183594 364.464844 378.195312 363.199219 370.203125 361.945312 C 365.933594 361.277344 361.667969 360.550781 358.167969 364.105469 C 357.726562 364.550781 356.835938 364.582031 355.5625 365.003906 C 355.5625 362.804688 355.5625 360.957031 355.5625 359.105469 C 355.5625 353.882812 355.613281 348.65625 355.535156 343.429688 C 355.507812 341.5 356.5 340.867188 358.25 340.878906 C 364.78125 340.921875 371.335938 340.691406 377.84375 341.085938 C 387.699219 341.683594 397.53125 342.664062 407.363281 343.597656 C 411.242188 343.96875 415.09375 344.636719 418.949219 345.195312 C 421.347656 345.542969 422.839844 347.050781 423.355469 349.1875 C 424.28125 353.027344 425.144531 356.90625 425.617188 360.820312 C 425.84375 362.699219 426.695312 363.3125 428.296875 363.601562 C 434.339844 364.691406 440.367188 365.875 446.433594 366.84375 C 454.695312 368.164062 454.917969 368.296875 455.515625 376.242188 C 455.765625 379.574219 455.910156 382.914062 456.164062 386.246094 C 456.300781 388.0625 457.128906 388.898438 459.257812 389.28125 C 468.902344 391.011719 470.160156 391.722656 470.476562 402.019531 C 470.605469 406.1875 469.984375 406.613281 465.582031 406.460938 C 463.542969 406.386719 461.503906 406.367188 459.464844 406.429688 C 459.023438 406.441406 458.59375 406.894531 458.175781 407.824219 C 459.078125 407.941406 459.976562 408.109375 460.882812 408.175781 C 463.671875 408.394531 466.5 408.363281 469.246094 408.816406 C 473.3125 409.484375 474.851562 411.34375 475.347656 415.726562 C 448.671875 415.179688 422.035156 414.632812 395.300781 413.894531 C 399.175781 413.703125 403.152344 413.703125 407.570312 413.703125 C 407.015625 413.128906 406.804688 412.910156 406.53125 412.628906 C 407.140625 412.46875 407.707031 412.320312 407.5625 412.355469 L 377.613281 412.355469 C 381.234375 413 384.855469 412.9375 388.46875 413.046875 C 389.300781 413.074219 390.113281 413.691406 390.933594 414.035156 C 384.269531 414.121094 377.605469 414.207031 371 414.292969 C 370.703125 416.957031 371.570312 417.585938 373.648438 417.554688 C 383.625 417.386719 393.605469 417.359375 403.582031 417.292969 C 404.3125 417.289062 405.042969 417.386719 406.371094 417.472656 L 406.371094 428.792969 C 406.730469 428.792969 407.09375 428.792969 407.453125 428.792969 C 409.015625 425.246094 407.519531 421.34375 408.355469 417.703125 L 421.710938 417.703125 C 421.890625 420.246094 422.046875 422.523438 422.226562 425.089844 L 448.066406 425.089844 L 448.066406 418.742188 L 459.695312 418.742188 C 459.863281 422.292969 460.019531 425.550781 460.175781 428.8125 C 460.664062 428.800781 461.152344 428.792969 461.640625 428.785156 L 461.640625 419.183594 L 475.402344 419.183594 C 475.921875 423.613281 475.355469 427.695312 473.589844 431.511719 C 473.152344 432.453125 471.601562 433.050781 470.4375 433.488281 C 469.636719 433.789062 468.613281 433.546875 467.882812 433.546875 C 466.6875 436.695312 465.578125 439.613281 464.273438 443.039062 L 496.023438 443.039062 C 492.082031 448.28125 488.582031 452.933594 484.839844 457.789062 C 482.503906 457.828125 480.40625 457.660156 478.308594 457.496094 " fill-opacity="1" fill-rule="nonzero"/></g><g clip-path="url(#2f03da7dfa)"><path fill="#2c4964" d="M 168.980469 500.03125 C 170.53125 504.261719 171.667969 508.703125 173.71875 512.683594 C 178.570312 522.097656 187.257812 526.414062 196.90625 524.765625 C 206.3125 523.160156 214.191406 514.941406 215.785156 505.28125 C 217.332031 495.90625 216.75 486.667969 213.890625 477.652344 C 211.753906 470.917969 208.578125 464.65625 202.289062 460.707031 C 190.472656 453.289062 175.425781 459.011719 170.167969 472.648438 C 166.742188 481.535156 166.710938 490.488281 168.980469 500.03125 M 226.753906 527.515625 C 213.933594 537.550781 199.328125 540.125 183.714844 538.609375 C 171.859375 537.460938 161.558594 532.871094 153.105469 524.40625 C 143.953125 515.238281 140.226562 503.949219 140.21875 491.339844 C 140.210938 475.480469 146.652344 462.691406 159.707031 453.453125 C 171.320312 445.230469 184.515625 442.867188 198.496094 443.902344 C 207.542969 444.574219 216.121094 446.773438 223.828125 451.730469 C 234.941406 458.882812 241.175781 469.152344 243.078125 482.007812 C 244.675781 492.800781 243.800781 503.355469 238.707031 513.261719 C 235.84375 518.839844 231.800781 523.476562 226.753906 527.515625 " fill-opacity="1" fill-rule="nonzero"/></g><g clip-path="url(#823c6a398d)"><path fill="#2c4964" d="M 550.347656 525.199219 C 562.304688 525.21875 572.167969 516.910156 574.125 505.257812 C 575.714844 495.78125 575.078125 486.4375 572.132812 477.332031 C 569.980469 470.6875 566.769531 464.558594 560.558594 460.644531 C 548.855469 453.261719 533.703125 458.945312 528.539062 472.816406 C 522.980469 487.757812 525.6875 501.949219 533.671875 515.238281 C 537.191406 521.085938 542.789062 524.550781 550.347656 525.199219 M 598.808594 471.925781 C 603.574219 486.398438 603.761719 500.484375 596.554688 514.03125 C 591.019531 524.429688 582.21875 531.433594 571.171875 535.289062 C 554.816406 540.996094 538.382812 541.03125 522.855469 532.792969 C 505.722656 523.699219 498.265625 508.785156 498.613281 489.734375 C 499.101562 462.65625 521.570312 445.996094 543.941406 444.066406 C 553.257812 443.261719 562.40625 443.726562 571.28125 446.632812 C 584.199219 450.859375 593.566406 459.082031 598.808594 471.925781 " fill-opacity="1" fill-rule="nonzero"/></g><g clip-path="url(#d249222a63)"><path fill="#2c4964" d="M 661.785156 529.554688 C 655.242188 535.527344 647.484375 538.152344 638.992188 538.78125 C 627.851562 539.609375 616.921875 538.527344 606.40625 534.5625 C 605.675781 534.285156 604.75 533.585938 604.582031 532.917969 C 603.078125 526.875 601.71875 520.792969 600.191406 514.167969 C 606.089844 518.578125 612.101562 521.527344 618.660156 523.335938 C 624.269531 524.882812 629.957031 525.503906 635.699219 524.191406 C 639.726562 523.273438 643.105469 521.433594 644.082031 517.007812 C 645.027344 512.714844 643.074219 509.320312 639.683594 507.210938 C 633.746094 503.515625 627.429688 500.429688 621.363281 496.933594 C 617.4375 494.671875 613.140625 492.679688 609.925781 489.617188 C 595.039062 475.460938 600.835938 452.246094 620.769531 446.054688 C 633.382812 442.140625 646.011719 443.117188 658.410156 447.414062 C 658.960938 447.601562 659.722656 448.285156 659.730469 448.75 C 659.828125 453.691406 659.792969 458.632812 659.792969 463.277344 C 655.152344 461.542969 650.761719 459.558594 646.171875 458.292969 C 642.121094 457.171875 637.851562 457.109375 633.785156 458.722656 C 627.027344 461.398438 625.871094 468.761719 631.691406 473.085938 C 634.066406 474.851562 636.882812 476.089844 639.609375 477.320312 C 647 480.65625 654.398438 483.839844 660.707031 489.1875 C 674.351562 500.746094 672.285156 520.273438 661.785156 529.554688 " fill-opacity="1" fill-rule="nonzero"/></g><path fill="#2c4964" d="M 223.28125 278.960938 C 223.53125 278.722656 223.914062 278.625 224.300781 278.527344 C 224.273438 278.75 224.25 278.972656 223.957031 279.28125 C 223.691406 279.371094 223.417969 279.097656 223.28125 278.960938 " fill-opacity="1" fill-rule="nonzero"/><path fill="#2c4964" d="M 357.566406 279.230469 C 357.164062 279.125 356.933594 278.851562 356.699219 278.578125 C 356.988281 278.515625 357.273438 278.453125 357.808594 278.550781 C 358.050781 278.710938 357.730469 279.058594 357.566406 279.230469 " fill-opacity="1" fill-rule="nonzero"/><path fill="#2c4964" d="M 435.304688 244.476562 C 438.625 245.515625 441.945312 246.558594 445.921875 247.808594 C 445.320312 246.300781 445.125 245.570312 444.757812 244.933594 C 438.492188 234.140625 431.226562 224.085938 422.042969 215.363281 C 412.816406 206.59375 402.351562 199.800781 390.085938 195.730469 C 388.21875 195.109375 386.238281 194.816406 383.859375 194.269531 C 386.734375 199.699219 389.765625 204.308594 391.691406 209.316406 C 394.75 217.273438 397.179688 225.464844 399.625 233.628906 C 400.339844 236.011719 401.738281 236.933594 403.980469 237.417969 C 414.273438 239.65625 424.558594 241.941406 435.304688 244.476562 M 505.375 298.929688 C 494.316406 282.058594 478.476562 270.613281 459.9375 260.710938 C 460.214844 262.234375 460.257812 262.640625 460.367188 263.03125 C 463.589844 274.765625 467.445312 286.382812 469.78125 298.277344 C 470.925781 304.097656 473.566406 306.097656 478.910156 307.199219 C 491.0625 309.703125 502.6875 313.65625 513.105469 320.449219 C 513.6875 320.828125 514.382812 321.042969 515.371094 321.488281 C 514.136719 312.964844 510.0625 306.066406 505.375 298.929688 M 328.671875 204.714844 C 312.140625 215.425781 300.667969 230.261719 291.410156 247 C 292.605469 247.269531 293.503906 247.277344 294.300781 247.007812 C 307.355469 242.636719 320.558594 238.796875 334.289062 236.96875 C 336.6875 236.648438 337.542969 235.265625 337.839844 233.347656 C 339.855469 220.34375 345.035156 208.507812 351.917969 197.289062 C 352.496094 196.351562 352.953125 195.34375 353.84375 193.664062 C 350.382812 194.644531 347.683594 195.042969 345.335938 196.144531 C 339.824219 198.734375 334.480469 201.65625 328.671875 204.714844 M 386.277344 235.398438 L 393.046875 235.398438 C 393.046875 234.84375 393.125 234.40625 393.035156 234.007812 C 390.441406 222.445312 386.539062 211.335938 380.039062 201.261719 C 378.25 198.484375 375.71875 196.035156 373.125 193.890625 C 370.386719 191.628906 367.007812 191.769531 364.09375 193.710938 C 362.105469 195.035156 359.980469 196.632812 358.847656 198.609375 C 355.453125 204.527344 352.136719 210.539062 349.511719 216.800781 C 347.027344 222.722656 345.460938 229.007812 343.417969 235.355469 C 357.949219 235.355469 371.800781 235.355469 386.277344 235.398438 M 323.796875 198.933594 C 321.054688 199.792969 318.246094 200.503906 315.578125 201.539062 C 275.222656 217.222656 246.972656 244.808594 229.867188 283.316406 C 229.121094 284.996094 228.445312 286.714844 227.878906 288.460938 C 227.324219 290.164062 226.949219 291.921875 226.375 294.121094 C 227.105469 293.621094 227.332031 293.53125 227.457031 293.371094 C 240.742188 275.71875 258.195312 263.0625 278.238281 253.433594 C 280.0625 252.554688 281.863281 250.886719 282.800781 249.144531 C 288.507812 238.574219 294.359375 228.066406 302.96875 219.417969 C 309.925781 212.429688 317.417969 205.9375 325.019531 199.117188 C 325.035156 198.980469 325.054688 198.839844 325.070312 198.699219 C 324.816406 198.761719 324.566406 198.824219 323.796875 198.933594 M 509.820312 293.429688 C 510.042969 293.511719 510.269531 293.59375 510.492188 293.675781 C 510.371094 293.347656 510.246094 293.023438 510.101562 292.179688 C 509.324219 289.714844 508.742188 287.167969 507.738281 284.789062 C 493.71875 251.484375 470.675781 225.941406 437.789062 208.925781 C 429.824219 204.804688 421.90625 200.539062 412.578125 198.613281 C 412.386719 198.652344 412.199219 198.691406 412.011719 198.730469 C 412.164062 198.902344 412.316406 199.074219 412.664062 199.640625 C 430.039062 212.175781 443.558594 227.753906 452.519531 246.925781 C 454.007812 250.113281 456.292969 252.3125 459.5625 253.929688 C 469.617188 258.898438 479.304688 264.414062 488.171875 271.308594 C 496.371094 277.6875 502.890625 285.480469 509.820312 293.429688 M 508.917969 379.488281 C 505.3125 383.738281 501.703125 387.992188 498.109375 392.226562 C 493.738281 389.023438 493.492188 387.585938 496.433594 384.085938 C 502.652344 376.683594 508.921875 369.304688 512.40625 360.210938 C 513.511719 357.324219 514.285156 354.316406 515.488281 350.472656 C 513.652344 351.359375 512.796875 351.785156 511.933594 352.1875 C 505.5 355.191406 498.972656 358.023438 492.65625 361.242188 C 487.140625 364.054688 482.648438 362.257812 477.84375 358.957031 C 484.265625 356.757812 490.554688 355.015625 496.472656 352.460938 C 501.9375 350.105469 507.359375 347.34375 512.171875 343.929688 C 518.746094 339.261719 518.65625 333.300781 512.472656 328.152344 C 504.3125 321.363281 494.324219 318.066406 484.3125 314.925781 C 480.609375 313.765625 476.789062 312.957031 472.414062 311.832031 C 472.796875 317.320312 473.285156 322.3125 473.457031 327.320312 C 473.628906 332.390625 473.496094 337.476562 473.496094 343.136719 C 470.585938 337.808594 465.660156 334.191406 466.640625 327.390625 C 467.304688 322.78125 466.050781 317.921875 465.734375 313.171875 C 465.59375 310.988281 464.550781 309.875 462.285156 309.550781 C 454.109375 308.378906 445.976562 306.820312 437.761719 305.992188 C 432.339844 305.445312 429.765625 302.023438 426.371094 297.738281 C 439.421875 299.628906 451.648438 301.402344 464.507812 303.269531 C 463.058594 297.023438 461.945312 291.117188 460.285156 285.359375 C 457.859375 276.9375 455.15625 268.585938 452.296875 260.292969 C 451.714844 258.601562 450.242188 256.609375 448.648438 255.933594 C 434.046875 249.746094 418.671875 246.128906 402.300781 243.3125 C 403.210938 248.667969 404.03125 253.5 404.902344 258.628906 C 402.882812 259.167969 400.984375 259.679688 398.449219 260.355469 C 397.785156 256.65625 397.03125 253.121094 396.527344 249.550781 C 395.496094 242.28125 395.558594 241.75 388.117188 241.640625 C 373.707031 241.421875 359.285156 241.882812 344.867188 241.996094 C 342.585938 242.015625 341.792969 243.113281 341.460938 245.089844 C 340.535156 250.636719 339.488281 256.164062 338.402344 262.152344 C 336.316406 261.972656 334.277344 261.796875 331.605469 261.570312 C 332.710938 255.4375 333.75 249.65625 334.957031 242.957031 C 327.605469 244.511719 320.816406 245.601562 314.246094 247.421875 C 306.304688 249.617188 298.558594 252.460938 290.707031 254.957031 C 287.46875 255.988281 285.425781 257.984375 284.425781 261.140625 C 283.507812 264.03125 282.21875 266.820312 281.40625 269.734375 C 280.050781 274.585938 276.449219 276.917969 271.359375 278.632812 C 273.335938 272.800781 275.171875 267.367188 277.351562 260.933594 C 273.839844 262.75 271.132812 263.925781 268.664062 265.464844 C 253.371094 274.984375 239.195312 285.800781 230.246094 301.480469 C 226.765625 307.578125 220.90625 309.691406 215.835938 313.265625 C 215.421875 313.070312 215.007812 312.871094 214.59375 312.675781 C 216.722656 304.8125 218.269531 296.75 221.070312 289.117188 C 239.171875 239.75 273.9375 207.003906 325.933594 191.785156 C 338.304688 188.164062 351.054688 186.59375 364.074219 185.71875 C 367.359375 185.46875 370.511719 185.46875 373.976562 185.46875 C 377.414062 185.875 380.527344 186.355469 383.660156 186.667969 C 427.050781 190.957031 462.429688 209.847656 489.769531 242.414062 C 515.382812 272.929688 526.027344 308.308594 523.339844 347.429688 C 521.59375 372.910156 512.84375 396.1875 498.796875 417.691406 C 498.320312 418.421875 497.761719 419.101562 497.277344 419.828125 C 497.039062 420.183594 496.886719 420.59375 496.296875 420.75 C 496.40625 414.5 496.835938 408.589844 499.683594 402.878906 C 503.316406 395.605469 506.226562 387.996094 509.648438 380.15625 C 509.878906 379.398438 509.910156 379.015625 509.988281 378.136719 C 509.417969 378.855469 509.167969 379.171875 508.917969 379.488281 " fill-opacity="1" fill-rule="nonzero"/><g clip-path="url(#e3239242b2)"><path fill="#2c4964" d="M 328.015625 429.117188 C 327.808594 430.011719 327.601562 430.90625 327.332031 432.070312 L 337.414062 432.070312 C 336.675781 425.585938 335.324219 424.378906 329.425781 425.039062 C 329.023438 426.203125 328.609375 427.410156 328.015625 429.117188 M 475.617188 376.21875 L 465.09375 376.21875 C 465.339844 378.886719 465.558594 381.207031 465.78125 383.621094 L 478.726562 383.621094 C 477.773438 380.96875 476.964844 378.71875 475.617188 376.21875 M 280.539062 432.101562 L 289.539062 432.101562 C 289.304688 426.269531 288.914062 425.871094 283.597656 425.886719 C 279.347656 425.898438 275.097656 425.929688 270.847656 425.941406 C 265.128906 425.960938 265.125 425.957031 263.582031 431.308594 C 263.539062 431.460938 263.710938 431.671875 263.875 432.101562 C 269.148438 432.101562 274.511719 432.101562 280.539062 432.101562 M 341.234375 406.339844 C 340.964844 403.613281 340.695312 400.886719 340.34375 397.34375 C 339.582031 399.074219 338.765625 400.097656 338.730469 401.144531 C 338.554688 405.976562 338.207031 410.847656 338.707031 415.628906 C 338.996094 418.378906 340.40625 421.210938 341.992188 423.582031 C 343.796875 426.28125 346.773438 426.351562 348.730469 423.828125 C 350.378906 421.699219 351.316406 419.054688 352.570312 416.640625 C 346.46875 418.894531 344.5625 418.230469 342.691406 412.871094 C 342.023438 410.949219 341.753906 408.898438 341.234375 406.339844 M 435.667969 373.507812 L 458.175781 373.507812 C 457.207031 372.152344 455.941406 370.96875 454.53125 370.777344 C 451.460938 370.355469 448.3125 370.394531 445.195312 370.316406 C 433.570312 370.03125 421.945312 369.773438 410.320312 369.503906 C 407.886719 369.449219 406.070312 370.136719 405.527344 373.496094 C 415.632812 373.496094 425.324219 373.496094 435.667969 373.507812 M 413.199219 354.53125 C 411.527344 354.503906 409.796875 354.203125 408.203125 354.535156 C 407.023438 354.78125 406.023438 355.847656 404.945312 356.550781 L 405.445312 357.59375 C 422.695312 358.949219 439.972656 359.507812 457.425781 358.65625 C 455.507812 357.242188 453.460938 356.125 451.355469 356.019531 C 438.847656 355.394531 426.332031 355.003906 413.199219 354.53125 M 421.113281 366.152344 C 431.851562 366.398438 442.589844 366.671875 453.328125 366.859375 C 454.769531 366.882812 456.21875 366.460938 458.3125 366.152344 C 455.878906 363.273438 453.1875 363.226562 450.578125 363.132812 C 443.535156 362.875 436.488281 362.703125 429.445312 362.476562 C 423.070312 362.269531 416.699219 361.976562 410.324219 361.84375 C 408.140625 361.796875 405.71875 361.824219 405.699219 365.308594 C 410.730469 365.582031 415.601562 365.847656 421.113281 366.152344 M 247.542969 404.089844 C 247.714844 406.195312 247.890625 408.304688 248.058594 410.339844 L 252.5625 410.339844 C 252.21875 406.433594 251.890625 402.699219 251.558594 398.964844 C 251.847656 398.878906 252.132812 398.789062 252.421875 398.699219 C 253.679688 402.570312 254.941406 406.4375 256.179688 410.25 L 272.796875 410.25 C 272.796875 407.210938 272.90625 404.402344 272.765625 401.601562 C 272.621094 398.660156 271.359375 396.558594 268.027344 395.828125 C 266.015625 395.382812 263.929688 394.609375 262.265625 393.457031 C 256.484375 389.464844 251.121094 393.007812 245.753906 393.367188 C 246.398438 397.152344 246.941406 400.324219 247.542969 404.089844 M 440.691406 425.839844 C 440.082031 422.058594 438.21875 420.273438 433.851562 420.328125 C 413.71875 420.578125 393.582031 420.511719 373.449219 420.632812 C 372.621094 420.640625 371.300781 421.222656 371.054688 421.847656 C 369.78125 425.097656 368.78125 428.445312 367.671875 431.8125 L 443.535156 431.8125 C 442.53125 429.796875 441.671875 428.066406 440.691406 425.839844 M 490.503906 449.558594 C 457.738281 445.296875 424.769531 443.203125 391.765625 442.3125 C 331.210938 440.679688 270.636719 439.695312 210.074219 438.445312 C 208.292969 438.40625 206.515625 438.4375 204.449219 438.4375 L 204.449219 432.035156 L 227.59375 432.035156 C 226.535156 423.074219 225.503906 414.355469 224.433594 405.296875 L 215.660156 405.296875 C 215.34375 402.664062 215.0625 400.320312 214.734375 397.585938 C 211.699219 397.089844 208.550781 396.574219 205.402344 396.058594 C 205.34375 395.722656 205.285156 395.382812 205.222656 395.042969 C 232.402344 390.542969 259.582031 386.039062 286.761719 381.539062 C 286.703125 381.164062 286.644531 380.789062 286.582031 380.414062 L 209.257812 387.601562 L 209.109375 386.832031 C 234.929688 380.632812 260.75 374.4375 286.570312 368.238281 C 286.5 367.871094 286.433594 367.5 286.367188 367.132812 C 263.28125 370.328125 240.199219 373.519531 217.117188 376.714844 C 217.078125 376.546875 217.042969 376.378906 217.003906 376.210938 C 240.183594 369.191406 263.363281 362.171875 286.542969 355.152344 C 286.464844 354.808594 286.386719 354.464844 286.308594 354.121094 C 263.570312 358.777344 240.828125 363.433594 218.089844 368.085938 C 218.003906 367.746094 217.917969 367.402344 217.832031 367.0625 C 240.808594 359.027344 263.789062 350.996094 286.765625 342.964844 L 286.414062 341.84375 C 263.878906 347.488281 241.34375 353.132812 218.808594 358.777344 C 218.730469 358.523438 218.648438 358.265625 218.570312 358.011719 C 242 348.257812 265.433594 338.503906 288.863281 328.75 C 288.726562 328.382812 288.585938 328.015625 288.449219 327.644531 L 219.59375 349.914062 C 219.484375 349.648438 219.371094 349.382812 219.261719 349.117188 C 241.121094 338.566406 262.984375 328.011719 285.21875 317.246094 C 285.742188 316.8125 285.894531 316.597656 286.046875 316.378906 C 285.609375 316.46875 285.171875 316.558594 284.738281 316.652344 C 274.605469 320.359375 264.46875 324.046875 254.347656 327.78125 C 244.847656 331.285156 235.371094 334.855469 225.871094 338.359375 C 224.894531 338.71875 223.8125 338.824219 222.640625 338.628906 C 243.375 327.433594 264.109375 316.234375 284.84375 305.035156 C 284.664062 304.648438 284.484375 304.265625 284.304688 303.878906 C 263.878906 312.671875 243.453125 321.460938 223.023438 330.253906 C 222.886719 329.980469 222.75 329.710938 222.613281 329.4375 C 243.164062 317.015625 263.714844 304.59375 284.269531 292.171875 C 284.15625 291.902344 284.042969 291.632812 283.929688 291.363281 C 282.914062 291.699219 281.832031 291.90625 280.894531 292.382812 C 266.066406 299.953125 251.261719 307.566406 236.4375 315.148438 C 234.03125 316.378906 231.5625 317.496094 229.121094 318.667969 C 228.949219 318.347656 228.777344 318.03125 228.605469 317.710938 C 254.738281 301.757812 280.871094 285.804688 307.003906 269.847656 C 307.28125 270.121094 307.554688 270.390625 307.832031 270.664062 C 307.832031 271.824219 307.832031 272.984375 307.832031 274.148438 C 307.8125 293.652344 307.765625 313.160156 307.84375 332.667969 C 307.847656 334.171875 308.738281 335.671875 309.214844 337.171875 C 309.699219 335.695312 310.566406 334.222656 310.601562 332.734375 C 310.90625 319.191406 311.054688 305.648438 311.285156 292.105469 C 311.300781 291.292969 311.414062 289.886719 311.792969 289.777344 C 314.582031 288.96875 314.015625 286.832031 313.96875 284.992188 C 313.769531 277.425781 313.394531 269.863281 313.332031 262.296875 C 313.324219 261.285156 314.722656 260.261719 315.46875 259.242188 C 316.300781 259.894531 317.539062 260.398438 317.875 261.234375 C 318.457031 262.703125 318.605469 264.367188 318.722656 265.964844 C 319.054688 270.484375 318.996094 270.621094 323.914062 271.1875 C 336.246094 272.601562 348.597656 273.890625 360.941406 275.21875 C 373.171875 276.535156 385.398438 277.898438 397.640625 279.09375 C 400.09375 279.332031 400.296875 280.925781 400.296875 282.453125 C 400.304688 287.105469 400.003906 291.757812 399.945312 296.410156 C 399.921875 298.449219 399.460938 300.792969 402.726562 302.085938 C 402.902344 300.699219 403.183594 299.597656 403.160156 298.5 C 402.960938 289.964844 402.640625 281.429688 402.539062 272.890625 C 402.523438 271.855469 403.582031 270.8125 404.144531 269.773438 C 405.105469 270.464844 406.796875 271.054688 406.910156 271.859375 C 407.582031 276.554688 407.898438 281.296875 408.300781 286.027344 C 408.5625 289.117188 408.207031 289.027344 409.4375 293.675781 C 409.640625 294.4375 410.792969 297.636719 410.578125 298.886719 C 410.042969 301.964844 411.625 303.296875 414.347656 304.339844 C 416.800781 305.277344 419.082031 306.683594 421.320312 308.058594 C 422.058594 308.515625 422.429688 309.527344 423.359375 310.828125 C 413.695312 309.625 404.765625 308.453125 395.8125 307.429688 C 390.257812 306.796875 384.683594 306.082031 379.101562 305.945312 C 366.28125 305.621094 353.394531 304.878906 340.65625 305.816406 C 334.300781 306.28125 328.183594 310.011719 322.03125 312.433594 C 321.460938 312.65625 321.136719 314.082031 321.132812 314.953125 C 321.070312 335.867188 321.003906 356.78125 321.085938 377.695312 C 321.109375 383.191406 321.992188 383.652344 327.546875 382.394531 C 329.257812 382.003906 330.988281 381.675781 333.128906 381.230469 C 332.148438 386.636719 331.078125 391.683594 330.359375 396.773438 C 329.773438 400.945312 329.523438 405.164062 329.335938 409.371094 C 329.296875 410.285156 330.167969 411.234375 330.621094 412.167969 C 331.078125 412.066406 331.539062 411.960938 331.996094 411.859375 C 332.425781 407.277344 332.851562 402.699219 333.28125 398.121094 C 333.921875 391.246094 335.652344 384.683594 339.40625 378.746094 C 341.339844 375.6875 343.765625 372.976562 347.917969 373.449219 C 352.097656 373.929688 354.589844 376.601562 356.035156 380.332031 C 358.628906 387.011719 358.660156 386.996094 366.058594 387.007812 C 374.121094 387.023438 382.183594 387.15625 390.246094 387.007812 C 393.199219 386.953125 395.496094 387.484375 396.980469 390.15625 C 397.308594 390.75 398.074219 391.121094 399.128906 392.007812 C 398.972656 389.484375 398.851562 387.527344 398.703125 385.113281 C 419.417969 385.441406 439.949219 385.769531 460.5625 386.097656 C 460.957031 383.039062 459.210938 382.558594 456.988281 382.511719 C 446.355469 382.28125 435.726562 382.011719 425.09375 381.8125 C 414.015625 381.601562 402.9375 381.457031 391.859375 381.273438 C 391.3125 381.265625 390.769531 381.128906 389.84375 381.003906 C 389.660156 379.207031 389.386719 377.421875 389.316406 375.628906 C 389.234375 373.519531 388.09375 372.332031 386.054688 372.207031 C 382.601562 371.996094 379.132812 371.949219 375.671875 371.949219 C 373.203125 371.945312 372.011719 373.113281 372.285156 375.652344 C 372.464844 377.34375 372.320312 379.066406 372.320312 380.773438 L 371.140625 381.351562 C 370.398438 380.382812 369.300781 379.503906 369 378.421875 C 368.636719 377.113281 368.949219 375.628906 368.96875 374.21875 C 369.050781 368.4375 366.191406 365.140625 360.269531 364.289062 C 358.058594 363.972656 355.828125 363.78125 352.753906 363.441406 C 356.070312 361.164062 359.25 360.597656 362.460938 360.441406 C 372.914062 359.929688 382.972656 361.46875 392.359375 366.214844 C 392.945312 366.507812 393.582031 366.71875 394.207031 366.929688 C 394.402344 366.992188 394.644531 366.921875 395.054688 366.902344 C 395.273438 366.265625 395.738281 365.558594 395.726562 364.867188 C 395.609375 358.269531 395.582031 351.664062 395.152344 345.082031 C 394.953125 342.035156 392.890625 340.015625 389.589844 339.496094 C 380.003906 337.988281 370.421875 336.46875 360.839844 334.96875 C 355.71875 334.164062 350.601562 333.296875 346.402344 337.558594 C 345.875 338.09375 344.804688 338.132812 343.277344 338.632812 C 343.277344 336 343.277344 333.78125 343.277344 331.5625 C 343.277344 325.296875 343.339844 319.027344 343.246094 312.765625 C 343.210938 310.449219 344.402344 309.691406 346.5 309.703125 C 354.335938 309.753906 362.195312 309.476562 370.003906 309.953125 C 381.824219 310.667969 393.617188 311.84375 405.410156 312.964844 C 410.0625 313.40625 414.679688 314.210938 419.308594 314.882812 C 422.183594 315.300781 423.972656 317.105469 424.589844 319.667969 C 425.703125 324.273438 426.738281 328.925781 427.300781 333.617188 C 427.574219 335.871094 428.597656 336.609375 430.519531 336.953125 C 437.765625 338.261719 444.996094 339.679688 452.269531 340.84375 C 462.179688 342.425781 462.445312 342.585938 463.164062 352.113281 C 463.464844 356.109375 463.640625 360.117188 463.941406 364.113281 C 464.109375 366.289062 465.101562 367.292969 467.652344 367.75 C 479.222656 369.824219 480.730469 370.679688 481.109375 383.027344 C 481.265625 388.027344 480.515625 388.535156 475.238281 388.351562 C 472.796875 388.265625 470.34375 388.242188 467.902344 388.3125 C 467.371094 388.328125 466.859375 388.875 466.355469 389.984375 C 467.4375 390.128906 468.515625 390.328125 469.601562 390.410156 C 472.945312 390.671875 476.339844 390.636719 479.632812 391.175781 C 484.511719 391.980469 486.359375 394.207031 486.953125 399.464844 C 454.957031 398.808594 423.007812 398.152344 390.941406 397.265625 C 395.589844 397.039062 400.359375 397.039062 405.65625 397.039062 C 404.992188 396.347656 404.738281 396.085938 404.414062 395.746094 C 405.140625 395.558594 405.820312 395.378906 405.644531 395.421875 L 369.726562 395.421875 C 374.070312 396.195312 378.410156 396.121094 382.746094 396.253906 C 383.742188 396.285156 384.71875 397.023438 385.703125 397.433594 C 377.710938 397.539062 369.714844 397.640625 361.792969 397.746094 C 361.441406 400.9375 362.480469 401.695312 364.972656 401.65625 C 376.9375 401.457031 388.90625 401.421875 400.875 401.34375 C 401.75 401.339844 402.625 401.453125 404.21875 401.558594 L 404.21875 415.136719 C 404.652344 415.132812 405.085938 415.132812 405.519531 415.132812 C 407.394531 410.882812 405.597656 406.199219 406.601562 401.835938 L 422.617188 401.835938 C 422.832031 404.886719 423.023438 407.613281 423.238281 410.691406 L 454.230469 410.691406 L 454.230469 403.082031 L 468.175781 403.082031 C 468.382812 407.339844 468.570312 411.246094 468.757812 415.15625 C 469.34375 415.144531 469.929688 415.136719 470.515625 415.125 L 470.515625 403.613281 L 487.019531 403.613281 C 487.644531 408.921875 486.960938 413.816406 484.84375 418.394531 C 484.320312 419.523438 482.460938 420.238281 481.0625 420.765625 C 480.101562 421.128906 478.878906 420.835938 478 420.835938 C 476.5625 424.609375 475.234375 428.113281 473.671875 432.222656 L 511.753906 432.222656 C 507.023438 438.503906 502.828125 444.085938 498.339844 449.90625 C 495.535156 449.953125 493.019531 449.753906 490.503906 449.558594 " fill-opacity="1" fill-rule="nonzero"/></g><path fill="#2c4964" d="M 340.910156 333.390625 C 341.113281 335.132812 341.261719 336.589844 341.410156 338.0625 C 340.863281 338.09375 340.519531 338.195312 340.460938 338.109375 C 337.816406 334.222656 334.574219 332.398438 329.871094 335.019531 C 329.355469 335.304688 328.554688 335.160156 327.886719 335.144531 C 327.347656 335.128906 326.816406 335.003906 325.578125 334.828125 C 325.578125 329.652344 325.578125 324.5 325.574219 319.347656 C 325.574219 317.039062 326.699219 315.507812 328.925781 314.699219 C 332.179688 313.519531 335.425781 312.324219 339.097656 310.980469 C 339.730469 318.9375 340.289062 326.023438 340.910156 333.390625 " fill-opacity="1" fill-rule="nonzero"/><path fill="#2c4964" d="M 342.472656 355.871094 C 342.421875 359.214844 342.136719 362.257812 342.402344 365.257812 C 342.652344 368.089844 340.941406 369.097656 338.765625 369.820312 C 337.097656 370.375 335.929688 369.902344 335.917969 367.902344 C 335.894531 362.828125 335.722656 357.75 335.824219 352.675781 C 335.894531 349.207031 337.855469 348.039062 342.476562 348.621094 C 342.476562 350.890625 342.476562 353.21875 342.472656 355.871094 " fill-opacity="1" fill-rule="nonzero"/><path fill="#2c4964" d="M 326.484375 373.960938 C 325.863281 373.820312 325.203125 373.640625 325.199219 373.453125 C 325.148438 369.667969 325 365.867188 325.328125 362.105469 C 325.394531 361.332031 327.285156 360.707031 328.957031 359.601562 C 328.957031 364.355469 329.070312 368.121094 328.859375 371.875 C 328.816406 372.589844 327.488281 373.238281 326.484375 373.960938 " fill-opacity="1" fill-rule="nonzero"/><path fill="#2c4964" d="M 385.992188 397.496094 C 384.71875 397.023438 383.742188 396.285156 382.746094 396.253906 C 378.410156 396.121094 374.070312 396.195312 369.726562 395.421875 L 405.648438 395.421875 C 405.820312 395.378906 405.140625 395.558594 404.414062 395.746094 C 404.738281 396.085938 404.992188 396.347656 405.65625 397.039062 C 400.359375 397.039062 395.589844 397.039062 390.628906 397.238281 C 389.054688 397.476562 387.667969 397.515625 385.992188 397.496094 " fill-opacity="1" fill-rule="nonzero"/><path fill="#2c4964" d="M 509.992188 292.804688 C 510.246094 293.023438 510.371094 293.347656 510.492188 293.675781 C 510.269531 293.59375 510.042969 293.511719 509.714844 293.289062 C 509.695312 293.070312 509.777344 292.992188 509.992188 292.804688 " fill-opacity="1" fill-rule="nonzero"/><path fill="#2c4964" d="M 509.0625 379.628906 C 509.167969 379.171875 509.417969 378.855469 509.988281 378.136719 C 509.910156 379.015625 509.878906 379.398438 509.675781 379.910156 C 509.40625 379.949219 509.304688 379.859375 509.0625 379.628906 " fill-opacity="1" fill-rule="nonzero"/><path fill="#2c4964" d="M 284.855469 316.78125 C 285.171875 316.558594 285.609375 316.46875 286.046875 316.378906 C 285.894531 316.597656 285.742188 316.8125 285.398438 317.105469 C 285.128906 317.09375 285.050781 317.003906 284.855469 316.78125 " fill-opacity="1" fill-rule="nonzero"/><g fill="#ffffff" fill-opacity="1"><g transform="translate(114.532402, 559.39756)"><g><path d="M 10.984375 0.546875 C 9.035156 0.546875 7.273438 0.148438 5.703125 -0.640625 C 4.140625 -1.429688 2.894531 -2.609375 1.96875 -4.171875 C 1.050781 -5.734375 0.59375 -7.644531 0.59375 -9.90625 C 0.59375 -11.625 0.875 -13.128906 1.4375 -14.421875 C 2 -15.722656 2.765625 -16.8125 3.734375 -17.6875 C 4.703125 -18.570312 5.820312 -19.234375 7.09375 -19.671875 C 8.363281 -20.117188 9.707031 -20.34375 11.125 -20.34375 C 12.269531 -20.34375 13.320312 -20.210938 14.28125 -19.953125 C 15.238281 -19.691406 16.140625 -19.332031 16.984375 -18.875 L 17.09375 -15.1875 L 16.796875 -15.1875 L 15.296875 -17.578125 C 15.097656 -17.960938 14.878906 -18.304688 14.640625 -18.609375 C 14.398438 -18.921875 14.097656 -19.15625 13.734375 -19.3125 C 13.441406 -19.457031 13.148438 -19.5625 12.859375 -19.625 C 12.566406 -19.695312 12.203125 -19.734375 11.765625 -19.734375 C 10.597656 -19.734375 9.539062 -19.421875 8.59375 -18.796875 C 7.644531 -18.179688 6.882812 -17.160156 6.3125 -15.734375 C 5.738281 -14.304688 5.453125 -12.351562 5.453125 -9.875 C 5.453125 -7.414062 5.722656 -5.46875 6.265625 -4.03125 C 6.804688 -2.601562 7.539062 -1.582031 8.46875 -0.96875 C 9.40625 -0.363281 10.453125 -0.0625 11.609375 -0.0625 C 12.242188 -0.0625 12.75 -0.101562 13.125 -0.1875 C 13.507812 -0.28125 13.894531 -0.414062 14.28125 -0.59375 C 14.65625 -0.757812 14.941406 -0.992188 15.140625 -1.296875 C 15.347656 -1.609375 15.53125 -1.945312 15.6875 -2.3125 L 17.015625 -5.25 L 17.3125 -5.25 L 17.21875 -0.953125 C 16.375 -0.515625 15.429688 -0.15625 14.390625 0.125 C 13.359375 0.40625 12.222656 0.546875 10.984375 0.546875 Z M 10.984375 0.546875 "/></g></g></g><g fill="#ffffff" fill-opacity="1"><g transform="translate(132.622386, 559.39756)"><g><path d="M 10.046875 0.546875 C 8.828125 0.546875 7.648438 0.328125 6.515625 -0.109375 C 5.390625 -0.554688 4.378906 -1.210938 3.484375 -2.078125 C 2.597656 -2.953125 1.894531 -4.039062 1.375 -5.34375 C 0.851562 -6.644531 0.59375 -8.164062 0.59375 -9.90625 C 0.59375 -11.625 0.851562 -13.128906 1.375 -14.421875 C 1.894531 -15.722656 2.601562 -16.804688 3.5 -17.671875 C 4.40625 -18.546875 5.421875 -19.207031 6.546875 -19.65625 C 7.679688 -20.113281 8.847656 -20.34375 10.046875 -20.34375 C 11.265625 -20.34375 12.4375 -20.125 13.5625 -19.6875 C 14.695312 -19.257812 15.707031 -18.609375 16.59375 -17.734375 C 17.488281 -16.867188 18.195312 -15.78125 18.71875 -14.46875 C 19.238281 -13.164062 19.5 -11.644531 19.5 -9.90625 C 19.5 -8.195312 19.238281 -6.6875 18.71875 -5.375 C 18.195312 -4.070312 17.488281 -2.984375 16.59375 -2.109375 C 15.707031 -1.242188 14.695312 -0.582031 13.5625 -0.125 C 12.4375 0.320312 11.265625 0.546875 10.046875 0.546875 Z M 10.046875 -0.09375 C 11.148438 -0.09375 12.039062 -0.382812 12.71875 -0.96875 C 13.394531 -1.5625 13.890625 -2.570312 14.203125 -4 C 14.515625 -5.4375 14.671875 -7.40625 14.671875 -9.90625 C 14.671875 -12.425781 14.515625 -14.398438 14.203125 -15.828125 C 13.890625 -17.253906 13.394531 -18.257812 12.71875 -18.84375 C 12.039062 -19.4375 11.148438 -19.734375 10.046875 -19.734375 C 8.972656 -19.734375 8.09375 -19.4375 7.40625 -18.84375 C 6.726562 -18.257812 6.234375 -17.253906 5.921875 -15.828125 C 5.609375 -14.398438 5.453125 -12.425781 5.453125 -9.90625 C 5.453125 -7.40625 5.609375 -5.4375 5.921875 -4 C 6.234375 -2.570312 6.726562 -1.5625 7.40625 -0.96875 C 8.09375 -0.382812 8.972656 -0.09375 10.046875 -0.09375 Z M 10.046875 -0.09375 "/></g></g></g><g fill="#ffffff" fill-opacity="1"><g transform="translate(152.722365, 559.39756)"><g><path d="M 0.59375 0 L 0.59375 -0.296875 L 1.203125 -0.515625 C 1.878906 -0.734375 2.21875 -1.300781 2.21875 -2.21875 L 2.21875 -17.578125 C 2.21875 -17.984375 2.171875 -18.304688 2.078125 -18.546875 C 1.992188 -18.785156 1.757812 -18.984375 1.375 -19.140625 L 0.59375 -19.5 L 0.59375 -19.796875 L 6.390625 -19.796875 L 11.9375 -5.28125 L 17.15625 -19.796875 L 23.0625 -19.796875 L 23.0625 -19.5 L 22.59375 -19.3125 C 22.207031 -19.175781 21.941406 -18.984375 21.796875 -18.734375 C 21.660156 -18.484375 21.59375 -18.160156 21.59375 -17.765625 L 21.59375 -2.0625 C 21.59375 -1.664062 21.644531 -1.359375 21.75 -1.140625 C 21.851562 -0.921875 22.09375 -0.726562 22.46875 -0.5625 L 23.0625 -0.296875 L 23.0625 0 L 15.59375 0 L 15.59375 -0.296875 L 16.234375 -0.5625 C 16.609375 -0.726562 16.84375 -0.921875 16.9375 -1.140625 C 17.039062 -1.359375 17.09375 -1.664062 17.09375 -2.0625 L 17.09375 -8.8125 L 17.15625 -17.40625 L 10.890625 0 L 9.390625 0 L 2.84375 -17.1875 L 2.9375 -9.71875 L 2.9375 -2.15625 C 2.9375 -1.71875 3 -1.363281 3.125 -1.09375 C 3.257812 -0.820312 3.519531 -0.628906 3.90625 -0.515625 L 4.5625 -0.296875 L 4.5625 0 Z M 0.59375 0 "/></g></g></g><g fill="#ffffff" fill-opacity="1"><g transform="translate(176.45234, 559.39756)"><g><path d="M 0.59375 0 L 0.59375 -0.296875 L 1.203125 -0.515625 C 1.878906 -0.734375 2.21875 -1.300781 2.21875 -2.21875 L 2.21875 -17.578125 C 2.21875 -17.984375 2.171875 -18.304688 2.078125 -18.546875 C 1.992188 -18.785156 1.757812 -18.984375 1.375 -19.140625 L 0.59375 -19.5 L 0.59375 -19.796875 L 6.390625 -19.796875 L 11.9375 -5.28125 L 17.15625 -19.796875 L 23.0625 -19.796875 L 23.0625 -19.5 L 22.59375 -19.3125 C 22.207031 -19.175781 21.941406 -18.984375 21.796875 -18.734375 C 21.660156 -18.484375 21.59375 -18.160156 21.59375 -17.765625 L 21.59375 -2.0625 C 21.59375 -1.664062 21.644531 -1.359375 21.75 -1.140625 C 21.851562 -0.921875 22.09375 -0.726562 22.46875 -0.5625 L 23.0625 -0.296875 L 23.0625 0 L 15.59375 0 L 15.59375 -0.296875 L 16.234375 -0.5625 C 16.609375 -0.726562 16.84375 -0.921875 16.9375 -1.140625 C 17.039062 -1.359375 17.09375 -1.664062 17.09375 -2.0625 L 17.09375 -8.8125 L 17.15625 -17.40625 L 10.890625 0 L 9.390625 0 L 2.84375 -17.1875 L 2.9375 -9.71875 L 2.9375 -2.15625 C 2.9375 -1.71875 3 -1.363281 3.125 -1.09375 C 3.257812 -0.820312 3.519531 -0.628906 3.90625 -0.515625 L 4.5625 -0.296875 L 4.5625 0 Z M 0.59375 0 "/></g></g></g><g fill="#ffffff" fill-opacity="1"><g transform="translate(200.182316, 559.39756)"><g><path d="M 0.65625 0 L 0.65625 -0.296875 L 1.34375 -0.5625 C 1.6875 -0.707031 1.921875 -0.894531 2.046875 -1.125 C 2.179688 -1.351562 2.25 -1.664062 2.25 -2.0625 L 2.25 -17.734375 C 2.25 -18.128906 2.191406 -18.441406 2.078125 -18.671875 C 1.972656 -18.898438 1.726562 -19.085938 1.34375 -19.234375 L 0.65625 -19.5 L 0.65625 -19.796875 L 15.03125 -19.796875 L 15.203125 -15.1875 L 14.90625 -15.1875 L 13.625 -18 C 13.4375 -18.363281 13.242188 -18.65625 13.046875 -18.875 C 12.847656 -19.09375 12.550781 -19.203125 12.15625 -19.203125 L 6.75 -19.203125 L 6.75 -10.53125 L 9.953125 -10.53125 C 10.359375 -10.53125 10.664062 -10.632812 10.875 -10.84375 C 11.082031 -11.050781 11.269531 -11.335938 11.4375 -11.703125 L 12.03125 -12.90625 L 12.328125 -12.90625 L 12.328125 -7.5 L 12.03125 -7.5 L 11.4375 -8.765625 C 11.25 -9.117188 11.054688 -9.398438 10.859375 -9.609375 C 10.660156 -9.828125 10.359375 -9.9375 9.953125 -9.9375 L 6.75 -9.9375 L 6.75 -0.59375 L 12.8125 -0.59375 C 13.207031 -0.59375 13.515625 -0.695312 13.734375 -0.90625 C 13.953125 -1.125 14.132812 -1.421875 14.28125 -1.796875 L 15.515625 -4.625 L 15.8125 -4.625 L 15.625 0 Z M 0.65625 0 "/></g></g></g><g fill="#ffffff" fill-opacity="1"><g transform="translate(216.832301, 559.39756)"><g><path d="M 0.65625 0 L 0.65625 -0.296875 L 1.296875 -0.515625 C 1.691406 -0.648438 1.945312 -0.832031 2.0625 -1.0625 C 2.1875 -1.289062 2.25 -1.617188 2.25 -2.046875 L 2.25 -17.734375 C 2.25 -18.128906 2.191406 -18.441406 2.078125 -18.671875 C 1.972656 -18.898438 1.726562 -19.085938 1.34375 -19.234375 L 0.65625 -19.5 L 0.65625 -19.796875 L 9.234375 -19.796875 C 11.597656 -19.796875 13.410156 -19.347656 14.671875 -18.453125 C 15.929688 -17.566406 16.5625 -16.335938 16.5625 -14.765625 C 16.5625 -13.878906 16.226562 -12.992188 15.5625 -12.109375 C 14.90625 -11.234375 13.867188 -10.554688 12.453125 -10.078125 L 16.625 -1.796875 C 16.800781 -1.460938 17.003906 -1.1875 17.234375 -0.96875 C 17.460938 -0.757812 17.769531 -0.578125 18.15625 -0.421875 L 18.546875 -0.265625 L 18.546875 0 L 13.171875 0 L 8.734375 -9.453125 L 6.6875 -9.453125 L 6.6875 -2.046875 C 6.6875 -1.660156 6.742188 -1.347656 6.859375 -1.109375 C 6.984375 -0.867188 7.238281 -0.6875 7.625 -0.5625 L 8.34375 -0.296875 L 8.34375 0 Z M 6.6875 -10.046875 L 8.125 -10.046875 C 9.570312 -10.046875 10.613281 -10.429688 11.25 -11.203125 C 11.882812 -11.972656 12.203125 -13.117188 12.203125 -14.640625 C 12.203125 -16.179688 11.898438 -17.328125 11.296875 -18.078125 C 10.703125 -18.828125 9.695312 -19.203125 8.28125 -19.203125 L 6.6875 -19.203125 Z M 6.6875 -10.046875 "/></g></g></g><g fill="#ffffff" fill-opacity="1"><g transform="translate(235.672285, 559.39756)"><g><path d="M 10.984375 0.546875 C 9.035156 0.546875 7.273438 0.148438 5.703125 -0.640625 C 4.140625 -1.429688 2.894531 -2.609375 1.96875 -4.171875 C 1.050781 -5.734375 0.59375 -7.644531 0.59375 -9.90625 C 0.59375 -11.625 0.875 -13.128906 1.4375 -14.421875 C 2 -15.722656 2.765625 -16.8125 3.734375 -17.6875 C 4.703125 -18.570312 5.820312 -19.234375 7.09375 -19.671875 C 8.363281 -20.117188 9.707031 -20.34375 11.125 -20.34375 C 12.269531 -20.34375 13.320312 -20.210938 14.28125 -19.953125 C 15.238281 -19.691406 16.140625 -19.332031 16.984375 -18.875 L 17.09375 -15.1875 L 16.796875 -15.1875 L 15.296875 -17.578125 C 15.097656 -17.960938 14.878906 -18.304688 14.640625 -18.609375 C 14.398438 -18.921875 14.097656 -19.15625 13.734375 -19.3125 C 13.441406 -19.457031 13.148438 -19.5625 12.859375 -19.625 C 12.566406 -19.695312 12.203125 -19.734375 11.765625 -19.734375 C 10.597656 -19.734375 9.539062 -19.421875 8.59375 -18.796875 C 7.644531 -18.179688 6.882812 -17.160156 6.3125 -15.734375 C 5.738281 -14.304688 5.453125 -12.351562 5.453125 -9.875 C 5.453125 -7.414062 5.722656 -5.46875 6.265625 -4.03125 C 6.804688 -2.601562 7.539062 -1.582031 8.46875 -0.96875 C 9.40625 -0.363281 10.453125 -0.0625 11.609375 -0.0625 C 12.242188 -0.0625 12.75 -0.101562 13.125 -0.1875 C 13.507812 -0.28125 13.894531 -0.414062 14.28125 -0.59375 C 14.65625 -0.757812 14.941406 -0.992188 15.140625 -1.296875 C 15.347656 -1.609375 15.53125 -1.945312 15.6875 -2.3125 L 17.015625 -5.25 L 17.3125 -5.25 L 17.21875 -0.953125 C 16.375 -0.515625 15.429688 -0.15625 14.390625 0.125 C 13.359375 0.40625 12.222656 0.546875 10.984375 0.546875 Z M 10.984375 0.546875 "/></g></g></g><g fill="#ffffff" fill-opacity="1"><g transform="translate(253.762269, 559.39756)"><g><path d="M 0.65625 0 L 0.65625 -0.296875 L 1.265625 -0.546875 C 1.660156 -0.679688 1.921875 -0.867188 2.046875 -1.109375 C 2.179688 -1.347656 2.25 -1.664062 2.25 -2.0625 L 2.25 -17.734375 C 2.25 -18.128906 2.1875 -18.445312 2.0625 -18.6875 C 1.945312 -18.925781 1.679688 -19.117188 1.265625 -19.265625 L 0.65625 -19.5 L 0.65625 -19.796875 L 8.375 -19.796875 L 8.375 -19.5 L 7.765625 -19.265625 C 7.367188 -19.117188 7.101562 -18.925781 6.96875 -18.6875 C 6.84375 -18.445312 6.78125 -18.128906 6.78125 -17.734375 L 6.78125 -2.0625 C 6.78125 -1.664062 6.84375 -1.351562 6.96875 -1.125 C 7.101562 -0.894531 7.367188 -0.703125 7.765625 -0.546875 L 8.375 -0.296875 L 8.375 0 Z M 0.65625 0 "/></g></g></g><g fill="#ffffff" fill-opacity="1"><g transform="translate(262.792264, 559.39756)"><g><path d="M 0.234375 0 L 0.234375 -0.296875 L 0.984375 -0.5625 C 1.390625 -0.726562 1.703125 -0.925781 1.921875 -1.15625 C 2.140625 -1.382812 2.316406 -1.707031 2.453125 -2.125 L 8.640625 -19.859375 L 11.1875 -19.859375 L 17.28125 -2.015625 C 17.4375 -1.566406 17.613281 -1.226562 17.8125 -1 C 18.019531 -0.769531 18.332031 -0.578125 18.75 -0.421875 L 19.109375 -0.296875 L 19.109375 0 L 11.484375 0 L 11.484375 -0.296875 L 11.9375 -0.453125 C 12.351562 -0.609375 12.609375 -0.832031 12.703125 -1.125 C 12.796875 -1.414062 12.78125 -1.757812 12.65625 -2.15625 L 11.25 -6.484375 L 4.59375 -6.484375 L 3.15625 -2.25 C 3.007812 -1.8125 2.960938 -1.460938 3.015625 -1.203125 C 3.066406 -0.941406 3.300781 -0.726562 3.71875 -0.5625 L 4.375 -0.296875 L 4.375 0 Z M 4.796875 -7.078125 L 11.0625 -7.078125 L 8.046875 -16.40625 Z M 4.796875 -7.078125 "/></g></g></g><g fill="#ffffff" fill-opacity="1"><g transform="translate(282.29224, 559.39756)"><g><path d="M 0.65625 0 L 0.65625 -0.296875 L 1.296875 -0.546875 C 1.710938 -0.703125 1.972656 -0.894531 2.078125 -1.125 C 2.191406 -1.351562 2.25 -1.664062 2.25 -2.0625 L 2.25 -17.734375 C 2.25 -18.128906 2.1875 -18.445312 2.0625 -18.6875 C 1.945312 -18.925781 1.691406 -19.117188 1.296875 -19.265625 L 0.65625 -19.5 L 0.65625 -19.796875 L 8.3125 -19.796875 L 8.3125 -19.5 L 7.765625 -19.265625 C 7.390625 -19.117188 7.128906 -18.921875 6.984375 -18.671875 C 6.847656 -18.421875 6.78125 -18.097656 6.78125 -17.703125 L 6.78125 -0.59375 L 11.40625 -0.59375 C 12.144531 -0.59375 12.6875 -0.773438 13.03125 -1.140625 C 13.382812 -1.503906 13.722656 -2.023438 14.046875 -2.703125 L 15.203125 -5.21875 L 15.515625 -5.21875 L 15.234375 0 Z M 0.65625 0 "/></g></g></g><g fill="#ffffff" fill-opacity="1"><g transform="translate(298.49333, 559.39756)"><g/></g></g><g fill="#ffffff" fill-opacity="1"><g transform="translate(305.033319, 559.39756)"><g/></g></g><g fill="#ffffff" fill-opacity="1"><g transform="translate(311.583177, 559.39756)"><g><path d="M 0.65625 0 L 0.65625 -0.296875 L 1.34375 -0.5625 C 1.6875 -0.707031 1.921875 -0.894531 2.046875 -1.125 C 2.179688 -1.351562 2.25 -1.664062 2.25 -2.0625 L 2.25 -17.734375 C 2.25 -18.128906 2.191406 -18.441406 2.078125 -18.671875 C 1.972656 -18.898438 1.726562 -19.085938 1.34375 -19.234375 L 0.65625 -19.5 L 0.65625 -19.796875 L 15.03125 -19.796875 L 15.203125 -15.1875 L 14.90625 -15.1875 L 13.625 -18 C 13.4375 -18.363281 13.242188 -18.65625 13.046875 -18.875 C 12.847656 -19.09375 12.550781 -19.203125 12.15625 -19.203125 L 6.75 -19.203125 L 6.75 -10.53125 L 9.953125 -10.53125 C 10.359375 -10.53125 10.664062 -10.632812 10.875 -10.84375 C 11.082031 -11.050781 11.269531 -11.335938 11.4375 -11.703125 L 12.03125 -12.90625 L 12.328125 -12.90625 L 12.328125 -7.5 L 12.03125 -7.5 L 11.4375 -8.765625 C 11.25 -9.117188 11.054688 -9.398438 10.859375 -9.609375 C 10.660156 -9.828125 10.359375 -9.9375 9.953125 -9.9375 L 6.75 -9.9375 L 6.75 -0.59375 L 12.8125 -0.59375 C 13.207031 -0.59375 13.515625 -0.695312 13.734375 -0.90625 C 13.953125 -1.125 14.132812 -1.421875 14.28125 -1.796875 L 15.515625 -4.625 L 15.8125 -4.625 L 15.625 0 Z M 0.65625 0 "/></g></g></g><g fill="#ffffff" fill-opacity="1"><g transform="translate(328.233162, 559.39756)"><g><path d="M 1.046875 0 L 1.046875 -0.296875 L 2.046875 -0.59375 C 2.398438 -0.695312 2.65625 -0.894531 2.8125 -1.1875 C 2.976562 -1.476562 3.0625 -1.820312 3.0625 -2.21875 L 3.0625 -16.65625 C 2.84375 -17.132812 2.664062 -17.492188 2.53125 -17.734375 C 2.40625 -17.972656 2.257812 -18.175781 2.09375 -18.34375 C 1.9375 -18.507812 1.71875 -18.722656 1.4375 -18.984375 L 0.9375 -19.5 L 0.9375 -19.796875 L 6.234375 -19.796875 L 16.203125 -6.203125 L 16.203125 -17.515625 C 16.203125 -17.921875 16.132812 -18.28125 16 -18.59375 C 15.875 -18.914062 15.609375 -19.128906 15.203125 -19.234375 L 14.21875 -19.5 L 14.21875 -19.796875 L 18.515625 -19.796875 L 18.515625 -19.5 L 17.703125 -19.234375 C 17.335938 -19.109375 17.113281 -18.894531 17.03125 -18.59375 C 16.957031 -18.300781 16.921875 -17.953125 16.921875 -17.546875 L 16.921875 0.09375 L 15.234375 0.09375 L 3.78125 -15.65625 L 3.78125 -2.21875 C 3.78125 -1.820312 3.835938 -1.484375 3.953125 -1.203125 C 4.078125 -0.921875 4.328125 -0.71875 4.703125 -0.59375 L 5.609375 -0.296875 L 5.609375 0 Z M 1.046875 0 "/></g></g></g><g fill="#ffffff" fill-opacity="1"><g transform="translate(347.823147, 559.39756)"><g><path d="M 4.6875 0 L 4.6875 -0.296875 L 5.90625 -0.59375 C 6.726562 -0.78125 7.140625 -1.28125 7.140625 -2.09375 L 7.140625 -19.203125 L 4.59375 -19.203125 C 3.851562 -19.203125 3.320312 -19.003906 3 -18.609375 C 2.675781 -18.222656 2.335938 -17.691406 1.984375 -17.015625 L 0.90625 -14.90625 L 0.59375 -14.90625 L 0.75 -19.796875 L 18.0625 -19.796875 L 18.1875 -14.90625 L 17.875 -14.90625 L 16.796875 -17.015625 C 16.460938 -17.691406 16.132812 -18.222656 15.8125 -18.609375 C 15.488281 -19.003906 14.957031 -19.203125 14.21875 -19.203125 L 11.671875 -19.203125 L 11.671875 -2.09375 C 11.671875 -1.28125 12.082031 -0.78125 12.90625 -0.59375 L 14.125 -0.296875 L 14.125 0 Z M 4.6875 0 "/></g></g></g><g fill="#ffffff" fill-opacity="1"><g transform="translate(366.633124, 559.39756)"><g><path d="M 0.65625 0 L 0.65625 -0.296875 L 1.34375 -0.5625 C 1.6875 -0.707031 1.921875 -0.894531 2.046875 -1.125 C 2.179688 -1.351562 2.25 -1.664062 2.25 -2.0625 L 2.25 -17.734375 C 2.25 -18.128906 2.191406 -18.441406 2.078125 -18.671875 C 1.972656 -18.898438 1.726562 -19.085938 1.34375 -19.234375 L 0.65625 -19.5 L 0.65625 -19.796875 L 15.03125 -19.796875 L 15.203125 -15.1875 L 14.90625 -15.1875 L 13.625 -18 C 13.4375 -18.363281 13.242188 -18.65625 13.046875 -18.875 C 12.847656 -19.09375 12.550781 -19.203125 12.15625 -19.203125 L 6.75 -19.203125 L 6.75 -10.53125 L 9.953125 -10.53125 C 10.359375 -10.53125 10.664062 -10.632812 10.875 -10.84375 C 11.082031 -11.050781 11.269531 -11.335938 11.4375 -11.703125 L 12.03125 -12.90625 L 12.328125 -12.90625 L 12.328125 -7.5 L 12.03125 -7.5 L 11.4375 -8.765625 C 11.25 -9.117188 11.054688 -9.398438 10.859375 -9.609375 C 10.660156 -9.828125 10.359375 -9.9375 9.953125 -9.9375 L 6.75 -9.9375 L 6.75 -0.59375 L 12.8125 -0.59375 C 13.207031 -0.59375 13.515625 -0.695312 13.734375 -0.90625 C 13.953125 -1.125 14.132812 -1.421875 14.28125 -1.796875 L 15.515625 -4.625 L 15.8125 -4.625 L 15.625 0 Z M 0.65625 0 "/></g></g></g><g fill="#ffffff" fill-opacity="1"><g transform="translate(383.283109, 559.39756)"><g><path d="M 0.65625 0 L 0.65625 -0.296875 L 1.296875 -0.515625 C 1.691406 -0.648438 1.945312 -0.832031 2.0625 -1.0625 C 2.1875 -1.289062 2.25 -1.617188 2.25 -2.046875 L 2.25 -17.734375 C 2.25 -18.128906 2.191406 -18.441406 2.078125 -18.671875 C 1.972656 -18.898438 1.726562 -19.085938 1.34375 -19.234375 L 0.65625 -19.5 L 0.65625 -19.796875 L 9.234375 -19.796875 C 11.597656 -19.796875 13.410156 -19.347656 14.671875 -18.453125 C 15.929688 -17.566406 16.5625 -16.335938 16.5625 -14.765625 C 16.5625 -13.878906 16.226562 -12.992188 15.5625 -12.109375 C 14.90625 -11.234375 13.867188 -10.554688 12.453125 -10.078125 L 16.625 -1.796875 C 16.800781 -1.460938 17.003906 -1.1875 17.234375 -0.96875 C 17.460938 -0.757812 17.769531 -0.578125 18.15625 -0.421875 L 18.546875 -0.265625 L 18.546875 0 L 13.171875 0 L 8.734375 -9.453125 L 6.6875 -9.453125 L 6.6875 -2.046875 C 6.6875 -1.660156 6.742188 -1.347656 6.859375 -1.109375 C 6.984375 -0.867188 7.238281 -0.6875 7.625 -0.5625 L 8.34375 -0.296875 L 8.34375 0 Z M 6.6875 -10.046875 L 8.125 -10.046875 C 9.570312 -10.046875 10.613281 -10.429688 11.25 -11.203125 C 11.882812 -11.972656 12.203125 -13.117188 12.203125 -14.640625 C 12.203125 -16.179688 11.898438 -17.328125 11.296875 -18.078125 C 10.703125 -18.828125 9.695312 -19.203125 8.28125 -19.203125 L 6.6875 -19.203125 Z M 6.6875 -10.046875 "/></g></g></g><g fill="#ffffff" fill-opacity="1"><g transform="translate(402.123094, 559.39756)"><g><path d="M 0.65625 0 L 0.65625 -0.296875 L 1.265625 -0.515625 C 1.660156 -0.628906 1.921875 -0.804688 2.046875 -1.046875 C 2.179688 -1.285156 2.25 -1.609375 2.25 -2.015625 L 2.25 -17.734375 C 2.25 -18.128906 2.175781 -18.445312 2.03125 -18.6875 C 1.894531 -18.925781 1.628906 -19.117188 1.234375 -19.265625 L 0.65625 -19.5 L 0.65625 -19.796875 L 7.953125 -19.796875 C 10.929688 -19.796875 13.082031 -19.25 14.40625 -18.15625 C 15.738281 -17.070312 16.40625 -15.640625 16.40625 -13.859375 C 16.40625 -12.722656 16.128906 -11.675781 15.578125 -10.71875 C 15.035156 -9.769531 14.132812 -9.015625 12.875 -8.453125 C 11.613281 -7.898438 9.910156 -7.625 7.765625 -7.625 L 6.75 -7.625 L 6.75 -2.09375 C 6.75 -1.320312 7.140625 -0.8125 7.921875 -0.5625 L 8.8125 -0.296875 L 8.8125 0 Z M 6.75 -8.21875 L 7.890625 -8.21875 C 8.867188 -8.21875 9.664062 -8.378906 10.28125 -8.703125 C 10.90625 -9.023438 11.367188 -9.582031 11.671875 -10.375 C 11.972656 -11.175781 12.125 -12.285156 12.125 -13.703125 C 12.125 -15.148438 11.957031 -16.269531 11.625 -17.0625 C 11.289062 -17.863281 10.800781 -18.421875 10.15625 -18.734375 C 9.519531 -19.046875 8.722656 -19.203125 7.765625 -19.203125 L 6.75 -19.203125 Z M 6.75 -8.21875 "/></g></g></g><g fill="#ffffff" fill-opacity="1"><g transform="translate(419.073075, 559.39756)"><g><path d="M 0.65625 0 L 0.65625 -0.296875 L 1.296875 -0.515625 C 1.691406 -0.648438 1.945312 -0.832031 2.0625 -1.0625 C 2.1875 -1.289062 2.25 -1.617188 2.25 -2.046875 L 2.25 -17.734375 C 2.25 -18.128906 2.191406 -18.441406 2.078125 -18.671875 C 1.972656 -18.898438 1.726562 -19.085938 1.34375 -19.234375 L 0.65625 -19.5 L 0.65625 -19.796875 L 9.234375 -19.796875 C 11.597656 -19.796875 13.410156 -19.347656 14.671875 -18.453125 C 15.929688 -17.566406 16.5625 -16.335938 16.5625 -14.765625 C 16.5625 -13.878906 16.226562 -12.992188 15.5625 -12.109375 C 14.90625 -11.234375 13.867188 -10.554688 12.453125 -10.078125 L 16.625 -1.796875 C 16.800781 -1.460938 17.003906 -1.1875 17.234375 -0.96875 C 17.460938 -0.757812 17.769531 -0.578125 18.15625 -0.421875 L 18.546875 -0.265625 L 18.546875 0 L 13.171875 0 L 8.734375 -9.453125 L 6.6875 -9.453125 L 6.6875 -2.046875 C 6.6875 -1.660156 6.742188 -1.347656 6.859375 -1.109375 C 6.984375 -0.867188 7.238281 -0.6875 7.625 -0.5625 L 8.34375 -0.296875 L 8.34375 0 Z M 6.6875 -10.046875 L 8.125 -10.046875 C 9.570312 -10.046875 10.613281 -10.429688 11.25 -11.203125 C 11.882812 -11.972656 12.203125 -13.117188 12.203125 -14.640625 C 12.203125 -16.179688 11.898438 -17.328125 11.296875 -18.078125 C 10.703125 -18.828125 9.695312 -19.203125 8.28125 -19.203125 L 6.6875 -19.203125 Z M 6.6875 -10.046875 "/></g></g></g><g fill="#ffffff" fill-opacity="1"><g transform="translate(437.913059, 559.39756)"><g><path d="M 0.65625 0 L 0.65625 -0.296875 L 1.265625 -0.546875 C 1.660156 -0.679688 1.921875 -0.867188 2.046875 -1.109375 C 2.179688 -1.347656 2.25 -1.664062 2.25 -2.0625 L 2.25 -17.734375 C 2.25 -18.128906 2.1875 -18.445312 2.0625 -18.6875 C 1.945312 -18.925781 1.679688 -19.117188 1.265625 -19.265625 L 0.65625 -19.5 L 0.65625 -19.796875 L 8.375 -19.796875 L 8.375 -19.5 L 7.765625 -19.265625 C 7.367188 -19.117188 7.101562 -18.925781 6.96875 -18.6875 C 6.84375 -18.445312 6.78125 -18.128906 6.78125 -17.734375 L 6.78125 -2.0625 C 6.78125 -1.664062 6.84375 -1.351562 6.96875 -1.125 C 7.101562 -0.894531 7.367188 -0.703125 7.765625 -0.546875 L 8.375 -0.296875 L 8.375 0 Z M 0.65625 0 "/></g></g></g><g fill="#ffffff" fill-opacity="1"><g transform="translate(446.943053, 559.39756)"><g><path d="M 7.109375 0.546875 C 6.003906 0.546875 4.882812 0.410156 3.75 0.140625 C 2.613281 -0.128906 1.664062 -0.488281 0.90625 -0.9375 L 1.046875 -5.015625 L 1.34375 -5.015625 L 2.28125 -3.0625 C 2.5625 -2.5 2.859375 -2.003906 3.171875 -1.578125 C 3.492188 -1.148438 3.9375 -0.8125 4.5 -0.5625 C 4.894531 -0.363281 5.273438 -0.226562 5.640625 -0.15625 C 6.015625 -0.09375 6.4375 -0.0625 6.90625 -0.0625 C 8.125 -0.0625 9.085938 -0.390625 9.796875 -1.046875 C 10.503906 -1.710938 10.859375 -2.5625 10.859375 -3.59375 C 10.859375 -4.570312 10.617188 -5.335938 10.140625 -5.890625 C 9.660156 -6.441406 8.890625 -6.976562 7.828125 -7.5 L 6.59375 -8.046875 C 4.875 -8.804688 3.53125 -9.679688 2.5625 -10.671875 C 1.59375 -11.660156 1.109375 -12.972656 1.109375 -14.609375 C 1.109375 -15.785156 1.410156 -16.800781 2.015625 -17.65625 C 2.628906 -18.519531 3.476562 -19.179688 4.5625 -19.640625 C 5.65625 -20.109375 6.9375 -20.34375 8.40625 -20.34375 C 9.457031 -20.34375 10.457031 -20.203125 11.40625 -19.921875 C 12.363281 -19.640625 13.191406 -19.257812 13.890625 -18.78125 L 13.703125 -15.1875 L 13.40625 -15.1875 L 12.1875 -17.4375 C 11.84375 -18.132812 11.5 -18.625 11.15625 -18.90625 C 10.820312 -19.195312 10.429688 -19.40625 9.984375 -19.53125 C 9.722656 -19.613281 9.484375 -19.664062 9.265625 -19.6875 C 9.046875 -19.71875 8.769531 -19.734375 8.4375 -19.734375 C 7.414062 -19.734375 6.550781 -19.4375 5.84375 -18.84375 C 5.144531 -18.257812 4.796875 -17.46875 4.796875 -16.46875 C 4.796875 -15.445312 5.066406 -14.628906 5.609375 -14.015625 C 6.148438 -13.410156 6.941406 -12.867188 7.984375 -12.390625 L 9.359375 -11.796875 C 11.273438 -10.953125 12.65625 -10.054688 13.5 -9.109375 C 14.34375 -8.160156 14.765625 -6.9375 14.765625 -5.4375 C 14.765625 -3.675781 14.097656 -2.238281 12.765625 -1.125 C 11.429688 -0.0078125 9.546875 0.546875 7.109375 0.546875 Z M 7.109375 0.546875 "/></g></g></g><g fill="#ffffff" fill-opacity="1"><g transform="translate(462.573038, 559.39756)"><g><path d="M 0.65625 0 L 0.65625 -0.296875 L 1.34375 -0.5625 C 1.6875 -0.707031 1.921875 -0.894531 2.046875 -1.125 C 2.179688 -1.351562 2.25 -1.664062 2.25 -2.0625 L 2.25 -17.734375 C 2.25 -18.128906 2.191406 -18.441406 2.078125 -18.671875 C 1.972656 -18.898438 1.726562 -19.085938 1.34375 -19.234375 L 0.65625 -19.5 L 0.65625 -19.796875 L 15.03125 -19.796875 L 15.203125 -15.1875 L 14.90625 -15.1875 L 13.625 -18 C 13.4375 -18.363281 13.242188 -18.65625 13.046875 -18.875 C 12.847656 -19.09375 12.550781 -19.203125 12.15625 -19.203125 L 6.75 -19.203125 L 6.75 -10.53125 L 9.953125 -10.53125 C 10.359375 -10.53125 10.664062 -10.632812 10.875 -10.84375 C 11.082031 -11.050781 11.269531 -11.335938 11.4375 -11.703125 L 12.03125 -12.90625 L 12.328125 -12.90625 L 12.328125 -7.5 L 12.03125 -7.5 L 11.4375 -8.765625 C 11.25 -9.117188 11.054688 -9.398438 10.859375 -9.609375 C 10.660156 -9.828125 10.359375 -9.9375 9.953125 -9.9375 L 6.75 -9.9375 L 6.75 -0.59375 L 12.8125 -0.59375 C 13.207031 -0.59375 13.515625 -0.695312 13.734375 -0.90625 C 13.953125 -1.125 14.132812 -1.421875 14.28125 -1.796875 L 15.515625 -4.625 L 15.8125 -4.625 L 15.625 0 Z M 0.65625 0 "/></g></g></g><g fill="#ffffff" fill-opacity="1"><g transform="translate(479.231606, 559.39756)"><g/></g></g><g fill="#ffffff" fill-opacity="1"><g transform="translate(485.771595, 559.39756)"><g/></g></g><g fill="#ffffff" fill-opacity="1"><g transform="translate(492.321445, 559.39756)"><g><path d="M 0.65625 0 L 0.65625 -0.296875 L 1.296875 -0.546875 C 1.710938 -0.703125 1.972656 -0.894531 2.078125 -1.125 C 2.191406 -1.351562 2.25 -1.664062 2.25 -2.0625 L 2.25 -17.734375 C 2.25 -18.128906 2.1875 -18.445312 2.0625 -18.6875 C 1.945312 -18.925781 1.691406 -19.117188 1.296875 -19.265625 L 0.65625 -19.5 L 0.65625 -19.796875 L 8.3125 -19.796875 L 8.3125 -19.5 L 7.765625 -19.265625 C 7.390625 -19.117188 7.128906 -18.921875 6.984375 -18.671875 C 6.847656 -18.421875 6.78125 -18.097656 6.78125 -17.703125 L 6.78125 -0.59375 L 11.40625 -0.59375 C 12.144531 -0.59375 12.6875 -0.773438 13.03125 -1.140625 C 13.382812 -1.503906 13.722656 -2.023438 14.046875 -2.703125 L 15.203125 -5.21875 L 15.515625 -5.21875 L 15.234375 0 Z M 0.65625 0 "/></g></g></g><g fill="#ffffff" fill-opacity="1"><g transform="translate(508.521426, 559.39756)"><g><path d="M 0.65625 0 L 0.65625 -0.296875 L 1.296875 -0.546875 C 1.710938 -0.703125 1.972656 -0.894531 2.078125 -1.125 C 2.191406 -1.351562 2.25 -1.664062 2.25 -2.0625 L 2.25 -17.734375 C 2.25 -18.128906 2.1875 -18.445312 2.0625 -18.6875 C 1.945312 -18.925781 1.691406 -19.117188 1.296875 -19.265625 L 0.65625 -19.5 L 0.65625 -19.796875 L 8.3125 -19.796875 L 8.3125 -19.5 L 7.765625 -19.265625 C 7.390625 -19.117188 7.128906 -18.921875 6.984375 -18.671875 C 6.847656 -18.421875 6.78125 -18.097656 6.78125 -17.703125 L 6.78125 -0.59375 L 11.40625 -0.59375 C 12.144531 -0.59375 12.6875 -0.773438 13.03125 -1.140625 C 13.382812 -1.503906 13.722656 -2.023438 14.046875 -2.703125 L 15.203125 -5.21875 L 15.515625 -5.21875 L 15.234375 0 Z M 0.65625 0 "/></g></g></g><g fill="#ffffff" fill-opacity="1"><g transform="translate(524.721408, 559.39756)"><g><path d="M 10.984375 0.546875 C 9.035156 0.546875 7.273438 0.148438 5.703125 -0.640625 C 4.140625 -1.429688 2.894531 -2.609375 1.96875 -4.171875 C 1.050781 -5.734375 0.59375 -7.644531 0.59375 -9.90625 C 0.59375 -11.625 0.875 -13.128906 1.4375 -14.421875 C 2 -15.722656 2.765625 -16.8125 3.734375 -17.6875 C 4.703125 -18.570312 5.820312 -19.234375 7.09375 -19.671875 C 8.363281 -20.117188 9.707031 -20.34375 11.125 -20.34375 C 12.269531 -20.34375 13.320312 -20.210938 14.28125 -19.953125 C 15.238281 -19.691406 16.140625 -19.332031 16.984375 -18.875 L 17.09375 -15.1875 L 16.796875 -15.1875 L 15.296875 -17.578125 C 15.097656 -17.960938 14.878906 -18.304688 14.640625 -18.609375 C 14.398438 -18.921875 14.097656 -19.15625 13.734375 -19.3125 C 13.441406 -19.457031 13.148438 -19.5625 12.859375 -19.625 C 12.566406 -19.695312 12.203125 -19.734375 11.765625 -19.734375 C 10.597656 -19.734375 9.539062 -19.421875 8.59375 -18.796875 C 7.644531 -18.179688 6.882812 -17.160156 6.3125 -15.734375 C 5.738281 -14.304688 5.453125 -12.351562 5.453125 -9.875 C 5.453125 -7.414062 5.722656 -5.46875 6.265625 -4.03125 C 6.804688 -2.601562 7.539062 -1.582031 8.46875 -0.96875 C 9.40625 -0.363281 10.453125 -0.0625 11.609375 -0.0625 C 12.242188 -0.0625 12.75 -0.101562 13.125 -0.1875 C 13.507812 -0.28125 13.894531 -0.414062 14.28125 -0.59375 C 14.65625 -0.757812 14.941406 -0.992188 15.140625 -1.296875 C 15.347656 -1.609375 15.53125 -1.945312 15.6875 -2.3125 L 17.015625 -5.25 L 17.3125 -5.25 L 17.21875 -0.953125 C 16.375 -0.515625 15.429688 -0.15625 14.390625 0.125 C 13.359375 0.40625 12.222656 0.546875 10.984375 0.546875 Z M 10.984375 0.546875 "/></g></g></g></svg>