<svg width="40" height="40" viewBox="0 0 40 40" fill="none" xmlns="http://www.w3.org/2000/svg">
<path d="M34.375 27.5001V32.5001C34.375 32.8316 34.2433 33.1495 34.0089 33.3839C33.7745 33.6184 33.4565 33.7501 33.125 33.7501H29.375C29.0435 33.7501 28.7255 33.6184 28.4911 33.3839C28.2567 33.1495 28.125 32.8316 28.125 32.5001V27.5001" stroke="#002244" stroke-width="2.5" stroke-linecap="round" stroke-linejoin="round"/>
<path d="M11.875 27.5001V32.5001C11.875 32.8316 11.7433 33.1495 11.5089 33.3839C11.2745 33.6184 10.9565 33.7501 10.625 33.7501H6.875C6.54348 33.7501 6.22554 33.6184 5.99112 33.3839C5.7567 33.1495 5.625 32.8316 5.625 32.5001V27.5001" stroke="#002244" stroke-width="2.5" stroke-linecap="round" stroke-linejoin="round"/>
<path d="M2.5 15.0001H37.5" stroke="#002244" stroke-width="2.5" stroke-linecap="round" stroke-linejoin="round"/>
<path d="M22.5 20.0001V27.5001" stroke="#002244" stroke-width="2.5" stroke-linecap="round" stroke-linejoin="round"/>
<path d="M17.5 20.0001V27.5001" stroke="#002244" stroke-width="2.5" stroke-linecap="round" stroke-linejoin="round"/>
<path d="M34.375 27.5001H5.625V15.0001L6.71875 7.32819C6.76015 7.02995 6.90781 6.75667 7.13459 6.5586C7.36137 6.36052 7.65203 6.25097 7.95313 6.25006H32.0469C32.348 6.25097 32.6386 6.36052 32.8654 6.5586C33.0922 6.75667 33.2398 7.02995 33.2812 7.32819L34.375 15.0001V27.5001Z" stroke="#002244" stroke-width="2.5" stroke-linecap="round" stroke-linejoin="round"/>
<path d="M11.25 22.5001C12.2855 22.5001 13.125 21.6606 13.125 20.6251C13.125 19.5895 12.2855 18.7501 11.25 18.7501C10.2145 18.7501 9.375 19.5895 9.375 20.6251C9.375 21.6606 10.2145 22.5001 11.25 22.5001Z" fill="#002244"/>
<path d="M28.75 22.5001C29.7855 22.5001 30.625 21.6606 30.625 20.6251C30.625 19.5895 29.7855 18.7501 28.75 18.7501C27.7145 18.7501 26.875 19.5895 26.875 20.6251C26.875 21.6606 27.7145 22.5001 28.75 22.5001Z" fill="#002244"/>
</svg>
