<svg xmlns="http://www.w3.org/2000/svg" xmlns:xlink="http://www.w3.org/1999/xlink" version="1.1" width="1703.72pt" height="1296pt" viewBox="0 0 1703.72 1296">
<defs>
<clipPath id="clip_0">
<path transform="matrix(1,0,0,-1,0,1296)" d="M0 1296H1703.722V0H0Z"/>
</clipPath>
<clipPath id="clip_1">
<path transform="matrix(1,0,0,-1,0,1296)" d="M0 1296H1703.722V0H0Z"/>
</clipPath>
<clipPath id="clip_2">
<path transform="matrix(1,0,0,-1,0,1296)" d="M0 1296H1703.722V0H0Z"/>
</clipPath>
</defs>
<g>
<g id="layer_1" data-name="">
<g clip-path="url(#clip_0)">
<path transform="matrix(1,0,0,-1,84.9976,876.6855)" d="M0 0C-1.888-.62-4.067-.809-6.769-.79-4.958-.245-2.625 .093 0 0"/>
<path transform="matrix(1,0,0,-1,35.9541,877.6865)" d="M0 0C-.097-.281-.333-.365-.93-.334-1.021 .315-.639 .455 0 0"/>
<path transform="matrix(1,0,0,-1,1643.8369,902.86917)" d="M0 0C0 10.159 8.609 18.395 19.229 18.395 29.85 18.395 38.459 10.159 38.459 0 38.459-10.159 29.85-18.396 19.229-18.396 8.609-18.396 0-10.159 0 0" fill="#2c4964"/>
</g>
<text fill="#ffffff" xml:space="preserve" transform="matrix(1.0030805 0 -0 .996929 0 1296)" font-size="35.585184" font-family="Baskerville" font-weight="bold"><tspan y="-382.49107" x="1645.3778">R</tspan></text>
<g clip-path="url(#clip_1)">
<path transform="matrix(1,0,0,-1,1663.1611,904.541)" stroke-width="1" stroke-linecap="butt" stroke-miterlimit="10" stroke-linejoin="miter" fill="none" stroke="#ffffff" d="M0 0C.389-.134 .77-.437 1.142-.91 1.513-1.384 2.158-2.44 3.076-4.08 4.9-7.325 6.149-9.346 6.823-10.143H14.213V-8.22C13.504-8.22 12.854-7.998 12.261-7.553 11.669-7.108 10.675-5.807 9.28-3.646 7.491-.853 6.172 .811 5.324 1.342 8.508 2.37 10.1 4.281 10.1 7.076 10.1 8.126 9.83 9.108 9.289 10.021 8.749 10.933 8.009 11.651 7.067 12.177 6.126 12.702 5.17 13.034 4.2 13.173 3.229 13.312 1.693 13.381-.41 13.381L-2.536 13.363-12.018 13.347V11.424H-11.547C-10.396 11.424-9.636 11.213-9.264 10.791-8.893 10.37-8.706 9.622-8.706 8.548V-5.345C-8.706-6.396-8.884-7.137-9.237-7.57-9.593-8.003-10.362-8.22-11.547-8.22H-12.018V-10.143H.723V-8.22H.305C-.846-8.22-1.606-8.009-1.979-7.588-2.351-7.166-2.536-6.418-2.536-5.345V.216C-1.235 .204-.39 .132 0 0ZM-2.536 11.198C-2.142 11.21-1.821 11.216-1.578 11.216 .34 11.216 1.69 10.898 2.475 10.263 3.259 9.628 3.651 8.484 3.651 6.833 3.651 5.679 3.453 4.764 3.059 4.088 2.663 3.412 2.123 2.944 1.437 2.685 .752 2.425-.572 2.307-2.536 2.329V11.198Z"/>
<path transform="matrix(1,0,0,-1,84.9976,876.6855)" d="M0 0C-1.888-.62-4.067-.809-6.769-.79-4.958-.245-2.625 .093 0 0"/>
<path transform="matrix(1,0,0,-1,35.9541,877.6865)" d="M0 0C-.097-.281-.333-.365-.93-.334-1.021 .315-.639 .455 0 0"/>
<path transform="matrix(1,0,0,-1,25.7222,878.9502)" d="M0 0C0 .691 .66 .748 1.058 .231 9.381-6.191 13.992-13.987 14.824-23.824 15.278-29.198 15.717-34.594 15.724-39.979 15.796-93.702 15.874-147.425 15.724-201.147 15.679-217.363 14.726-233.513 1.388-245.61 1.388-245.61 .693-245.631 .347-245.61 0-163.958 0-82.324 0 0" fill="#2c4964"/>
<path transform="matrix(1,0,0,-1,794.7988,1015.02249)" d="M0 0H32.414C23.595 24.967 15.176 48.8 6.207 74.193-2.578 48.473-10.737 24.583-19.132 0ZM330.583 137.593C336.093 137.655 341.654 137.206 347.885 136.803 366.055 136.848 383.555 136.848 401.26 136.848 401.139 136.591 400.936 135.639 400.363 135.028 391.301 125.362 387.3 113.64 387.156 100.755 386.706 60.218 386.512 19.678 386.348-20.861 386.231-49.366 386.325-77.871 386.325-106.375V-118.081C378.849-116.324 372.311-115.341 366.156-113.247 337.156-103.387 312.864-87.432 294.602-62.139 270.538-28.812 245.108 3.544 220.264 36.316 218.796 38.251 217.309 40.171 215.145 42.991 214.659 40.859 214.149 39.638 214.137 38.411 213.779 4.26 213.396-29.893 213.193-64.045 213.098-80.033 214.951-95.497 229.967-108.423H46.119C55.103-101.645 62.073-93.513 60.072-81.418 59.205-76.172 57.194-71.098 55.547-65.995 53.965-61.093 52.189-56.251 50.485-51.388 44.621-34.657 44.619-34.655 26.409-34.659 9.324-34.662-7.764-34.816-24.845-34.568-28.744-34.512-30.662-35.714-31.804-39.275-35.321-50.243-38.927-61.186-42.681-72.075-47.338-85.588-48.316-98.149-34.399-108.439H-108.158C-108.12-108.742-108.397-108.082-108.2-107.882-93.723-93.207-87.011-74.562-80.522-55.663-63.245-5.348-45.649 44.859-28.181 95.11-27.617 96.732-27.086 98.365-26.5 99.979-21.423 113.938-21.698 126.57-37.625 136.446-33.505 136.665-31.443 136.842-29.378 136.874-3.631 137.273 22.123 137.454 47.861 138.19 53.614 138.354 55.754 136.466 57.662 131.253 79.589 71.357 101.788 11.56 123.994-48.234 131.511-68.475 138.142-89.243 155.26-104.222 156.169-105.017 157.072-105.817 158.396-106.984 168.173-97.337 172.829-85.622 172.897-72.599 173.188-17.316 173.094 37.97 172.955 93.254 172.912 110.305 164.058 123.525 152.148 136.078 154.144 136.423 155.416 136.815 156.694 136.839 178.727 137.253 200.767 137.401 222.787 138.151 228.467 138.345 231.759 136.416 235.044 132.093 270.345 85.625 305.822 39.289 341.293-7.052 342.864-9.104 344.832-10.858 347.29-11.972 348.129-10.232 348.434-9.272 348.434-8.313 348.457 26.819 348.484 61.952 348.368 97.084 348.361 99.056 347.144 101.024 346.489 102.994 345.093 116.138 339.193 127.219 330.583 137.593" fill="#2c4964"/>
<path transform="matrix(1,0,0,-1,310.7529,1023.67678)" d="M0 0C4.199-11.462 7.271-23.495 12.823-34.271 25.966-59.775 49.491-71.461 75.619-66.998 101.09-62.647 122.431-40.385 126.747-14.227 130.937 11.164 129.354 36.193 121.613 60.613 115.833 78.848 107.227 95.809 90.194 106.504 58.196 126.595 17.445 111.099 3.209 74.157-6.065 50.09-6.15 25.843 0 0M156.447-74.443C121.726-101.63 82.175-108.595 39.896-104.496 7.788-101.384-20.104-88.954-42.994-66.021-67.775-41.191-77.871-10.612-77.892 23.535-77.918 66.494-60.472 101.127-25.116 126.155 6.336 148.42 42.066 154.825 79.924 152.02 104.424 150.204 127.653 144.241 148.523 130.812 178.62 111.445 195.499 83.63 200.651 48.816 204.979 19.578 202.611-9.003 188.821-35.84 181.061-50.942 170.117-63.502 156.447-74.443" fill="#2c4964"/>
<path transform="matrix(1,0,0,-1,1343.5039,1091.8428)" d="M0 0C32.38-.059 59.09 22.444 64.39 54.009 68.7 79.675 66.974 104.977 58.994 129.637 53.17 147.637 44.469 164.233 27.657 174.837-4.042 194.831-45.075 179.437-59.055 141.875-74.115 101.406-66.778 62.97-45.154 26.979-35.632 11.132-20.471 1.749 0 0M131.234 144.28C144.137 105.089 144.647 66.932 125.128 30.247 110.143 2.084 86.306-16.894 56.396-27.332 12.102-42.791-32.396-42.888-74.452-20.568-120.848 4.053-141.037 44.456-140.103 96.053-138.774 169.388-77.93 214.514-17.352 219.74 7.876 221.916 32.655 220.656 56.688 212.792 91.671 201.345 117.034 179.068 131.234 144.28" fill="#2c4964"/>
<path transform="matrix(1,0,0,-1,141.3652,959.5967)" d="M0 0C1.548 7.559 4.336 15.113 4.362 22.678 4.405 34.884-3.025 44.208-12.605 46.813-24.973 50.175-29.844 46.631-29.845 34.271V20.294-12.382C-16.519-15.516-8.639-12.27 0 0M-29.392-124.778C-12.221-134.916 8.596-128.679 16.513-110.625 22.575-96.802 22.743-82.476 17.852-68.266 14.324-58.016 6.77-51.226-3.661-48.779-11.884-46.851-20.522-46.662-29.765-45.611-29.765-72.578-29.765-98.048-29.392-124.778M-113.552-164.965C-100.917-152.866-99.964-136.717-99.919-120.501-99.77-66.778-99.847-13.056-99.919 40.667-99.926 46.053-100.365 51.448-100.819 56.822-101.651 66.659-106.262 74.455-114.254 80.873-112.2 81.422-110.079 81.46-106.97 81.479-105.745 81.545-105.508 81.629-105.271 81.713-91.844 81.785-78.418 81.856-63.802 81.921-60.435 82.103-58.255 82.291-56.077 82.48-40.249 82.525-24.418 82.737-8.592 82.557 1.541 82.44 11.676 81.904 21.793 81.278 47.457 79.691 84.819 47.274 73.033 9.506 68.115-6.254 56.3-15.484 41.741-21.897 40.181-22.585 38.563-23.145 36.875-23.802 44.44-26.913 52.339-29.007 58.997-33.093 94.065-54.609 99.992-104.88 71.981-137.383 55.707-156.268 34.803-164.466 10.41-164.652-30.674-164.965-71.762-164.882-113.552-164.965" fill="#2c4964"/>
<path transform="matrix(1,0,0,-1,1645.2803,1103.6397)" d="M0 0C-17.722-16.179-38.728-23.292-61.728-24.999-91.89-27.238-121.487-24.303-149.969-13.564-151.948-12.818-154.456-10.918-154.907-9.11-158.985 7.257-162.66 23.724-166.8 41.666-150.822 29.727-134.544 21.735-116.785 16.841-101.59 12.653-86.191 10.97-70.636 14.523-59.739 17.012-50.589 21.991-47.944 33.98-45.381 45.604-50.667 54.796-59.849 60.512-75.926 70.519-93.034 78.878-109.463 88.35-120.097 94.479-131.725 99.875-140.435 108.16-180.751 146.506-165.057 209.381-111.066 226.147-76.909 236.756-42.715 234.107-9.134 222.475-7.646 221.96-5.585 220.116-5.561 218.857-5.301 205.472-5.399 192.08-5.399 179.503-17.96 184.198-29.85 189.572-42.282 193.01-53.247 196.041-64.816 196.209-75.825 191.846-94.123 184.594-97.253 164.646-81.493 152.939-75.059 148.161-67.436 144.806-60.048 141.471-40.033 132.437-20.007 123.808-2.92 109.329 34.026 78.023 28.436 25.134 0 0" fill="#2c4964"/>
<path transform="matrix(1,0,0,-1,682.7329,1102.6377)" d="M0 0C-2.073-7.645-4.035-14.696-5.94-21.545H-170.171C-156.804-10.202-155.002 4.262-154.979 19.184-154.894 74.962-154.843 130.741-155.029 186.52-155.075 200.412-156.607 214.097-169 224.653H-71.296C-86.562 211.092-84.883 192.348-84.913 174.124-84.994 125.225-84.831 76.325-85.088 27.429-85.118 21.684-83.179 19.422-77.857 17.837-52.683 10.337-21.979 14.051 7.938 29.261 5.145 19.027 2.628 9.811 0 0" fill="#2c4964"/>
<path transform="matrix(1,0,0,-1,1141.2305,912.7324)" d="M0 0C.712-1.266 1.93-3.234 1.937-5.206 2.053-40.338 2.025-75.471 2.002-110.603 2.002-111.563 1.697-112.522 1.13-113.933 .657-82.598 .617-50.813 .497-19.027 .474-12.919 .136-6.812 0 0" fill="#2c4964"/>
</g>
<text fill="#2c4964" xml:space="preserve" transform="matrix(1.0030804 0 -0 .99692919 0 1296)" font-size="67.33638" font-family="Baskerville" font-weight="bold"><tspan y="-106.83687" x="41.46168 113.44427 191.01578 279.1591 367.3024 433.6624 503.7663 575.7489 624.56777 688.80667 753.04556 791.36 857.72 931.79 1001.6852 1068.045 1140.0277 1204.2666 1276.2492 1325.068 1384.4249 1450.7849 1489.0993 1553.3381 1616.9373">COMMERCIAL ENTERPRISE LLC</tspan></text>
<g clip-path="url(#clip_2)">
<path transform="matrix(1,0,0,-1,25.7222,878.9502)" d="M0 0C0 .691 .66 .748 1.058 .231 9.381-6.191 13.992-13.987 14.824-23.824 15.278-29.198 15.717-34.594 15.724-39.979 15.796-93.702 15.874-147.425 15.724-201.147 15.679-217.363 14.726-233.513 1.388-245.61 1.388-245.61 .693-245.631 .347-245.61 0-163.958 0-82.324 0 0" fill="#2c4964"/>
<path transform="matrix(1,0,0,-1,141.3652,959.5967)" d="M0 0C1.548 7.559 4.336 15.113 4.362 22.678 4.405 34.884-3.025 44.208-12.605 46.813-24.973 50.175-29.844 46.631-29.845 34.271V20.294-12.382C-16.519-15.516-8.639-12.27 0 0M-29.392-124.778C-12.221-134.916 8.596-128.679 16.513-110.625 22.575-96.802 22.743-82.476 17.852-68.266 14.324-58.016 6.77-51.226-3.661-48.779-11.884-46.851-20.522-46.662-29.765-45.611-29.765-72.578-29.765-98.048-29.392-124.778M-113.552-164.965C-100.917-152.866-99.964-136.717-99.919-120.501-99.77-66.778-99.847-13.056-99.919 40.667-99.926 46.053-100.365 51.448-100.819 56.822-101.651 66.659-106.262 74.455-114.254 80.873-112.2 81.422-110.079 81.46-106.97 81.479-105.745 81.545-105.508 81.629-105.271 81.713-91.844 81.785-78.418 81.856-63.802 81.921-60.435 82.103-58.255 82.291-56.077 82.48-40.249 82.525-24.418 82.737-8.592 82.557 1.541 82.44 11.676 81.904 21.793 81.278 47.457 79.691 84.819 47.274 73.033 9.506 68.115-6.254 56.3-15.484 41.741-21.897 40.181-22.585 38.563-23.145 36.875-23.802 44.44-26.913 52.339-29.007 58.997-33.093 94.065-54.609 99.992-104.88 71.981-137.383 55.707-156.268 34.803-164.466 10.41-164.652-30.674-164.965-71.762-164.882-113.552-164.965" fill="#2c4964"/>
<path transform="matrix(1,0,0,-1,141.3652,959.5967)" stroke-width="1" stroke-linecap="butt" stroke-miterlimit="10" stroke-linejoin="miter" fill="none" stroke="#2c4964" d="M0 0C1.548 7.559 4.336 15.113 4.362 22.678 4.405 34.884-3.025 44.208-12.605 46.813-24.973 50.175-29.844 46.631-29.845 34.271V20.294-12.382C-16.519-15.516-8.639-12.27 0 0ZM-29.392-124.778C-12.221-134.916 8.596-128.679 16.513-110.625 22.575-96.802 22.743-82.476 17.852-68.266 14.324-58.016 6.77-51.226-3.661-48.779-11.884-46.851-20.522-46.662-29.765-45.611-29.765-72.578-29.765-98.048-29.392-124.778ZM-113.552-164.965C-100.917-152.866-99.964-136.717-99.919-120.501-99.77-66.778-99.847-13.056-99.919 40.667-99.926 46.053-100.365 51.448-100.819 56.822-101.651 66.659-106.262 74.455-114.254 80.873-112.2 81.422-110.079 81.46-106.97 81.479-105.745 81.545-105.508 81.629-105.271 81.713-91.844 81.785-78.418 81.856-63.802 81.921-60.435 82.103-58.255 82.291-56.077 82.48-40.249 82.525-24.418 82.737-8.592 82.557 1.541 82.44 11.676 81.904 21.793 81.278 47.457 79.691 84.819 47.274 73.033 9.506 68.115-6.254 56.3-15.484 41.741-21.897 40.181-22.585 38.563-23.145 36.875-23.802 44.44-26.913 52.339-29.007 58.997-33.093 94.065-54.609 99.992-104.88 71.981-137.383 55.707-156.268 34.803-164.466 10.41-164.652-30.674-164.965-71.762-164.882-113.552-164.965Z"/>
<path transform="matrix(1,0,0,-1,1141.2305,912.7324)" d="M0 0C.712-1.266 1.93-3.234 1.937-5.206 2.053-40.338 2.025-75.471 2.002-110.603 2.002-111.563 1.697-112.522 1.13-113.933 .657-82.598 .617-50.813 .497-19.027 .474-12.919 .136-6.812 0 0" fill="#2c4964"/>
<path transform="matrix(1,0,0,-1,457.8003,424.9209)" d="M0 0C.674 .64 1.714 .909 2.754 1.178 2.686 .574 2.617-.031 1.825-.872 1.103-1.107 .365-.372 0 0" fill="#2c4964"/>
<path transform="matrix(1,0,0,-1,821.4419,425.6479)" d="M0 0C-1.082 .283-1.712 1.024-2.344 1.765-1.565 1.934-.787 2.103 .656 1.837 1.321 1.404 .45 .458 0 0" fill="#2c4964"/>
<path transform="matrix(1,0,0,-1,1031.9658,331.51814)" d="M0 0C8.992-2.822 17.984-5.645 28.755-9.025 27.119-4.94 26.597-2.964 25.6-1.245 8.632 27.993-11.045 55.221-35.913 78.852-60.904 102.599-89.236 121-122.452 132.025-127.51 133.704-132.88 134.5-139.319 135.985-131.53 121.27-123.318 108.787-118.108 95.223-109.83 73.672-103.243 51.488-96.626 29.38-94.693 22.925-90.897 20.427-84.834 19.11-56.952 13.058-29.104 6.862 0 0M189.755-147.483C159.801-101.789 116.914-70.798 66.7-43.977 67.458-48.104 67.575-49.204 67.865-50.259 76.596-82.038 87.035-113.502 93.365-145.723 96.462-161.487 103.608-166.902 118.082-169.883 150.99-176.662 182.476-187.378 210.685-205.773 212.259-206.799 214.146-207.375 216.825-208.584 213.474-185.496 202.44-166.821 189.755-147.483M-288.768 107.695C-333.538 78.685-364.607 38.502-389.675-6.84-386.437-7.568-384.006-7.585-381.841-6.86-346.488 4.983-310.736 15.381-273.56 20.334-267.058 21.201-264.742 24.949-263.939 30.136-258.481 65.36-244.454 97.417-225.811 127.807-224.252 130.347-223.008 133.068-220.606 137.622-229.973 134.968-237.283 133.884-243.64 130.899-258.564 123.891-273.032 115.974-288.768 107.695M-132.772 24.582H-114.437C-114.437 26.09-114.224 27.271-114.467 28.355-121.497 59.667-132.065 89.756-149.66 117.044-154.513 124.568-161.363 131.204-168.389 137.009-175.797 143.13-184.95 142.752-192.846 137.495-198.231 133.908-203.982 129.576-207.051 124.225-216.241 108.199-225.225 91.914-232.331 74.961-239.057 58.913-243.305 41.893-248.837 24.7-209.482 24.7-171.974 24.7-132.772 24.582M-301.967 123.351C-309.396 121.017-316.996 119.097-324.227 116.287-433.506 73.811-510.016-.903-556.338-105.204-558.358-109.753-560.183-114.408-561.718-119.129-563.219-123.745-564.233-128.51-565.788-134.461-563.812-133.107-563.195-132.87-562.864-132.431-526.886-84.621-479.625-50.337-425.343-24.262-420.4-21.887-415.53-17.365-412.984-12.648-397.534 15.986-381.69 44.444-358.369 67.867-339.527 86.791-319.248 104.374-298.657 122.848-298.612 123.227-298.567 123.606-298.521 123.985-299.204 123.816-299.887 123.647-301.967 123.351M201.79-132.588C202.396-132.811 203.002-133.033 203.608-133.256 203.276-132.371 202.945-131.487 202.547-129.209 200.442-122.524 198.865-115.632 196.152-109.187 158.186-18.983 95.787 50.204 6.725 96.289-14.844 107.449-36.281 118.996-61.551 124.214-62.063 124.108-62.573 124.002-63.084 123.896-62.67 123.432-62.256 122.968-61.314 121.429-14.264 87.482 22.355 45.285 46.614-6.639 50.646-15.271 56.832-21.225 65.692-25.606 92.919-39.069 119.15-54.004 143.163-72.678 165.372-89.949 183.025-111.059 201.79-132.588M199.35-365.676C189.579-377.191 179.809-388.705 170.072-400.179 158.242-391.499 157.573-387.61 165.539-378.128 182.379-358.084 199.36-338.1 208.791-313.462 211.783-305.644 213.878-297.503 217.141-287.091 212.169-289.491 209.853-290.641 207.508-291.735 190.087-299.871 172.413-307.541 155.31-316.26 140.374-323.875 128.202-319.005 115.197-310.065 132.582-304.115 149.612-299.389 165.638-292.479 180.446-286.094 195.126-278.618 208.153-269.367 225.955-256.727 225.717-240.578 208.971-226.64 186.875-208.25 159.829-199.316 132.714-190.811 122.689-187.666 112.344-185.481 100.489-182.433 101.526-197.294 102.846-210.822 103.313-224.377 103.785-238.12 103.417-251.89 103.417-267.225 95.537-252.791 82.198-242.994 84.855-224.575 86.655-212.092 83.26-198.929 82.407-186.057 82.017-180.146 79.197-177.137 73.066-176.258 50.917-173.082 28.893-168.858 6.65-166.615-8.032-165.134-15.006-155.868-24.192-144.256 11.151-149.384 44.256-154.187 79.086-159.241 75.155-142.323 72.142-126.329 67.649-110.733 61.079-87.925 53.756-65.303 46.016-42.839 44.44-38.265 40.454-32.861 36.136-31.031-3.413-14.273-45.044-4.48-89.38 3.151-86.917-11.354-84.693-24.443-82.334-38.335-87.798-39.797-92.944-41.175-99.806-43.012-101.61-32.994-103.645-23.412-105.015-13.742-107.805 5.942-107.634 7.377-127.784 7.68-166.812 8.267-205.869 7.023-244.915 6.713-251.084 6.664-253.232 3.692-254.129-1.667-256.645-16.688-259.481-31.658-262.413-47.876-268.062-47.393-273.589-46.919-280.822-46.299-277.834-29.695-275.015-14.027-271.752 4.108-291.66-.097-310.038-3.054-327.835-7.978-349.336-13.926-370.314-21.63-391.58-28.391-400.35-31.179-405.874-36.587-408.585-45.136-411.07-52.969-414.559-60.521-416.764-68.417-420.431-81.549-430.19-87.871-443.968-92.514-438.622-76.713-433.645-62.006-427.748-44.581-437.252-49.496-444.588-52.682-451.274-56.846-492.683-82.629-531.069-111.926-555.308-154.396-564.734-170.913-580.596-176.638-594.336-186.317-595.455-185.784-596.573-185.25-597.691-184.717-591.931-163.417-587.737-141.581-580.157-120.906-531.137 12.802-436.994 101.487-296.183 142.706-262.679 152.513-228.15 156.772-192.895 159.144-183.996 159.814-175.463 159.814-166.081 159.814-156.775 158.722-148.341 157.411-139.857 156.572-22.351 144.953 73.451 93.786 147.486 5.583 216.857-77.064 245.677-172.889 238.405-278.844 233.669-347.862 209.975-410.911 171.942-469.149 170.65-471.127 169.134-472.967 167.823-474.935 167.179-475.902 166.766-477.013 165.164-477.436 165.465-460.503 166.626-444.496 174.342-429.032 184.171-409.329 192.057-388.718 201.319-367.484 201.947-365.432 202.037-364.395 202.243-362.019 200.702-363.967 200.025-364.822 199.35-365.676" fill="#2c4964"/>
<path transform="matrix(1,0,0,-1,741.4214,831.61428)" d="M0 0C-.56-2.422-1.119-4.844-1.848-8H25.453C23.452 9.569 19.797 12.835 3.816 11.042 2.735 7.897 1.611 4.628 0 0M399.707 143.276H371.209C371.882 136.049 372.467 129.768 373.077 123.226H408.129C405.545 130.413 403.355 136.504 399.707 143.276M-128.563-8.08H-104.193C-104.825 7.711-105.892 8.79-120.281 8.747-131.792 8.714-143.303 8.632-154.814 8.597-170.297 8.549-170.305 8.561-174.485-5.934-174.604-6.348-174.14-6.92-173.692-8.079-159.409-8.079-144.894-8.079-128.563-8.08M35.798 61.691C35.066 69.076 34.335 76.46 33.385 86.053 31.322 81.375 29.116 78.603 29.012 75.759 28.537 62.681 27.599 49.479 28.954 36.529 29.733 29.089 33.556 21.41 37.85 14.993 42.742 7.684 50.794 7.494 56.097 14.331 60.565 20.091 63.103 27.254 66.495 33.796 49.972 27.684 44.806 29.485 39.743 44.001 37.929 49.203 37.204 54.762 35.798 61.691M291.523 150.62H352.474C349.858 154.288 346.432 157.49 342.612 158.016 334.29 159.159 325.769 159.049 317.325 159.257 285.847 160.033 254.368 160.729 222.889 161.461 216.289 161.614 211.375 159.749 209.904 150.645 237.266 150.645 263.516 150.645 291.523 150.62M230.683 202.017C226.156 202.093 221.464 202.904 217.155 202.003 213.956 201.335 211.251 198.446 208.328 196.546L209.678 193.72C256.394 190.043 303.179 188.533 350.451 190.847 345.258 194.67 339.708 197.701 334.01 197.985 300.142 199.677 266.241 200.734 230.683 202.017M252.107 170.544C281.189 169.875 310.27 169.132 339.356 168.628 343.256 168.561 347.18 169.701 352.845 170.542 346.26 178.332 338.971 178.46 331.908 178.719 312.833 179.418 293.75 179.879 274.672 180.496 257.412 181.054 240.157 181.849 222.891 182.208 216.981 182.331 210.422 182.26 210.366 172.827 223.994 172.081 237.182 171.36 252.107 170.544M-217.92 67.79C-217.452 62.079-216.982 56.367-216.53 50.863H-204.324C-205.259 61.442-206.153 71.554-207.047 81.664-206.269 81.903-205.492 82.143-204.714 82.383-201.303 71.904-197.891 61.427-194.53 51.105H-149.536C-149.536 59.334-149.242 66.944-149.616 74.523-150.01 82.494-153.431 88.18-162.452 90.167-167.898 91.367-173.544 93.466-178.053 96.582-193.713 107.401-208.236 97.799-222.769 96.832-221.018 86.579-219.55 77.981-217.92 67.79M305.133 8.878C303.482 19.116 298.432 23.956 286.61 23.809 232.089 23.127 177.557 23.311 123.031 22.978 120.79 22.964 117.214 21.382 116.551 19.689 113.104 10.891 110.4 1.818 107.39-7.3H312.833C310.115-1.839 307.781 2.851 305.133 8.878M440.028-55.362C351.29-43.817 262.016-38.148 172.633-35.737 8.651-31.315-155.381-28.645-319.394-25.26-324.209-25.16-329.029-25.247-334.623-25.247V-7.901H-271.949C-274.814 16.371-277.602 39.987-280.498 64.521H-304.266C-305.122 71.647-305.883 77.997-306.772 85.404-314.992 86.749-323.515 88.143-332.037 89.537-332.199 90.453-332.362 91.37-332.524 92.287-258.92 104.481-185.316 116.676-111.712 128.869-111.875 129.884-112.038 130.897-112.201 131.911L-321.596 112.44-322.002 114.532C-252.081 131.317-182.16 148.103-112.239 164.889-112.422 165.887-112.605 166.886-112.789 167.885-175.298 159.233-237.808 150.582-300.318 141.931-300.419 142.384-300.519 142.838-300.62 143.291-237.849 162.306-175.079 181.321-112.308 200.336-112.519 201.265-112.73 202.195-112.941 203.124-174.522 190.515-236.104 177.906-297.686 165.298-297.917 166.224-298.148 167.15-298.379 168.076-236.154 189.833-173.928 211.59-111.702 233.346L-112.659 236.381C-173.685 221.092-234.711 205.802-295.738 190.512-295.952 191.203-296.167 191.895-296.38 192.585-232.928 219.004-169.476 245.422-106.023 271.84-106.398 272.837-106.772 273.834-107.147 274.831L-293.605 214.52C-293.908 215.238-294.21 215.957-294.513 216.676-235.311 245.256-176.108 273.837-115.898 303.003-114.479 304.174-114.067 304.76-113.655 305.347-114.837 305.102-116.019 304.857-117.2 304.612-144.634 294.57-172.091 284.585-199.496 274.47-225.221 264.974-250.88 255.308-276.607 245.818-279.257 244.84-282.18 244.554-285.355 245.082-229.206 275.412-173.057 305.743-116.908 336.073-117.395 337.116-117.881 338.16-118.368 339.203-173.685 315.393-229.001 291.583-284.318 267.772-284.69 268.508-285.063 269.243-285.435 269.979-229.779 303.622-174.123 337.266-118.467 370.909-118.772 371.64-119.077 372.37-119.382 373.101-122.131 372.197-125.064 371.633-127.6 370.338-167.758 349.834-207.854 329.212-247.998 308.681-254.515 305.348-261.198 302.32-267.804 299.151-268.271 300.013-268.737 300.875-269.204 301.738-198.435 344.95-127.666 388.161-56.896 431.373-56.152 430.638-55.407 429.903-54.662 429.169-54.662 426.023-54.659 422.878-54.662 419.733-54.706 366.899-54.836 314.065-54.627 261.232-54.611 257.159-52.206 253.095-50.911 249.027-49.606 253.034-47.252 257.02-47.161 261.053-46.336 297.729-45.927 334.415-45.306 371.096-45.269 373.29-44.961 377.099-43.927 377.398-36.379 379.585-37.914 385.371-38.044 390.355-38.58 410.85-39.592 431.336-39.762 451.831-39.785 454.572-35.997 457.343-33.974 460.1-31.722 458.331-28.367 456.972-27.463 454.701-25.883 450.728-25.483 446.216-25.165 441.891-24.266 429.647-24.425 429.279-11.107 427.751 22.293 423.92 55.736 420.431 89.165 416.833 122.287 413.269 155.395 409.576 188.549 406.333 195.186 405.684 195.737 401.37 195.744 397.231 195.764 384.632 194.951 372.034 194.792 359.432 194.722 353.907 193.48 347.558 202.317 344.065 202.795 347.817 203.563 350.803 203.493 353.771 202.952 376.895 202.086 400.012 201.808 423.137 201.774 425.934 204.635 428.764 206.155 431.578 208.762 429.708 213.343 428.103 213.653 425.926 215.466 413.21 216.322 400.365 217.415 387.556 218.128 379.181 217.164 379.433 220.497 366.84 221.042 364.781 224.168 356.106 223.583 352.729 222.134 344.389 226.419 340.776 233.795 337.957 240.433 335.42 246.609 331.611 252.669 327.88 254.67 326.648 255.681 323.909 258.195 320.386 232.028 323.636 207.838 326.815 183.598 329.585 168.555 331.305 153.458 333.232 138.345 333.612 103.629 334.485 68.73 336.494 34.227 333.958 17.021 332.693 .46 322.592-16.203 316.039-17.749 315.431-18.628 311.567-18.636 309.211-18.812 252.565-18.992 195.918-18.762 139.273-18.702 124.392-16.316 123.139-1.273 126.551 3.368 127.603 8.047 128.496 13.849 129.699 11.194 115.056 8.29 101.391 6.351 87.599 4.764 76.307 4.081 64.874 3.576 53.479 3.466 51.007 5.827 48.431 7.051 45.903 8.294 46.184 9.539 46.464 10.783 46.745 11.941 59.148 13.098 71.552 14.258 83.956 16 102.57 20.686 120.348 30.849 136.43 36.083 144.712 42.648 152.059 53.895 150.771 65.216 149.474 71.963 142.242 75.883 132.135 82.901 114.039 82.985 114.083 103.017 114.049 124.851 114.013 146.692 113.652 168.518 114.05 176.521 114.196 182.742 112.759 186.757 105.53 187.653 103.918 189.72 102.915 192.577 100.515 192.155 107.345 191.829 112.641 191.425 119.188 247.526 118.294 303.123 117.407 358.947 116.517 360.006 124.802 355.281 126.098 349.265 126.228 320.473 126.849 291.684 127.584 262.89 128.128 232.892 128.696 202.891 129.084 172.891 129.586 171.413 129.61 169.94 129.972 167.436 130.319 166.938 135.177 166.197 140.017 166.006 144.876 165.783 150.588 162.697 153.797 157.176 154.136 147.824 154.71 138.431 154.834 129.055 154.842 122.367 154.849 119.143 151.681 119.881 144.806 120.373 140.23 119.974 135.565 119.974 130.941L116.784 129.374C114.772 131.998 111.806 134.374 110.992 137.309 110.009 140.855 110.846 144.875 110.9 148.689 111.121 164.353 103.378 173.275 87.342 175.585 81.359 176.447 75.322 176.956 66.994 177.884 75.977 184.051 84.584 185.584 93.275 186.01 121.582 187.397 148.829 183.223 174.25 170.372 175.835 169.571 177.556 169.003 179.254 168.438 179.778 168.264 180.432 168.459 181.542 168.508 182.142 170.237 183.398 172.142 183.364 174.023 183.042 191.891 182.975 209.783 181.812 227.605 181.273 235.864 175.679 241.33 166.741 242.737 140.791 246.823 114.842 250.932 88.889 255 75.018 257.175 61.159 259.531 49.791 247.987 48.361 246.535 45.468 246.432 41.328 245.071 41.328 252.21 41.327 258.216 41.328 264.223 41.329 281.195 41.499 298.17 41.243 315.139 41.148 321.412 44.375 323.461 50.062 323.426 71.28 323.294 92.558 324.041 113.704 322.756 145.715 320.812 177.654 317.63 209.584 314.593 222.185 313.395 234.69 311.22 247.224 309.402 255.013 308.273 259.854 303.379 261.528 296.443 264.539 283.965 267.34 271.364 268.872 258.66 269.607 252.554 272.383 250.558 277.582 249.621 297.212 246.083 316.791 242.242 336.488 239.091 363.32 234.799 364.043 234.369 365.986 208.563 366.8 197.738 367.274 186.888 368.095 176.063 368.542 170.164 371.235 167.45 378.144 166.21 409.474 160.59 413.557 158.275 414.587 124.838 415.004 111.294 412.98 109.916 398.688 110.414 392.07 110.645 385.435 110.71 378.819 110.516 377.383 110.474 375.992 108.998 374.63 105.987 377.559 105.594 380.476 105.061 383.417 104.833 392.477 104.133 401.666 104.229 410.583 102.761 423.801 100.583 428.799 94.549 430.405 80.311 343.76 82.091 257.247 83.869 170.401 86.266 182.989 86.885 195.908 86.885 210.254 86.885 208.453 88.756 207.768 89.467 206.888 90.381 208.856 90.898 210.696 91.383 210.227 91.26H112.956C124.717 89.164 136.474 89.367 148.213 89.012 150.914 88.93 153.55 86.928 156.216 85.811 134.573 85.529 112.928 85.249 91.468 84.971 90.514 76.32 93.33 74.268 100.08 74.38 132.483 74.918 164.894 75.01 197.302 75.22 199.674 75.235 202.047 74.925 206.358 74.637V37.871C207.532 37.872 208.707 37.872 209.881 37.872 214.958 49.392 210.099 62.07 212.812 73.89H256.188C256.766 65.629 257.284 58.242 257.867 49.903H341.792V70.518H379.563C380.116 58.989 380.623 48.401 381.13 37.814 382.717 37.841 384.304 37.866 385.891 37.893V69.08H430.589C432.277 54.695 430.43 41.443 424.692 29.039 423.277 25.981 418.239 24.044 414.454 22.618 411.852 21.638 408.539 22.43 406.16 22.43 402.274 12.207 398.669 2.723 394.438-8.407H497.57C484.763-25.428 473.396-40.537 461.242-56.308 453.647-56.434 446.837-55.897 440.028-55.362" fill="#2c4964"/>
<path transform="matrix(1,0,0,-1,776.3374,572.3413)" d="M0 0C.552-4.717 .953-8.663 1.357-12.649-.128-12.743-1.058-13.01-1.212-12.782-8.374-2.259-17.155 2.688-29.886-4.408-31.289-5.189-33.457-4.798-35.264-4.75-36.719-4.712-38.166-4.37-41.521-3.89-41.521 10.121-41.513 24.076-41.524 38.032-41.529 44.289-38.475 48.433-32.446 50.621-23.642 53.816-14.853 57.053-4.904 60.694-3.195 39.145-1.674 19.958 0 0" fill="#2c4964"/>
<path transform="matrix(1,0,0,-1,780.5703,633.2246)" d="M0 0C-.132-9.062-.908-17.307-.191-25.429 .487-33.101-4.142-35.826-10.032-37.782-14.558-39.284-17.72-38.009-17.747-32.592-17.815-18.845-18.277-5.093-18.004 8.646-17.817 18.042-12.498 21.208 .008 19.637 .008 13.485 .008 7.177 0 0" fill="#2c4964"/>
<path transform="matrix(1,0,0,-1,737.2759,682.2236)" d="M0 0C-1.682 .378-3.471 .867-3.478 1.379-3.615 11.631-4.016 21.924-3.135 32.108-2.953 34.205 2.17 35.901 6.696 38.892 6.696 26.018 7.003 15.813 6.426 5.654 6.316 3.715 2.714 1.961 0 0" fill="#2c4964"/>
<path transform="matrix(1,0,0,-1,898.4258,745.9658)" d="M0 0C-3.454 1.279-6.091 3.281-8.791 3.363-20.53 3.719-32.287 3.516-44.049 5.611H53.223C53.691 5.734 51.852 5.25 49.884 4.732 50.764 3.818 51.448 3.107 53.25 1.236 38.903 1.236 25.984 1.236 12.551 .697 8.287 .051 4.537-.056 0 0" fill="#2c4964"/>
<path transform="matrix(1,0,0,-1,1234.2217,462.41804)" d="M0 0C.689-.587 1.021-1.471 1.353-2.356 .746-2.133 .141-1.911-.75-1.31-.809-.72-.583-.509 0 0" fill="#2c4964"/>
<path transform="matrix(1,0,0,-1,1231.7031,697.5771)" d="M0 0C.288 1.237 .965 2.092 2.506 4.04 2.3 1.664 2.21 .627 1.661-.761 .93-.868 .658-.626 0 0" fill="#2c4964"/>
<path transform="matrix(1,0,0,-1,624.5405,527.3594)" d="M0 0C.862 .603 2.044 .847 3.226 1.092 2.814 .505 2.402-.081 1.469-.875 .738-.841 .529-.6 0 0" fill="#2c4964"/>
</g>
</g>
</g>
</svg>
