<svg width="33" height="32" viewBox="0 0 33 32" fill="none" xmlns="http://www.w3.org/2000/svg">
<path d="M16.5 22C22.0228 22 26.5 17.5228 26.5 12C26.5 6.47715 22.0228 2 16.5 2C10.9772 2 6.5 6.47715 6.5 12C6.5 17.5228 10.9772 22 16.5 22Z" stroke="#002244" stroke-width="2" stroke-linecap="round" stroke-linejoin="round"/>
<path d="M16.5 18C19.8137 18 22.5 15.3137 22.5 12C22.5 8.68629 19.8137 6 16.5 6C13.1863 6 10.5 8.68629 10.5 12C10.5 15.3137 13.1863 18 16.5 18Z" stroke="#002244" stroke-width="2" stroke-linecap="round" stroke-linejoin="round"/>
<path d="M22.5 20V30L16.5 27L10.5 30V20" stroke="#002244" stroke-width="2" stroke-linecap="round" stroke-linejoin="round"/>
</svg>
