<svg width="25" height="25" viewBox="0 0 25 25" fill="none" xmlns="http://www.w3.org/2000/svg">
<path d="M9.0332 12.1875C9.83713 13.8477 11.1796 15.1867 12.8418 15.9863C12.9644 16.0444 13.1 16.0695 13.2353 16.0592C13.3706 16.049 13.5008 16.0036 13.6133 15.9277L16.0547 14.2969C16.1626 14.2237 16.2872 14.1791 16.417 14.1671C16.5468 14.1552 16.6775 14.1763 16.7969 14.2285L21.3672 16.1914C21.5234 16.2564 21.6539 16.371 21.7386 16.5174C21.8233 16.6639 21.8575 16.8341 21.8359 17.002C21.6911 18.1326 21.1392 19.1716 20.2836 19.9248C19.428 20.6779 18.3273 21.0935 17.1875 21.0937C13.6651 21.0937 10.287 19.6945 7.79624 17.2038C5.30552 14.713 3.90625 11.3349 3.90625 7.8125C3.90651 6.67265 4.32208 5.57196 5.07522 4.71636C5.82836 3.86077 6.86744 3.30892 7.99805 3.16406C8.16586 3.14251 8.3361 3.17671 8.48256 3.26141C8.62902 3.34612 8.74358 3.47661 8.80859 3.63281L10.7715 8.21289C10.8225 8.33042 10.8439 8.4587 10.8337 8.58642C10.8234 8.71415 10.782 8.8374 10.7129 8.94531L9.08203 11.4258C9.00942 11.538 8.96681 11.6669 8.95826 11.8003C8.94971 11.9336 8.97552 12.067 9.0332 12.1875V12.1875Z" stroke="white" stroke-width="1.5625" stroke-linecap="round" stroke-linejoin="round"/>
</svg>
