<svg width="40" height="40" viewBox="0 0 40 40" fill="none" xmlns="http://www.w3.org/2000/svg">
<path d="M20 3.75012V36.2501" stroke="#002244" stroke-width="2.5" stroke-linecap="round" stroke-linejoin="round"/>
<path d="M28.75 13.7501C28.75 12.9294 28.5883 12.1166 28.2742 11.3584C27.9602 10.6001 27.4998 9.91107 26.9194 9.3307C26.3391 8.75034 25.6501 8.28997 24.8918 7.97588C24.1335 7.66178 23.3208 7.50012 22.5 7.50012H16.875C15.2174 7.50012 13.6277 8.1586 12.4556 9.3307C11.2835 10.5028 10.625 12.0925 10.625 13.7501C10.625 15.4077 11.2835 16.9974 12.4556 18.1695C13.6277 19.3416 15.2174 20.0001 16.875 20.0001H23.75C25.4076 20.0001 26.9973 20.6586 28.1694 21.8307C29.3415 23.0028 30 24.5925 30 26.2501C30 27.9077 29.3415 29.4974 28.1694 30.6695C26.9973 31.8416 25.4076 32.5001 23.75 32.5001H16.25C14.5924 32.5001 13.0027 31.8416 11.8306 30.6695C10.6585 29.4974 10 27.9077 10 26.2501" stroke="#002244" stroke-width="2.5" stroke-linecap="round" stroke-linejoin="round"/>
</svg>
