<svg width="40" height="40" viewBox="0 0 40 40" fill="none" xmlns="http://www.w3.org/2000/svg">
<path d="M8.51561 31.4844C7.07811 30.0469 8.03124 27.0313 7.29686 25.2657C6.56249 23.5001 3.75 21.9532 3.75 20.0001C3.75 18.047 6.53124 16.5626 7.29686 14.7345C8.06249 12.9063 7.07811 9.95323 8.51561 8.51573C9.95311 7.07824 12.9687 8.03136 14.7343 7.29699C16.5 6.56261 18.0468 3.75012 20 3.75012C21.9531 3.75012 23.4374 6.53136 25.2656 7.29699C27.0937 8.06261 30.0468 7.07824 31.4843 8.51573C32.9218 9.95323 31.9687 12.9688 32.703 14.7345C33.4374 16.5001 36.2499 18.047 36.2499 20.0001C36.2499 21.9532 33.4687 23.4376 32.703 25.2657C31.9374 27.0938 32.9218 30.0469 31.4843 31.4844C30.0468 32.9219 27.0312 31.9688 25.2656 32.7032C23.4999 33.4375 21.9531 36.25 20 36.25C18.0468 36.25 16.5625 33.4688 14.7343 32.7032C12.9062 31.9375 9.95311 32.9219 8.51561 31.4844Z" stroke="#002244" stroke-width="2.49999" stroke-linecap="round" stroke-linejoin="round"/>
<path d="M26.875 16.2501L17.7031 25L13.125 20.625" stroke="#002244" stroke-width="2.49999" stroke-linecap="round" stroke-linejoin="round"/>
</svg>
