<?xml version="1.0" encoding="UTF-8"?>
<svg xmlns="http://www.w3.org/2000/svg" xmlns:xlink="http://www.w3.org/1999/xlink" width="136px" height="71px" viewBox="0 0 136 71" version="1.1">
<defs>
<clipPath id="clip1">
  <path d="M 54.566406 39.796875 L 81.097656 39.796875 L 81.097656 46.632812 L 54.566406 46.632812 Z M 54.566406 39.796875 "/>
</clipPath>
<clipPath id="clip2">
  <path d="M 31.230469 39.621094 L 45.835938 39.621094 L 45.835938 46.632812 L 31.230469 46.632812 Z M 31.230469 39.621094 "/>
</clipPath>
<clipPath id="clip3">
  <path d="M 81.433594 39.621094 L 96 39.621094 L 96 46.632812 L 81.433594 46.632812 Z M 81.433594 39.621094 "/>
</clipPath>
<clipPath id="clip4">
  <path d="M 95.535156 39.621094 L 105.609375 39.621094 L 105.609375 46.632812 L 95.535156 46.632812 Z M 95.535156 39.621094 "/>
</clipPath>
<clipPath id="clip5">
  <path d="M 19.8125 39.445312 L 32 39.445312 L 32 46.632812 L 19.8125 46.632812 Z M 19.8125 39.445312 "/>
</clipPath>
<clipPath id="clip6">
  <path d="M 40.128906 38.808594 L 83.445312 38.808594 L 83.445312 40.144531 L 40.128906 40.144531 Z M 40.128906 38.808594 "/>
</clipPath>
<clipPath id="clip7">
  <path d="M 23.507812 38.832031 L 40.96875 38.832031 L 40.96875 38.835938 L 23.507812 38.835938 Z M 23.507812 38.832031 "/>
</clipPath>
<clipPath id="clip8">
  <path d="M 83.613281 38.832031 L 101.246094 38.832031 L 101.246094 38.835938 L 83.613281 38.835938 Z M 83.613281 38.832031 "/>
</clipPath>
<clipPath id="clip9">
  <path d="M 100.742188 38.832031 L 112.660156 38.832031 L 112.660156 38.835938 L 100.742188 38.835938 Z M 100.742188 38.832031 "/>
</clipPath>
<clipPath id="clip10">
  <path d="M 34.25 22.703125 L 85.964844 22.703125 L 85.964844 38.835938 L 34.25 38.835938 Z M 34.25 22.703125 "/>
</clipPath>
</defs>
<g id="surface1">
<path style=" stroke:none;fill-rule:nonzero;fill:rgb(100%,100%,100%);fill-opacity:1;" d="M 23.632812 39.824219 C 23.535156 39.839844 23.421875 39.847656 23.28125 39.84375 C 23.375 39.832031 23.496094 39.820312 23.632812 39.824219 "/>
<path style=" stroke:none;fill-rule:nonzero;fill:rgb(100%,100%,100%);fill-opacity:1;" d="M 21.097656 39.851562 C 21.089844 39.859375 21.078125 39.859375 21.046875 39.859375 C 21.042969 39.84375 21.0625 39.839844 21.097656 39.851562 "/>
<path style=" stroke:none;fill-rule:nonzero;fill:rgb(100%,100%,100%);fill-opacity:1;" d="M 104.210938 40.53125 C 104.210938 40.257812 104.65625 40.035156 105.203125 40.035156 C 105.753906 40.035156 106.199219 40.257812 106.199219 40.53125 C 106.199219 40.804688 105.753906 41.027344 105.203125 41.027344 C 104.65625 41.027344 104.210938 40.804688 104.210938 40.53125 "/>
<path style=" stroke:none;fill-rule:nonzero;fill:rgb(100%,100%,100%);fill-opacity:1;" d="M 105.023438 40.585938 L 105.023438 40.804688 L 105.179688 40.816406 L 105.179688 40.851562 L 104.59375 40.851562 L 104.59375 40.816406 L 104.738281 40.804688 L 104.738281 40.269531 L 104.582031 40.257812 L 104.582031 40.222656 L 105.160156 40.222656 C 105.339844 40.222656 105.472656 40.238281 105.558594 40.265625 C 105.644531 40.292969 105.691406 40.335938 105.691406 40.398438 C 105.691406 40.488281 105.609375 40.546875 105.445312 40.570312 L 105.769531 40.804688 L 105.898438 40.816406 L 105.898438 40.851562 L 105.507812 40.851562 L 105.171875 40.585938 Z M 105.410156 40.398438 C 105.410156 40.351562 105.390625 40.320312 105.351562 40.300781 C 105.316406 40.285156 105.246094 40.273438 105.148438 40.273438 L 105.023438 40.273438 L 105.023438 40.535156 L 105.152344 40.535156 C 105.246094 40.535156 105.3125 40.523438 105.347656 40.503906 C 105.390625 40.484375 105.410156 40.449219 105.410156 40.398438 Z M 105.410156 40.398438 "/>
<path style="fill:none;stroke-width:1;stroke-linecap:butt;stroke-linejoin:miter;stroke:rgb(100%,100%,100%);stroke-opacity:1;stroke-miterlimit:10;" d="M 0.0306428 0.0509372 C 0.408484 -0.0938131 0.786324 -0.383314 1.164165 -0.962315 C 1.542006 -1.396565 2.146551 -2.409817 3.053369 -4.14682 C 4.942572 -7.331326 6.151663 -9.357829 6.831776 -10.081581 L 14.237454 -10.081581 L 14.237454 -8.199827 C 13.481773 -8.199827 12.877228 -8.055077 12.272683 -7.620826 C 11.668137 -7.041825 10.685752 -5.739073 9.249957 -3.712569 C 7.511889 -0.817564 6.151663 0.774688 5.320413 1.353689 C 8.494275 2.366941 10.081206 4.248695 10.081206 7.1437 C 10.081206 8.156951 9.854502 9.170203 9.249957 10.038705 C 8.72098 10.907206 8.040866 11.630957 7.05848 12.209958 C 6.151663 12.644209 5.169277 13.07846 4.186891 13.22321 C 3.204505 13.367961 1.693142 13.367961 -0.422766 13.367961 L -11.984693 13.367961 L -11.984693 11.486207 L -11.531284 11.486207 C -10.397762 11.486207 -9.64208 11.196707 -9.264239 10.762456 C -8.886399 10.328205 -8.735262 9.604454 -8.735262 8.591202 L -8.735262 -5.304822 C -8.735262 -6.462824 -8.886399 -7.186576 -9.264239 -7.620826 C -9.566512 -8.055077 -10.322193 -8.199827 -11.531284 -8.199827 L -11.984693 -8.199827 L -11.984693 -10.081581 L 0.710756 -10.081581 L 0.710756 -8.199827 L 0.332915 -8.199827 C -0.876175 -8.199827 -1.631856 -8.055077 -2.009697 -7.620826 C -2.387538 -7.186576 -2.538674 -6.462824 -2.538674 -5.304822 L -2.538674 0.195687 C -1.254016 0.195687 -0.347198 0.195687 0.0306428 0.0509372 Z M -2.538674 11.196707 C -2.160833 11.196707 -1.782993 11.196707 -1.556288 11.196707 C 0.332915 11.196707 1.693142 10.907206 2.448823 10.328205 C 3.280073 9.604454 3.657914 8.446452 3.657914 6.854199 C 3.657914 5.696197 3.431209 4.827696 3.053369 4.103944 C 2.675528 3.380193 2.146551 2.945942 1.466438 2.656442 C 0.786324 2.366941 -0.573902 2.366941 -2.538674 2.366941 Z M -2.538674 11.196707 " transform="matrix(0.0516918,0,0,-0.0269861,105.209354,40.575593)"/>
<path style=" stroke:none;fill-rule:nonzero;fill:rgb(100%,100%,100%);fill-opacity:1;" d="M 23.632812 39.824219 C 23.535156 39.839844 23.421875 39.847656 23.28125 39.84375 C 23.375 39.832031 23.496094 39.820312 23.632812 39.824219 "/>
<path style=" stroke:none;fill-rule:nonzero;fill:rgb(100%,100%,100%);fill-opacity:1;" d="M 21.097656 39.851562 C 21.089844 39.859375 21.078125 39.859375 21.046875 39.859375 C 21.042969 39.84375 21.0625 39.839844 21.097656 39.851562 "/>
<path style=" stroke:none;fill-rule:nonzero;fill:rgb(100%,100%,100%);fill-opacity:1;" d="M 20.566406 39.886719 C 20.566406 39.867188 20.601562 39.863281 20.621094 39.878906 C 21.050781 40.050781 21.289062 40.261719 21.332031 40.527344 C 21.355469 40.671875 21.378906 40.820312 21.378906 40.964844 C 21.382812 42.414062 21.386719 43.863281 21.378906 45.3125 C 21.378906 45.75 21.328125 46.1875 20.640625 46.511719 C 20.640625 46.511719 20.601562 46.511719 20.585938 46.511719 C 20.566406 44.308594 20.566406 42.105469 20.566406 39.886719 "/>
<g clip-path="url(#clip1)" clip-rule="nonzero">
<path style=" stroke:none;fill-rule:nonzero;fill:rgb(100%,100%,100%);fill-opacity:1;" d="M 60.324219 43.558594 L 61.996094 43.558594 C 61.542969 42.882812 61.105469 42.238281 60.644531 41.554688 C 60.1875 42.25 59.765625 42.894531 59.332031 43.558594 Z M 77.410156 39.84375 C 77.695312 39.84375 77.984375 39.855469 78.304688 39.867188 C 79.242188 39.863281 80.148438 39.863281 81.0625 39.863281 C 81.058594 39.871094 81.046875 39.898438 81.019531 39.914062 C 80.550781 40.175781 80.34375 40.492188 80.335938 40.839844 C 80.3125 41.933594 80.300781 43.027344 80.292969 44.121094 C 80.285156 44.890625 80.292969 45.660156 80.292969 46.425781 L 80.292969 46.742188 C 79.90625 46.695312 79.566406 46.667969 79.25 46.613281 C 77.75 46.347656 76.496094 45.917969 75.550781 45.234375 C 74.308594 44.335938 72.992188 43.460938 71.707031 42.578125 C 71.632812 42.523438 71.554688 42.472656 71.441406 42.398438 C 71.417969 42.453125 71.390625 42.488281 71.390625 42.519531 C 71.371094 43.441406 71.351562 44.363281 71.34375 45.285156 C 71.335938 45.71875 71.433594 46.132812 72.210938 46.484375 L 62.707031 46.484375 C 63.171875 46.300781 63.53125 46.082031 63.425781 45.753906 C 63.382812 45.613281 63.277344 45.476562 63.191406 45.339844 C 63.113281 45.207031 63.019531 45.074219 62.933594 44.945312 C 62.628906 44.492188 62.628906 44.492188 61.6875 44.492188 C 60.804688 44.492188 59.921875 44.496094 59.039062 44.488281 C 58.835938 44.488281 58.738281 44.519531 58.679688 44.617188 C 58.496094 44.914062 58.308594 45.207031 58.117188 45.503906 C 57.875 45.867188 57.824219 46.207031 58.542969 46.484375 L 54.730469 46.484375 C 54.734375 46.492188 54.71875 46.472656 54.730469 46.46875 C 55.476562 46.074219 55.824219 45.570312 56.160156 45.058594 C 57.054688 43.703125 57.960938 42.347656 58.863281 40.992188 C 58.894531 40.945312 58.921875 40.902344 58.953125 40.859375 C 59.214844 40.480469 59.199219 40.140625 58.378906 39.875 C 58.589844 39.867188 58.695312 39.863281 58.804688 39.863281 C 60.132812 39.851562 61.464844 39.847656 62.796875 39.828125 C 63.09375 39.824219 63.203125 39.875 63.300781 40.015625 C 64.4375 41.632812 65.582031 43.246094 66.730469 44.859375 C 67.121094 45.40625 67.460938 45.964844 68.347656 46.371094 C 68.394531 46.390625 68.441406 46.414062 68.507812 46.445312 C 69.015625 46.183594 69.257812 45.867188 69.257812 45.515625 C 69.273438 44.023438 69.269531 42.53125 69.261719 41.039062 C 69.261719 40.582031 68.804688 40.222656 68.1875 39.886719 C 68.289062 39.875 68.355469 39.863281 68.421875 39.863281 C 69.5625 39.851562 70.699219 39.847656 71.839844 39.828125 C 72.132812 39.824219 72.300781 39.875 72.472656 39.992188 C 74.296875 41.246094 76.128906 42.496094 77.964844 43.746094 C 78.046875 43.804688 78.148438 43.851562 78.273438 43.878906 C 78.316406 43.832031 78.332031 43.808594 78.332031 43.78125 C 78.335938 42.832031 78.335938 41.886719 78.328125 40.9375 C 78.328125 40.882812 78.265625 40.832031 78.234375 40.777344 C 78.160156 40.421875 77.855469 40.125 77.410156 39.84375 "/>
</g>
<g clip-path="url(#clip2)" clip-rule="nonzero">
<path style=" stroke:none;fill-rule:nonzero;fill:rgb(100%,100%,100%);fill-opacity:1;" d="M 35.300781 43.789062 C 35.519531 44.101562 35.675781 44.425781 35.964844 44.714844 C 36.644531 45.402344 37.859375 45.71875 39.210938 45.597656 C 40.527344 45.480469 41.628906 44.878906 41.851562 44.175781 C 42.070312 43.488281 41.988281 42.8125 41.585938 42.15625 C 41.289062 41.664062 40.84375 41.203125 39.964844 40.917969 C 38.308594 40.375 36.203125 40.792969 35.464844 41.789062 C 34.988281 42.4375 34.984375 43.09375 35.300781 43.789062 M 43.386719 45.800781 C 41.59375 46.53125 39.546875 46.722656 37.363281 46.609375 C 35.703125 46.527344 34.261719 46.191406 33.078125 45.574219 C 31.796875 44.902344 31.277344 44.078125 31.273438 43.15625 C 31.273438 41.996094 32.175781 41.0625 34.003906 40.386719 C 35.628906 39.785156 37.476562 39.613281 39.433594 39.6875 C 40.699219 39.738281 41.898438 39.898438 42.976562 40.261719 C 44.535156 40.785156 45.40625 41.535156 45.671875 42.472656 C 45.898438 43.261719 45.773438 44.035156 45.0625 44.757812 C 44.660156 45.164062 44.09375 45.503906 43.386719 45.800781 "/>
</g>
<g clip-path="url(#clip3)" clip-rule="nonzero">
<path style=" stroke:none;fill-rule:nonzero;fill:rgb(100%,100%,100%);fill-opacity:1;" d="M 88.6875 45.628906 C 90.359375 45.632812 91.742188 45.023438 92.015625 44.171875 C 92.238281 43.480469 92.148438 42.796875 91.734375 42.132812 C 91.433594 41.644531 90.984375 41.199219 90.113281 40.910156 C 88.476562 40.371094 86.355469 40.789062 85.632812 41.800781 C 84.855469 42.894531 85.234375 43.929688 86.351562 44.902344 C 86.84375 45.328125 87.628906 45.582031 88.6875 45.628906 M 95.46875 41.738281 C 96.136719 42.792969 96.164062 43.824219 95.152344 44.8125 C 94.378906 45.574219 93.148438 46.085938 91.601562 46.367188 C 89.3125 46.785156 87.011719 46.789062 84.835938 46.183594 C 82.4375 45.519531 81.394531 44.429688 81.441406 43.039062 C 81.511719 41.058594 84.65625 39.839844 87.789062 39.699219 C 89.09375 39.640625 90.375 39.675781 91.617188 39.886719 C 93.425781 40.195312 94.734375 40.796875 95.46875 41.738281 "/>
</g>
<path style=" stroke:none;fill-rule:nonzero;fill:rgb(100%,100%,100%);fill-opacity:1;" d="M 26.542969 42.0625 C 26.625 41.855469 26.769531 41.652344 26.769531 41.449219 C 26.773438 41.121094 26.390625 40.867188 25.894531 40.796875 C 25.253906 40.707031 25.003906 40.804688 25.003906 41.136719 L 25.003906 42.394531 C 25.691406 42.480469 26.097656 42.390625 26.542969 42.0625 M 25.027344 45.429688 C 25.914062 45.703125 26.988281 45.535156 27.398438 45.046875 C 27.710938 44.671875 27.722656 44.285156 27.46875 43.902344 C 27.285156 43.625 26.894531 43.445312 26.355469 43.378906 C 25.929688 43.324219 25.484375 43.320312 25.007812 43.292969 C 25.007812 44.019531 25.007812 44.707031 25.027344 45.429688 M 20.675781 46.511719 C 21.328125 46.1875 21.378906 45.75 21.378906 45.3125 C 21.386719 43.863281 21.382812 42.414062 21.378906 40.964844 C 21.378906 40.820312 21.355469 40.671875 21.332031 40.527344 C 21.289062 40.261719 21.050781 40.050781 20.640625 39.878906 C 20.746094 39.863281 20.855469 39.863281 21.015625 39.863281 C 21.078125 39.859375 21.089844 39.859375 21.101562 39.855469 C 21.796875 39.855469 22.492188 39.851562 23.246094 39.851562 C 23.421875 39.847656 23.535156 39.839844 23.648438 39.835938 C 24.464844 39.835938 25.28125 39.828125 26.101562 39.832031 C 26.625 39.835938 27.148438 39.851562 27.671875 39.867188 C 29 39.910156 30.929688 40.785156 30.320312 41.804688 C 30.066406 42.230469 29.457031 42.480469 28.703125 42.652344 C 28.621094 42.671875 28.539062 42.6875 28.453125 42.703125 C 28.84375 42.789062 29.25 42.84375 29.59375 42.953125 C 31.40625 43.535156 31.714844 44.890625 30.265625 45.769531 C 29.425781 46.277344 28.34375 46.5 27.082031 46.503906 C 24.960938 46.511719 22.835938 46.511719 20.675781 46.511719 "/>
<g clip-path="url(#clip4)" clip-rule="nonzero">
<path style=" stroke:none;fill-rule:nonzero;fill:rgb(100%,100%,100%);fill-opacity:1;" d="M 104.285156 45.949219 C 103.367188 46.386719 102.285156 46.578125 101.09375 46.625 C 99.535156 46.683594 98.003906 46.605469 96.53125 46.316406 C 96.429688 46.292969 96.300781 46.242188 96.277344 46.195312 C 96.066406 45.753906 95.875 45.308594 95.664062 44.824219 C 96.488281 45.144531 97.332031 45.363281 98.25 45.492188 C 99.035156 45.605469 99.828125 45.652344 100.632812 45.554688 C 101.195312 45.488281 101.671875 45.355469 101.804688 45.03125 C 101.9375 44.71875 101.667969 44.46875 101.191406 44.316406 C 100.359375 44.046875 99.476562 43.820312 98.625 43.5625 C 98.078125 43.398438 97.476562 43.253906 97.027344 43.03125 C 94.941406 41.996094 95.753906 40.296875 98.542969 39.847656 C 100.308594 39.558594 102.078125 39.628906 103.8125 39.945312 C 103.890625 39.957031 103.996094 40.007812 103.996094 40.042969 C 104.011719 40.402344 104.007812 40.765625 104.007812 41.105469 C 103.355469 40.976562 102.742188 40.832031 102.101562 40.738281 C 101.53125 40.660156 100.933594 40.652344 100.367188 40.769531 C 99.417969 40.96875 99.257812 41.503906 100.074219 41.820312 C 100.40625 41.949219 100.800781 42.039062 101.179688 42.132812 C 102.214844 42.375 103.25 42.609375 104.132812 43 C 106.042969 43.84375 105.753906 45.269531 104.285156 45.949219 "/>
</g>
<path style=" stroke:none;fill-rule:nonzero;fill:rgb(100%,100%,100%);fill-opacity:1;" d="M 54.527344 45.921875 C 54.421875 46.128906 54.320312 46.316406 54.222656 46.503906 L 45.734375 46.503906 C 46.425781 46.195312 46.515625 45.804688 46.519531 45.402344 C 46.523438 43.898438 46.523438 42.394531 46.515625 40.886719 C 46.511719 40.511719 46.433594 40.144531 45.792969 39.859375 L 50.84375 39.859375 C 50.054688 40.226562 50.140625 40.730469 50.140625 41.222656 C 50.136719 42.542969 50.144531 43.863281 50.132812 45.179688 C 50.128906 45.335938 50.230469 45.398438 50.503906 45.441406 C 51.804688 45.640625 53.394531 45.542969 54.941406 45.132812 C 54.796875 45.40625 54.664062 45.65625 54.527344 45.921875 "/>
<path style=" stroke:none;fill-rule:nonzero;fill:rgb(100%,100%,100%);fill-opacity:1;" d="M 78.230469 40.796875 C 78.265625 40.832031 78.328125 40.882812 78.328125 40.9375 C 78.335938 41.886719 78.335938 42.832031 78.332031 43.78125 C 78.332031 43.808594 78.316406 43.832031 78.289062 43.871094 C 78.261719 43.027344 78.261719 42.167969 78.253906 41.308594 C 78.253906 41.144531 78.238281 40.980469 78.230469 40.796875 "/>
<path style=" stroke:none;fill-rule:nonzero;fill:rgb(100%,100%,100%);fill-opacity:1;" d="M 20.566406 39.886719 C 20.566406 39.867188 20.601562 39.863281 20.621094 39.878906 C 21.050781 40.050781 21.289062 40.261719 21.332031 40.527344 C 21.355469 40.671875 21.378906 40.820312 21.378906 40.964844 C 21.382812 42.414062 21.386719 43.863281 21.378906 45.3125 C 21.378906 45.75 21.328125 46.1875 20.640625 46.511719 C 20.640625 46.511719 20.601562 46.511719 20.585938 46.511719 C 20.566406 44.308594 20.566406 42.105469 20.566406 39.886719 "/>
<path style=" stroke:none;fill-rule:nonzero;fill:rgb(100%,100%,100%);fill-opacity:1;" d="M 26.542969 42.0625 C 26.625 41.855469 26.769531 41.652344 26.769531 41.449219 C 26.773438 41.121094 26.390625 40.867188 25.894531 40.796875 C 25.253906 40.707031 25.003906 40.804688 25.003906 41.136719 L 25.003906 42.394531 C 25.691406 42.480469 26.097656 42.390625 26.542969 42.0625 M 25.027344 45.429688 C 25.914062 45.703125 26.988281 45.535156 27.398438 45.046875 C 27.710938 44.671875 27.722656 44.285156 27.46875 43.902344 C 27.285156 43.625 26.894531 43.445312 26.355469 43.378906 C 25.929688 43.324219 25.484375 43.320312 25.007812 43.292969 C 25.007812 44.019531 25.007812 44.707031 25.027344 45.429688 M 20.675781 46.511719 C 21.328125 46.1875 21.378906 45.75 21.378906 45.3125 C 21.386719 43.863281 21.382812 42.414062 21.378906 40.964844 C 21.378906 40.820312 21.355469 40.671875 21.332031 40.527344 C 21.289062 40.261719 21.050781 40.050781 20.640625 39.878906 C 20.746094 39.863281 20.855469 39.863281 21.015625 39.863281 C 21.078125 39.859375 21.089844 39.859375 21.101562 39.855469 C 21.796875 39.855469 22.492188 39.851562 23.246094 39.851562 C 23.421875 39.847656 23.535156 39.839844 23.648438 39.835938 C 24.464844 39.835938 25.28125 39.828125 26.101562 39.832031 C 26.625 39.835938 27.148438 39.851562 27.671875 39.867188 C 29 39.910156 30.929688 40.785156 30.320312 41.804688 C 30.066406 42.230469 29.457031 42.480469 28.703125 42.652344 C 28.621094 42.671875 28.539062 42.6875 28.453125 42.703125 C 28.84375 42.789062 29.25 42.84375 29.59375 42.953125 C 31.40625 43.535156 31.714844 44.890625 30.265625 45.769531 C 29.425781 46.277344 28.34375 46.5 27.082031 46.503906 C 24.960938 46.511719 22.835938 46.511719 20.675781 46.511719 "/>
<g clip-path="url(#clip5)" clip-rule="nonzero">
<path style="fill:none;stroke-width:1;stroke-linecap:butt;stroke-linejoin:miter;stroke:rgb(17.254902%,28.627451%,39.215686%);stroke-opacity:1;stroke-miterlimit:10;" d="M -0.0386294 -0.0428176 C 1.548302 7.628946 4.344323 15.155959 4.344323 22.682972 C 4.419891 34.841994 -2.985787 44.25076 -12.582942 46.856265 C -24.976118 50.18552 -29.812479 46.566764 -29.812479 34.262993 L -29.812479 -12.346589 C -16.512485 -15.531095 -8.653398 -12.201839 -0.0386294 -0.0428176 Z M -29.35907 -124.817536 C -12.205101 -134.950054 8.576139 -128.725793 16.510795 -110.632011 C 22.556247 -96.735987 22.782951 -82.405712 17.871021 -68.220187 C 14.319319 -57.942919 6.762504 -51.284407 -3.6659 -48.823653 C -11.902828 -46.797149 -20.517597 -46.652399 -29.736911 -45.639147 C -29.736911 -72.562695 -29.736911 -98.038739 -29.35907 -124.817536 Z M -113.541986 -164.913356 C -100.922106 -152.899085 -99.93972 -136.687057 -99.93972 -120.475029 C -99.788584 -66.772684 -99.864152 -13.07034 -99.93972 40.632004 C -99.93972 45.987763 -100.393129 51.488273 -100.846538 56.844032 C -101.677787 66.687049 -106.287444 74.503563 -114.2221 80.872574 C -112.18176 81.451575 -110.065852 81.451575 -106.967557 81.451575 C -105.758467 81.596325 -105.531763 81.596325 -105.305058 81.741076 C -91.853928 81.741076 -78.402798 81.885826 -63.818146 81.885826 C -60.417579 82.030576 -58.226103 82.320077 -56.034626 82.464827 C -40.240884 82.464827 -24.447141 82.754327 -8.57783 82.609577 C 1.548302 82.464827 11.674433 81.885826 21.800565 81.306825 C 47.493735 79.714572 84.8244 47.290515 73.035769 9.510699 C 68.123839 -6.267078 56.335208 -15.531095 41.750556 -21.900106 C 40.163625 -22.623857 38.576694 -23.202858 36.914195 -23.781859 C 44.471009 -26.966365 52.330097 -28.992868 58.980093 -33.045875 C 94.043714 -54.613663 100.013597 -104.842001 71.977815 -137.410808 C 55.730663 -156.228341 34.798286 -164.479106 10.389775 -164.623856 C -30.643729 -164.913356 -71.752801 -164.913356 -113.541986 -164.913356 Z M -113.541986 -164.913356 " transform="matrix(0.0516918,0,0,-0.0269861,26.544966,42.061345)"/>
</g>
<path style=" stroke:none;fill-rule:nonzero;fill:rgb(100%,100%,100%);fill-opacity:1;" d="M 78.230469 40.796875 C 78.265625 40.832031 78.328125 40.882812 78.328125 40.9375 C 78.335938 41.886719 78.335938 42.832031 78.332031 43.78125 C 78.332031 43.808594 78.316406 43.832031 78.289062 43.871094 C 78.261719 43.027344 78.261719 42.167969 78.253906 41.308594 C 78.253906 41.144531 78.238281 40.980469 78.230469 40.796875 "/>
<g clip-path="url(#clip6)" clip-rule="nonzero">
<path style=" stroke:none;fill-rule:nonzero;fill:rgb(100%,100%,100%);fill-opacity:1;" d="M 57.5625 38.609375 C 57.535156 38.671875 57.503906 38.738281 57.46875 38.824219 L 58.878906 38.824219 C 58.773438 38.347656 58.585938 38.261719 57.761719 38.308594 C 57.703125 38.394531 57.648438 38.484375 57.5625 38.609375 M 78.222656 34.742188 L 76.75 34.742188 C 76.785156 34.9375 76.816406 35.105469 76.847656 35.28125 L 78.660156 35.28125 C 78.527344 35.089844 78.414062 34.921875 78.222656 34.742188 M 50.917969 38.824219 L 52.175781 38.824219 C 52.144531 38.398438 52.089844 38.371094 51.34375 38.371094 C 50.75 38.371094 50.15625 38.375 49.558594 38.375 C 48.761719 38.375 48.757812 38.375 48.542969 38.769531 C 48.539062 38.777344 48.5625 38.792969 48.585938 38.824219 C 49.324219 38.824219 50.074219 38.824219 50.917969 38.824219 M 59.414062 36.941406 C 59.375 36.742188 59.339844 36.542969 59.289062 36.285156 C 59.183594 36.410156 59.066406 36.488281 59.0625 36.5625 C 59.039062 36.917969 58.988281 37.273438 59.058594 37.621094 C 59.101562 37.824219 59.296875 38.03125 59.519531 38.203125 C 59.773438 38.398438 60.1875 38.40625 60.460938 38.222656 C 60.695312 38.066406 60.824219 37.871094 61 37.695312 C 60.144531 37.859375 59.878906 37.8125 59.617188 37.421875 C 59.523438 37.28125 59.484375 37.128906 59.414062 36.941406 M 72.632812 34.542969 L 75.78125 34.542969 C 75.648438 34.445312 75.472656 34.355469 75.273438 34.34375 C 74.84375 34.3125 74.402344 34.316406 73.964844 34.308594 C 72.339844 34.289062 70.710938 34.269531 69.085938 34.25 C 68.742188 34.246094 68.488281 34.296875 68.414062 34.542969 C 69.828125 34.542969 71.183594 34.542969 72.632812 34.542969 M 69.488281 33.15625 C 69.253906 33.152344 69.011719 33.132812 68.789062 33.15625 C 68.621094 33.175781 68.484375 33.253906 68.332031 33.304688 L 68.402344 33.378906 C 70.816406 33.480469 73.234375 33.519531 75.679688 33.457031 C 75.410156 33.355469 75.125 33.273438 74.828125 33.265625 C 73.078125 33.21875 71.324219 33.191406 69.488281 33.15625 M 70.59375 34.003906 C 72.097656 34.023438 73.601562 34.042969 75.105469 34.058594 C 75.304688 34.058594 75.507812 34.027344 75.800781 34.003906 C 75.460938 33.796875 75.085938 33.792969 74.71875 33.785156 C 73.734375 33.765625 72.746094 33.753906 71.761719 33.738281 C 70.867188 33.722656 69.976562 33.699219 69.085938 33.691406 C 68.777344 33.6875 68.441406 33.6875 68.4375 33.945312 C 69.140625 33.964844 69.824219 33.984375 70.59375 34.003906 M 46.296875 36.777344 C 46.324219 36.933594 46.347656 37.085938 46.371094 37.234375 L 47 37.234375 C 46.953125 36.949219 46.90625 36.675781 46.859375 36.402344 C 46.902344 36.398438 46.941406 36.390625 46.980469 36.382812 C 47.15625 36.667969 47.332031 36.949219 47.507812 37.226562 L 49.832031 37.226562 C 49.832031 37.007812 49.847656 36.800781 49.828125 36.597656 C 49.808594 36.382812 49.632812 36.226562 49.164062 36.175781 C 48.882812 36.140625 48.59375 36.085938 48.359375 36 C 47.550781 35.710938 46.796875 35.96875 46.046875 35.996094 C 46.136719 36.269531 46.214844 36.503906 46.296875 36.777344 M 73.335938 38.367188 C 73.25 38.089844 72.988281 37.960938 72.378906 37.964844 C 69.558594 37.984375 66.742188 37.980469 63.921875 37.988281 C 63.808594 37.988281 63.621094 38.03125 63.589844 38.078125 C 63.410156 38.3125 63.269531 38.558594 63.113281 38.804688 L 73.734375 38.804688 C 73.59375 38.65625 73.472656 38.53125 73.335938 38.367188 M 80.308594 40.101562 C 75.722656 39.789062 71.105469 39.636719 66.488281 39.570312 C 58.011719 39.453125 49.53125 39.378906 41.054688 39.289062 C 40.804688 39.285156 40.554688 39.289062 40.265625 39.289062 L 40.265625 38.820312 L 43.503906 38.820312 C 43.355469 38.164062 43.214844 37.527344 43.0625 36.867188 L 41.835938 36.867188 C 41.789062 36.675781 41.75 36.503906 41.707031 36.304688 C 41.28125 36.265625 40.839844 36.230469 40.398438 36.191406 C 40.390625 36.167969 40.382812 36.140625 40.375 36.117188 C 44.179688 35.789062 47.984375 35.457031 51.789062 35.128906 C 51.78125 35.101562 51.769531 35.074219 51.761719 35.046875 L 40.9375 35.574219 L 40.917969 35.515625 C 44.53125 35.0625 48.148438 34.609375 51.761719 34.15625 C 51.75 34.132812 51.742188 34.105469 51.734375 34.078125 C 48.5 34.308594 45.269531 34.542969 42.039062 34.777344 C 42.035156 34.765625 42.027344 34.753906 42.023438 34.742188 C 45.269531 34.226562 48.511719 33.714844 51.757812 33.199219 C 51.746094 33.175781 51.734375 33.152344 51.726562 33.125 C 48.542969 33.464844 45.359375 33.804688 42.175781 34.148438 C 42.164062 34.121094 42.152344 34.097656 42.140625 34.070312 C 45.355469 33.484375 48.570312 32.898438 51.789062 32.3125 L 51.738281 32.230469 C 48.585938 32.640625 45.429688 33.054688 42.277344 33.464844 C 42.265625 33.449219 42.253906 33.429688 42.242188 33.410156 C 45.523438 32.699219 48.800781 31.984375 52.082031 31.273438 C 52.0625 31.246094 52.042969 31.21875 52.023438 31.191406 L 42.386719 32.820312 C 42.371094 32.800781 42.355469 32.78125 42.339844 32.761719 C 45.398438 31.988281 48.460938 31.21875 51.570312 30.429688 C 51.644531 30.398438 51.667969 30.382812 51.6875 30.367188 C 51.628906 30.375 51.566406 30.378906 51.503906 30.386719 C 50.085938 30.65625 48.667969 30.925781 47.25 31.199219 C 45.921875 31.457031 44.59375 31.71875 43.265625 31.972656 C 43.128906 32 42.976562 32.007812 42.8125 31.992188 C 45.714844 31.175781 48.617188 30.355469 51.519531 29.539062 C 51.496094 29.511719 51.46875 29.480469 51.445312 29.453125 C 48.585938 30.097656 45.726562 30.738281 42.867188 31.382812 C 42.847656 31.363281 42.828125 31.34375 42.808594 31.320312 C 45.683594 30.414062 48.5625 29.507812 51.4375 28.597656 C 51.421875 28.578125 51.40625 28.558594 51.390625 28.539062 C 51.25 28.5625 51.097656 28.578125 50.96875 28.613281 C 48.890625 29.167969 46.820312 29.722656 44.742188 30.277344 C 44.40625 30.367188 44.0625 30.449219 43.71875 30.535156 C 43.695312 30.511719 43.671875 30.488281 43.648438 30.464844 C 47.304688 29.296875 50.964844 28.132812 54.621094 26.964844 C 54.660156 26.984375 54.699219 27.007812 54.738281 27.027344 C 54.738281 27.109375 54.738281 27.195312 54.738281 27.28125 C 54.734375 28.707031 54.730469 30.132812 54.738281 31.558594 C 54.738281 31.667969 54.863281 31.777344 54.929688 31.886719 C 55 31.777344 55.121094 31.671875 55.125 31.5625 C 55.167969 30.574219 55.1875 29.582031 55.222656 28.59375 C 55.222656 28.535156 55.238281 28.429688 55.292969 28.421875 C 55.683594 28.363281 55.601562 28.207031 55.597656 28.074219 C 55.570312 27.519531 55.515625 26.96875 55.507812 26.414062 C 55.507812 26.339844 55.703125 26.265625 55.808594 26.191406 C 55.921875 26.238281 56.097656 26.277344 56.144531 26.335938 C 56.226562 26.445312 56.246094 26.566406 56.261719 26.683594 C 56.308594 27.011719 56.300781 27.023438 56.988281 27.0625 C 58.714844 27.167969 60.445312 27.261719 62.171875 27.359375 C 63.882812 27.453125 65.59375 27.554688 67.308594 27.640625 C 67.652344 27.660156 67.679688 27.777344 67.679688 27.886719 C 67.683594 28.226562 67.640625 28.566406 67.632812 28.90625 C 67.628906 29.058594 67.566406 29.226562 68.019531 29.324219 C 68.046875 29.222656 68.085938 29.140625 68.082031 29.058594 C 68.054688 28.4375 68.007812 27.8125 67.996094 27.1875 C 67.992188 27.113281 68.140625 27.035156 68.21875 26.960938 C 68.355469 27.011719 68.589844 27.054688 68.605469 27.113281 C 68.699219 27.457031 68.746094 27.804688 68.800781 28.148438 C 68.839844 28.375 68.789062 28.367188 68.960938 28.707031 C 68.988281 28.761719 69.148438 28.996094 69.121094 29.089844 C 69.046875 29.3125 69.265625 29.410156 69.648438 29.488281 C 69.992188 29.554688 70.3125 29.660156 70.625 29.757812 C 70.726562 29.792969 70.78125 29.867188 70.910156 29.960938 C 69.558594 29.875 68.304688 29.789062 67.054688 29.714844 C 66.277344 29.667969 65.496094 29.613281 64.714844 29.605469 C 62.917969 29.582031 61.117188 29.527344 59.332031 29.59375 C 58.441406 29.628906 57.585938 29.902344 56.726562 30.078125 C 56.644531 30.09375 56.601562 30.199219 56.601562 30.261719 C 56.589844 31.792969 56.582031 33.320312 56.59375 34.847656 C 56.597656 35.25 56.71875 35.285156 57.496094 35.191406 C 57.738281 35.164062 57.980469 35.140625 58.277344 35.109375 C 58.140625 35.503906 57.992188 35.871094 57.890625 36.242188 C 57.808594 36.546875 57.773438 36.855469 57.746094 37.164062 C 57.742188 37.230469 57.863281 37.300781 57.925781 37.367188 C 57.992188 37.359375 58.054688 37.355469 58.121094 37.347656 C 58.179688 37.011719 58.238281 36.675781 58.300781 36.34375 C 58.390625 35.839844 58.632812 35.359375 59.15625 34.925781 C 59.429688 34.703125 59.769531 34.503906 60.347656 34.539062 C 60.933594 34.574219 61.28125 34.769531 61.484375 35.042969 C 61.847656 35.53125 61.851562 35.527344 62.886719 35.53125 C 64.015625 35.53125 65.144531 35.539062 66.273438 35.53125 C 66.6875 35.527344 67.007812 35.566406 67.21875 35.761719 C 67.261719 35.804688 67.371094 35.832031 67.515625 35.894531 C 67.496094 35.710938 67.480469 35.566406 67.457031 35.390625 C 70.359375 35.414062 73.230469 35.4375 76.117188 35.464844 C 76.171875 35.238281 75.929688 35.203125 75.617188 35.199219 C 74.128906 35.183594 72.640625 35.164062 71.152344 35.148438 C 69.601562 35.132812 68.050781 35.125 66.5 35.109375 C 66.421875 35.109375 66.347656 35.101562 66.21875 35.089844 C 66.191406 34.960938 66.152344 34.828125 66.144531 34.699219 C 66.132812 34.542969 65.972656 34.457031 65.6875 34.449219 C 65.203125 34.433594 64.71875 34.429688 64.234375 34.429688 C 63.886719 34.429688 63.722656 34.515625 63.761719 34.699219 C 63.785156 34.824219 63.765625 34.949219 63.765625 35.074219 L 63.601562 35.117188 C 63.496094 35.046875 63.34375 34.980469 63.300781 34.902344 C 63.25 34.804688 63.292969 34.699219 63.296875 34.59375 C 63.308594 34.171875 62.90625 33.929688 62.078125 33.871094 C 61.769531 33.847656 61.457031 33.832031 61.027344 33.808594 C 61.492188 33.640625 61.933594 33.597656 62.382812 33.589844 C 63.847656 33.550781 65.257812 33.664062 66.570312 34.011719 C 66.652344 34.03125 66.742188 34.046875 66.828125 34.0625 C 66.855469 34.066406 66.890625 34.0625 66.949219 34.058594 C 66.976562 34.011719 67.042969 33.960938 67.042969 33.910156 C 67.023438 33.429688 67.019531 32.945312 66.960938 32.464844 C 66.933594 32.242188 66.644531 32.09375 66.183594 32.058594 C 64.839844 31.945312 63.5 31.835938 62.15625 31.726562 C 61.441406 31.667969 60.722656 31.605469 60.136719 31.914062 C 60.0625 31.953125 59.914062 31.957031 59.699219 31.996094 C 59.699219 31.800781 59.699219 31.640625 59.699219 31.476562 C 59.699219 31.019531 59.707031 30.5625 59.695312 30.101562 C 59.691406 29.933594 59.855469 29.878906 60.152344 29.878906 C 61.246094 29.882812 62.347656 29.863281 63.441406 29.898438 C 65.09375 29.949219 66.746094 30.035156 68.398438 30.117188 C 69.046875 30.148438 69.695312 30.207031 70.34375 30.257812 C 70.746094 30.289062 70.996094 30.421875 71.082031 30.609375 C 71.238281 30.945312 71.382812 31.285156 71.460938 31.628906 C 71.5 31.792969 71.644531 31.847656 71.910156 31.871094 C 72.925781 31.964844 73.9375 32.070312 74.957031 32.15625 C 76.34375 32.269531 76.382812 32.28125 76.480469 32.980469 C 76.523438 33.269531 76.546875 33.5625 76.589844 33.855469 C 76.613281 34.015625 76.753906 34.089844 77.109375 34.121094 C 78.730469 34.273438 78.941406 34.335938 78.992188 35.238281 C 79.015625 35.605469 78.910156 35.640625 78.171875 35.628906 C 77.828125 35.621094 77.488281 35.621094 77.144531 35.625 C 77.070312 35.625 77 35.667969 76.929688 35.746094 C 77.078125 35.757812 77.230469 35.773438 77.382812 35.777344 C 77.851562 35.796875 78.324219 35.792969 78.785156 35.835938 C 79.46875 35.894531 79.726562 36.054688 79.8125 36.441406 C 75.332031 36.390625 70.859375 36.34375 66.371094 36.28125 C 67.023438 36.261719 67.691406 36.261719 68.429688 36.261719 C 68.339844 36.210938 68.304688 36.195312 68.257812 36.167969 C 68.359375 36.15625 68.453125 36.140625 68.429688 36.144531 L 63.402344 36.144531 C 64.007812 36.203125 64.617188 36.195312 65.222656 36.207031 C 65.363281 36.207031 65.5 36.261719 65.636719 36.292969 C 64.519531 36.300781 63.402344 36.308594 62.292969 36.316406 C 62.242188 36.546875 62.386719 36.601562 62.734375 36.601562 C 64.410156 36.585938 66.085938 36.582031 67.761719 36.578125 C 67.882812 36.578125 68.007812 36.585938 68.230469 36.59375 L 68.230469 37.585938 C 68.289062 37.585938 68.351562 37.585938 68.410156 37.585938 C 68.675781 37.273438 68.421875 36.933594 68.5625 36.613281 L 70.804688 36.613281 C 70.835938 36.835938 70.863281 37.035156 70.890625 37.261719 L 75.230469 37.261719 L 75.230469 36.703125 L 77.183594 36.703125 C 77.210938 37.015625 77.238281 37.300781 77.265625 37.585938 C 77.347656 37.585938 77.429688 37.585938 77.511719 37.585938 L 77.511719 36.742188 L 79.820312 36.742188 C 79.90625 37.132812 79.8125 37.488281 79.515625 37.824219 C 79.441406 37.90625 79.183594 37.957031 78.988281 37.996094 C 78.851562 38.023438 78.679688 38.003906 78.558594 38.003906 C 78.355469 38.277344 78.171875 38.535156 77.953125 38.835938 L 83.28125 38.835938 C 82.621094 39.292969 82.035156 39.703125 81.40625 40.128906 C 81.011719 40.128906 80.660156 40.117188 80.308594 40.101562 "/>
</g>
<g clip-path="url(#clip7)" clip-rule="nonzero">
<path style=" stroke:none;fill-rule:nonzero;fill:rgb(17.254902%,28.627451%,39.215686%);fill-opacity:1;" d="M 28.371094 43.828125 C 28.632812 44.199219 28.824219 44.589844 29.167969 44.9375 C 29.980469 45.765625 31.441406 46.140625 33.0625 45.996094 C 34.640625 45.855469 35.964844 45.136719 36.230469 44.289062 C 36.492188 43.46875 36.394531 42.660156 35.914062 41.867188 C 35.554688 41.277344 35.019531 40.730469 33.964844 40.382812 C 31.980469 39.734375 29.453125 40.234375 28.570312 41.429688 C 27.996094 42.207031 27.992188 42.992188 28.371094 43.828125 M 38.070312 46.238281 C 35.917969 47.117188 33.46875 47.34375 30.847656 47.210938 C 28.855469 47.109375 27.125 46.707031 25.707031 45.964844 C 24.167969 45.164062 23.542969 44.171875 23.542969 43.066406 C 23.542969 41.679688 24.625 40.558594 26.816406 39.746094 C 28.765625 39.027344 30.980469 38.820312 33.328125 38.910156 C 34.847656 38.96875 36.285156 39.160156 37.582031 39.597656 C 39.445312 40.222656 40.492188 41.125 40.8125 42.25 C 41.082031 43.195312 40.933594 44.121094 40.078125 44.988281 C 39.597656 45.480469 38.917969 45.886719 38.070312 46.238281 "/>
</g>
<g clip-path="url(#clip8)" clip-rule="nonzero">
<path style=" stroke:none;fill-rule:nonzero;fill:rgb(17.254902%,28.627451%,39.215686%);fill-opacity:1;" d="M 92.402344 46.035156 C 94.410156 46.039062 96.066406 45.308594 96.394531 44.289062 C 96.664062 43.457031 96.554688 42.636719 96.0625 41.839844 C 95.699219 41.257812 95.160156 40.71875 94.117188 40.378906 C 92.152344 39.730469 89.609375 40.230469 88.742188 41.445312 C 87.808594 42.753906 88.261719 43.996094 89.605469 45.164062 C 90.195312 45.675781 91.136719 45.980469 92.402344 46.035156 M 100.539062 41.367188 C 101.339844 42.636719 101.371094 43.871094 100.164062 45.058594 C 99.234375 45.96875 97.753906 46.582031 95.902344 46.921875 C 93.15625 47.421875 90.394531 47.421875 87.789062 46.703125 C 84.910156 45.90625 83.660156 44.597656 83.71875 42.925781 C 83.800781 40.554688 87.574219 39.09375 91.328125 38.925781 C 92.894531 38.855469 94.429688 38.894531 95.917969 39.148438 C 98.085938 39.519531 99.660156 40.242188 100.539062 41.367188 "/>
</g>
<g clip-path="url(#clip9)" clip-rule="nonzero">
<path style=" stroke:none;fill-rule:nonzero;fill:rgb(17.254902%,28.627451%,39.215686%);fill-opacity:1;" d="M 111.113281 46.417969 C 110.015625 46.941406 108.714844 47.171875 107.289062 47.226562 C 105.417969 47.300781 103.582031 47.203125 101.816406 46.855469 C 101.695312 46.832031 101.539062 46.769531 101.511719 46.710938 C 101.257812 46.183594 101.03125 45.648438 100.773438 45.070312 C 101.761719 45.457031 102.773438 45.714844 103.875 45.871094 C 104.816406 46.007812 105.769531 46.0625 106.734375 45.949219 C 107.410156 45.867188 107.976562 45.707031 108.140625 45.316406 C 108.300781 44.941406 107.972656 44.644531 107.402344 44.460938 C 106.40625 44.136719 105.347656 43.863281 104.328125 43.558594 C 103.667969 43.359375 102.945312 43.183594 102.40625 42.917969 C 99.90625 41.675781 100.882812 39.640625 104.226562 39.097656 C 106.347656 38.753906 108.464844 38.839844 110.546875 39.21875 C 110.640625 39.234375 110.769531 39.292969 110.769531 39.335938 C 110.785156 39.769531 110.78125 40.199219 110.78125 40.609375 C 110 40.457031 109.265625 40.28125 108.492188 40.171875 C 107.8125 40.074219 107.097656 40.066406 106.414062 40.210938 C 105.277344 40.445312 105.085938 41.089844 106.0625 41.46875 C 106.460938 41.621094 106.933594 41.730469 107.390625 41.839844 C 108.632812 42.132812 109.875 42.410156 110.933594 42.878906 C 113.222656 43.890625 112.878906 45.605469 111.113281 46.417969 "/>
</g>
<path style=" stroke:none;fill-rule:nonzero;fill:rgb(17.254902%,28.627451%,39.215686%);fill-opacity:1;" d="M 37.488281 24.453125 C 37.53125 24.429688 37.59375 24.421875 37.660156 24.414062 C 37.65625 24.433594 37.652344 24.453125 37.601562 24.480469 C 37.558594 24.488281 37.511719 24.464844 37.488281 24.453125 "/>
<path style=" stroke:none;fill-rule:nonzero;fill:rgb(17.254902%,28.627451%,39.215686%);fill-opacity:1;" d="M 60.035156 24.476562 C 59.96875 24.464844 59.929688 24.441406 59.890625 24.417969 C 59.9375 24.414062 59.988281 24.40625 60.078125 24.417969 C 60.117188 24.429688 60.0625 24.460938 60.035156 24.476562 "/>
<path style=" stroke:none;fill-rule:nonzero;fill:rgb(17.254902%,28.627451%,39.215686%);fill-opacity:1;" d="M 73.089844 21.429688 C 73.644531 21.519531 74.203125 21.613281 74.871094 21.722656 C 74.769531 21.589844 74.738281 21.523438 74.675781 21.46875 C 73.625 20.523438 72.402344 19.640625 70.863281 18.878906 C 69.3125 18.109375 67.554688 17.511719 65.496094 17.15625 C 65.183594 17.101562 64.851562 17.078125 64.449219 17.027344 C 64.933594 17.503906 65.441406 17.910156 65.765625 18.347656 C 66.277344 19.046875 66.6875 19.761719 67.097656 20.480469 C 67.21875 20.6875 67.453125 20.769531 67.828125 20.8125 C 69.558594 21.007812 71.285156 21.207031 73.089844 21.429688 M 84.851562 26.203125 C 82.996094 24.722656 80.335938 23.71875 77.222656 22.851562 C 77.269531 22.984375 77.277344 23.023438 77.296875 23.054688 C 77.835938 24.085938 78.484375 25.101562 78.875 26.144531 C 79.070312 26.65625 79.511719 26.832031 80.410156 26.925781 C 82.449219 27.148438 84.402344 27.492188 86.152344 28.089844 C 86.25 28.121094 86.367188 28.140625 86.53125 28.179688 C 86.324219 27.433594 85.640625 26.828125 84.851562 26.203125 M 55.183594 17.945312 C 52.410156 18.882812 50.484375 20.183594 48.929688 21.652344 C 49.128906 21.675781 49.28125 21.675781 49.414062 21.652344 C 51.605469 21.269531 53.820312 20.929688 56.128906 20.769531 C 56.53125 20.742188 56.675781 20.621094 56.722656 20.453125 C 57.0625 19.3125 57.933594 18.277344 59.085938 17.292969 C 59.183594 17.210938 59.261719 17.121094 59.410156 16.976562 C 58.828125 17.0625 58.375 17.097656 57.980469 17.191406 C 57.058594 17.421875 56.160156 17.675781 55.183594 17.945312 M 64.855469 20.632812 L 65.992188 20.632812 C 65.992188 20.585938 66.007812 20.546875 65.992188 20.511719 C 65.554688 19.5 64.898438 18.523438 63.808594 17.640625 C 63.507812 17.398438 63.082031 17.183594 62.648438 16.996094 C 62.1875 16.796875 61.621094 16.808594 61.132812 16.980469 C 60.796875 17.09375 60.441406 17.234375 60.25 17.410156 C 59.679688 17.925781 59.125 18.453125 58.683594 19.003906 C 58.265625 19.523438 58.003906 20.074219 57.660156 20.628906 C 60.101562 20.628906 62.425781 20.628906 64.855469 20.632812 M 54.367188 17.4375 C 53.90625 17.511719 53.433594 17.574219 52.984375 17.664062 C 46.210938 19.039062 41.46875 21.457031 38.59375 24.832031 C 38.46875 24.980469 38.355469 25.132812 38.261719 25.285156 C 38.167969 25.433594 38.105469 25.589844 38.007812 25.78125 C 38.132812 25.738281 38.167969 25.730469 38.191406 25.714844 C 40.421875 24.167969 43.351562 23.058594 46.714844 22.214844 C 47.023438 22.136719 47.324219 21.992188 47.484375 21.839844 C 48.441406 20.910156 49.421875 19.992188 50.867188 19.234375 C 52.035156 18.621094 53.292969 18.050781 54.570312 17.453125 C 54.574219 17.441406 54.578125 17.429688 54.578125 17.417969 C 54.535156 17.421875 54.496094 17.429688 54.367188 17.4375 M 85.597656 25.71875 C 85.636719 25.726562 85.675781 25.734375 85.710938 25.742188 C 85.691406 25.714844 85.671875 25.683594 85.648438 25.609375 C 85.515625 25.394531 85.417969 25.171875 85.25 24.964844 C 82.894531 22.042969 79.027344 19.804688 73.503906 18.3125 C 72.167969 17.953125 70.839844 17.578125 69.273438 17.410156 C 69.242188 17.414062 69.207031 17.417969 69.175781 17.417969 C 69.203125 17.433594 69.226562 17.449219 69.285156 17.5 C 72.203125 18.597656 74.472656 19.964844 75.980469 21.644531 C 76.226562 21.921875 76.613281 22.117188 77.160156 22.257812 C 78.847656 22.695312 80.476562 23.175781 81.964844 23.78125 C 83.339844 24.339844 84.4375 25.023438 85.597656 25.71875 M 85.449219 33.265625 C 84.84375 33.636719 84.238281 34.007812 83.632812 34.378906 C 82.898438 34.097656 82.859375 33.972656 83.351562 33.667969 C 84.394531 33.019531 85.449219 32.371094 86.035156 31.574219 C 86.21875 31.320312 86.347656 31.058594 86.550781 30.71875 C 86.242188 30.796875 86.097656 30.835938 85.953125 30.871094 C 84.875 31.132812 83.777344 31.382812 82.71875 31.664062 C 81.792969 31.910156 81.039062 31.753906 80.230469 31.464844 C 81.308594 31.269531 82.363281 31.117188 83.359375 30.894531 C 84.277344 30.6875 85.1875 30.445312 85.996094 30.148438 C 87.097656 29.738281 87.082031 29.214844 86.042969 28.765625 C 84.675781 28.167969 82.996094 27.878906 81.316406 27.605469 C 80.695312 27.503906 80.054688 27.433594 79.320312 27.332031 C 79.382812 27.816406 79.464844 28.253906 79.492188 28.691406 C 79.523438 29.136719 79.5 29.582031 79.5 30.078125 C 79.011719 29.609375 78.183594 29.292969 78.347656 28.695312 C 78.460938 28.292969 78.25 27.867188 78.199219 27.449219 C 78.171875 27.257812 78 27.160156 77.617188 27.132812 C 76.246094 27.03125 74.878906 26.894531 73.5 26.820312 C 72.589844 26.773438 72.15625 26.472656 71.589844 26.097656 C 73.78125 26.265625 75.832031 26.417969 77.992188 26.582031 C 77.75 26.035156 77.5625 25.519531 77.28125 25.011719 C 76.875 24.273438 76.421875 23.542969 75.941406 22.816406 C 75.84375 22.667969 75.597656 22.492188 75.328125 22.433594 C 72.878906 21.890625 70.296875 21.574219 67.546875 21.328125 C 67.699219 21.796875 67.835938 22.21875 67.984375 22.671875 C 67.644531 22.71875 67.324219 22.761719 66.898438 22.820312 C 66.789062 22.496094 66.660156 22.1875 66.578125 21.875 C 66.402344 21.238281 66.414062 21.191406 65.164062 21.179688 C 62.746094 21.160156 60.324219 21.203125 57.902344 21.210938 C 57.519531 21.214844 57.386719 21.308594 57.332031 21.484375 C 57.175781 21.96875 57 22.453125 56.816406 22.980469 C 56.46875 22.964844 56.125 22.949219 55.675781 22.929688 C 55.863281 22.390625 56.035156 21.882812 56.238281 21.296875 C 55.003906 21.433594 53.867188 21.527344 52.761719 21.6875 C 51.429688 21.878906 50.128906 22.128906 48.808594 22.347656 C 48.265625 22.4375 47.921875 22.613281 47.753906 22.890625 C 47.601562 23.144531 47.386719 23.386719 47.25 23.644531 C 47.019531 24.070312 46.417969 24.273438 45.5625 24.421875 C 45.894531 23.914062 46.203125 23.4375 46.566406 22.871094 C 45.976562 23.03125 45.523438 23.132812 45.109375 23.269531 C 42.542969 24.105469 40.160156 25.050781 38.660156 26.425781 C 38.074219 26.960938 37.089844 27.144531 36.238281 27.460938 C 36.167969 27.441406 36.101562 27.425781 36.03125 27.40625 C 36.386719 26.71875 36.648438 26.011719 37.117188 25.34375 C 40.15625 21.015625 45.996094 18.144531 54.726562 16.8125 C 56.800781 16.492188 58.941406 16.355469 61.128906 16.277344 C 61.679688 16.257812 62.210938 16.257812 62.792969 16.257812 C 63.367188 16.292969 63.890625 16.335938 64.417969 16.363281 C 71.703125 16.738281 77.640625 18.394531 82.234375 21.25 C 86.535156 23.921875 88.320312 27.023438 87.871094 30.453125 C 87.578125 32.6875 86.105469 34.726562 83.75 36.613281 C 83.667969 36.675781 83.574219 36.734375 83.492188 36.800781 C 83.453125 36.832031 83.429688 36.867188 83.328125 36.878906 C 83.347656 36.332031 83.417969 35.816406 83.898438 35.3125 C 84.507812 34.675781 84.996094 34.007812 85.570312 33.324219 C 85.609375 33.257812 85.613281 33.222656 85.628906 33.144531 C 85.53125 33.207031 85.488281 33.234375 85.449219 33.265625 "/>
<g clip-path="url(#clip10)" clip-rule="nonzero">
<path style=" stroke:none;fill-rule:nonzero;fill:rgb(17.254902%,28.627451%,39.215686%);fill-opacity:1;" d="M 55.074219 37.613281 C 55.039062 37.691406 55.003906 37.769531 54.960938 37.871094 L 56.652344 37.871094 C 56.527344 37.304688 56.300781 37.199219 55.3125 37.257812 C 55.242188 37.359375 55.175781 37.464844 55.074219 37.613281 M 79.855469 32.976562 L 78.089844 32.976562 C 78.132812 33.210938 78.167969 33.414062 78.207031 33.625 L 80.378906 33.625 C 80.21875 33.394531 80.082031 33.195312 79.855469 32.976562 M 47.101562 37.875 L 48.613281 37.875 C 48.574219 37.363281 48.507812 37.328125 47.617188 37.332031 C 46.902344 37.332031 46.1875 37.335938 45.476562 37.335938 C 44.515625 37.335938 44.515625 37.335938 44.253906 37.804688 C 44.25 37.820312 44.277344 37.839844 44.304688 37.875 C 45.191406 37.875 46.089844 37.875 47.101562 37.875 M 57.292969 35.617188 C 57.25 35.378906 57.203125 35.140625 57.144531 34.828125 C 57.015625 34.980469 56.878906 35.070312 56.875 35.160156 C 56.84375 35.585938 56.785156 36.011719 56.871094 36.433594 C 56.917969 36.671875 57.15625 36.921875 57.421875 37.128906 C 57.722656 37.367188 58.222656 37.371094 58.550781 37.148438 C 58.828125 36.964844 58.988281 36.730469 59.195312 36.519531 C 58.171875 36.71875 57.851562 36.660156 57.539062 36.191406 C 57.425781 36.019531 57.382812 35.839844 57.292969 35.617188 M 73.148438 32.738281 L 76.929688 32.738281 C 76.765625 32.621094 76.554688 32.515625 76.316406 32.5 C 75.800781 32.464844 75.273438 32.464844 74.75 32.460938 C 72.796875 32.433594 70.84375 32.414062 68.894531 32.386719 C 68.484375 32.382812 68.179688 32.445312 68.089844 32.738281 C 69.785156 32.738281 71.414062 32.738281 73.148438 32.738281 M 69.375 31.078125 C 69.097656 31.074219 68.804688 31.046875 68.539062 31.078125 C 68.339844 31.097656 68.171875 31.191406 67.992188 31.253906 L 68.074219 31.34375 C 70.972656 31.464844 73.871094 31.511719 76.800781 31.4375 C 76.480469 31.3125 76.136719 31.214844 75.78125 31.207031 C 73.683594 31.152344 71.582031 31.117188 69.375 31.078125 M 70.707031 32.09375 C 72.507812 32.117188 74.3125 32.140625 76.113281 32.15625 C 76.355469 32.160156 76.601562 32.121094 76.953125 32.09375 C 76.542969 31.84375 76.089844 31.839844 75.652344 31.832031 C 74.46875 31.808594 73.285156 31.792969 72.105469 31.773438 C 71.035156 31.753906 69.964844 31.730469 68.894531 31.71875 C 68.527344 31.714844 68.121094 31.714844 68.117188 32.019531 C 68.960938 32.042969 69.78125 32.066406 70.707031 32.09375 M 41.5625 35.421875 C 41.589844 35.605469 41.621094 35.789062 41.648438 35.96875 L 42.40625 35.96875 C 42.347656 35.625 42.292969 35.296875 42.238281 34.972656 C 42.285156 34.964844 42.332031 34.957031 42.382812 34.949219 C 42.59375 35.285156 42.804688 35.625 43.011719 35.960938 L 45.804688 35.960938 C 45.804688 35.695312 45.820312 35.449219 45.796875 35.203125 C 45.773438 34.945312 45.5625 34.761719 45.003906 34.695312 C 44.664062 34.65625 44.3125 34.589844 44.035156 34.488281 C 43.0625 34.136719 42.164062 34.449219 41.261719 34.480469 C 41.371094 34.8125 41.460938 35.089844 41.5625 35.421875 M 73.992188 37.328125 C 73.890625 36.996094 73.578125 36.839844 72.84375 36.84375 C 69.464844 36.867188 66.082031 36.859375 62.703125 36.871094 C 62.5625 36.871094 62.34375 36.921875 62.300781 36.976562 C 62.085938 37.261719 61.917969 37.554688 61.734375 37.851562 L 74.46875 37.851562 C 74.300781 37.671875 74.15625 37.523438 73.992188 37.328125 M 82.355469 39.40625 C 76.855469 39.03125 71.320312 38.847656 65.777344 38.769531 C 55.609375 38.628906 45.441406 38.542969 35.273438 38.429688 C 34.972656 38.429688 34.675781 38.429688 34.328125 38.429688 L 34.328125 37.871094 L 38.214844 37.871094 C 38.035156 37.085938 37.863281 36.320312 37.683594 35.527344 L 36.210938 35.527344 C 36.15625 35.296875 36.109375 35.089844 36.054688 34.851562 C 35.542969 34.808594 35.015625 34.761719 34.488281 34.714844 C 34.476562 34.6875 34.46875 34.65625 34.457031 34.628906 C 39.019531 34.234375 43.585938 33.839844 48.148438 33.445312 C 48.136719 33.410156 48.128906 33.378906 48.117188 33.34375 L 35.132812 33.976562 L 35.109375 33.90625 C 39.445312 33.363281 43.78125 32.820312 48.117188 32.277344 C 48.105469 32.246094 48.09375 32.214844 48.082031 32.179688 C 44.207031 32.460938 40.328125 32.742188 36.453125 33.019531 C 36.449219 33.007812 36.441406 32.992188 36.433594 32.976562 C 40.328125 32.359375 44.21875 31.746094 48.109375 31.128906 C 48.097656 31.101562 48.085938 31.070312 48.070312 31.039062 C 44.253906 31.449219 40.433594 31.855469 36.617188 32.265625 C 36.601562 32.234375 36.589844 32.203125 36.574219 32.175781 C 40.433594 31.46875 44.289062 30.765625 48.148438 30.0625 L 48.089844 29.964844 C 44.304688 30.457031 40.523438 30.953125 36.738281 31.449219 C 36.726562 31.425781 36.710938 31.402344 36.699219 31.382812 C 40.632812 30.527344 44.566406 29.671875 48.5 28.816406 C 48.476562 28.785156 48.453125 28.753906 48.429688 28.71875 L 36.871094 30.671875 C 36.851562 30.648438 36.832031 30.625 36.8125 30.601562 C 40.484375 29.675781 44.15625 28.75 47.886719 27.808594 C 47.976562 27.769531 48.003906 27.75 48.027344 27.730469 C 47.953125 27.738281 47.878906 27.746094 47.808594 27.757812 C 46.105469 28.082031 44.40625 28.402344 42.707031 28.730469 C 41.109375 29.039062 39.519531 29.351562 37.925781 29.660156 C 37.761719 29.691406 37.578125 29.699219 37.382812 29.683594 C 40.863281 28.699219 44.34375 27.71875 47.824219 26.738281 C 47.796875 26.703125 47.765625 26.671875 47.734375 26.636719 C 44.304688 27.40625 40.875 28.175781 37.445312 28.949219 C 37.421875 28.925781 37.398438 28.902344 37.378906 28.875 C 40.828125 27.789062 44.277344 26.699219 47.730469 25.609375 C 47.710938 25.585938 47.691406 25.5625 47.671875 25.539062 C 47.5 25.570312 47.320312 25.585938 47.164062 25.628906 C 44.671875 26.292969 42.1875 26.960938 39.699219 27.625 C 39.292969 27.730469 38.878906 27.828125 38.46875 27.933594 C 38.441406 27.90625 38.410156 27.875 38.382812 27.847656 C 42.769531 26.449219 47.160156 25.050781 51.546875 23.652344 C 51.59375 23.675781 51.640625 23.699219 51.683594 23.726562 C 51.683594 23.828125 51.683594 23.929688 51.683594 24.03125 C 51.683594 25.738281 51.675781 27.449219 51.6875 29.160156 C 51.6875 29.292969 51.835938 29.421875 51.917969 29.554688 C 52 29.425781 52.144531 29.296875 52.148438 29.164062 C 52.203125 27.976562 52.226562 26.792969 52.265625 25.605469 C 52.269531 25.53125 52.285156 25.410156 52.351562 25.398438 C 52.820312 25.328125 52.722656 25.140625 52.714844 24.980469 C 52.683594 24.316406 52.621094 23.65625 52.609375 22.992188 C 52.609375 22.902344 52.84375 22.8125 52.96875 22.722656 C 53.105469 22.78125 53.316406 22.824219 53.371094 22.898438 C 53.46875 23.027344 53.496094 23.171875 53.515625 23.3125 C 53.570312 23.710938 53.558594 23.722656 54.386719 23.769531 C 56.457031 23.894531 58.53125 24.007812 60.601562 24.125 C 62.65625 24.238281 64.707031 24.359375 66.765625 24.464844 C 67.175781 24.484375 67.210938 24.625 67.210938 24.757812 C 67.210938 25.167969 67.160156 25.574219 67.152344 25.980469 C 67.148438 26.160156 67.070312 26.367188 67.617188 26.480469 C 67.648438 26.359375 67.695312 26.261719 67.691406 26.164062 C 67.65625 25.417969 67.605469 24.667969 67.585938 23.921875 C 67.585938 23.828125 67.761719 23.738281 67.855469 23.648438 C 68.019531 23.707031 68.300781 23.757812 68.320312 23.828125 C 68.433594 24.242188 68.488281 24.65625 68.554688 25.070312 C 68.597656 25.34375 68.539062 25.335938 68.746094 25.742188 C 68.777344 25.808594 68.972656 26.089844 68.9375 26.199219 C 68.847656 26.46875 69.113281 26.585938 69.570312 26.675781 C 69.980469 26.757812 70.363281 26.882812 70.738281 27.003906 C 70.863281 27.042969 70.925781 27.132812 71.082031 27.246094 C 69.460938 27.140625 67.960938 27.039062 66.457031 26.949219 C 65.523438 26.890625 64.589844 26.828125 63.652344 26.816406 C 61.5 26.789062 59.335938 26.722656 57.195312 26.804688 C 56.128906 26.847656 55.101562 27.175781 54.070312 27.386719 C 53.972656 27.40625 53.917969 27.53125 53.917969 27.605469 C 53.90625 29.441406 53.898438 31.273438 53.910156 33.105469 C 53.914062 33.589844 54.0625 33.628906 54.996094 33.519531 C 55.28125 33.484375 55.574219 33.457031 55.933594 33.417969 C 55.769531 33.890625 55.589844 34.332031 55.46875 34.777344 C 55.371094 35.144531 55.328125 35.515625 55.296875 35.882812 C 55.289062 35.964844 55.4375 36.046875 55.511719 36.128906 C 55.589844 36.121094 55.664062 36.109375 55.742188 36.101562 C 55.816406 35.699219 55.886719 35.296875 55.957031 34.898438 C 56.066406 34.292969 56.355469 33.71875 56.988281 33.199219 C 57.3125 32.929688 57.71875 32.691406 58.414062 32.734375 C 59.117188 32.777344 59.535156 33.011719 59.777344 33.335938 C 60.214844 33.921875 60.21875 33.921875 61.460938 33.921875 C 62.816406 33.925781 64.167969 33.9375 65.523438 33.921875 C 66.019531 33.917969 66.402344 33.964844 66.652344 34.199219 C 66.707031 34.25 66.835938 34.285156 67.015625 34.359375 C 66.988281 34.140625 66.96875 33.96875 66.941406 33.757812 C 70.421875 33.785156 73.867188 33.8125 77.328125 33.84375 C 77.394531 33.574219 77.101562 33.53125 76.730469 33.527344 C 74.945312 33.507812 73.160156 33.484375 71.375 33.46875 C 69.515625 33.449219 67.652344 33.4375 65.792969 33.421875 C 65.703125 33.417969 65.609375 33.40625 65.457031 33.398438 C 65.425781 33.238281 65.378906 33.082031 65.367188 32.925781 C 65.351562 32.742188 65.160156 32.636719 64.820312 32.625 C 64.238281 32.605469 63.65625 32.601562 63.074219 32.601562 C 62.660156 32.601562 62.460938 32.703125 62.507812 32.925781 C 62.539062 33.074219 62.511719 33.226562 62.511719 33.375 L 62.316406 33.425781 C 62.191406 33.34375 62.007812 33.265625 61.957031 33.171875 C 61.894531 33.054688 61.945312 32.925781 61.949219 32.800781 C 61.964844 32.296875 61.484375 32.007812 60.488281 31.929688 C 60.117188 31.902344 59.742188 31.886719 59.226562 31.855469 C 59.785156 31.65625 60.320312 31.609375 60.859375 31.59375 C 62.613281 31.550781 64.300781 31.683594 65.878906 32.101562 C 65.976562 32.125 66.082031 32.144531 66.1875 32.164062 C 66.21875 32.167969 66.261719 32.164062 66.332031 32.160156 C 66.367188 32.105469 66.445312 32.042969 66.441406 31.980469 C 66.421875 31.402344 66.417969 30.824219 66.347656 30.246094 C 66.3125 29.980469 65.96875 29.804688 65.414062 29.757812 C 63.804688 29.625 62.195312 29.492188 60.585938 29.363281 C 59.726562 29.289062 58.867188 29.214844 58.160156 29.589844 C 58.074219 29.636719 57.894531 29.640625 57.636719 29.683594 C 57.636719 29.453125 57.636719 29.257812 57.636719 29.0625 C 57.636719 28.515625 57.648438 27.964844 57.632812 27.414062 C 57.625 27.210938 57.824219 27.144531 58.179688 27.148438 C 59.492188 27.152344 60.8125 27.128906 62.125 27.167969 C 64.109375 27.230469 66.089844 27.335938 68.070312 27.433594 C 68.851562 27.472656 69.625 27.542969 70.402344 27.601562 C 70.886719 27.636719 71.183594 27.796875 71.289062 28.019531 C 71.476562 28.425781 71.648438 28.832031 71.746094 29.242188 C 71.789062 29.441406 71.960938 29.503906 72.285156 29.535156 C 73.5 29.648438 74.714844 29.773438 75.9375 29.875 C 77.601562 30.015625 77.644531 30.027344 77.765625 30.863281 C 77.816406 31.214844 77.847656 31.566406 77.894531 31.917969 C 77.925781 32.105469 78.089844 32.195312 78.519531 32.234375 C 80.460938 32.417969 80.714844 32.492188 80.777344 33.574219 C 80.804688 34.011719 80.679688 34.058594 79.792969 34.039062 C 79.382812 34.03125 78.972656 34.03125 78.5625 34.039062 C 78.472656 34.039062 78.386719 34.085938 78.300781 34.183594 C 78.484375 34.195312 78.664062 34.214844 78.847656 34.222656 C 79.40625 34.242188 79.976562 34.242188 80.53125 34.289062 C 81.351562 34.359375 81.660156 34.554688 81.761719 35.015625 C 76.386719 34.957031 71.023438 34.898438 65.640625 34.820312 C 66.421875 34.800781 67.222656 34.800781 68.109375 34.800781 C 68 34.742188 67.957031 34.71875 67.902344 34.6875 C 68.023438 34.671875 68.136719 34.65625 68.109375 34.660156 L 62.078125 34.660156 C 62.808594 34.726562 63.535156 34.722656 64.261719 34.734375 C 64.429688 34.734375 64.59375 34.800781 64.761719 34.835938 C 63.417969 34.847656 62.074219 34.855469 60.746094 34.863281 C 60.6875 35.144531 60.859375 35.210938 61.28125 35.207031 C 63.289062 35.1875 65.296875 35.1875 67.308594 35.179688 C 67.453125 35.179688 67.601562 35.1875 67.867188 35.199219 L 67.867188 36.386719 C 67.941406 36.386719 68.015625 36.386719 68.085938 36.386719 C 68.402344 36.015625 68.101562 35.605469 68.269531 35.222656 L 70.957031 35.222656 C 70.992188 35.488281 71.027344 35.730469 71.0625 36 L 76.265625 36 L 76.265625 35.332031 L 78.605469 35.332031 C 78.640625 35.707031 78.671875 36.046875 78.703125 36.390625 C 78.804688 36.390625 78.902344 36.386719 79 36.386719 L 79 35.378906 L 81.769531 35.378906 C 81.875 35.84375 81.761719 36.273438 81.40625 36.675781 C 81.316406 36.773438 81.003906 36.835938 80.769531 36.882812 C 80.609375 36.914062 80.40625 36.886719 80.257812 36.886719 C 80.015625 37.21875 79.792969 37.527344 79.53125 37.886719 L 85.925781 37.886719 C 85.128906 38.4375 84.425781 38.925781 83.671875 39.4375 C 83.199219 39.441406 82.777344 39.421875 82.355469 39.40625 "/>
</g>
<path style=" stroke:none;fill-rule:nonzero;fill:rgb(17.254902%,28.627451%,39.215686%);fill-opacity:1;" d="M 57.238281 29.222656 C 57.273438 29.375 57.296875 29.503906 57.324219 29.632812 C 57.230469 29.636719 57.171875 29.644531 57.164062 29.636719 C 56.71875 29.296875 56.175781 29.136719 55.386719 29.367188 C 55.300781 29.390625 55.164062 29.378906 55.050781 29.375 C 54.960938 29.375 54.871094 29.363281 54.664062 29.347656 C 54.664062 28.894531 54.664062 28.445312 54.664062 27.992188 C 54.664062 27.789062 54.851562 27.65625 55.226562 27.585938 C 55.773438 27.480469 56.320312 27.375 56.933594 27.257812 C 57.042969 27.957031 57.136719 28.578125 57.238281 29.222656 "/>
<path style=" stroke:none;fill-rule:nonzero;fill:rgb(17.254902%,28.627451%,39.215686%);fill-opacity:1;" d="M 57.5 31.195312 C 57.492188 31.488281 57.445312 31.753906 57.488281 32.015625 C 57.53125 32.265625 57.246094 32.351562 56.878906 32.417969 C 56.597656 32.464844 56.402344 32.421875 56.402344 32.25 C 56.398438 31.804688 56.367188 31.359375 56.386719 30.914062 C 56.398438 30.609375 56.726562 30.507812 57.503906 30.558594 C 57.503906 30.757812 57.503906 30.960938 57.5 31.195312 "/>
<path style=" stroke:none;fill-rule:nonzero;fill:rgb(17.254902%,28.627451%,39.215686%);fill-opacity:1;" d="M 54.816406 32.777344 C 54.710938 32.765625 54.601562 32.75 54.601562 32.734375 C 54.59375 32.402344 54.566406 32.070312 54.621094 31.738281 C 54.632812 31.671875 54.953125 31.617188 55.230469 31.519531 C 55.230469 31.9375 55.25 32.265625 55.214844 32.597656 C 55.207031 32.660156 54.984375 32.714844 54.816406 32.777344 "/>
<path style=" stroke:none;fill-rule:nonzero;fill:rgb(17.254902%,28.627451%,39.215686%);fill-opacity:1;" d="M 64.808594 34.84375 C 64.59375 34.800781 64.429688 34.734375 64.261719 34.734375 C 63.535156 34.722656 62.808594 34.726562 62.078125 34.660156 L 68.109375 34.660156 C 68.136719 34.65625 68.023438 34.671875 67.902344 34.6875 C 67.957031 34.71875 68 34.742188 68.109375 34.800781 C 67.222656 34.800781 66.421875 34.800781 65.585938 34.820312 C 65.324219 34.839844 65.089844 34.84375 64.808594 34.84375 "/>
<path style=" stroke:none;fill-rule:nonzero;fill:rgb(17.254902%,28.627451%,39.215686%);fill-opacity:1;" d="M 85.628906 25.664062 C 85.671875 25.683594 85.691406 25.714844 85.710938 25.742188 C 85.675781 25.734375 85.636719 25.726562 85.582031 25.707031 C 85.578125 25.6875 85.59375 25.683594 85.628906 25.664062 "/>
<path style=" stroke:none;fill-rule:nonzero;fill:rgb(17.254902%,28.627451%,39.215686%);fill-opacity:1;" d="M 85.472656 33.277344 C 85.488281 33.234375 85.53125 33.207031 85.628906 33.144531 C 85.613281 33.222656 85.609375 33.257812 85.574219 33.300781 C 85.53125 33.304688 85.511719 33.296875 85.472656 33.277344 "/>
<path style=" stroke:none;fill-rule:nonzero;fill:rgb(17.254902%,28.627451%,39.215686%);fill-opacity:1;" d="M 47.828125 27.765625 C 47.878906 27.746094 47.953125 27.738281 48.027344 27.730469 C 48.003906 27.75 47.976562 27.769531 47.917969 27.796875 C 47.875 27.792969 47.859375 27.785156 47.828125 27.765625 "/>
<path style=" stroke:none;fill-rule:nonzero;fill:rgb(100%,100%,100%);fill-opacity:1;" d="M 21.074219 49.082031 C 20.746094 49.082031 20.453125 49.046875 20.1875 48.976562 C 19.925781 48.910156 19.714844 48.804688 19.5625 48.667969 C 19.40625 48.53125 19.328125 48.363281 19.328125 48.164062 C 19.328125 48.015625 19.378906 47.882812 19.472656 47.769531 C 19.566406 47.65625 19.695312 47.558594 19.855469 47.484375 C 20.019531 47.40625 20.207031 47.347656 20.421875 47.308594 C 20.632812 47.269531 20.859375 47.25 21.097656 47.25 C 21.289062 47.25 21.464844 47.261719 21.628906 47.285156 C 21.789062 47.308594 21.941406 47.339844 22.082031 47.378906 L 22.101562 47.703125 L 22.050781 47.703125 L 21.796875 47.492188 C 21.765625 47.460938 21.726562 47.429688 21.6875 47.402344 C 21.648438 47.375 21.597656 47.355469 21.535156 47.339844 C 21.488281 47.328125 21.4375 47.320312 21.390625 47.3125 C 21.339844 47.308594 21.277344 47.304688 21.207031 47.304688 C 21.007812 47.304688 20.832031 47.332031 20.671875 47.386719 C 20.511719 47.441406 20.386719 47.53125 20.289062 47.65625 C 20.195312 47.78125 20.144531 47.949219 20.144531 48.167969 C 20.144531 48.382812 20.191406 48.554688 20.28125 48.679688 C 20.371094 48.804688 20.496094 48.894531 20.652344 48.949219 C 20.808594 49 20.984375 49.027344 21.179688 49.027344 C 21.285156 49.027344 21.371094 49.023438 21.433594 49.015625 C 21.5 49.007812 21.5625 48.996094 21.628906 48.980469 C 21.691406 48.96875 21.738281 48.945312 21.773438 48.921875 C 21.808594 48.890625 21.835938 48.863281 21.863281 48.832031 L 22.085938 48.574219 L 22.136719 48.574219 L 22.121094 48.949219 C 21.980469 48.988281 21.820312 49.019531 21.644531 49.042969 C 21.472656 49.070312 21.28125 49.082031 21.074219 49.082031 Z M 21.074219 49.082031 "/>
<path style=" stroke:none;fill-rule:nonzero;fill:rgb(100%,100%,100%);fill-opacity:1;" d="M 23.953125 49.082031 C 23.75 49.082031 23.550781 49.0625 23.363281 49.023438 C 23.171875 48.984375 23.003906 48.925781 22.851562 48.851562 C 22.703125 48.773438 22.585938 48.679688 22.5 48.566406 C 22.410156 48.453125 22.367188 48.316406 22.367188 48.164062 C 22.367188 48.015625 22.410156 47.882812 22.5 47.769531 C 22.585938 47.65625 22.703125 47.5625 22.855469 47.484375 C 23.007812 47.40625 23.179688 47.351562 23.367188 47.3125 C 23.558594 47.269531 23.753906 47.25 23.953125 47.25 C 24.160156 47.25 24.355469 47.269531 24.542969 47.308594 C 24.734375 47.34375 24.90625 47.402344 25.054688 47.480469 C 25.203125 47.554688 25.324219 47.648438 25.410156 47.765625 C 25.496094 47.878906 25.542969 48.011719 25.542969 48.164062 C 25.542969 48.316406 25.496094 48.449219 25.410156 48.5625 C 25.324219 48.675781 25.203125 48.773438 25.054688 48.847656 C 24.90625 48.925781 24.734375 48.984375 24.542969 49.023438 C 24.355469 49.0625 24.160156 49.082031 23.953125 49.082031 Z M 23.953125 49.027344 C 24.140625 49.027344 24.289062 49 24.402344 48.949219 C 24.515625 48.898438 24.601562 48.808594 24.652344 48.683594 C 24.703125 48.558594 24.730469 48.382812 24.730469 48.164062 C 24.730469 47.945312 24.703125 47.773438 24.652344 47.644531 C 24.601562 47.519531 24.515625 47.433594 24.402344 47.382812 C 24.289062 47.328125 24.140625 47.304688 23.953125 47.304688 C 23.773438 47.304688 23.625 47.328125 23.511719 47.382812 C 23.398438 47.433594 23.3125 47.519531 23.261719 47.644531 C 23.210938 47.773438 23.183594 47.945312 23.183594 48.164062 C 23.183594 48.382812 23.210938 48.558594 23.261719 48.683594 C 23.3125 48.808594 23.398438 48.898438 23.511719 48.949219 C 23.625 49 23.773438 49.027344 23.953125 49.027344 Z M 23.953125 49.027344 "/>
<path style=" stroke:none;fill-rule:nonzero;fill:rgb(100%,100%,100%);fill-opacity:1;" d="M 25.742188 49.035156 L 25.742188 49.007812 L 25.84375 48.988281 C 25.957031 48.96875 26.015625 48.917969 26.015625 48.839844 L 26.015625 47.492188 C 26.015625 47.457031 26.007812 47.429688 25.992188 47.40625 C 25.976562 47.386719 25.9375 47.371094 25.875 47.355469 L 25.742188 47.324219 L 25.742188 47.296875 L 26.714844 47.296875 L 27.648438 48.570312 L 28.523438 47.296875 L 29.515625 47.296875 L 29.515625 47.324219 L 29.4375 47.339844 C 29.371094 47.351562 29.328125 47.371094 29.300781 47.390625 C 29.277344 47.414062 29.269531 47.441406 29.269531 47.476562 L 29.269531 48.851562 C 29.269531 48.886719 29.277344 48.914062 29.292969 48.933594 C 29.3125 48.953125 29.351562 48.96875 29.414062 48.984375 L 29.515625 49.007812 L 29.515625 49.035156 L 28.261719 49.035156 L 28.261719 49.007812 L 28.367188 48.984375 C 28.429688 48.96875 28.46875 48.953125 28.484375 48.933594 C 28.503906 48.914062 28.511719 48.886719 28.511719 48.851562 L 28.511719 48.261719 L 28.523438 47.507812 L 27.472656 49.035156 L 27.21875 49.035156 L 26.121094 47.527344 L 26.136719 48.183594 L 26.136719 48.84375 C 26.136719 48.882812 26.144531 48.914062 26.167969 48.9375 C 26.1875 48.960938 26.234375 48.976562 26.296875 48.988281 L 26.410156 49.007812 L 26.410156 49.035156 Z M 25.742188 49.035156 "/>
<path style=" stroke:none;fill-rule:nonzero;fill:rgb(100%,100%,100%);fill-opacity:1;" d="M 29.726562 49.035156 L 29.726562 49.007812 L 29.828125 48.988281 C 29.941406 48.96875 30 48.917969 30 48.839844 L 30 47.492188 C 30 47.457031 29.992188 47.429688 29.976562 47.40625 C 29.960938 47.386719 29.921875 47.371094 29.859375 47.355469 L 29.726562 47.324219 L 29.726562 47.296875 L 30.699219 47.296875 L 31.632812 48.570312 L 32.507812 47.296875 L 33.5 47.296875 L 33.5 47.324219 L 33.421875 47.339844 C 33.355469 47.351562 33.3125 47.371094 33.285156 47.390625 C 33.261719 47.414062 33.253906 47.441406 33.253906 47.476562 L 33.253906 48.851562 C 33.253906 48.886719 33.261719 48.914062 33.277344 48.933594 C 33.296875 48.953125 33.335938 48.96875 33.398438 48.984375 L 33.5 49.007812 L 33.5 49.035156 L 32.246094 49.035156 L 32.246094 49.007812 L 32.351562 48.984375 C 32.414062 48.96875 32.453125 48.953125 32.46875 48.933594 C 32.488281 48.914062 32.496094 48.886719 32.496094 48.851562 L 32.496094 48.261719 L 32.507812 47.507812 L 31.457031 49.035156 L 31.203125 49.035156 L 30.105469 47.527344 L 30.121094 48.183594 L 30.121094 48.84375 C 30.121094 48.882812 30.128906 48.914062 30.152344 48.9375 C 30.171875 48.960938 30.21875 48.976562 30.28125 48.988281 L 30.394531 49.007812 L 30.394531 49.035156 Z M 29.726562 49.035156 "/>
<path style=" stroke:none;fill-rule:nonzero;fill:rgb(100%,100%,100%);fill-opacity:1;" d="M 33.722656 49.035156 L 33.722656 49.007812 L 33.835938 48.984375 C 33.894531 48.972656 33.933594 48.957031 33.953125 48.933594 C 33.976562 48.914062 33.988281 48.886719 33.988281 48.851562 L 33.988281 47.480469 C 33.988281 47.445312 33.980469 47.417969 33.960938 47.398438 C 33.941406 47.378906 33.902344 47.359375 33.835938 47.347656 L 33.722656 47.324219 L 33.722656 47.296875 L 36.132812 47.296875 L 36.164062 47.703125 L 36.113281 47.703125 L 35.898438 47.457031 C 35.867188 47.425781 35.835938 47.398438 35.800781 47.378906 C 35.769531 47.359375 35.71875 47.351562 35.652344 47.351562 L 34.746094 47.351562 L 34.746094 48.109375 L 35.28125 48.109375 C 35.351562 48.109375 35.402344 48.101562 35.4375 48.082031 C 35.472656 48.066406 35.503906 48.039062 35.53125 48.007812 L 35.632812 47.902344 L 35.679688 47.902344 L 35.679688 48.375 L 35.632812 48.375 L 35.53125 48.265625 C 35.5 48.234375 35.46875 48.210938 35.433594 48.191406 C 35.402344 48.171875 35.351562 48.164062 35.28125 48.164062 L 34.746094 48.164062 L 34.746094 48.980469 L 35.761719 48.980469 C 35.828125 48.980469 35.878906 48.972656 35.917969 48.953125 C 35.953125 48.933594 35.984375 48.910156 36.007812 48.875 L 36.214844 48.628906 L 36.265625 48.628906 L 36.234375 49.035156 Z M 33.722656 49.035156 "/>
<path style=" stroke:none;fill-rule:nonzero;fill:rgb(100%,100%,100%);fill-opacity:1;" d="M 36.515625 49.035156 L 36.515625 49.007812 L 36.625 48.988281 C 36.691406 48.976562 36.734375 48.960938 36.753906 48.941406 C 36.773438 48.921875 36.785156 48.890625 36.785156 48.855469 L 36.785156 47.480469 C 36.785156 47.445312 36.773438 47.417969 36.753906 47.398438 C 36.738281 47.378906 36.695312 47.359375 36.632812 47.347656 L 36.515625 47.324219 L 36.515625 47.296875 L 37.957031 47.296875 C 38.355469 47.296875 38.65625 47.335938 38.871094 47.417969 C 39.082031 47.492188 39.1875 47.601562 39.1875 47.738281 C 39.1875 47.816406 39.132812 47.894531 39.019531 47.972656 C 38.910156 48.050781 38.734375 48.109375 38.496094 48.148438 L 39.199219 48.875 C 39.226562 48.90625 39.261719 48.929688 39.300781 48.949219 C 39.339844 48.96875 39.390625 48.984375 39.453125 48.996094 L 39.519531 49.011719 L 39.519531 49.035156 L 38.617188 49.035156 L 37.871094 48.203125 L 37.527344 48.203125 L 37.527344 48.855469 C 37.527344 48.886719 37.539062 48.914062 37.558594 48.9375 C 37.578125 48.957031 37.621094 48.972656 37.6875 48.984375 L 37.808594 49.007812 L 37.808594 49.035156 Z M 37.527344 48.152344 L 37.769531 48.152344 C 38.011719 48.152344 38.1875 48.121094 38.296875 48.050781 C 38.402344 47.984375 38.457031 47.882812 38.457031 47.75 C 38.457031 47.617188 38.402344 47.515625 38.304688 47.449219 C 38.203125 47.382812 38.035156 47.351562 37.796875 47.351562 L 37.527344 47.351562 Z M 37.527344 48.152344 "/>
<path style=" stroke:none;fill-rule:nonzero;fill:rgb(100%,100%,100%);fill-opacity:1;" d="M 41.414062 49.082031 C 41.085938 49.082031 40.789062 49.046875 40.527344 48.976562 C 40.265625 48.910156 40.054688 48.804688 39.898438 48.667969 C 39.746094 48.53125 39.667969 48.363281 39.667969 48.164062 C 39.667969 48.015625 39.714844 47.882812 39.8125 47.769531 C 39.90625 47.65625 40.035156 47.558594 40.195312 47.484375 C 40.359375 47.40625 40.546875 47.347656 40.761719 47.308594 C 40.972656 47.269531 41.199219 47.25 41.4375 47.25 C 41.628906 47.25 41.804688 47.261719 41.96875 47.285156 C 42.128906 47.308594 42.28125 47.339844 42.421875 47.378906 L 42.441406 47.703125 L 42.390625 47.703125 L 42.136719 47.492188 C 42.105469 47.460938 42.066406 47.429688 42.027344 47.402344 C 41.988281 47.375 41.9375 47.355469 41.875 47.339844 C 41.828125 47.328125 41.777344 47.320312 41.730469 47.3125 C 41.679688 47.308594 41.617188 47.304688 41.546875 47.304688 C 41.347656 47.304688 41.171875 47.332031 41.011719 47.386719 C 40.851562 47.441406 40.726562 47.53125 40.628906 47.65625 C 40.53125 47.78125 40.484375 47.949219 40.484375 48.167969 C 40.484375 48.382812 40.53125 48.554688 40.621094 48.679688 C 40.710938 48.804688 40.835938 48.894531 40.992188 48.949219 C 41.148438 49 41.324219 49.027344 41.519531 49.027344 C 41.625 49.027344 41.710938 49.023438 41.773438 49.015625 C 41.835938 49.007812 41.902344 48.996094 41.96875 48.980469 C 42.03125 48.96875 42.078125 48.945312 42.113281 48.921875 C 42.148438 48.890625 42.175781 48.863281 42.203125 48.832031 L 42.425781 48.574219 L 42.476562 48.574219 L 42.460938 48.949219 C 42.320312 48.988281 42.160156 49.019531 41.984375 49.042969 C 41.8125 49.070312 41.621094 49.082031 41.414062 49.082031 Z M 41.414062 49.082031 "/>
<path style=" stroke:none;fill-rule:nonzero;fill:rgb(100%,100%,100%);fill-opacity:1;" d="M 42.71875 49.035156 L 42.71875 49.007812 L 42.820312 48.984375 C 42.886719 48.972656 42.929688 48.957031 42.949219 48.9375 C 42.972656 48.914062 42.984375 48.886719 42.984375 48.851562 L 42.984375 47.480469 C 42.984375 47.445312 42.972656 47.417969 42.953125 47.394531 C 42.933594 47.375 42.890625 47.359375 42.820312 47.34375 L 42.71875 47.324219 L 42.71875 47.296875 L 44.011719 47.296875 L 44.011719 47.324219 L 43.910156 47.34375 C 43.84375 47.359375 43.800781 47.375 43.777344 47.394531 C 43.757812 47.417969 43.746094 47.445312 43.746094 47.480469 L 43.746094 48.851562 C 43.746094 48.886719 43.757812 48.914062 43.777344 48.933594 C 43.800781 48.957031 43.84375 48.972656 43.910156 48.984375 L 44.011719 49.007812 L 44.011719 49.035156 Z M 42.71875 49.035156 "/>
<path style=" stroke:none;fill-rule:nonzero;fill:rgb(100%,100%,100%);fill-opacity:1;" d="M 44.164062 49.035156 L 44.164062 49.007812 L 44.289062 48.984375 C 44.355469 48.96875 44.410156 48.953125 44.445312 48.933594 C 44.484375 48.914062 44.511719 48.882812 44.535156 48.847656 L 45.574219 47.292969 L 46 47.292969 L 47.023438 48.855469 C 47.050781 48.894531 47.082031 48.925781 47.113281 48.945312 C 47.148438 48.964844 47.199219 48.984375 47.269531 48.996094 L 47.332031 49.007812 L 47.332031 49.035156 L 46.050781 49.035156 L 46.050781 49.007812 L 46.128906 48.992188 C 46.195312 48.980469 46.242188 48.960938 46.257812 48.933594 C 46.273438 48.910156 46.269531 48.878906 46.25 48.84375 L 46.011719 48.464844 L 44.894531 48.464844 L 44.652344 48.835938 C 44.628906 48.875 44.621094 48.90625 44.628906 48.929688 C 44.636719 48.949219 44.675781 48.96875 44.746094 48.984375 L 44.859375 49.007812 L 44.859375 49.035156 Z M 44.929688 48.414062 L 45.980469 48.414062 L 45.472656 47.59375 Z M 44.929688 48.414062 "/>
<path style=" stroke:none;fill-rule:nonzero;fill:rgb(100%,100%,100%);fill-opacity:1;" d="M 47.507812 49.035156 L 47.507812 49.007812 L 47.613281 48.984375 C 47.683594 48.972656 47.726562 48.957031 47.746094 48.933594 C 47.765625 48.914062 47.773438 48.886719 47.773438 48.851562 L 47.773438 47.480469 C 47.773438 47.445312 47.765625 47.417969 47.742188 47.394531 C 47.722656 47.375 47.679688 47.359375 47.613281 47.34375 L 47.507812 47.324219 L 47.507812 47.296875 L 48.792969 47.296875 L 48.792969 47.324219 L 48.699219 47.34375 C 48.636719 47.359375 48.59375 47.375 48.570312 47.398438 C 48.546875 47.417969 48.535156 47.449219 48.535156 47.480469 L 48.535156 48.980469 L 49.3125 48.980469 C 49.4375 48.980469 49.527344 48.964844 49.585938 48.933594 C 49.644531 48.902344 49.703125 48.855469 49.753906 48.796875 L 49.949219 48.574219 L 50.003906 48.574219 L 49.957031 49.035156 Z M 47.507812 49.035156 "/>
<path style=" stroke:none;fill-rule:nonzero;fill:rgb(100%,100%,100%);fill-opacity:1;" d="M 52.425781 49.035156 L 52.425781 49.007812 L 52.539062 48.984375 C 52.597656 48.972656 52.636719 48.957031 52.660156 48.933594 C 52.679688 48.914062 52.691406 48.886719 52.691406 48.851562 L 52.691406 47.480469 C 52.691406 47.445312 52.683594 47.417969 52.664062 47.398438 C 52.644531 47.378906 52.605469 47.359375 52.539062 47.347656 L 52.425781 47.324219 L 52.425781 47.296875 L 54.839844 47.296875 L 54.867188 47.703125 L 54.816406 47.703125 L 54.601562 47.457031 C 54.570312 47.425781 54.539062 47.398438 54.503906 47.378906 C 54.472656 47.359375 54.421875 47.351562 54.355469 47.351562 L 53.449219 47.351562 L 53.449219 48.109375 L 53.988281 48.109375 C 54.054688 48.109375 54.105469 48.101562 54.140625 48.082031 C 54.175781 48.066406 54.207031 48.039062 54.234375 48.007812 L 54.335938 47.902344 L 54.386719 47.902344 L 54.386719 48.375 L 54.335938 48.375 L 54.234375 48.265625 C 54.203125 48.234375 54.171875 48.210938 54.136719 48.191406 C 54.105469 48.171875 54.054688 48.164062 53.988281 48.164062 L 53.449219 48.164062 L 53.449219 48.980469 L 54.464844 48.980469 C 54.53125 48.980469 54.585938 48.972656 54.621094 48.953125 C 54.65625 48.933594 54.6875 48.910156 54.714844 48.875 L 54.921875 48.628906 L 54.96875 48.628906 L 54.9375 49.035156 Z M 52.425781 49.035156 "/>
<path style=" stroke:none;fill-rule:nonzero;fill:rgb(100%,100%,100%);fill-opacity:1;" d="M 55.285156 49.035156 L 55.285156 49.007812 L 55.453125 48.980469 C 55.511719 48.972656 55.558594 48.957031 55.582031 48.929688 C 55.609375 48.902344 55.625 48.875 55.625 48.839844 L 55.625 47.574219 C 55.589844 47.53125 55.558594 47.5 55.535156 47.480469 C 55.515625 47.457031 55.488281 47.441406 55.460938 47.425781 C 55.4375 47.410156 55.398438 47.390625 55.351562 47.371094 L 55.269531 47.324219 L 55.269531 47.296875 L 56.15625 47.296875 L 57.832031 48.488281 L 57.832031 47.5 C 57.832031 47.460938 57.820312 47.429688 57.796875 47.402344 C 57.777344 47.375 57.730469 47.355469 57.664062 47.347656 L 57.5 47.324219 L 57.5 47.296875 L 58.21875 47.296875 L 58.21875 47.324219 L 58.082031 47.347656 C 58.019531 47.359375 57.984375 47.378906 57.96875 47.402344 C 57.957031 47.429688 57.953125 47.460938 57.953125 47.496094 L 57.953125 49.042969 L 57.667969 49.042969 L 55.746094 47.660156 L 55.746094 48.839844 C 55.746094 48.875 55.753906 48.902344 55.773438 48.929688 C 55.796875 48.953125 55.835938 48.96875 55.902344 48.980469 L 56.050781 49.007812 L 56.050781 49.035156 Z M 55.285156 49.035156 "/>
<path style=" stroke:none;fill-rule:nonzero;fill:rgb(100%,100%,100%);fill-opacity:1;" d="M 59.1875 49.035156 L 59.1875 49.007812 L 59.390625 48.980469 C 59.53125 48.964844 59.597656 48.921875 59.597656 48.851562 L 59.597656 47.351562 L 59.171875 47.351562 C 59.046875 47.351562 58.957031 47.367188 58.902344 47.402344 C 58.847656 47.4375 58.792969 47.484375 58.734375 47.542969 L 58.550781 47.726562 L 58.5 47.726562 L 58.527344 47.296875 L 61.433594 47.296875 L 61.453125 47.726562 L 61.402344 47.726562 L 61.21875 47.542969 C 61.164062 47.484375 61.109375 47.4375 61.054688 47.402344 C 61 47.367188 60.910156 47.351562 60.789062 47.351562 L 60.359375 47.351562 L 60.359375 48.851562 C 60.359375 48.921875 60.429688 48.964844 60.566406 48.980469 L 60.773438 49.007812 L 60.773438 49.035156 Z M 59.1875 49.035156 "/>
<path style=" stroke:none;fill-rule:nonzero;fill:rgb(100%,100%,100%);fill-opacity:1;" d="M 61.667969 49.035156 L 61.667969 49.007812 L 61.785156 48.984375 C 61.839844 48.972656 61.878906 48.957031 61.902344 48.933594 C 61.925781 48.914062 61.9375 48.886719 61.9375 48.851562 L 61.9375 47.480469 C 61.9375 47.445312 61.925781 47.417969 61.90625 47.398438 C 61.890625 47.378906 61.847656 47.359375 61.785156 47.347656 L 61.667969 47.324219 L 61.667969 47.296875 L 64.082031 47.296875 L 64.109375 47.703125 L 64.0625 47.703125 L 63.847656 47.457031 C 63.8125 47.425781 63.78125 47.398438 63.75 47.378906 C 63.714844 47.359375 63.664062 47.351562 63.597656 47.351562 L 62.691406 47.351562 L 62.691406 48.109375 L 63.230469 48.109375 C 63.296875 48.109375 63.347656 48.101562 63.382812 48.082031 C 63.417969 48.066406 63.449219 48.039062 63.480469 48.007812 L 63.578125 47.902344 L 63.628906 47.902344 L 63.628906 48.375 L 63.578125 48.375 L 63.480469 48.265625 C 63.445312 48.234375 63.414062 48.210938 63.382812 48.191406 C 63.347656 48.171875 63.296875 48.164062 63.230469 48.164062 L 62.691406 48.164062 L 62.691406 48.980469 L 63.710938 48.980469 C 63.777344 48.980469 63.828125 48.972656 63.863281 48.953125 C 63.902344 48.933594 63.929688 48.910156 63.957031 48.875 L 64.164062 48.628906 L 64.214844 48.628906 L 64.179688 49.035156 Z M 61.667969 49.035156 "/>
<path style=" stroke:none;fill-rule:nonzero;fill:rgb(100%,100%,100%);fill-opacity:1;" d="M 64.464844 49.035156 L 64.464844 49.007812 L 64.570312 48.988281 C 64.636719 48.976562 64.679688 48.960938 64.699219 48.941406 C 64.722656 48.921875 64.730469 48.890625 64.730469 48.855469 L 64.730469 47.480469 C 64.730469 47.445312 64.722656 47.417969 64.703125 47.398438 C 64.683594 47.378906 64.644531 47.359375 64.578125 47.347656 L 64.464844 47.324219 L 64.464844 47.296875 L 65.902344 47.296875 C 66.300781 47.296875 66.605469 47.335938 66.816406 47.417969 C 67.027344 47.492188 67.132812 47.601562 67.132812 47.738281 C 67.132812 47.816406 67.078125 47.894531 66.964844 47.972656 C 66.855469 48.050781 66.683594 48.109375 66.445312 48.148438 L 67.144531 48.875 C 67.175781 48.90625 67.207031 48.929688 67.246094 48.949219 C 67.285156 48.96875 67.335938 48.984375 67.402344 48.996094 L 67.46875 49.011719 L 67.46875 49.035156 L 66.566406 49.035156 L 65.820312 48.203125 L 65.476562 48.203125 L 65.476562 48.855469 C 65.476562 48.886719 65.484375 48.914062 65.503906 48.9375 C 65.527344 48.957031 65.570312 48.972656 65.632812 48.984375 L 65.753906 49.007812 L 65.753906 49.035156 Z M 65.476562 48.152344 L 65.71875 48.152344 C 65.960938 48.152344 66.136719 48.121094 66.242188 48.050781 C 66.347656 47.984375 66.402344 47.882812 66.402344 47.75 C 66.402344 47.617188 66.351562 47.515625 66.25 47.449219 C 66.152344 47.382812 65.980469 47.351562 65.742188 47.351562 L 65.476562 47.351562 Z M 65.476562 48.152344 "/>
<path style=" stroke:none;fill-rule:nonzero;fill:rgb(100%,100%,100%);fill-opacity:1;" d="M 67.628906 49.035156 L 67.628906 49.007812 L 67.730469 48.988281 C 67.796875 48.976562 67.839844 48.964844 67.859375 48.941406 C 67.882812 48.921875 67.894531 48.890625 67.894531 48.855469 L 67.894531 47.480469 C 67.894531 47.445312 67.882812 47.417969 67.859375 47.394531 C 67.835938 47.375 67.789062 47.359375 67.722656 47.34375 L 67.628906 47.324219 L 67.628906 47.296875 L 68.851562 47.296875 C 69.351562 47.296875 69.714844 47.347656 69.9375 47.441406 C 70.160156 47.539062 70.273438 47.664062 70.273438 47.820312 C 70.273438 47.917969 70.226562 48.011719 70.132812 48.09375 C 70.042969 48.175781 69.890625 48.242188 69.679688 48.292969 C 69.46875 48.339844 69.179688 48.367188 68.820312 48.367188 L 68.648438 48.367188 L 68.648438 48.851562 C 68.648438 48.917969 68.714844 48.960938 68.847656 48.984375 L 68.996094 49.007812 L 68.996094 49.035156 Z M 68.648438 48.3125 L 68.84375 48.3125 C 69.003906 48.3125 69.140625 48.300781 69.242188 48.269531 C 69.347656 48.242188 69.425781 48.195312 69.476562 48.125 C 69.527344 48.054688 69.554688 47.957031 69.554688 47.832031 C 69.554688 47.707031 69.523438 47.609375 69.46875 47.539062 C 69.414062 47.46875 69.332031 47.417969 69.222656 47.390625 C 69.117188 47.363281 68.980469 47.351562 68.820312 47.351562 L 68.648438 47.351562 Z M 68.648438 48.3125 "/>
<path style=" stroke:none;fill-rule:nonzero;fill:rgb(100%,100%,100%);fill-opacity:1;" d="M 70.472656 49.035156 L 70.472656 49.007812 L 70.582031 48.988281 C 70.648438 48.976562 70.691406 48.960938 70.710938 48.941406 C 70.730469 48.921875 70.742188 48.890625 70.742188 48.855469 L 70.742188 47.480469 C 70.742188 47.445312 70.730469 47.417969 70.710938 47.398438 C 70.695312 47.378906 70.652344 47.359375 70.589844 47.347656 L 70.472656 47.324219 L 70.472656 47.296875 L 71.914062 47.296875 C 72.308594 47.296875 72.613281 47.335938 72.828125 47.417969 C 73.039062 47.492188 73.144531 47.601562 73.144531 47.738281 C 73.144531 47.816406 73.085938 47.894531 72.976562 47.972656 C 72.867188 48.050781 72.691406 48.109375 72.453125 48.148438 L 73.152344 48.875 C 73.183594 48.90625 73.21875 48.929688 73.257812 48.949219 C 73.292969 48.96875 73.347656 48.984375 73.410156 48.996094 L 73.476562 49.011719 L 73.476562 49.035156 L 72.574219 49.035156 L 71.828125 48.203125 L 71.484375 48.203125 L 71.484375 48.855469 C 71.484375 48.886719 71.496094 48.914062 71.515625 48.9375 C 71.535156 48.957031 71.578125 48.972656 71.644531 48.984375 L 71.765625 49.007812 L 71.765625 49.035156 Z M 71.484375 48.152344 L 71.726562 48.152344 C 71.96875 48.152344 72.144531 48.121094 72.25 48.050781 C 72.359375 47.984375 72.410156 47.882812 72.410156 47.75 C 72.410156 47.617188 72.359375 47.515625 72.257812 47.449219 C 72.160156 47.382812 71.992188 47.351562 71.753906 47.351562 L 71.484375 47.351562 Z M 71.484375 48.152344 "/>
<path style=" stroke:none;fill-rule:nonzero;fill:rgb(100%,100%,100%);fill-opacity:1;" d="M 73.636719 49.035156 L 73.636719 49.007812 L 73.738281 48.984375 C 73.804688 48.972656 73.847656 48.957031 73.871094 48.9375 C 73.890625 48.914062 73.902344 48.886719 73.902344 48.851562 L 73.902344 47.480469 C 73.902344 47.445312 73.894531 47.417969 73.871094 47.394531 C 73.851562 47.375 73.808594 47.359375 73.738281 47.34375 L 73.636719 47.324219 L 73.636719 47.296875 L 74.933594 47.296875 L 74.933594 47.324219 L 74.828125 47.34375 C 74.761719 47.359375 74.71875 47.375 74.695312 47.394531 C 74.675781 47.417969 74.664062 47.445312 74.664062 47.480469 L 74.664062 48.851562 C 74.664062 48.886719 74.675781 48.914062 74.695312 48.933594 C 74.71875 48.957031 74.761719 48.972656 74.828125 48.984375 L 74.933594 49.007812 L 74.933594 49.035156 Z M 73.636719 49.035156 "/>
<path style=" stroke:none;fill-rule:nonzero;fill:rgb(100%,100%,100%);fill-opacity:1;" d="M 76.234375 49.082031 C 76.050781 49.082031 75.863281 49.070312 75.671875 49.046875 C 75.480469 49.023438 75.320312 48.992188 75.195312 48.953125 L 75.21875 48.59375 L 75.269531 48.59375 L 75.425781 48.765625 C 75.472656 48.816406 75.523438 48.859375 75.574219 48.894531 C 75.628906 48.933594 75.703125 48.960938 75.796875 48.984375 C 75.863281 49 75.925781 49.015625 75.988281 49.019531 C 76.050781 49.027344 76.125 49.027344 76.203125 49.027344 C 76.40625 49.027344 76.566406 49 76.6875 48.941406 C 76.804688 48.882812 76.867188 48.808594 76.867188 48.71875 C 76.867188 48.632812 76.824219 48.566406 76.746094 48.515625 C 76.664062 48.46875 76.535156 48.421875 76.355469 48.375 L 76.148438 48.328125 C 75.859375 48.261719 75.636719 48.183594 75.472656 48.097656 C 75.308594 48.011719 75.230469 47.898438 75.230469 47.753906 C 75.230469 47.648438 75.277344 47.5625 75.378906 47.484375 C 75.484375 47.410156 75.625 47.351562 75.808594 47.3125 C 75.992188 47.269531 76.207031 47.25 76.453125 47.25 C 76.628906 47.25 76.796875 47.261719 76.957031 47.289062 C 77.117188 47.3125 77.257812 47.34375 77.375 47.386719 L 77.34375 47.703125 L 77.292969 47.703125 L 77.089844 47.503906 C 77.03125 47.445312 76.972656 47.402344 76.914062 47.375 C 76.859375 47.351562 76.792969 47.332031 76.71875 47.320312 C 76.675781 47.3125 76.632812 47.308594 76.597656 47.308594 C 76.5625 47.304688 76.515625 47.304688 76.457031 47.304688 C 76.289062 47.304688 76.140625 47.328125 76.023438 47.382812 C 75.90625 47.433594 75.847656 47.503906 75.847656 47.589844 C 75.847656 47.679688 75.894531 47.75 75.984375 47.804688 C 76.074219 47.859375 76.207031 47.90625 76.382812 47.949219 L 76.613281 48 C 76.933594 48.074219 77.167969 48.152344 77.308594 48.234375 C 77.449219 48.316406 77.519531 48.425781 77.519531 48.558594 C 77.519531 48.710938 77.410156 48.835938 77.1875 48.933594 C 76.960938 49.03125 76.644531 49.082031 76.234375 49.082031 Z M 76.234375 49.082031 "/>
<path style=" stroke:none;fill-rule:nonzero;fill:rgb(100%,100%,100%);fill-opacity:1;" d="M 77.777344 49.035156 L 77.777344 49.007812 L 77.890625 48.984375 C 77.949219 48.972656 77.988281 48.957031 78.011719 48.933594 C 78.03125 48.914062 78.042969 48.886719 78.042969 48.851562 L 78.042969 47.480469 C 78.042969 47.445312 78.035156 47.417969 78.015625 47.398438 C 77.996094 47.378906 77.957031 47.359375 77.890625 47.347656 L 77.777344 47.324219 L 77.777344 47.296875 L 80.191406 47.296875 L 80.21875 47.703125 L 80.167969 47.703125 L 79.953125 47.457031 C 79.921875 47.425781 79.890625 47.398438 79.855469 47.378906 C 79.824219 47.359375 79.773438 47.351562 79.707031 47.351562 L 78.800781 47.351562 L 78.800781 48.109375 L 79.335938 48.109375 C 79.40625 48.109375 79.457031 48.101562 79.492188 48.082031 C 79.527344 48.066406 79.558594 48.039062 79.585938 48.007812 L 79.6875 47.902344 L 79.738281 47.902344 L 79.738281 48.375 L 79.6875 48.375 L 79.585938 48.265625 C 79.554688 48.234375 79.523438 48.210938 79.488281 48.191406 C 79.457031 48.171875 79.40625 48.164062 79.335938 48.164062 L 78.800781 48.164062 L 78.800781 48.980469 L 79.816406 48.980469 C 79.882812 48.980469 79.9375 48.972656 79.972656 48.953125 C 80.007812 48.933594 80.039062 48.910156 80.0625 48.875 L 80.273438 48.628906 L 80.320312 48.628906 L 80.289062 49.035156 Z M 77.777344 49.035156 "/>
<path style=" stroke:none;fill-rule:nonzero;fill:rgb(100%,100%,100%);fill-opacity:1;" d="M 82.773438 49.035156 L 82.773438 49.007812 L 82.878906 48.984375 C 82.949219 48.972656 82.992188 48.957031 83.011719 48.933594 C 83.03125 48.914062 83.039062 48.886719 83.039062 48.851562 L 83.039062 47.480469 C 83.039062 47.445312 83.027344 47.417969 83.007812 47.394531 C 82.988281 47.375 82.945312 47.359375 82.878906 47.34375 L 82.773438 47.324219 L 82.773438 47.296875 L 84.058594 47.296875 L 84.058594 47.324219 L 83.964844 47.34375 C 83.902344 47.359375 83.859375 47.375 83.835938 47.398438 C 83.8125 47.417969 83.800781 47.449219 83.800781 47.480469 L 83.800781 48.980469 L 84.578125 48.980469 C 84.699219 48.980469 84.792969 48.964844 84.847656 48.933594 C 84.910156 48.902344 84.964844 48.855469 85.019531 48.796875 L 85.214844 48.574219 L 85.265625 48.574219 L 85.21875 49.035156 Z M 82.773438 49.035156 "/>
<path style=" stroke:none;fill-rule:nonzero;fill:rgb(100%,100%,100%);fill-opacity:1;" d="M 85.492188 49.035156 L 85.492188 49.007812 L 85.597656 48.984375 C 85.667969 48.972656 85.710938 48.957031 85.730469 48.933594 C 85.75 48.914062 85.757812 48.886719 85.757812 48.851562 L 85.757812 47.480469 C 85.757812 47.445312 85.75 47.417969 85.726562 47.394531 C 85.707031 47.375 85.664062 47.359375 85.597656 47.34375 L 85.492188 47.324219 L 85.492188 47.296875 L 86.777344 47.296875 L 86.777344 47.324219 L 86.683594 47.34375 C 86.621094 47.359375 86.578125 47.375 86.554688 47.398438 C 86.53125 47.417969 86.519531 47.449219 86.519531 47.480469 L 86.519531 48.980469 L 87.296875 48.980469 C 87.421875 48.980469 87.511719 48.964844 87.570312 48.933594 C 87.628906 48.902344 87.683594 48.855469 87.738281 48.796875 L 87.933594 48.574219 L 87.988281 48.574219 L 87.9375 49.035156 Z M 85.492188 49.035156 "/>
<path style=" stroke:none;fill-rule:nonzero;fill:rgb(100%,100%,100%);fill-opacity:1;" d="M 89.945312 49.082031 C 89.617188 49.082031 89.324219 49.046875 89.058594 48.976562 C 88.796875 48.910156 88.585938 48.804688 88.433594 48.667969 C 88.277344 48.53125 88.199219 48.363281 88.199219 48.164062 C 88.199219 48.015625 88.25 47.882812 88.34375 47.769531 C 88.4375 47.65625 88.566406 47.558594 88.726562 47.484375 C 88.890625 47.40625 89.078125 47.347656 89.292969 47.308594 C 89.503906 47.269531 89.730469 47.25 89.96875 47.25 C 90.160156 47.25 90.335938 47.261719 90.5 47.285156 C 90.660156 47.308594 90.8125 47.339844 90.953125 47.378906 L 90.972656 47.703125 L 90.921875 47.703125 L 90.667969 47.492188 C 90.636719 47.460938 90.597656 47.429688 90.558594 47.402344 C 90.519531 47.375 90.46875 47.355469 90.40625 47.339844 C 90.359375 47.328125 90.308594 47.320312 90.261719 47.3125 C 90.210938 47.308594 90.148438 47.304688 90.078125 47.304688 C 89.878906 47.304688 89.703125 47.332031 89.542969 47.386719 C 89.386719 47.441406 89.257812 47.53125 89.160156 47.65625 C 89.066406 47.78125 89.015625 47.949219 89.015625 48.167969 C 89.015625 48.382812 89.0625 48.554688 89.152344 48.679688 C 89.242188 48.804688 89.367188 48.894531 89.523438 48.949219 C 89.679688 49 89.855469 49.027344 90.050781 49.027344 C 90.15625 49.027344 90.242188 49.023438 90.304688 49.015625 C 90.371094 49.007812 90.433594 48.996094 90.5 48.980469 C 90.5625 48.96875 90.609375 48.945312 90.644531 48.921875 C 90.679688 48.890625 90.710938 48.863281 90.734375 48.832031 L 90.957031 48.574219 L 91.007812 48.574219 L 90.992188 48.949219 C 90.851562 48.988281 90.691406 49.019531 90.515625 49.042969 C 90.34375 49.070312 90.152344 49.082031 89.945312 49.082031 Z M 89.945312 49.082031 "/>
</g>
</svg>
