<svg width="138" height="75" viewBox="0 0 138 75" fill="none" xmlns="http://www.w3.org/2000/svg">
<g filter="url(#filter0_d_108_7235)">
<path fill-rule="evenodd" clip-rule="evenodd" d="M72.9713 40.1084C73.1178 40.3926 73.1671 40.7686 73.2964 41.0859C73.441 41.441 73.6242 41.685 73.7509 41.9844L61.4032 41.9918C61.4717 41.5917 61.6842 41.1927 61.812 40.7544C62.0433 39.9604 61.8596 40.083 62.788 40.0949C65.8918 40.1342 70.2195 39.9461 72.9713 40.1084ZM55.1839 40.8004L56.0338 40.7855C56.2007 41.0403 56.4531 41.7569 56.528 42.0124L54.8261 41.9926L55.1839 40.8004ZM44.7576 40.9745L48.4577 40.9661L48.7489 41.9994L44.4313 41.9894L44.7576 40.9745ZM57.0041 36.1464C56.8976 37.3634 57.2257 40.4577 58.6299 39.4532C58.821 39.3164 58.6589 39.4055 58.8754 39.2754C58.4408 41.7341 56.6019 41.385 56.565 38.0762C56.5606 37.6755 56.6202 36.921 56.7598 36.5522L57.0041 36.1464ZM42.0483 34.5669C42.5504 34.9857 41.9253 34.5271 42.5381 34.7542C42.5674 34.765 42.5947 34.7656 42.6197 34.7772C42.6409 34.7869 42.67 34.7939 42.6861 34.8048C42.7152 34.8246 42.9531 34.6772 42.7268 34.9886L42.4237 35.167L42.7674 35.2261C43.8258 35.3373 43.3304 34.9024 44.2753 35.5694C45.4021 36.3648 46.1147 35.2027 45.9399 38.3698L43.2086 38.3556C43.0503 37.5358 42.9545 36.7113 42.4327 36.2347C42.4331 36.9954 42.7426 37.3614 42.567 38.3236L41.9088 38.3452C41.8819 37.8207 41.9049 36.5528 41.6909 36.1985C41.2597 36.1995 41.5636 36.3638 41.5245 36.66C41.4795 37.0007 41.4632 36.8896 41.0781 36.9498L41.2969 37.2941C40.7836 37.2431 41.1438 37.3789 40.9361 37.0478C40.9247 37.0297 40.9159 37.0022 40.9042 36.9838C40.8887 36.9596 40.8442 36.8833 40.8256 36.8611C40.6304 36.6285 40.443 36.5996 40.1705 36.5744C40.175 36.7796 40.3081 36.9327 40.264 37.0444C40.1882 37.2347 40.467 37.0312 40.1394 37.1377V37.482C40.5217 37.4204 40.2207 37.3475 40.5076 37.4239L40.6542 37.5022C40.6894 37.5209 40.8557 37.6054 40.8592 37.6069C40.9922 38.5205 40.7336 38.2804 40.7332 39.0149C40.5616 39.1616 40.869 39.5143 40.5455 38.7337L40.4727 39.1287C40.3791 39.6333 40.5222 40.0465 40.9358 40.1641C40.9485 40.1675 40.9793 40.1753 40.991 40.1791C41.0034 40.1831 41.0361 40.2002 41.0463 40.2041C41.0573 40.208 41.0866 40.2216 41.1038 40.2352C40.9727 40.6676 41.0255 40.8482 40.6398 40.9658C40.3724 40.7309 40.3508 40.5312 40.2906 40.1417C40.2209 40.7548 40.3397 40.1246 39.9832 40.4223C39.9246 40.284 39.8903 39.976 39.8885 40.2346L39.6997 40.3593C39.6799 40.3731 39.6406 40.4003 39.6122 40.4223C39.4286 40.8288 39.5304 40.8878 39.0922 40.9962L38.8572 40.5162C38.6147 40.722 38.8172 40.5654 38.4814 40.6101C38.6242 40.0495 38.4824 39.6184 38.4784 39.5874C38.4745 39.5567 38.4714 39.5344 38.4694 39.5044L38.5633 38.2261C38.5922 37.7966 38.5065 37.8054 38.4806 37.4197L38.3836 38.1708C38.387 38.5191 38.4183 38.6653 38.3243 38.9856C38.1348 39.9896 38.5186 41.1415 38.7331 41.9907L34.7686 41.9932L34.7988 43.0517L48.3367 43.2117C56.8291 43.3309 66.4655 43.6195 74.9064 44.2614C76.9875 44.4196 79.0779 44.6215 81.1386 44.9025C82.7891 45.1276 82.4925 45.2481 83.3321 44.0656L84.821 42.0861C84.6226 41.9111 79.2926 41.9944 78.5932 41.9905C78.7854 41.4652 79.0992 41.2836 79.2774 40.1007C80.301 40.0812 80.3249 40.2785 80.6264 39.2916C80.8212 38.6539 80.888 37.9226 80.8547 37.2181L78.2587 37.1542C78.2242 37.2637 78.2203 37.2496 78.2008 37.4259L78.1935 38.8362C78.1417 39.2073 78.197 39.131 77.9039 39.179C77.6585 38.7836 77.8361 37.6719 77.8029 37.1418L75.5151 37.0549L75.4979 38.4618L70.453 38.3843C70.2726 37.8382 70.5451 37.2998 70.2797 36.9298L67.6807 36.8503L67.6804 38.8355C67.6254 39.2236 67.658 39.1246 67.3912 39.1825C67.1606 38.8214 67.2901 37.3853 67.3056 36.8645C65.2238 36.6531 62.6431 36.8982 60.5123 36.888C60.356 36.2122 60.1267 36.2527 61.5714 36.1903L67.8601 36.1858C67.7785 36.123 67.8788 35.9979 67.11 36.0016L61.5692 35.9464C61.5425 35.94 61.5075 35.93 61.4782 35.9178L66.4528 35.918C67.0034 35.9194 67.5067 35.8257 67.8609 35.8235C67.6042 35.6957 67.8475 35.7371 67.4753 35.762C66.9599 35.7963 67.2491 35.5774 67.0157 35.9641L66.5937 35.6454C66.5439 35.6015 66.4879 35.746 66.5053 35.4767L66.5867 35.2614C65.9919 35.0755 66.1241 34.5563 65.593 34.4334L59.976 34.4085C59.4481 33.5931 59.6022 32.8554 58.7622 32.3416C57.0162 31.2733 56.0834 34.3343 55.869 35.6597C55.7463 36.4192 55.7098 38.1262 55.5644 38.6197L55.225 38.6075C54.8676 37.682 55.6197 34.484 55.7865 33.4456C53.362 33.7975 53.8137 35.0646 53.8172 27.939C53.8182 25.9624 53.7567 23.9099 53.8132 21.9451C54.8996 21.2762 55.7702 21.0402 57.0665 20.5932C57.1516 20.4418 57.1339 20.3404 57.7847 20.1912C58.3019 20.0725 58.3667 20.2845 58.3802 19.6789L58.0047 19.4911L58.4773 19.4096L58.3791 17.8017C58.3719 17.1111 58.2904 16.9969 58.6314 16.7084L58.6622 16.6748C58.4706 16.4104 57.822 16.5979 57.7525 16.1434L57.7231 15.9243C57.6355 15.9243 57.4157 15.9337 57.3412 15.9146C57.0491 15.8401 57.1475 15.882 56.9727 15.737C57.64 15.6045 58.1305 15.7504 58.5711 15.8754C58.9375 15.9794 58.6078 15.9034 58.8162 15.8546C59.2531 15.7522 59.6798 15.839 60.3318 16.0833C60.5383 16.1607 60.8355 16.1995 61.1031 16.2066C61.5177 16.2177 61.7046 16.2595 61.9853 16.2861L62.7913 16.3936C62.6191 16.8077 62.8394 16.3956 62.637 16.5908C62.2471 16.9671 62.4649 16.5352 62.3982 16.8518L62.4159 17.0502C62.4157 17.0503 62.352 17.1427 62.0404 17.1446L62.4159 17.145C62.289 17.6231 62.0658 17.5199 62.4159 17.5205V19.3969L62.0404 19.397C62.2046 19.3985 62.071 19.3782 62.2113 19.4578C62.7121 19.7419 62.6235 19.8112 62.7492 20.1456C62.7536 20.1571 62.7672 20.187 62.7707 20.1959C62.7741 20.2042 62.7865 20.2261 62.7922 20.2421C62.441 20.3179 62.3166 20.5095 62.2286 20.3364L62.9058 20.4481L62.4987 20.6906C62.4744 20.7058 62.44 20.7217 62.4168 20.7449C65.2679 20.8348 67.7251 21.2771 70.453 21.6144C70.0613 20.6738 68.9403 20.5626 68.4167 20.2421C68.3578 19.8526 68.4197 19.5645 68.3883 19.2104C68.3407 18.6724 68.2762 18.9315 67.9562 18.6463C67.9777 17.8846 68.2235 14.5871 67.3912 14.6685C66.8131 14.9731 67.0633 15.1229 67.1555 15.672C67.2269 16.0987 67.239 19.7125 67.1263 20.0659C66.1499 20.3857 67.0529 17.79 66.6065 16.3398C64.7808 15.9908 54.0831 15.0993 53.53 14.7818C53.4473 14.6544 53.4995 14.8192 53.4625 14.5872C53.4445 14.4733 53.4476 14.4506 53.4445 14.3356C53.4282 13.7303 53.4944 13.5297 53.1449 12.9178C52.6316 12.898 52.4474 13.1104 52.5606 13.5651C52.7536 14.3394 52.6531 16.9473 52.6688 17.8955L52.2124 18.0805C52.2921 19.4669 52.1633 22.4228 52.1387 24.0867L52.1259 25.5987C52.1195 25.7021 52.1187 25.7584 52.0931 25.8566C52.0325 26.0896 52.1178 25.9157 51.9973 26.0675L51.7154 26.0618C51.5268 25.6482 51.7078 16.2381 51.6554 14.7518C51.1457 14.8404 45.0577 18.8059 44.4616 19.1818C42.082 20.6828 39.6697 22.1667 37.3747 23.6897L40.5198 22.0932C43.2228 20.6188 47.53 18.3227 50.0557 17.104C50.0517 17.1045 37.3808 24.93 37.1249 25.2091L49.5409 19.6637C48.7026 20.2982 47.4036 20.8972 46.4452 21.4484C45.387 22.0573 44.367 22.6366 43.2561 23.2317L36.8864 26.7929L49.537 21.9195L37.0346 28.1503C37.039 28.1245 37.077 28.1098 37.0889 28.1372L37.375 28.1582C37.4066 28.1532 37.6705 28.0535 37.7213 28.0344L40.0535 27.2608C41.1085 26.9133 42.109 26.5744 43.1511 26.2289C44.2203 25.8743 45.2075 25.5276 46.2479 25.1936C47.1278 24.9111 48.5733 24.3211 49.367 24.1884C48.7781 24.5867 44.0864 26.553 43.0684 26.9858C41.9853 27.4463 40.9691 27.9073 39.8653 28.3806C39.1549 28.6852 37.1223 29.4732 36.6682 29.8086L49.0135 26.597C48.4824 26.9958 43.7983 28.6179 42.8033 28.9738C41.7399 29.3541 40.7121 29.7408 39.6329 30.1226C38.9887 30.3505 36.9624 31.0303 36.5263 31.2978C37.4119 31.233 38.779 30.8622 39.7105 30.675C41.2939 30.3568 48.396 28.766 49.3238 28.7114L36.3282 32.7755L49.106 30.9302C48.4 31.2835 43.4497 32.4322 42.2454 32.7401C41.0993 33.0332 39.9598 33.3014 38.7962 33.5988C37.6879 33.8817 36.3762 34.1457 35.3171 34.4719C36.1425 34.5423 37.6047 34.3151 38.487 34.2409C39.5756 34.1493 40.6877 34.0333 41.7661 33.9337C43.9075 33.736 46.2655 33.4188 48.3873 33.3436C48.2391 33.4581 48.3748 33.4051 48.0858 33.5049L45.299 34.0079C44.2334 34.1969 43.0997 34.4397 42.0483 34.5669Z" fill="white"/>
<path fill-rule="evenodd" clip-rule="evenodd" d="M76.3984 13.2766C77.5969 13.5562 81.0254 16.2341 81.9901 17.2802C83.2538 18.6507 85.2737 21.461 85.4052 23.4202L83.9593 22.5397C81.4105 21.2557 80.7684 21.3978 78.5737 20.7011C78.0654 20.5398 78.2487 20.252 77.9895 18.9372C77.5994 16.9597 77.0907 15.1397 76.3984 13.2766ZM57.4969 8.94908C58.0288 6.73754 59.5204 1.66736 61.5659 1.69358C63.6625 1.7204 65.5187 8.00005 65.5289 8.96315C62.5605 8.72105 60.4524 8.79942 57.4969 8.94908ZM68.473 2.73466C70.4325 2.92279 74.6573 5.45004 76.4227 6.80072C76.813 7.09945 77.1067 7.39059 77.4793 7.71097L79.0374 9.15659C79.2295 9.32436 79.3677 9.51068 79.5199 9.7084L80.4749 10.8152C81.9777 12.6499 84.2092 16.5162 84.664 18.8432L82.839 16.6193C82.2015 15.9214 81.5204 15.4029 80.7049 14.7185C80.0646 14.1811 79.1191 13.5403 78.3104 13.0744C78.0178 12.9058 75.7438 11.6956 75.7024 11.6489C74.9939 10.8484 74.0902 7.22342 69.5881 3.58927C69.4145 3.44925 68.636 2.80732 68.473 2.73466ZM38.4176 18.8937C38.6133 16.8576 41.7507 11.4738 43.4537 9.82137C43.8344 9.45209 44.0768 9.11655 44.4518 8.75435C45.7447 7.50551 47.1477 6.30843 48.9774 5.2092C50.2538 4.44231 52.9991 2.99949 54.5977 2.72309L52.9442 4.01223L50.4718 6.60795C49.8753 7.38031 49.3715 8.05053 48.812 8.98519C46.2984 13.1834 48.6691 10.6792 44.7489 13.0867C43.8212 13.6563 43.1518 14.1034 42.3576 14.7323C41.1907 15.6562 39.1931 17.5555 38.4176 18.8937ZM74.1238 10.9691C73.6897 10.9111 72.7439 10.5369 72.2787 10.3777C71.0608 9.96124 69.7294 9.6627 68.4586 9.40564C67.2499 9.16103 66.8514 9.3224 66.6794 8.83318C66.5091 8.34867 66.3415 7.45923 66.1799 6.90044C66.0049 6.2953 65.8163 5.73135 65.5922 5.14757C65.354 4.52669 65.1683 4.09271 64.8701 3.52192C64.5719 2.95122 64.2485 2.50957 63.9929 2.01046C65.1125 2.13345 66.6121 2.89337 67.4477 3.38481C69.0961 4.35405 70.1027 5.40693 71.331 6.72524C72.0751 7.52392 73.8212 10.1291 74.1238 10.9691ZM48.9498 10.9758C49.4813 9.34444 52.2771 5.94441 53.6495 4.81232C54.9982 3.69971 57.4658 2.14654 59.0964 1.98212C58.9655 2.32784 58.1334 3.48816 57.4512 5.23375C55.3563 10.592 58.3211 8.35831 52.5192 9.87783C51.3848 10.1749 49.9587 10.7768 48.9498 10.9758ZM36.5615 22.0519C36.9876 21.8835 37.6367 21.4126 38.067 21.1447C38.8913 20.6312 38.5914 20.6659 39.1107 19.8378C39.7235 18.8609 40.4828 17.9093 41.1718 17.2072C42.2254 16.1334 45.2652 13.669 46.6861 13.282L45.714 16.1855C45.9872 16.1879 46.7889 15.6769 46.968 15.4933C47.2075 15.2477 47.4291 14.4249 47.5726 14.0327C48.1641 12.4164 47.9264 12.5545 49.5328 11.9594C51.2687 11.3165 54.0886 10.4217 56.0527 10.2743C55.9926 10.8892 55.8199 11.5871 55.7092 12.2292C55.4986 13.4491 55.3027 13.3487 56.6328 13.4102L57.2143 10.1177C58.6195 9.74648 64.4241 9.76474 65.795 10.1109C66.1493 10.7266 66.1411 12.5354 66.4521 13.1042L67.4646 12.8319L67.0171 10.2939C68.2721 10.2883 74.2019 11.9198 74.8333 12.5177C75.5992 13.2429 76.9013 18.8589 77.1272 20.3212C76.4089 20.3232 74.9741 19.9709 74.1577 19.8536C73.0929 19.7005 72.0396 19.5715 70.9442 19.4638C70.9608 19.4832 70.9853 19.4877 70.9933 19.5225L71.9385 20.5703C72.2777 20.8443 76.9008 21.2072 77.2465 21.5525C77.47 22.0384 77.5233 24.1021 77.5356 24.749C77.5538 25.7019 77.4453 25.4797 77.9559 26.0103C78.3833 26.4547 78.3396 26.717 78.6375 27.1153C78.5918 26.2461 78.6435 25.3361 78.6162 24.4577C78.5882 23.5607 78.4762 22.6863 78.4376 21.807C80.1634 22.0867 84.9387 23.5958 85.6236 25.3851C86.3146 27.1901 82.6449 28.5518 81.336 29.0243C80.9734 29.1552 80.692 29.2368 80.3455 29.3428L79.4171 29.642C79.3976 29.6518 79.3665 29.6726 79.3508 29.681C79.3347 29.6898 79.3049 29.7065 79.2841 29.7222C79.553 29.8811 80.536 30.4036 80.7888 30.3739C81.3665 30.306 83.3704 29.4016 83.954 29.1124C84.4194 28.8817 85.0411 28.4088 85.4164 28.2769C84.9228 30.9955 83.4126 32.608 81.947 34.4154C82.0319 34.6745 82.2518 35.0092 82.5028 35.3212C83.4401 34.5609 84.3591 33.0158 84.7058 32.757C84.2254 33.9015 83.9465 35.1155 83.3296 36.2751C83.1419 36.6279 82.5767 37.6415 82.5076 37.9922C82.4301 38.3854 82.2236 39.8607 82.2319 40.2119C82.8603 39.6976 84.3669 36.7055 84.8281 35.6149C85.5417 33.9271 86.1474 32.003 86.4634 30.0171C87.4519 23.8057 86.2277 17.6185 83.0018 12.5154L81.3757 10.2052C80.3931 8.98741 79.2111 7.70201 78.0029 6.71869C77.3105 6.15498 76.7214 5.61755 75.9484 5.11283C74.4058 4.1058 73.1258 3.32468 71.2206 2.51823C63.4349 -0.777634 54.4483 0.40081 48.0636 4.48251C47.174 5.05133 45.7768 6.05502 45.0073 6.77449C44.6712 7.08857 44.3402 7.3195 43.997 7.64362C40.4134 11.0282 37.2329 16.6383 36.5615 22.0519Z" fill="white"/>
<path fill-rule="evenodd" clip-rule="evenodd" d="M77.2861 32.6335C77.8404 32.4962 78.9069 32.4908 79.2658 32.7624L79.3559 33.8555L77.3521 33.8634L77.2861 32.6335ZM67.5578 32.0662C67.6678 31.2396 68.6003 31.5142 69.4585 31.542L74.2428 31.6559C75.0716 31.6797 75.9023 31.459 76.1693 32.2042L67.5578 32.0662ZM76.0718 30.8486C75.939 30.9526 76.0623 30.8985 75.8328 30.9644C75.707 31.0007 75.6925 30.9951 75.5621 31.0027C74.5386 31.0613 67.7493 30.7879 67.5792 30.7548C67.5694 30.3051 67.7732 30.2316 68.2372 30.2161L74.1021 30.4362C74.8175 30.4642 75.7561 30.3094 76.0718 30.8486ZM74.1385 29.2188C74.9193 29.2484 75.7618 29.1021 76.0177 29.7223C75.6958 29.8776 68.0931 29.594 67.5079 29.427C67.6068 28.9946 67.6924 28.9451 68.2277 28.9339L74.1385 29.2188ZM75.1808 28.0651C75.6619 28.1735 75.8481 28.0938 75.9386 28.5909C75.0218 28.6153 68.0082 28.3016 67.565 28.1493C67.3655 27.5018 68.3959 27.6723 68.9858 27.699L69.831 27.4691C69.514 27.4656 69.0202 27.4876 68.7506 27.3817L68.4235 27.1879C68.423 26.9586 68.4398 27.1522 68.3864 27.1555C67.6915 27.2002 67.8925 27.0685 67.907 26.8119C67.7039 26.7153 67.4383 26.7182 67.1093 26.7182C67.2018 26.0616 67.2418 26.4059 67.2972 26.1549L66.9212 26.9058C66.8795 26.9373 66.3528 27.0815 66.0298 27.0469C66.0327 26.7299 65.9984 26.7199 66.1708 26.5309C65.6666 26.496 65.7941 26.3416 65.8113 26.327L65.8415 26.5313C65.845 26.5488 65.8716 26.6341 65.8629 26.7953C65.8389 27.2405 65.8177 26.9072 65.8041 26.9352C65.9922 27.4003 66.1295 30.6362 65.8817 31.0052C65.7476 31.1028 66.0612 31.1609 65.6164 31.0292C65.5825 31.0191 65.305 30.866 65.2459 30.8336C63.6282 29.9511 60.0067 29.4972 58.959 30.4685C60.0427 30.5942 60.652 30.4798 61.3292 31.1828C62.0439 31.9248 61.0747 33.5012 62.0803 33.4214C62.5175 32.2685 61.1436 31.6396 64.2879 31.9146C65.2787 32.0012 64.7466 32.7113 65.0189 33.4057C65.606 33.6153 69.6676 33.5225 70.6758 33.5334C71.725 33.5448 75.753 33.5281 76.4258 33.7404C76.5068 33.9208 76.5705 34.0261 76.5473 34.2742L66.4485 34.0992C66.4701 34.5419 66.4539 34.8665 66.5861 35.2613L66.5047 35.4766C66.4873 35.7459 66.5433 35.6014 66.5931 35.6454L67.0151 35.964C67.2485 35.5773 66.9593 35.7962 67.4747 35.762C67.8469 35.737 67.6036 35.6956 67.8603 35.8235C67.5061 35.8254 67.0028 35.9191 66.4522 35.9179L61.4776 35.9177C61.5069 35.9299 61.5419 35.9399 61.5686 35.9463L67.1093 36.0015C67.8782 35.9976 67.7779 36.1229 67.8595 36.1857L80.8201 36.5503C80.8161 34.7591 78.8402 35.0807 77.8927 34.9986C77.452 34.9603 77.5711 35.055 77.424 34.7909C77.7089 34.2986 79.3241 34.8775 79.7176 34.547C80.0339 34.0689 79.7981 32.167 79.4672 31.8187C79.2665 31.6075 78.8212 31.4502 78.4484 31.3336C76.8649 30.8384 77.1551 31.9136 76.942 28.532C76.8719 27.419 76.9134 26.9906 75.8757 26.7861C74.6605 26.5468 72.1243 26.2149 71.1691 25.8633L71.0862 25.4049C71.0852 25.4059 70.8093 25.5165 70.9573 25.8466C71.0527 26.0594 71.3139 26.0053 71.3123 26.3175C71.3123 26.3249 71.2386 26.5247 71.2384 26.6252C71.5296 26.2746 71.5045 26.7787 71.4273 26.1559C72.2024 26.3693 72.2453 26.3286 72.8866 26.4004C73.2218 26.438 73.9753 26.7127 74.2423 26.8125C74.094 26.9383 74.1842 26.9351 73.9149 27.0206C73.8846 27.0302 73.9189 27.1377 73.5402 26.9809C72.6419 26.6094 72.8861 27.1649 72.5526 26.8119C72.5927 27.1109 72.6232 26.808 72.7408 27.0945L74.5034 27.1765C74.8571 27.2911 74.3906 27.2248 74.8077 27.2709L75.0502 27.2649C75.7074 27.148 74.7857 27.1059 75.6502 27.0006C75.6128 27.2848 75.6201 27.4894 75.4664 27.7449C75.1907 28.2033 75.3825 27.7116 75.1808 28.0651Z" fill="white" stroke="white" stroke-width="0.245989" stroke-miterlimit="2.61313"/>
<path fill-rule="evenodd" clip-rule="evenodd" d="M57.5106 24.653C57.7553 24.4195 57.7223 24.3897 57.7223 23.8091C57.9492 23.9755 57.8834 23.6327 57.8972 24.2779L57.9105 23.6214C58.1624 23.8933 58.081 23.3019 58.0988 23.903C58.1409 23.4708 58.0822 23.7613 58.3732 23.531L58.4742 23.7148C58.4742 23.2913 58.3919 22.9001 58.6913 22.6916C58.9815 22.4894 60.2538 22.5463 60.6133 22.6708C61.3698 22.9329 60.913 22.7378 61.2275 22.6704L62.4156 22.7767C62.4156 23.4264 62.3524 23.7062 62.4711 23.9584L62.7915 24.2779C62.5889 24.5404 62.3181 24.6486 62.5098 24.7474C62.6315 25.0832 62.333 24.8414 62.8624 24.961C63.0191 24.9964 63.2665 25.0195 63.4485 25.0284C63.4358 24.6014 63.3962 24.6212 63.2608 24.653C63.7436 24.6057 63.5423 24.5941 63.9178 24.2785C63.9381 24.3065 63.9606 24.3403 63.9739 24.366L64.7627 24.7474L64.5231 25.3702C64.3692 26.3482 64.6395 25.2391 64.8484 25.8756C64.969 26.2432 64.6673 26.2198 64.4815 26.2951C65.2521 26.3859 65.3445 26.4143 65.8044 26.9351C65.8179 26.907 65.8391 27.2403 65.8631 26.7952C65.8719 26.634 65.8453 26.5486 65.8418 26.5312C65.6168 26.3156 65.773 26.3715 65.5141 26.1558L65.9164 25.6456C65.9736 25.5219 65.9779 25.627 65.9535 25.4519L65.9068 25.1571C65.9599 24.3972 65.8125 24.6951 65.9771 24.2163C66.0607 23.9733 66.0571 24.2075 66.0768 23.8087C65.7812 23.7081 65.8718 23.9172 65.7956 23.4333H66.0768C65.6944 22.9114 65.7012 23.6982 65.7012 22.6823C66.3163 22.8465 65.6493 22.8936 66.2645 23.0577C66.3475 22.8353 66.2081 22.9347 66.4522 22.8701C66.3713 22.7494 66.25 22.6414 66.1982 22.5371C66.084 22.3064 66.1267 22.7375 66.1586 22.3701C66.1931 21.9728 66.0107 22.3803 66.2645 22.2134C66.4357 22.0991 66.63 22.1461 66.7158 22.1638C66.7437 22.1696 66.7667 22.1802 66.7938 22.1878C66.8202 22.1952 66.8424 22.2064 66.868 22.2149C67.788 22.5181 67.2299 22.5876 67.7661 22.5989C67.9095 22.6018 68.2123 22.5404 68.258 22.5399C68.8558 22.5343 68.5494 22.5729 68.6401 22.6221C68.7858 22.7011 68.8321 22.6876 68.8899 22.9663C68.9086 23.0567 68.8924 23.3165 68.8924 23.4327C68.6937 23.5073 68.76 23.525 68.4231 23.5271C68.814 23.7098 68.479 23.2662 68.5567 23.7281C68.6044 24.0116 68.4556 23.9125 68.4183 24.3767C68.3912 24.7122 68.4232 25.2363 68.4232 25.5921C68.4071 26.9647 68.1935 25.9797 67.9076 26.8118C67.8931 27.0684 67.692 27.2001 68.3869 27.1554C68.4403 27.1519 68.4233 26.9585 68.424 27.1877L68.7512 27.3816C69.0207 27.4875 69.5146 27.4654 69.8316 27.4689L68.9863 27.6989L75.1813 28.0649C75.383 27.7114 75.1912 28.2031 75.4669 27.7448C75.6206 27.4893 75.6133 27.2847 75.6507 27.0004C74.7862 27.1057 75.7079 27.1478 75.0508 27.2647L74.8083 27.2707C74.3912 27.2247 74.8576 27.291 74.504 27.1763L72.7414 27.0943C72.6238 26.808 72.5932 27.1108 72.5531 26.8118C72.8867 27.1647 72.6425 26.6093 73.5407 26.9808C73.9194 27.1376 73.8852 27.03 73.9155 27.0204C74.1847 26.9349 74.0945 26.9381 74.2428 26.8123C73.9758 26.7126 73.2223 26.4379 72.8871 26.4002C72.2458 26.3284 72.2029 26.3691 71.4278 26.1558C71.5051 26.7786 71.5302 26.2744 71.239 26.625C71.2391 26.5245 71.3129 26.3248 71.3129 26.3174C71.3143 26.0051 71.0532 26.0592 70.9578 25.8464C70.8099 25.5163 71.0857 25.4057 71.0867 25.4048C70.4819 23.6642 70.9815 22.5816 69.8038 22.3347C67.6291 21.879 58.6867 21.1037 57.5316 21.555C57.3159 22.1915 57.4862 23.8497 57.5106 24.653Z" fill="white" stroke="white" stroke-width="0.106267" stroke-miterlimit="2.61313"/>
<path fill-rule="evenodd" clip-rule="evenodd" d="M57.0655 20.5934C58.5836 20.4842 60.8856 20.6104 62.4158 20.7451C62.439 20.7219 62.4734 20.7061 62.4977 20.6909L62.9048 20.4483L62.2276 20.3366C62.3155 20.5097 62.44 20.3181 62.7912 20.2424C62.7855 20.2263 62.7728 20.2044 62.7696 20.1962C62.7662 20.1873 62.7525 20.1573 62.7481 20.1458C62.6225 19.8115 62.711 19.7421 62.2103 19.4581C62.0699 19.3784 62.2036 19.3986 62.0394 19.3973L62.4149 19.3971V17.5207C62.0648 17.5202 62.2879 17.6233 62.4149 17.1453L62.0394 17.1448C62.351 17.1429 62.4147 17.0506 62.4149 17.0504L62.3972 16.852C62.4639 16.5354 62.2461 16.9673 62.636 16.5911C62.8384 16.3957 62.6181 16.8079 62.7902 16.3939L61.9843 16.2863C61.7036 16.2597 61.5167 16.2179 61.1021 16.2069C60.8345 16.1997 60.5373 16.161 60.3308 16.0836C59.6788 15.8392 59.2521 15.7525 58.8152 15.8549C58.6068 15.9037 58.9365 15.9797 58.5701 15.8756C58.1294 15.7507 57.639 15.6047 56.9717 15.7373C57.1465 15.8822 57.0481 15.8403 57.3402 15.9148C57.4147 15.9339 57.6345 15.9246 57.7221 15.9246L57.7515 16.1436C57.821 16.5982 58.4695 16.4106 58.6612 16.675L58.6304 16.7086C58.2894 16.9972 58.3709 17.1114 58.3781 17.802L58.4763 19.4098L58.0037 19.4914L58.3792 19.6791C58.3657 20.2847 58.3008 20.0728 57.7837 20.1914C57.1328 20.3407 57.1506 20.4421 57.0655 20.5934Z" fill="white" stroke="white" stroke-width="0.245989" stroke-miterlimit="2.61313"/>
<path fill-rule="evenodd" clip-rule="evenodd" d="M38.3234 38.9856C38.4174 38.6653 38.3859 38.5191 38.3826 38.1708L38.4797 37.4196C38.5055 37.8054 38.5913 37.7966 38.5624 38.2261L38.4684 39.5044C38.4704 39.5344 38.4736 39.5567 38.4775 39.5874C38.4814 39.6183 38.6234 40.0495 38.4804 40.61C38.8163 40.5654 38.6138 40.722 38.8563 40.5162C38.7407 39.8384 38.5314 38.8163 38.8353 38.2692C38.8594 38.8452 38.9171 40.2738 39.5126 40.1305C39.6865 40.2629 39.5641 40.0996 39.6113 40.4223C39.6396 40.4003 39.679 40.3731 39.6988 40.3593L39.8876 40.2346C39.8896 39.976 39.9237 40.284 39.9823 40.4223C40.3387 40.1246 40.2199 40.7548 40.2896 40.1417C40.1628 39.7357 40.1141 38.5128 40.2634 38.1285C40.4183 38.4774 40.2272 38.7307 40.4718 39.1287L40.5446 38.7337C40.8681 39.5143 40.5606 39.1616 40.7323 39.0149C40.7327 38.2804 40.9913 38.5205 40.8582 37.6069C40.8548 37.6054 40.6885 37.5209 40.6532 37.5022L40.5067 37.4239C40.2198 37.3475 40.5207 37.4205 40.1385 37.482V37.1376C40.4661 37.0312 40.1873 37.2347 40.263 37.0444C40.3072 36.9326 40.1742 36.7796 40.1696 36.5744C40.4421 36.5996 40.6295 36.6285 40.8246 36.8611C40.8433 36.8833 40.8878 36.9596 40.9033 36.9838C40.915 37.0022 40.9238 37.0297 40.9352 37.0478C41.1429 37.3789 40.7827 37.2431 41.296 37.2941L41.0772 36.9498C41.4622 36.8895 41.4786 37.0007 41.5236 36.66C41.5626 36.3638 41.2587 36.1994 41.69 36.1985L41.4939 35.5446C41.8555 35.2888 42.4209 35.4714 42.7665 35.2261L42.4228 35.167L42.7259 34.9886C42.9522 34.6772 42.7143 34.8246 42.6851 34.8048C42.6691 34.7939 42.6399 34.7869 42.6188 34.7772C42.5938 34.7656 42.5665 34.765 42.5371 34.7542C41.9244 34.5271 42.5495 34.9856 42.0474 34.5669C40.7524 34.9726 35.6691 35.4792 34.9883 35.9154L36.5641 36.1308L36.6782 37.4154L38.2129 37.4224C38.2458 37.8843 38.133 38.6522 38.3234 38.9856Z" fill="white" stroke="white" stroke-width="0.106267" stroke-miterlimit="2.61313"/>
<path fill-rule="evenodd" clip-rule="evenodd" d="M57.5098 24.6533L57.5746 26.1265C58.527 25.925 57.7576 25.0715 60.8633 25.637C61.9073 25.8271 63.563 26.0149 64.4806 26.2954C64.6664 26.2201 64.9682 26.2435 64.8475 25.8759C64.6386 25.2394 64.3683 26.3485 64.5222 25.3705L64.7618 24.7477L63.973 24.3663C63.9598 24.3406 63.9373 24.3068 63.9169 24.2788C63.5414 24.5944 63.7427 24.606 63.2599 24.6533C63.3954 24.6215 63.435 24.6017 63.4477 25.0287C63.2657 25.0198 63.0182 24.9967 62.8615 24.9613C62.3321 24.8417 62.6306 25.0835 62.509 24.7477C62.3172 24.649 62.588 24.5407 62.7907 24.2782L62.4702 23.9588C62.3515 23.7065 62.4147 23.4267 62.4147 22.777L61.2266 22.6707C60.9121 22.7381 61.3689 22.9332 60.6124 22.6712C60.2529 22.5466 58.9806 22.4897 58.6904 22.6919C58.391 22.9004 58.4733 23.2916 58.4733 23.7151L58.3723 23.5313C58.0813 23.7616 58.14 23.4711 58.0979 23.9033C58.0802 23.3022 58.1615 23.8936 57.9096 23.6217L57.8964 24.2782C57.8825 23.633 57.9484 23.9758 57.7215 23.8094C57.7215 24.39 57.7544 24.4198 57.5098 24.6533Z" fill="white" stroke="white" stroke-width="0.245989" stroke-miterlimit="2.61313"/>
<path fill-rule="evenodd" clip-rule="evenodd" d="M65.8417 26.5314L65.8114 26.3271C65.7942 26.3416 65.6668 26.4961 66.171 26.5309C65.9986 26.7199 66.0328 26.7299 66.0299 27.0469C66.3529 27.0815 66.8796 26.9373 66.9214 26.9058L67.2973 26.155C67.242 26.406 67.2019 26.0616 67.1095 26.7182C67.4385 26.7182 67.704 26.7153 67.9072 26.812C68.1931 25.9798 68.4067 26.9649 68.4228 25.5922C68.4228 25.2365 68.3908 24.7124 68.4179 24.3769C68.4552 23.9127 68.604 24.0118 68.5563 23.7282C68.4786 23.2664 68.8136 23.71 68.4227 23.5273C68.7596 23.5253 68.6933 23.5075 68.892 23.4328C68.8923 23.3167 68.9085 23.0569 68.8895 22.9665C68.8317 22.6877 68.7854 22.7013 68.6398 22.6223C68.549 22.5731 68.8554 22.5345 68.2576 22.5401C68.2119 22.5405 67.9091 22.602 67.7657 22.599C67.2295 22.5877 67.7876 22.5183 66.8676 22.2151C66.842 22.2066 66.8198 22.1953 66.7934 22.1879C66.7663 22.1804 66.7433 22.1698 66.7154 22.1639C66.6296 22.1462 66.4353 22.0992 66.2641 22.2136C66.0103 22.3805 66.1927 21.973 66.1582 22.3703C66.1263 22.7377 66.0836 22.3066 66.1978 22.5372C66.2496 22.6416 66.3709 22.7495 66.4518 22.8703C66.2078 22.9349 66.3471 22.8354 66.2641 23.0579C65.6489 22.8937 66.3159 22.8467 65.7008 22.6824C65.7008 23.6984 65.694 22.9116 66.0764 23.4334H65.7952C65.8714 23.9173 65.7809 23.7083 66.0764 23.8089C66.0567 24.2077 66.0604 23.9734 65.9767 24.2165C65.8121 24.6953 65.9595 24.3974 65.9064 25.1573L65.9531 25.4521C65.9775 25.6271 65.9732 25.5221 65.916 25.6458L65.5137 26.156C65.7726 26.3717 65.6167 26.3157 65.8417 26.5314Z" fill="white" stroke="white" stroke-width="0.106267" stroke-miterlimit="2.61313"/>
<path fill-rule="evenodd" clip-rule="evenodd" d="M54.6742 25.6423C55.2371 25.7643 55.7179 25.4586 56.2206 25.3339C56.5636 25.611 56.7654 26.0565 57.0755 26.2363L56.7018 21.7932C56.3155 21.7254 54.7778 22.3452 54.6568 22.6224C54.513 22.9518 54.606 25.258 54.6742 25.6423Z" fill="white" stroke="white" stroke-width="0.106267" stroke-miterlimit="2.61313"/>
<path fill-rule="evenodd" clip-rule="evenodd" d="M67.5794 30.7547C67.7496 30.7878 74.5388 31.0612 75.5623 31.0025C75.6927 30.995 75.7072 31.0005 75.833 30.9643C76.0625 30.8984 75.9393 30.9524 76.072 30.8484C75.7563 30.3093 74.8177 30.464 74.1023 30.4361L68.2374 30.216C67.7734 30.2314 67.5696 30.3049 67.5794 30.7547Z" fill="white" stroke="white" stroke-width="0.245989" stroke-miterlimit="2.61313"/>
<path fill-rule="evenodd" clip-rule="evenodd" d="M67.5078 29.4271C68.093 29.594 75.6957 29.8777 76.0176 29.7223C75.7617 29.1022 74.9192 29.2485 74.1384 29.2189L68.2276 28.934C67.6923 28.9452 67.6067 28.9947 67.5078 29.4271Z" fill="white" stroke="white" stroke-width="0.245989" stroke-miterlimit="2.61313"/>
<path fill-rule="evenodd" clip-rule="evenodd" d="M75.1811 28.0651L68.986 27.6991C68.3962 27.6723 67.3658 27.5019 67.5653 28.1494C68.0084 28.3017 75.0221 28.6153 75.9389 28.5909C75.8484 28.0939 75.6622 28.1735 75.1811 28.0651Z" fill="white" stroke="white" stroke-width="0.245989" stroke-miterlimit="2.61313"/>
<path fill-rule="evenodd" clip-rule="evenodd" d="M67.5576 32.066L76.1691 32.2041C75.9021 31.4589 75.0714 31.6796 74.2426 31.6557L69.4583 31.5418C68.6001 31.5141 67.6675 31.2395 67.5576 32.066Z" fill="white" stroke="white" stroke-width="0.245989" stroke-miterlimit="2.61313"/>
<path fill-rule="evenodd" clip-rule="evenodd" d="M56.279 31.4509C56.6726 31.6114 56.9391 31.3663 57.2229 31.1975L57.2427 27.9755C56.0115 27.8205 56.2593 28.8047 56.2603 29.1579C56.2628 29.9033 56.2284 30.7147 56.279 31.4509Z" fill="white" stroke="white" stroke-width="0.106267" stroke-miterlimit="2.61313"/>
<path fill-rule="evenodd" clip-rule="evenodd" d="M77.3522 33.8635L79.3559 33.8557L79.2659 32.7625C78.9069 32.4909 77.8404 32.4964 77.2861 32.6336L77.3522 33.8635Z" fill="white" stroke="white" stroke-width="0.245989" stroke-miterlimit="2.61313"/>
<path fill-rule="evenodd" clip-rule="evenodd" d="M54.4713 30.1209L54.4561 32.2285C54.7499 32.2442 54.8905 32.1651 55.0856 32.0644L55.1004 29.9291C54.7993 29.9286 54.6504 30.0101 54.4713 30.1209Z" fill="white" stroke="white" stroke-width="0.245989" stroke-miterlimit="2.61313"/>
<path fill-rule="evenodd" clip-rule="evenodd" d="M38.8572 40.5161L39.0922 40.9961C39.5304 40.8877 39.4285 40.8287 39.6122 40.4222C39.565 40.0995 39.6874 40.2628 39.5135 40.1304C38.918 40.2737 38.8602 38.8451 38.8361 38.2691C38.5322 38.8162 38.7416 39.8383 38.8572 40.5161Z" fill="white" stroke="white" stroke-width="0.106267" stroke-miterlimit="2.61313"/>
<path fill-rule="evenodd" clip-rule="evenodd" d="M40.2904 40.1417C40.3507 40.5312 40.3723 40.7309 40.6397 40.9658C41.0254 40.8482 40.9725 40.6676 41.1036 40.2352C41.0865 40.2216 41.0572 40.2081 41.0462 40.2041C41.036 40.2001 41.0032 40.1832 40.9908 40.1791C40.9791 40.1752 40.9484 40.1677 40.9357 40.1641C40.5221 40.0465 40.379 39.6333 40.4726 39.1287C40.228 38.7307 40.4191 38.4774 40.2642 38.1285C40.1149 38.5129 40.1636 39.7358 40.2904 40.1417Z" fill="white" stroke="white" stroke-width="0.106267" stroke-miterlimit="2.61313"/>
<path d="M2.38548 62.4109V42.155H9.46714C10.8782 42.155 12.042 42.3989 12.9585 42.8869C13.875 43.3682 14.5575 44.0177 15.0059 44.8353C15.4542 45.6463 15.6784 46.5464 15.6784 47.5354C15.6784 48.4058 15.5235 49.1245 15.2136 49.6916C14.9103 50.2587 14.508 50.707 14.0069 51.0367C13.5124 51.3664 12.975 51.6104 12.3948 51.7686V51.9664C13.0146 52.006 13.6377 52.2236 14.2641 52.6192C14.8905 53.0148 15.4147 53.5819 15.8367 54.3204C16.2587 55.0589 16.4697 55.9622 16.4697 57.0304C16.4697 58.0458 16.2389 58.9591 15.7773 59.7701C15.3158 60.5811 14.5872 61.224 13.5915 61.6988C12.5959 62.1735 11.3002 62.4109 9.70452 62.4109H2.38548ZM4.83835 60.235H9.70452C11.3068 60.235 12.4442 59.9251 13.1168 59.3052C13.7959 58.6788 14.1355 57.9206 14.1355 57.0304C14.1355 56.3447 13.9608 55.7117 13.6113 55.1314C13.2618 54.5446 12.764 54.0764 12.1178 53.727C11.4716 53.3709 10.7068 53.1929 9.8232 53.1929H4.83835V60.235ZM4.83835 51.0565H9.38802C10.1265 51.0565 10.7925 50.9114 11.3859 50.6213C11.9859 50.3312 12.4607 49.9224 12.8102 49.3949C13.1662 48.8674 13.3443 48.2476 13.3443 47.5354C13.3443 46.6453 13.0343 45.8903 12.4145 45.2705C11.7947 44.6441 10.8123 44.3309 9.46714 44.3309H4.83835V51.0565ZM37.591 52.2829C37.591 54.4193 37.2053 56.2655 36.4338 57.8217C35.6624 59.3778 34.6041 60.5778 33.259 61.4218C31.9138 62.2658 30.3775 62.6878 28.6499 62.6878C26.9224 62.6878 25.386 62.2658 24.0409 61.4218C22.6958 60.5778 21.6375 59.3778 20.866 57.8217C20.0946 56.2655 19.7088 54.4193 19.7088 52.2829C19.7088 50.1466 20.0946 48.3003 20.866 46.7442C21.6375 45.1881 22.6958 43.988 24.0409 43.144C25.386 42.3 26.9224 41.878 28.6499 41.878C30.3775 41.878 31.9138 42.3 33.259 43.144C34.6041 43.988 35.6624 45.1881 36.4338 46.7442C37.2053 48.3003 37.591 50.1466 37.591 52.2829ZM35.2173 52.2829C35.2173 50.529 34.9239 49.0487 34.337 47.8421C33.7568 46.6354 32.9688 45.7222 31.9732 45.1024C30.9841 44.4826 29.8764 44.1726 28.6499 44.1726C27.4235 44.1726 26.3125 44.4826 25.3168 45.1024C24.3278 45.7222 23.5398 46.6354 22.953 47.8421C22.3727 49.0487 22.0826 50.529 22.0826 52.2829C22.0826 54.0369 22.3727 55.5171 22.953 56.7238C23.5398 57.9305 24.3278 58.8437 25.3168 59.4635C26.3125 60.0833 27.4235 60.3932 28.6499 60.3932C29.8764 60.3932 30.9841 60.0833 31.9732 59.4635C32.9688 58.8437 33.7568 57.9305 34.337 56.7238C34.9239 55.5171 35.2173 54.0369 35.2173 52.2829ZM41.7154 62.4109V42.155H44.1683V60.235H53.5841V62.4109H41.7154ZM59.4913 62.4109H56.9197L64.3574 42.155H66.8894L74.3271 62.4109H71.7556L65.7025 45.3595H65.5443L59.4913 62.4109ZM60.4408 54.4984H70.8061V56.6743H60.4408V54.4984ZM93.5446 42.155V62.4109H91.1708L80.1329 46.5068H79.9351V62.4109H77.4822V42.155H79.856L90.9334 58.0986H91.1312V42.155H93.5446ZM115.544 52.2829C115.544 54.4193 115.158 56.2655 114.386 57.8217C113.615 59.3778 112.557 60.5778 111.212 61.4218C109.866 62.2658 108.33 62.6878 106.603 62.6878C104.875 62.6878 103.339 62.2658 101.994 61.4218C100.648 60.5778 99.5902 59.3778 98.8187 57.8217C98.0472 56.2655 97.6615 54.4193 97.6615 52.2829C97.6615 50.1466 98.0472 48.3003 98.8187 46.7442C99.5902 45.1881 100.648 43.988 101.994 43.144C103.339 42.3 104.875 41.878 106.603 41.878C108.33 41.878 109.866 42.3 111.212 43.144C112.557 43.988 113.615 45.1881 114.386 46.7442C115.158 48.3003 115.544 50.1466 115.544 52.2829ZM113.17 52.2829C113.17 50.529 112.877 49.0487 112.29 47.8421C111.709 46.6354 110.921 45.7222 109.926 45.1024C108.937 44.4826 107.829 44.1726 106.603 44.1726C105.376 44.1726 104.265 44.4826 103.269 45.1024C102.28 45.7222 101.492 46.6354 100.906 47.8421C100.325 49.0487 100.035 50.529 100.035 52.2829C100.035 54.0369 100.325 55.5171 100.906 56.7238C101.492 57.9305 102.28 58.8437 103.269 59.4635C104.265 60.0833 105.376 60.3932 106.603 60.3932C107.829 60.3932 108.937 60.0833 109.926 59.4635C110.921 58.8437 111.709 57.9305 112.29 56.7238C112.877 55.5171 113.17 54.0369 113.17 52.2829ZM130.746 47.2189C130.627 46.2167 130.145 45.4386 129.301 44.8848C128.457 44.3309 127.422 44.054 126.196 44.054C125.299 44.054 124.514 44.199 123.842 44.4891C123.176 44.7793 122.655 45.1782 122.279 45.6859C121.91 46.1936 121.725 46.7706 121.725 47.4168C121.725 47.9574 121.854 48.4223 122.111 48.8113C122.375 49.1938 122.711 49.5136 123.12 49.7707C123.529 50.0213 123.957 50.229 124.406 50.3938C124.854 50.5521 125.266 50.6807 125.642 50.7796L127.699 51.3334C128.227 51.4719 128.814 51.6631 129.46 51.9071C130.113 52.1511 130.736 52.484 131.329 52.906C131.929 53.3214 132.424 53.8555 132.813 54.5083C133.202 55.1611 133.396 55.9622 133.396 56.9117C133.396 58.0063 133.109 58.9953 132.536 59.8789C131.969 60.7625 131.138 61.4647 130.043 61.9856C128.955 62.5065 127.633 62.7669 126.077 62.7669C124.627 62.7669 123.37 62.5329 122.309 62.0647C121.254 61.5966 120.423 60.9438 119.816 60.1064C119.216 59.269 118.877 58.2964 118.798 57.1887H121.33C121.396 57.9535 121.653 58.5865 122.101 59.0877C122.556 59.5822 123.13 59.9514 123.822 60.1954C124.521 60.4328 125.273 60.5515 126.077 60.5515C127.013 60.5515 127.854 60.3998 128.599 60.0965C129.344 59.7866 129.934 59.358 130.37 58.8107C130.805 58.2568 131.022 57.6107 131.022 56.8722C131.022 56.1996 130.835 55.6523 130.459 55.2303C130.083 54.8083 129.588 54.4655 128.975 54.2017C128.362 53.938 127.699 53.7072 126.987 53.5094L124.495 52.7972C122.912 52.3423 121.659 51.6928 120.736 50.8488C119.813 50.0048 119.352 48.9003 119.352 47.5354C119.352 46.4013 119.658 45.4123 120.271 44.5683C120.891 43.7177 121.722 43.0583 122.764 42.5902C123.812 42.1154 124.983 41.878 126.275 41.878C127.581 41.878 128.741 42.1121 129.756 42.5803C130.772 43.0418 131.576 43.6748 132.17 44.4793C132.77 45.2837 133.086 46.1969 133.119 47.2189H130.746Z" fill="white"/>
<path d="M4.80123 67.6315H4.31258C4.28369 67.4909 4.23311 67.3675 4.16087 67.2611C4.08993 67.1547 4.00324 67.0653 3.90078 66.9931C3.79963 66.9195 3.68732 66.8644 3.56385 66.8276C3.44037 66.7908 3.31164 66.7724 3.17766 66.7724C2.93333 66.7724 2.71199 66.8342 2.51364 66.9576C2.31661 67.0811 2.15964 67.263 2.04273 67.5034C1.92713 67.7438 1.86934 68.0387 1.86934 68.3881C1.86934 68.7375 1.92713 69.0324 2.04273 69.2728C2.15964 69.5132 2.31661 69.6951 2.51364 69.8186C2.71199 69.9421 2.93333 70.0038 3.17766 70.0038C3.31164 70.0038 3.44037 69.9854 3.56385 69.9486C3.68732 69.9119 3.79963 69.8573 3.90078 69.7851C4.00324 69.7115 4.08993 69.6216 4.16087 69.5152C4.23311 69.4074 4.28369 69.284 4.31258 69.1447H4.80123C4.76445 69.351 4.69746 69.5355 4.60026 69.6984C4.50305 69.8613 4.3822 69.9999 4.23771 70.1141C4.09322 70.2271 3.93099 70.3132 3.75103 70.3723C3.57238 70.4314 3.38126 70.4609 3.17766 70.4609C2.8335 70.4609 2.52744 70.3769 2.25947 70.2087C1.9915 70.0406 1.78067 69.8015 1.62698 69.4915C1.47329 69.1815 1.39645 68.8137 1.39645 68.3881C1.39645 67.9625 1.47329 67.5947 1.62698 67.2847C1.78067 66.9747 1.9915 66.7356 2.25947 66.5675C2.52744 66.3994 2.8335 66.3153 3.17766 66.3153C3.38126 66.3153 3.57238 66.3448 3.75103 66.404C3.93099 66.4631 4.09322 66.5498 4.23771 66.664C4.3822 66.777 4.50305 66.9149 4.60026 67.0778C4.69746 67.2394 4.76445 67.4239 4.80123 67.6315ZM8.99564 68.3881C8.99564 68.8137 8.91879 69.1815 8.76511 69.4915C8.61142 69.8015 8.40059 70.0406 8.13262 70.2087C7.86465 70.3769 7.55859 70.4609 7.21443 70.4609C6.87028 70.4609 6.56421 70.3769 6.29624 70.2087C6.02828 70.0406 5.81745 69.8015 5.66376 69.4915C5.51007 69.1815 5.43323 68.8137 5.43323 68.3881C5.43323 67.9625 5.51007 67.5947 5.66376 67.2847C5.81745 66.9747 6.02828 66.7356 6.29624 66.5675C6.56421 66.3994 6.87028 66.3153 7.21443 66.3153C7.55859 66.3153 7.86465 66.3994 8.13262 66.5675C8.40059 66.7356 8.61142 66.9747 8.76511 67.2847C8.91879 67.5947 8.99564 67.9625 8.99564 68.3881ZM8.52275 68.3881C8.52275 68.0387 8.4643 67.7438 8.34739 67.5034C8.23179 67.263 8.07482 67.0811 7.87647 66.9576C7.67944 66.8342 7.45876 66.7724 7.21443 66.7724C6.97011 66.7724 6.74877 66.8342 6.55042 66.9576C6.35338 67.0811 6.19641 67.263 6.0795 67.5034C5.96391 67.7438 5.90611 68.0387 5.90611 68.3881C5.90611 68.7375 5.96391 69.0324 6.0795 69.2728C6.19641 69.5132 6.35338 69.6951 6.55042 69.8186C6.74877 69.9421 6.97011 70.0038 7.21443 70.0038C7.45876 70.0038 7.67944 69.9421 7.87647 69.8186C8.07482 69.6951 8.23179 69.5132 8.34739 69.2728C8.4643 69.0324 8.52275 68.7375 8.52275 68.3881ZM9.81728 66.3705H10.4005L11.7719 69.7201H11.8192L13.1905 66.3705H13.7738V70.4058H13.3166V67.3399H13.2772L12.0162 70.4058H11.5748L10.3138 67.3399H10.2744V70.4058H9.81728V66.3705ZM14.7535 66.3705H15.3368L16.7081 69.7201H16.7554L18.1268 66.3705H18.71V70.4058H18.2529V67.3399H18.2135L16.9524 70.4058H16.5111L15.2501 67.3399H15.2106V70.4058H14.7535V66.3705ZM19.6898 70.4058V66.3705H22.1251V66.8039H20.1784V68.1674H21.999V68.6009H20.1784V69.9723H22.1567V70.4058H19.6898ZM23.0059 70.4058V66.3705H24.3694C24.6846 66.3705 24.9434 66.4243 25.1457 66.532C25.348 66.6384 25.4977 66.7849 25.5949 66.9714C25.6921 67.158 25.7407 67.3701 25.7407 67.6078C25.7407 67.8456 25.6921 68.0564 25.5949 68.2403C25.4977 68.4242 25.3486 68.5687 25.1477 68.6738C24.9467 68.7776 24.6899 68.8295 24.3773 68.8295H23.2739V68.3881H24.3615C24.5769 68.3881 24.7503 68.3566 24.8817 68.2935C25.0143 68.2305 25.1102 68.1412 25.1693 68.0256C25.2298 67.9087 25.26 67.7694 25.26 67.6078C25.26 67.4463 25.2298 67.3051 25.1693 67.1842C25.1089 67.0634 25.0124 66.9701 24.8797 66.9044C24.747 66.8374 24.5717 66.8039 24.3536 66.8039H23.4945V70.4058H23.0059ZM24.9053 68.593L25.8984 70.4058H25.3309L24.3536 68.593H24.9053ZM29.8022 67.6315H29.3135C29.2846 67.4909 29.234 67.3675 29.1618 67.2611C29.0909 67.1547 29.0042 67.0653 28.9017 66.9931C28.8006 66.9195 28.6882 66.8644 28.5648 66.8276C28.4413 66.7908 28.3126 66.7724 28.1786 66.7724C27.9343 66.7724 27.7129 66.8342 27.5146 66.9576C27.3175 67.0811 27.1606 67.263 27.0436 67.5034C26.9281 67.7438 26.8703 68.0387 26.8703 68.3881C26.8703 68.7375 26.9281 69.0324 27.0436 69.2728C27.1606 69.5132 27.3175 69.6951 27.5146 69.8186C27.7129 69.9421 27.9343 70.0038 28.1786 70.0038C28.3126 70.0038 28.4413 69.9854 28.5648 69.9486C28.6882 69.9119 28.8006 69.8573 28.9017 69.7851C29.0042 69.7115 29.0909 69.6216 29.1618 69.5152C29.234 69.4074 29.2846 69.284 29.3135 69.1447H29.8022C29.7654 69.351 29.6984 69.5355 29.6012 69.6984C29.504 69.8613 29.3831 69.9999 29.2386 70.1141C29.0941 70.2271 28.9319 70.3132 28.752 70.3723C28.5733 70.4314 28.3822 70.4609 28.1786 70.4609C27.8344 70.4609 27.5284 70.3769 27.2604 70.2087C26.9924 70.0406 26.7816 69.8015 26.6279 69.4915C26.4742 69.1815 26.3974 68.8137 26.3974 68.3881C26.3974 67.9625 26.4742 67.5947 26.6279 67.2847C26.7816 66.9747 26.9924 66.7356 27.2604 66.5675C27.5284 66.3994 27.8344 66.3153 28.1786 66.3153C28.3822 66.3153 28.5733 66.3448 28.752 66.404C28.9319 66.4631 29.0941 66.5498 29.2386 66.664C29.3831 66.777 29.504 66.9149 29.6012 67.0778C29.6984 67.2394 29.7654 67.4239 29.8022 67.6315ZM31.0804 66.3705V70.4058H30.5918V66.3705H31.0804ZM32.2257 70.4058H31.7134L33.1951 66.3705H33.6995L35.1812 70.4058H34.6689L33.4631 67.0089H33.4316L32.2257 70.4058ZM32.4148 68.8295H34.4798V69.263H32.4148V68.8295ZM35.8098 70.4058V66.3705H36.2984V69.9723H38.1742V70.4058H35.8098ZM40.4914 70.4058V66.3705H42.9267V66.8039H40.98V68.1674H42.8006V68.6009H40.98V69.9723H42.9582V70.4058H40.4914ZM47.0073 66.3705V70.4058H46.5345L44.3355 67.2374H44.2961V70.4058H43.8075V66.3705H44.2804L46.4872 69.5467H46.5266V66.3705H47.0073ZM47.7644 66.8039V66.3705H50.7909V66.8039H49.522V70.4058H49.0334V66.8039H47.7644ZM51.5451 70.4058V66.3705H53.9804V66.8039H52.0337V68.1674H53.8543V68.6009H52.0337V69.9723H54.012V70.4058H51.5451ZM54.8612 70.4058V66.3705H56.2247C56.5399 66.3705 56.7987 66.4243 57.001 66.532C57.2033 66.6384 57.353 66.7849 57.4503 66.9714C57.5475 67.158 57.5961 67.3701 57.5961 67.6078C57.5961 67.8456 57.5475 68.0564 57.4503 68.2403C57.353 68.4242 57.204 68.5687 57.003 68.6738C56.802 68.7776 56.5452 68.8295 56.2326 68.8295H55.1292V68.3881H56.2168C56.4322 68.3881 56.6056 68.3566 56.737 68.2935C56.8697 68.2305 56.9655 68.1412 57.0247 68.0256C57.0851 67.9087 57.1153 67.7694 57.1153 67.6078C57.1153 67.4463 57.0851 67.3051 57.0247 67.1842C56.9642 67.0634 56.8677 66.9701 56.735 66.9044C56.6023 66.8374 56.427 66.8039 56.2089 66.8039H55.3498V70.4058H54.8612ZM56.7606 68.593L57.7537 70.4058H57.1862L56.2089 68.593H56.7606ZM58.4103 70.4058V66.3705H59.7738C60.0904 66.3705 60.3491 66.4276 60.5501 66.5419C60.7524 66.6549 60.9022 66.8079 60.9994 67.001C61.0966 67.1941 61.1452 67.4095 61.1452 67.6473C61.1452 67.885 61.0966 68.1011 60.9994 68.2955C60.9035 68.4899 60.755 68.6449 60.5541 68.7605C60.3531 68.8748 60.0956 68.9319 59.7817 68.9319H58.8044V68.4985H59.7659C59.9827 68.4985 60.1567 68.461 60.2881 68.3861C60.4194 68.3113 60.5147 68.2101 60.5738 68.0827C60.6342 67.954 60.6644 67.8088 60.6644 67.6473C60.6644 67.4857 60.6342 67.3412 60.5738 67.2138C60.5147 67.0864 60.4188 66.9865 60.2861 66.9143C60.1534 66.8407 59.9774 66.8039 59.758 66.8039H58.899V70.4058H58.4103ZM61.9323 70.4058V66.3705H63.2958C63.6111 66.3705 63.8698 66.4243 64.0721 66.532C64.2744 66.6384 64.4242 66.7849 64.5214 66.9714C64.6186 67.158 64.6672 67.3701 64.6672 67.6078C64.6672 67.8456 64.6186 68.0564 64.5214 68.2403C64.4242 68.4242 64.2751 68.5687 64.0741 68.6738C63.8731 68.7776 63.6163 68.8295 63.3037 68.8295H62.2003V68.3881H63.2879C63.5034 68.3881 63.6768 68.3566 63.8081 68.2935C63.9408 68.2305 64.0367 68.1412 64.0958 68.0256C64.1562 67.9087 64.1864 67.7694 64.1864 67.6078C64.1864 67.4463 64.1562 67.3051 64.0958 67.1842C64.0354 67.0634 63.9388 66.9701 63.8061 66.9044C63.6735 66.8374 63.4981 66.8039 63.2801 66.8039H62.421V70.4058H61.9323ZM63.8318 68.593L64.8248 70.4058H64.2574L63.2801 68.593H63.8318ZM65.9701 66.3705V70.4058H65.4814V66.3705H65.9701ZM69.1566 67.3793C69.133 67.1796 69.0371 67.0246 68.869 66.9143C68.7008 66.8039 68.4946 66.7488 68.2503 66.7488C68.0716 66.7488 67.9153 66.7777 67.7813 66.8355C67.6487 66.8933 67.5449 66.9727 67.47 67.0739C67.3965 67.175 67.3597 67.29 67.3597 67.4187C67.3597 67.5264 67.3853 67.619 67.4365 67.6965C67.4891 67.7727 67.5561 67.8364 67.6375 67.8876C67.7189 67.9376 67.8043 67.9789 67.8936 68.0118C67.983 68.0433 68.0651 68.0689 68.1399 68.0886L68.5498 68.199C68.6549 68.2265 68.7718 68.2646 68.9005 68.3132C69.0305 68.3618 69.1547 68.4282 69.2729 68.5122C69.3924 68.595 69.491 68.7014 69.5685 68.8314C69.646 68.9615 69.6847 69.1211 69.6847 69.3102C69.6847 69.5283 69.6276 69.7253 69.5133 69.9013C69.4003 70.0774 69.2348 70.2173 69.0168 70.321C68.8 70.4248 68.5366 70.4767 68.2266 70.4767C67.9377 70.4767 67.6874 70.4301 67.4759 70.3368C67.2658 70.2435 67.1003 70.1135 66.9794 69.9467C66.8599 69.7798 66.7922 69.5861 66.7765 69.3654H67.2809C67.294 69.5178 67.3452 69.6439 67.4346 69.7437C67.5252 69.8422 67.6395 69.9158 67.7774 69.9644C67.9166 70.0117 68.0664 70.0353 68.2266 70.0353C68.4132 70.0353 68.5806 70.0051 68.7291 69.9447C68.8775 69.883 68.9951 69.7976 69.0818 69.6886C69.1685 69.5782 69.2118 69.4495 69.2118 69.3024C69.2118 69.1684 69.1744 69.0593 69.0995 68.9753C69.0246 68.8912 68.9261 68.8229 68.804 68.7704C68.6818 68.7178 68.5498 68.6718 68.4079 68.6324L67.9114 68.4906C67.5961 68.3999 67.3465 68.2705 67.1626 68.1024C66.9787 67.9343 66.8868 67.7142 66.8868 67.4423C66.8868 67.2164 66.9479 67.0194 67.07 66.8512C67.1935 66.6818 67.359 66.5504 67.5666 66.4572C67.7754 66.3626 68.0086 66.3153 68.266 66.3153C68.5261 66.3153 68.7573 66.3619 68.9596 66.4552C69.1619 66.5471 69.3222 66.6732 69.4404 66.8335C69.5599 66.9938 69.623 67.1757 69.6295 67.3793H69.1566ZM70.4881 70.4058V66.3705H72.9235V66.8039H70.9768V68.1674H72.7974V68.6009H70.9768V69.9723H72.955V70.4058H70.4881ZM74.4348 69.8541L74.4032 70.0669C74.3809 70.2166 74.3467 70.3769 74.3008 70.5476C74.2561 70.7184 74.2095 70.8793 74.1609 71.0304C74.1123 71.1814 74.0722 71.3016 74.0407 71.3909H73.686C73.7031 71.3069 73.7254 71.1959 73.753 71.058C73.7806 70.92 73.8082 70.7657 73.8358 70.5949C73.8647 70.4255 73.8883 70.2521 73.9067 70.0747L73.9303 69.8541H74.4348ZM76.9199 70.4058V66.3705H77.4085V69.9723H79.2843V70.4058H76.9199ZM80.0409 70.4058V66.3705H80.5296V69.9723H82.4054V70.4058H80.0409ZM86.252 67.6315H85.7633C85.7344 67.4909 85.6839 67.3675 85.6116 67.2611C85.5407 67.1547 85.454 67.0653 85.3515 66.9931C85.2504 66.9195 85.1381 66.8644 85.0146 66.8276C84.8911 66.7908 84.7624 66.7724 84.6284 66.7724C84.3841 66.7724 84.1628 66.8342 83.9644 66.9576C83.7674 67.0811 83.6104 67.263 83.4935 67.5034C83.3779 67.7438 83.3201 68.0387 83.3201 68.3881C83.3201 68.7375 83.3779 69.0324 83.4935 69.2728C83.6104 69.5132 83.7674 69.6951 83.9644 69.8186C84.1628 69.9421 84.3841 70.0038 84.6284 70.0038C84.7624 70.0038 84.8911 69.9854 85.0146 69.9486C85.1381 69.9119 85.2504 69.8573 85.3515 69.7851C85.454 69.7115 85.5407 69.6216 85.6116 69.5152C85.6839 69.4074 85.7344 69.284 85.7633 69.1447H86.252C86.2152 69.351 86.1482 69.5355 86.051 69.6984C85.9538 69.8613 85.833 69.9999 85.6885 70.1141C85.544 70.2271 85.3818 70.3132 85.2018 70.3723C85.0231 70.4314 84.832 70.4609 84.6284 70.4609C84.2843 70.4609 83.9782 70.3769 83.7102 70.2087C83.4423 70.0406 83.2314 69.8015 83.0777 69.4915C82.9241 69.1815 82.8472 68.8137 82.8472 68.3881C82.8472 67.9625 82.9241 67.5947 83.0777 67.2847C83.2314 66.9747 83.4423 66.7356 83.7102 66.5675C83.9782 66.3994 84.2843 66.3153 84.6284 66.3153C84.832 66.3153 85.0231 66.3448 85.2018 66.404C85.3818 66.4631 85.544 66.5498 85.6885 66.664C85.833 66.777 85.9538 66.9149 86.051 67.0778C86.1482 67.2394 86.2152 67.4239 86.252 67.6315Z" fill="white"/>
<path d="M129.865 49.977C129.865 50.6324 130.198 51.0996 130.715 51.3581C130.881 51.4411 131.06 51.4879 131.24 51.5007H131.447C131.806 51.4756 132.159 51.3204 132.427 51.0551L132.588 50.8574C132.754 50.607 132.843 50.3319 132.853 50.0561V49.9525C132.843 49.6875 132.76 49.4243 132.6 49.1842C132.549 49.1079 132.503 49.0433 132.437 48.9785C132.185 48.7293 131.821 48.523 131.429 48.523C131.104 48.523 130.862 48.5657 130.596 48.7262C130.324 48.891 130.146 49.0984 130.001 49.386C129.928 49.5308 129.865 49.7631 129.865 49.977Z" stroke="white" stroke-width="0.245989" stroke-miterlimit="2.61313"/>
<path d="M120.622 47.4236V45.6224H121.231C121.372 45.6224 121.487 45.6464 121.578 45.6945C121.668 45.742 121.735 45.8074 121.778 45.8906C121.821 45.9739 121.843 46.0686 121.843 46.1747C121.843 46.2808 121.821 46.3749 121.778 46.457C121.735 46.5391 121.668 46.6036 121.578 46.6505C121.489 46.6968 121.374 46.72 121.235 46.72H120.742V46.523H121.227C121.324 46.523 121.401 46.5089 121.46 46.4808C121.519 46.4526 121.562 46.4128 121.588 46.3612C121.615 46.309 121.629 46.2468 121.629 46.1747C121.629 46.1026 121.615 46.0396 121.588 45.9856C121.561 45.9317 121.518 45.8901 121.459 45.8607C121.4 45.8308 121.321 45.8159 121.224 45.8159H120.841V47.4236H120.622ZM121.47 46.6145L121.913 47.4236H121.66L121.224 46.6145H121.47Z" fill="white"/>
</g>
<defs>
<filter id="filter0_d_108_7235" x="-2.60352" y="0.610107" width="140" height="78.7808" filterUnits="userSpaceOnUse" color-interpolation-filters="sRGB">
<feFlood flood-opacity="0" result="BackgroundImageFix"/>
<feColorMatrix in="SourceAlpha" type="matrix" values="0 0 0 0 0 0 0 0 0 0 0 0 0 0 0 0 0 0 127 0" result="hardAlpha"/>
<feOffset dy="4"/>
<feGaussianBlur stdDeviation="2"/>
<feComposite in2="hardAlpha" operator="out"/>
<feColorMatrix type="matrix" values="0 0 0 0 0 0 0 0 0 0 0 0 0 0 0 0 0 0 0.25 0"/>
<feBlend mode="normal" in2="BackgroundImageFix" result="effect1_dropShadow_108_7235"/>
<feBlend mode="normal" in="SourceGraphic" in2="effect1_dropShadow_108_7235" result="shape"/>
</filter>
</defs>
</svg>
